<?xml version="1.0" encoding="UTF-8" standalone="no"?>
<!DOCTYPE svg PUBLIC "-//W3C//DTD SVG 1.1//EN"
 "http://www.w3.org/Graphics/SVG/1.1/DTD/svg11.dtd">
<!-- Generated by graphviz version 13.1.2 (0)
 -->
<!-- Pages: 1 -->
<svg width="635pt" height="682pt"
 viewBox="0.00 0.00 635.00 682.00" xmlns="http://www.w3.org/2000/svg" xmlns:xlink="http://www.w3.org/1999/xlink">
<g id="graph0" class="graph" transform="scale(1 1) rotate(0) translate(4 678)">
<polygon fill="white" stroke="none" points="-4,4 -4,-678 631.2,-678 631.2,4 -4,4"/>
<!-- Start -->
<g id="node1" class="node">
<title>Start</title>
<path fill="#275a4b" stroke="#3fa687" stroke-width="2" d="M132.6,-637.5C132.6,-637.5 162.6,-637.5 162.6,-637.5 168.6,-637.5 174.6,-643.5 174.6,-649.5 174.6,-649.5 174.6,-661.5 174.6,-661.5 174.6,-667.5 168.6,-673.5 162.6,-673.5 162.6,-673.5 132.6,-673.5 132.6,-673.5 126.6,-673.5 120.6,-667.5 120.6,-661.5 120.6,-661.5 120.6,-649.5 120.6,-649.5 120.6,-643.5 126.6,-637.5 132.6,-637.5"/>
<text xml:space="preserve" text-anchor="middle" x="147.35" y="-651.95" font-family="sans-serif" font-size="14.00" fill="white">Start</text>
</g>
<!-- IfCPU -->
<g id="node3" class="node">
<title>IfCPU</title>
<g id="a_node3"><a xlink:title="CPU/MCU already ported?">
<polygon fill="#275a4b" stroke="#3fa687" stroke-width="2" points="147.6,-600 0,-553 147.6,-506 295.2,-553 147.6,-600"/>
<text xml:space="preserve" text-anchor="start" x="114.97" y="-559.2" font-family="sans-serif" font-size="14.00" fill="white">CPU/MCU</text>
<text xml:space="preserve" text-anchor="start" x="96.6" y="-539.7" font-family="sans-serif" font-size="14.00" fill="white">already ported?</text>
</a>
</g>
</g>
<!-- Start&#45;&gt;IfCPU -->
<g id="edge1" class="edge">
<title>Start&#45;&gt;IfCPU</title>
<path fill="none" stroke="#3fa687" stroke-width="2" d="M147.6,-636.53C147.6,-629.86 147.6,-621.87 147.6,-613.52"/>
<polygon fill="#3fa687" stroke="#3fa687" stroke-width="2" points="151.1,-613.74 147.6,-603.74 144.1,-613.74 151.1,-613.74"/>
</g>
<!-- End -->
<g id="node2" class="node">
<title>End</title>
<g id="a_node2"><a xlink:href="https://github.com/RIOT-OS/RIOT/tree/master/tests/leds" xlink:title="Blink the LEDs">
<path fill="#275a4b" stroke="#3fa687" stroke-width="2" d="M178,-0.5C178,-0.5 449.2,-0.5 449.2,-0.5 455.2,-0.5 461.2,-6.5 461.2,-12.5 461.2,-12.5 461.2,-24.5 461.2,-24.5 461.2,-30.5 455.2,-36.5 449.2,-36.5 449.2,-36.5 178,-36.5 178,-36.5 172,-36.5 166,-30.5 166,-24.5 166,-24.5 166,-12.5 166,-12.5 166,-6.5 172,-0.5 178,-0.5"/>
<text xml:space="preserve" text-anchor="middle" x="313.12" y="-14.95" font-family="sans-serif" font-size="14.00" fill="white">Blink the LEDs</text>
</a>
</g>
</g>
<!-- IfBoard -->
<g id="node4" class="node">
<title>IfBoard</title>
<g id="a_node4"><a xlink:title="Board definitions already provided?">
<polygon fill="#275a4b" stroke="#3fa687" stroke-width="2" points="147.6,-469 0,-422 147.6,-375 295.2,-422 147.6,-469"/>
<text xml:space="preserve" text-anchor="start" x="91.35" y="-428.2" font-family="sans-serif" font-size="14.00" fill="white">Board definitions</text>
<text xml:space="preserve" text-anchor="start" x="90.22" y="-408.7" font-family="sans-serif" font-size="14.00" fill="white">already provided?</text>
</a>
</g>
</g>
<!-- IfCPU&#45;&gt;IfBoard -->
<g id="edge2" class="edge">
<title>IfCPU&#45;&gt;IfBoard</title>
<path fill="none" stroke="#3fa687" stroke-width="2" d="M147.6,-505.06C147.6,-497.77 147.6,-490.15 147.6,-482.62"/>
<polygon fill="#3fa687" stroke="#3fa687" stroke-width="2" points="151.1,-482.71 147.6,-472.71 144.1,-482.71 151.1,-482.71"/>
<text xml:space="preserve" text-anchor="middle" x="158.85" y="-483.95" font-family="sans-serif" font-size="14.00" fill="#275a4b">Yes</text>
</g>
<!-- PortCPU -->
<g id="node7" class="node">
<title>PortCPU</title>
<g id="a_node7"><a xlink:title="Port CPU">
<polygon fill="#275a4b" stroke="#3fa687" stroke-width="2" points="627.2,-571 332,-571 332,-535 627.2,-535 627.2,-571"/>
<text xml:space="preserve" text-anchor="start" x="449.6" y="-554.7" font-family="sans-serif" font-size="14.00" fill="white">Port </text>
<text xml:space="preserve" text-anchor="start" x="481.1" y="-554.7" font-family="sans-serif" font-weight="bold" font-size="14.00" fill="white">CPU</text>
<text xml:space="preserve" text-anchor="start" x="412.85" y="-540.7" font-family="sans-serif" font-size="14.00" fill="white">(TBD: provide guide)</text>
</a>
</g>
</g>
<!-- IfCPU&#45;&gt;PortCPU -->
<g id="edge6" class="edge">
<title>IfCPU&#45;&gt;PortCPU</title>
<path fill="none" stroke="#3fa687" stroke-width="2" d="M298.06,-553C304.75,-553 311.47,-553 318.19,-553"/>
<polygon fill="#3fa687" stroke="#3fa687" stroke-width="2" points="318.05,-556.5 328.05,-553 318.05,-549.5 318.05,-556.5"/>
<text xml:space="preserve" text-anchor="middle" x="313.6" y="-562.2" font-family="sans-serif" font-size="14.00" fill="#275a4b">No</text>
</g>
<!-- IfDrivers -->
<g id="node5" class="node">
<title>IfDrivers</title>
<g id="a_node5"><a xlink:title="All on&#45;board devices supported?">
<polygon fill="#275a4b" stroke="#3fa687" stroke-width="2" points="147.6,-338 0,-291 147.6,-244 295.2,-291 147.6,-338"/>
<text xml:space="preserve" text-anchor="start" x="107.85" y="-297.2" font-family="sans-serif" font-size="14.00" fill="white">All on&#45;board</text>
<text xml:space="preserve" text-anchor="start" x="84.6" y="-277.7" font-family="sans-serif" font-size="14.00" fill="white">devices supported?</text>
</a>
</g>
</g>
<!-- IfBoard&#45;&gt;IfDrivers -->
<g id="edge3" class="edge">
<title>IfBoard&#45;&gt;IfDrivers</title>
<path fill="none" stroke="#3fa687" stroke-width="2" d="M147.6,-374.06C147.6,-366.77 147.6,-359.15 147.6,-351.62"/>
<polygon fill="#3fa687" stroke="#3fa687" stroke-width="2" points="151.1,-351.71 147.6,-341.71 144.1,-351.71 151.1,-351.71"/>
<text xml:space="preserve" text-anchor="middle" x="158.85" y="-352.95" font-family="sans-serif" font-size="14.00" fill="#275a4b">Yes</text>
</g>
<!-- PortBoard -->
<g id="node8" class="node">
<title>PortBoard</title>
<g id="a_node8"><a xlink:href="@ref porting-boards" xlink:title="Provide board definitions">
<polygon fill="#275a4b" stroke="#3fa687" stroke-width="2" points="627.2,-440 332,-440 332,-404 627.2,-404 627.2,-440"/>
<text xml:space="preserve" text-anchor="start" x="455.23" y="-423.7" font-family="sans-serif" font-size="14.00" fill="white">Provide</text>
<text xml:space="preserve" text-anchor="start" x="419.23" y="-409.7" font-family="sans-serif" font-weight="bold" font-size="14.00" fill="white">board definitions</text>
</a>
</g>
</g>
<!-- IfBoard&#45;&gt;PortBoard -->
<g id="edge7" class="edge">
<title>IfBoard&#45;&gt;PortBoard</title>
<path fill="none" stroke="#3fa687" stroke-width="2" d="M298.06,-422C304.75,-422 311.47,-422 318.19,-422"/>
<polygon fill="#3fa687" stroke="#3fa687" stroke-width="2" points="318.05,-425.5 328.05,-422 318.05,-418.5 318.05,-425.5"/>
<text xml:space="preserve" text-anchor="middle" x="313.6" y="-431.2" font-family="sans-serif" font-size="14.00" fill="#275a4b">No</text>
</g>
<!-- IfNetdev -->
<g id="node6" class="node">
<title>IfNetdev</title>
<g id="a_node6"><a xlink:title="Network device supported by network stack?">
<polygon fill="#275a4b" stroke="#3fa687" stroke-width="2" points="147.6,-207 0,-140.5 147.6,-74 295.2,-140.5 147.6,-207"/>
<text xml:space="preserve" text-anchor="start" x="96.6" y="-156.45" font-family="sans-serif" font-size="14.00" fill="white">Network device</text>
<text xml:space="preserve" text-anchor="start" x="103.72" y="-136.95" font-family="sans-serif" font-size="14.00" fill="white">supported by</text>
<text xml:space="preserve" text-anchor="start" x="98.1" y="-117.45" font-family="sans-serif" font-size="14.00" fill="white">network stack?</text>
</a>
</g>
</g>
<!-- IfDrivers&#45;&gt;IfNetdev -->
<g id="edge4" class="edge">
<title>IfDrivers&#45;&gt;IfNetdev</title>
<path fill="none" stroke="#3fa687" stroke-width="2" d="M147.6,-243.01C147.6,-235.88 147.6,-228.36 147.6,-220.77"/>
<polygon fill="#3fa687" stroke="#3fa687" stroke-width="2" points="151.1,-221.01 147.6,-211.01 144.1,-221.01 151.1,-221.01"/>
<text xml:space="preserve" text-anchor="middle" x="158.85" y="-221.95" font-family="sans-serif" font-size="14.00" fill="#275a4b">Yes</text>
</g>
<!-- PortDrivers -->
<g id="node9" class="node">
<title>PortDrivers</title>
<g id="a_node9"><a xlink:href="@ref driver-guide" xlink:title="Provide device drivers">
<polygon fill="#275a4b" stroke="#3fa687" stroke-width="2" points="627.2,-309 332,-309 332,-273 627.2,-273 627.2,-309"/>
<text xml:space="preserve" text-anchor="start" x="455.23" y="-292.7" font-family="sans-serif" font-size="14.00" fill="white">Provide</text>
<text xml:space="preserve" text-anchor="start" x="430.48" y="-278.7" font-family="sans-serif" font-weight="bold" font-size="14.00" fill="white">device drivers</text>
</a>
</g>
</g>
<!-- IfDrivers&#45;&gt;PortDrivers -->
<g id="edge8" class="edge">
<title>IfDrivers&#45;&gt;PortDrivers</title>
<path fill="none" stroke="#3fa687" stroke-width="2" d="M298.06,-291C304.75,-291 311.47,-291 318.19,-291"/>
<polygon fill="#3fa687" stroke="#3fa687" stroke-width="2" points="318.05,-294.5 328.05,-291 318.05,-287.5 318.05,-294.5"/>
<text xml:space="preserve" text-anchor="middle" x="313.6" y="-300.2" font-family="sans-serif" font-size="14.00" fill="#275a4b">No</text>
</g>
<!-- IfNetdev&#45;&gt;End -->
<g id="edge5" class="edge">
<title>IfNetdev&#45;&gt;End</title>
<path fill="none" stroke="#3fa687" stroke-width="2" d="M204.26,-98.54C228.85,-80.76 256.88,-60.5 278.4,-44.95"/>
<polygon fill="#3fa687" stroke="#3fa687" stroke-width="2" points="280.19,-47.97 286.25,-39.27 276.09,-42.29 280.19,-47.97"/>
<text xml:space="preserve" text-anchor="middle" x="274.65" y="-51.95" font-family="sans-serif" font-size="14.00" fill="#275a4b">Yes</text>
</g>
<!-- PortNetdev -->
<g id="node10" class="node">
<title>PortNetdev</title>
<g id="a_node10"><a xlink:href="@ref drivers_netdev" xlink:title="Provide network device support for network stack">
<polygon fill="#275a4b" stroke="#3fa687" stroke-width="2" points="627.2,-158.5 332,-158.5 332,-122.5 627.2,-122.5 627.2,-158.5"/>
<text xml:space="preserve" text-anchor="start" x="369.73" y="-142.2" font-family="sans-serif" font-size="14.00" fill="white">Provide </text>
<text xml:space="preserve" text-anchor="start" x="422.23" y="-142.2" font-family="sans-serif" font-weight="bold" font-size="14.00" fill="white">network device support</text>
<text xml:space="preserve" text-anchor="start" x="421.85" y="-128.2" font-family="sans-serif" font-size="14.00" fill="white">for network stack</text>
</a>
</g>
</g>
<!-- IfNetdev&#45;&gt;PortNetdev -->
<g id="edge9" class="edge">
<title>IfNetdev&#45;&gt;PortNetdev</title>
<path fill="none" stroke="#3fa687" stroke-width="2" d="M297.57,-140.5C304.47,-140.5 311.4,-140.5 318.32,-140.5"/>
<polygon fill="#3fa687" stroke="#3fa687" stroke-width="2" points="318.14,-144 328.14,-140.5 318.14,-137 318.14,-144"/>
<text xml:space="preserve" text-anchor="middle" x="313.6" y="-149.7" font-family="sans-serif" font-size="14.00" fill="#275a4b">No</text>
</g>
<!-- PortCPU&#45;&gt;IfBoard -->
<g id="edge10" class="edge">
<title>PortCPU&#45;&gt;IfBoard</title>
<path fill="none" stroke="#3fa687" stroke-width="2" d="M433.44,-534.06C379.76,-513.21 290.3,-478.45 225.74,-453.36"/>
<polygon fill="#3fa687" stroke="#3fa687" stroke-width="2" points="227.4,-450.25 216.81,-449.89 224.86,-456.78 227.4,-450.25"/>
</g>
<!-- PortCPU&#45;&gt;PortBoard -->
<!-- PortBoard&#45;&gt;IfDrivers -->
<g id="edge11" class="edge">
<title>PortBoard&#45;&gt;IfDrivers</title>
<path fill="none" stroke="#3fa687" stroke-width="2" d="M433.44,-403.06C379.76,-382.21 290.3,-347.45 225.74,-322.36"/>
<polygon fill="#3fa687" stroke="#3fa687" stroke-width="2" points="227.4,-319.25 216.81,-318.89 224.86,-325.78 227.4,-319.25"/>
</g>
<!-- PortBoard&#45;&gt;PortDrivers -->
<!-- PortDrivers&#45;&gt;IfNetdev -->
<g id="edge12" class="edge">
<title>PortDrivers&#45;&gt;IfNetdev</title>
<path fill="none" stroke="#3fa687" stroke-width="2" d="M439.55,-272.09C388.71,-249.35 299.63,-209.5 233.19,-179.79"/>
<polygon fill="#3fa687" stroke="#3fa687" stroke-width="2" points="234.81,-176.67 224.25,-175.78 231.95,-183.06 234.81,-176.67"/>
</g>
<!-- PortDrivers&#45;&gt;PortNetdev -->
<!-- PortNetdev&#45;&gt;End -->
<g id="edge13" class="edge">
<title>PortNetdev&#45;&gt;End</title>
<path fill="none" stroke="#3fa687" stroke-width="2" d="M454.75,-121.53C426.55,-101.15 380.36,-67.76 348.54,-44.76"/>
<polygon fill="#3fa687" stroke="#3fa687" stroke-width="2" points="350.96,-42.19 340.8,-39.17 346.86,-47.86 350.96,-42.19"/>
</g>
</g>
</svg>
