<?xml version="1.0" encoding="UTF-8" standalone="no"?>
<!-- Created with Inkscape (http://www.inkscape.org/) -->

<svg
   xmlns:dc="http://purl.org/dc/elements/1.1/"
   xmlns:cc="http://creativecommons.org/ns#"
   xmlns:rdf="http://www.w3.org/1999/02/22-rdf-syntax-ns#"
   xmlns:svg="http://www.w3.org/2000/svg"
   xmlns="http://www.w3.org/2000/svg"
   xmlns:sodipodi="http://sodipodi.sourceforge.net/DTD/sodipodi-0.dtd"
   xmlns:inkscape="http://www.inkscape.org/namespaces/inkscape"
   width="744.09448819"
   height="1052.3622047"
   id="svg2"
   version="1.1"
   inkscape:version="0.48.5 r10040"
   sodipodi:docname="otter.svg">
  <defs
     id="defs4">
    <clipPath
       clipPathUnits="userSpaceOnUse"
       id="clipPath3256">
      <path
         inkscape:connector-curvature="0"
         d="M 0,600 600,600 600,0 0,0 0,600 z"
         id="path3258" />
    </clipPath>
  </defs>
  <sodipodi:namedview
     id="base"
     pagecolor="#ffffff"
     bordercolor="#666666"
     borderopacity="1.0"
     inkscape:pageopacity="0.0"
     inkscape:pageshadow="2"
     inkscape:zoom="1.4"
     inkscape:cx="333.67655"
     inkscape:cy="474.50506"
     inkscape:document-units="px"
     inkscape:current-layer="layer1"
     showgrid="false"
     inkscape:window-width="1680"
     inkscape:window-height="1050"
     inkscape:window-x="0"
     inkscape:window-y="0"
     inkscape:window-maximized="0" />
  <metadata
     id="metadata7">
    <rdf:RDF>
      <cc:Work
         rdf:about="">
        <dc:format>image/svg+xml</dc:format>
        <dc:type
           rdf:resource="http://purl.org/dc/dcmitype/StillImage" />
        <dc:title />
      </cc:Work>
    </rdf:RDF>
  </metadata>
  <g
     inkscape:label="Layer 1"
     inkscape:groupmode="layer"
     id="layer1">
    <g
       id="g3218"
       transform="matrix(0.12672883,0,0,0.12672883,537.26463,551.71927)"
       inkscape:export-filename="/home/lo/path3146.png"
       inkscape:export-xdpi="90"
       inkscape:export-ydpi="90">
      <g
         transform="translate(-170.83684,-90.324556)"
         id="g3212">
        <path
           inkscape:connector-curvature="0"
           id="path3216"
           d="m 73.08668,1076.4216 c -35.66219,-5.9956 -65.10896,-27.915 -78.235486,-58.2362 -19.914969,-46.00208 -7.327992,-104.19222 30.097886,-139.14387 17.65898,-16.49154 40.88216,-28.13436 65.2109,-32.69316 11.61371,-2.17622 18.10104,-1.56502 23.47456,2.21163 6.59808,4.63731 8.86159,9.42052 8.50046,17.96306 -0.52471,12.41202 -5.77636,17.38507 -22.17778,21.0013 -27.10627,5.97645 -46.56543,19.03629 -58.63498,39.35234 -17.2863,29.09716 -15.46563,68.16941 4.10263,88.0439 23.59339,23.9625 67.29972,23.8007 91.35626,-0.3381 11.82297,-11.8635 18.28461,-26.81795 20.5728,-47.61256 0.90349,-8.21076 0.59054,-18.13785 -1.92835,-61.16907 -5.71885,-97.69733 -6.82123,-146.0991 -3.69373,-162.17963 9.08917,-46.73347 48.56393,-85.9505 96.90082,-96.26817 58.05783,-12.39264 111.77594,24.53761 123.18636,84.68845 2.1467,11.31649 1.97824,30.1358 -0.37169,41.52233 -6.45961,31.2999 -27.6374,60.06801 -60.03841,81.55675 -18.81337,12.47725 -44.47156,23.40851 -57.58721,24.5341 -19.01358,1.63176 -32.41124,-18.39373 -23.82866,-35.61671 3.51838,-7.06048 8.074,-10.143 21.53696,-14.57277 32.27896,-10.62088 58.57689,-32.11324 68.56043,-56.03199 8.86924,-21.24912 3.36441,-47.8285 -13.41414,-64.76848 -10.21742,-10.31573 -20.96904,-14.73152 -35.86848,-14.73152 -29.29598,0 -58.80777,21.37783 -69.25261,50.1654 -2.56071,7.05772 -2.67451,8.25946 -3.01442,31.8346 -0.40486,28.07907 0.91743,71.17516 3.92735,128 3.08388,58.22112 2.17164,75.26993 -5.24372,97.99997 -11.08416,33.976 -37.92371,60.5979 -71.57064,70.9904 -15.61871,4.8241 -36.43892,6.2096 -52.56711,3.498 z m 248.42971,-21.0579 c -3.01984,-1.5268 -6.50561,-4.3075 -8.01962,-6.3975 -1.47291,-2.0334 -14.55231,-26.095 -29.06533,-53.47034 -28.14791,-53.09435 -28.82406,-54.72827 -26.08364,-63.03182 5.59396,-16.94986 28.2914,-19.44979 38.31033,-4.21956 9.09824,13.83065 58.17573,93.61822 59.44858,96.64832 2.3972,5.7068 1.3276,15.7651 -2.30048,21.6334 -4.44063,7.1825 -10.83763,10.7952 -19.85087,11.2108 -6.11225,0.2819 -7.83882,-0.048 -12.43897,-2.3733 z m 112.292,-0.8371 c -4.06285,-1.7696 -8.15648,-6.788 -9.44718,-11.5813 -0.70864,-2.6317 -0.9607,-36.7911 -0.7763,-105.20456 l 0.27306,-101.30751 2.30041,-3.69959 c 5.90008,-9.48872 17.82125,-11.09073 26.06482,-3.50268 5.32315,4.89985 5.13477,0.82918 5.13477,110.95826 l 0,102.32028 -2.25,4.4618 c -3.7691,7.4744 -13.53354,10.938 -21.29958,7.5553 z m 123.66561,-0.5747 c -20.56196,-5.5593 -36.30158,-21.631 -41.601,-42.4788 -1.27686,-5.0231 -1.51503,-16.19883 -1.51503,-71.09001 0,-61.6168 0.1067,-65.54714 1.97815,-72.86442 2.77012,-10.83109 6.31629,-16.90612 15.00149,-25.6994 11.90945,-12.05766 24.25807,-17.2617 41.02036,-17.28704 11.32985,-0.0171 20.25459,2.40895 29.86677,8.11892 13.3382,7.92334 24.58741,24.13993 27.08694,39.04785 0.78127,4.6597 1.03799,26.91196 0.83336,72.23423 -0.2923,64.74037 -0.3216,65.57627 -2.52664,72.07217 -5.80568,17.1031 -20.49116,31.7339 -37.1883,37.0497 -9.63485,3.0674 -23.52937,3.4455 -32.9561,0.8968 z m 25.77904,-33.9847 c 1.98271,-1.0223 5.04462,-3.3607 6.80425,-5.1963 6.51961,-6.8015 6.30068,-4.1959 6.30068,-74.98983 0,-63.07386 -0.0371,-64.29313 -2.08791,-68.52944 -4.11579,-8.50208 -12.36463,-13.3184 -22.81023,-13.3184 -6.40899,0 -10.70562,1.74379 -15.933,6.46641 -7.89881,7.1361 -7.66886,4.84124 -7.66886,76.53359 0,63.06057 0.0149,63.52777 2.14947,67.51307 6.77661,12.6521 21.29416,17.683 33.2456,11.5209 z m 137.15767,33.7426 c -3.04899,-1.6331 -5.17127,-3.7512 -6.75,-6.7366 l -2.30274,-4.3545 0,-91.84275 0,-91.84272 -15.4349,0 c -8.4892,0 -16.7017,-0.4776 -18.25,-1.06133 -4.32357,-1.63005 -9.23944,-6.94396 -10.3955,-11.23724 -1.94576,-7.22601 1.27992,-14.75919 7.91715,-18.48952 3.91383,-2.1997 4.20872,-2.21191 53.40152,-2.21191 l 49.46596,0 3.37409,2.2738 c 1.85575,1.25058 4.43712,3.83808 5.73638,5.75 1.97529,2.90671 2.29623,4.4204 1.95902,9.23964 -0.47002,6.71713 -2.62509,10.18631 -8.36774,13.47011 -3.58347,2.04913 -5.20641,2.23491 -19.65598,2.25 l -15.75,0.0164 -0.0239,89.75 c -0.0134,50.26035 -0.42414,91.47602 -0.93361,93.67262 -2.61844,11.2899 -14.02791,16.6898 -23.98979,11.354 z"
           style="fill:#3ea687" />
        <path
           inkscape:connector-curvature="0"
           id="path3214"
           d="m 73.08668,1076.4216 c -35.66219,-5.9956 -65.10896,-27.915 -78.235486,-58.2362 -19.914969,-46.00208 -7.327992,-104.19222 30.097886,-139.14387 17.65898,-16.49154 40.88216,-28.13436 65.2109,-32.69316 11.61371,-2.17622 18.10104,-1.56502 23.47456,2.21163 6.59808,4.63731 8.86159,9.42052 8.50046,17.96306 -0.52471,12.41202 -5.77636,17.38507 -22.17778,21.0013 -27.10627,5.97645 -46.56543,19.03629 -58.63498,39.35234 -17.2863,29.09716 -15.46563,68.16941 4.10263,88.0439 23.59339,23.9625 67.29972,23.8007 91.35626,-0.3381 11.82297,-11.8635 18.28461,-26.81795 20.5728,-47.61256 0.90349,-8.21076 0.59054,-18.13785 -1.92835,-61.16907 -5.71885,-97.69733 -6.82123,-146.0991 -3.69373,-162.17963 9.08917,-46.73347 48.56393,-85.9505 96.90082,-96.26817 58.05783,-12.39264 111.77594,24.53761 123.18636,84.68845 2.1467,11.31649 1.97824,30.1358 -0.37169,41.52233 -6.45961,31.2999 -27.6374,60.06801 -60.03841,81.55675 -18.81337,12.47725 -44.47156,23.40851 -57.58721,24.5341 -19.01358,1.63176 -32.41124,-18.39373 -23.82866,-35.61671 3.51838,-7.06048 8.074,-10.143 21.53696,-14.57277 32.27896,-10.62088 58.57689,-32.11324 68.56043,-56.03199 8.86924,-21.24912 3.36441,-47.8285 -13.41414,-64.76848 -10.21742,-10.31573 -20.96904,-14.73152 -35.86848,-14.73152 -29.29598,0 -58.80777,21.37783 -69.25261,50.1654 -2.56071,7.05772 -2.67451,8.25946 -3.01442,31.8346 -0.40486,28.07907 0.91743,71.17516 3.92735,128 3.08388,58.22112 2.17164,75.26993 -5.24372,97.99997 -11.08416,33.976 -37.92371,60.5979 -71.57064,70.9904 -15.61871,4.8241 -36.43892,6.2096 -52.56711,3.498 z m 248.42971,-21.0579 c -3.01984,-1.5268 -6.50561,-4.3075 -8.01962,-6.3975 -1.47291,-2.0334 -14.55231,-26.095 -29.06533,-53.47034 -28.14791,-53.09435 -28.82406,-54.72827 -26.08364,-63.03182 5.59396,-16.94986 28.2914,-19.44979 38.31033,-4.21956 9.09824,13.83065 58.17573,93.61822 59.44858,96.64832 2.3972,5.7068 1.3276,15.7651 -2.30048,21.6334 -4.44063,7.1825 -10.83763,10.7952 -19.85087,11.2108 -6.11225,0.2819 -7.83882,-0.048 -12.43897,-2.3733 z"
           style="fill:#bc1f2b" />
      </g>
    </g>
    <path
       style="fill:#000000"
       d="m 459.33836,694.10571 c -6.64481,-14.42782 -12.70811,-12.09947 -22.93829,-14.61696 -43.01515,-10.58527 -74.1398,7.31135 -84.49163,48.49817 -9.44476,-75.88564 71.35951,-74.711 91.77397,-75.99341 36.70462,-2.30568 58.51139,-35.99704 92.84939,-38.29281 43.86484,-2.93276 71.88156,25.70151 111.82621,23.8362 2.47492,-0.11365 12.2555,-3.86095 21.34472,-4.42803 19.34312,-1.20687 22.64195,-0.77188 33.65618,4.43786 9.19259,4.3481 26.15785,15.52528 27.94977,18.41403 1.18526,1.91077 1.1351,2.34457 -0.53062,4.59071 -2.17843,2.93746 -7.41623,6.10637 -12.39108,7.49669 -55.66357,-0.20007 -103.73503,8.30429 -99.02061,44.11662 1.32487,12.03453 -2.15097,15.75251 -3.43142,23.25621 -4.50777,2.71516 -6.12287,-7.27567 -5.98995,-13.3547 0.79645,-16.27132 -12.16066,-16.52282 -10.56511,-3.54147 5.82263,21.92569 15.56815,20.29973 13.63473,23.59827 -8.25037,2.20064 -17.26568,-2.17151 -20.90614,-10.4243 -2.70753,-6.13785 -4.48379,-17.63956 -13.80933,-27.62668 -28.48256,-30.50327 -73.28706,-10.1247 -55.47492,10.86567 7.53438,8.87875 12.07585,17.37358 6.45291,16.0899 -12.02063,-2.74423 -5.49202,-7.75264 -27.28207,-21.31586 -8.89309,-5.5355 -17.98026,11.75762 -15.85546,16.97244 2.2342,5.48328 8.1907,8.77071 11.66079,9.44563 1.44324,0.28071 4.91394,0.60854 7.30547,2.71228 2.39152,2.10375 -5.16928,4.7739 -21.32863,-0.531 -9.17734,-3.0128 -16.11084,-26.12281 -24.43888,-44.20546 z"
       id="path3146"
       inkscape:connector-curvature="0"
       sodipodi:nodetypes="sscsscssssccccccssssssszss"
       inkscape:export-xdpi="90"
       inkscape:export-ydpi="90" />
  </g>
</svg>
