<svg xmlns="http://www.w3.org/2000/svg" xmlns:xlink="http://www.w3.org/1999/xlink" xmlns:lucid="lucid" width="1860" height="1086.75"><g transform="translate(12.432432432432421 -40)" lucid:page-tab-id="0_0"><path d="M7.57 320h320v87.42h-320z" stroke="#000" stroke-width="2" fill="#fff"/><use xlink:href="#a" transform="matrix(1,0,0,1,12.567567567567579,325) translate(6.400000000000034 42.6)"/><path d="M93.78 451.13h147.57v87.4H93.78z" stroke="#000" stroke-width="2" fill="#fff"/><use xlink:href="#b" transform="matrix(1,0,0,1,98.78378378378378,456.12582781456956) translate(1.2249999999999943 31.799999999999997)"/><use xlink:href="#c" transform="matrix(1,0,0,1,98.78378378378378,456.12582781456956) translate(63.175 31.799999999999997)"/><use xlink:href="#d" transform="matrix(1,0,0,1,98.78378378378378,456.12582781456956) translate(89.125 31.799999999999997)"/><use xlink:href="#e" transform="matrix(1,0,0,1,98.78378378378378,456.12582781456956) translate(7.125 53.4)"/><use xlink:href="#f" transform="matrix(1,0,0,1,98.78378378378378,456.12582781456956) translate(70.975 53.4)"/><path d="M167.57 582.25l45.4 43.7-45.4 43.72-45.4-43.7z" stroke="#000" stroke-width="2" fill="#fff"/><use xlink:href="#g" transform="matrix(1,0,0,1,127.16216216216215,587.2516556291391) translate(4.549999999999997 42.6)"/><use xlink:href="#h" transform="matrix(1,0,0,1,127.16216216216215,587.2516556291391) translate(60.5 42.6)"/><path d="M167.57 408.42v23.47M167.57 408.42v-3" stroke="#000" stroke-width="2" fill="none"/><path d="M167.57 446.9l-4.64-14.28h9.27z" stroke="#000" stroke-width="2"/><path d="M167.57 539.54v23.1M167.57 539.54v-3" stroke="#000" stroke-width="2" fill="none"/><path d="M167.57 577.63l-4.64-14.27h9.27z" stroke="#000" stroke-width="2"/><path d="M394.5 596.82c14.08 0 25.5 13.05 25.5 29.14 0 16.1-11.42 29.14-25.5 29.14h-76.55c-14.1 0-25.52-13.05-25.52-29.14 0-16.1 11.43-29.14 25.52-29.14z" stroke="#000" stroke-width="2" fill="#fff"/><use xlink:href="#i" transform="matrix(1,0,0,1,297.4324324324324,601.8211920529802) translate(32.05 17.299999999999997)"/><use xlink:href="#j" transform="matrix(1,0,0,1,297.4324324324324,601.8211920529802) translate(2.1499999999999915 38.9)"/><path d="M241.45 626.96H214.4v-2h27.05zm31.75 0h-8.8v-2h8.8zM214.4 626.96h-3v-2h3zM288.2 625.96l-14.27 4.64v-9.28z"/><path d="M291.43 625.96l-18.5 6v-12zm-16.5 3.26l10.03-3.26-10.03-3.26z"/><use xlink:href="#k" transform="matrix(1,0,0,1,241.4486213527563,615.1602649006624) translate(0 14.4)"/><path d="M80 742.52h180v87.4H80z" stroke="#000" stroke-width="2" fill="#fff"/><use xlink:href="#l" transform="matrix(1,0,0,1,84.99999999999993,747.5165562913908) translate(1.5750000000000028 42.6)"/><path d="M171 723.28h-2v-6.2h2zm-2.43-27.8h-2v-24.42h2zM168.57 671.06h-2v-3h2zM170 738.28L165.36 724h9.28z"/><path d="M170 741.52l-6-18.5h12zm-3.26-16.5l3.26 10.02 3.26-10.03z"/><use xlink:href="#m" transform="matrix(1,0,0,1,154.10878378378374,695.4867357651373) translate(0 14.4)"/><path d="M170 873.64l45.4 43.7-45.4 43.72-45.4-43.7z" stroke="#000" stroke-width="2" fill="#fff"/><use xlink:href="#n" transform="matrix(1,0,0,1,129.59459459459453,878.6423841059604) translate(21.225 42.6)"/><path d="M170 830.93v23.1M170 830.93v-3" stroke="#000" stroke-width="2" fill="none"/><path d="M170 869.02l-4.64-14.27h9.28z" stroke="#000" stroke-width="2"/><path d="M171 1029.24h-2v-13.48h2zm0-35.08h-2v-31.7h2zM171 962.45h-2v-3h2zM170 1044.24l-4.64-14.27h9.28z"/><path d="M170 1047.48l-6-18.5h12zm-3.26-16.5L170 1041l3.26-10.03z"/><use xlink:href="#m" transform="matrix(1,0,0,1,155.32499999999993,994.1622324538789) translate(0 14.4)"/><path d="M224 1048.48c19.88 0 36 13.04 36 29.14s-16.12 29.13-36 29.13H116c-19.88 0-36-13.04-36-29.13 0-16.1 16.12-29.14 36-29.14z" stroke="#000" stroke-width="2" fill="#fff"/><use xlink:href="#o" transform="matrix(1,0,0,1,84.99999999999994,1053.4768211920527) translate(36.525 17.299999999999997)"/><use xlink:href="#p" transform="matrix(1,0,0,1,84.99999999999994,1053.4768211920527) translate(70.525 17.299999999999997)"/><use xlink:href="#q" transform="matrix(1,0,0,1,84.99999999999994,1053.4768211920527) translate(118.475 17.299999999999997)"/><use xlink:href="#r" transform="matrix(1,0,0,1,84.99999999999994,1053.4768211920527) translate(35.725 38.9)"/><path d="M243.88 918.35h-27.03v-2h27.03zm31.75 0h-8.8v-2h8.8zM216.85 918.35h-3v-2h3zM290.63 917.35L276.36 922v-9.28z"/><path d="M293.86 917.35l-18.5 6v-12zm-16.5 3.26l10.03-3.25-10.04-3.26z"/><use xlink:href="#k" transform="matrix(1,0,0,1,243.88086809562972,906.5509933774837) translate(0 14.4)"/><path d="M396.92 880.93c14.1 0 25.5 16.3 25.5 36.42s-11.4 36.42-25.5 36.42h-76.54c-14.1 0-25.52-16.3-25.52-36.42s11.43-36.42 25.52-36.42z" stroke="#000" stroke-width="2" fill="#fff"/><use xlink:href="#i" transform="matrix(1,0,0,1,299.8648648648648,885.9271523178809) translate(32.05 24.299999999999997)"/><use xlink:href="#j" transform="matrix(1,0,0,1,299.8648648648648,885.9271523178809) translate(2.1499999999999915 45.9)"/><path d="M473.5 320h320v87.42h-320z" stroke="#000" stroke-width="2" fill="#fff"/><use xlink:href="#s" transform="matrix(1,0,0,1,478.5135135135133,325) translate(12.350000000000023 31.799999999999997)"/><use xlink:href="#t" transform="matrix(1,0,0,1,478.5135135135133,325) translate(132.7 53.4)"/><path d="M559.73 451.13H707.3v87.4H559.73z" stroke="#000" stroke-width="2" fill="#fff"/><use xlink:href="#u" transform="matrix(1,0,0,1,564.7297297297296,456.12582781456956) translate(27.549999999999997 21)"/><use xlink:href="#v" transform="matrix(1,0,0,1,564.7297297297296,456.12582781456956) translate(89.5 21)"/><use xlink:href="#w" transform="matrix(1,0,0,1,564.7297297297296,456.12582781456956) translate(19.725 42.6)"/><use xlink:href="#x" transform="matrix(1,0,0,1,564.7297297297296,456.12582781456956) translate(7.125 64.2)"/><use xlink:href="#y" transform="matrix(1,0,0,1,564.7297297297296,456.12582781456956) translate(70.975 64.2)"/><path d="M633.5 582.25l45.42 43.7-45.4 43.72-45.4-43.7z" stroke="#000" stroke-width="2" fill="#fff"/><use xlink:href="#g" transform="matrix(1,0,0,1,593.1081081081079,587.2516556291391) translate(4.549999999999997 42.6)"/><use xlink:href="#h" transform="matrix(1,0,0,1,593.1081081081079,587.2516556291391) translate(60.5 42.6)"/><path d="M633.5 408.42v23.47M633.5 408.42v-3" stroke="#000" stroke-width="2" fill="none"/><path d="M633.5 446.9l-4.62-14.28h9.27z" stroke="#000" stroke-width="2"/><path d="M633.5 539.54v23.1M633.5 539.54v-3" stroke="#000" stroke-width="2" fill="none"/><path d="M633.5 577.63l-4.62-14.27h9.27z" stroke="#000" stroke-width="2"/><path d="M893.84 596.82c14.45 0 26.16 13.05 26.16 29.14 0 16.1-11.7 29.14-26.16 29.14h-78.5c-14.44 0-26.15-13.05-26.15-29.14 0-16.1 11.7-29.14 26.15-29.14z" stroke="#000" stroke-width="2" fill="#fff"/><use xlink:href="#i" transform="matrix(1,0,0,1,794.1891891891892,601.8211920529802) translate(33.55 17.299999999999997)"/><use xlink:href="#j" transform="matrix(1,0,0,1,794.1891891891892,601.8211920529802) translate(3.6499999999999915 38.9)"/><path d="M722.8 626.96h-42.44v-2h42.44zm47.15 0h-24.2v-2h24.2z"/><path d="M680.36 626.96h-3v-2h3zM784.95 625.96l-14.26 4.64v-9.28z"/><path d="M788.2 625.96l-18.5 6v-12zm-16.5 3.26l10.02-3.26-10.03-3.26z"/><use xlink:href="#k" transform="matrix(1,0,0,1,722.799972840114,615.1602649006624) translate(0 14.4)"/><path d="M559.73 742.52H707.3v87.4H559.73z" stroke="#000" stroke-width="2" fill="#fff"/><use xlink:href="#z" transform="matrix(1,0,0,1,564.7297297297296,747.5165562913908) translate(16.475 31.799999999999997)"/><use xlink:href="#t" transform="matrix(1,0,0,1,564.7297297297296,747.5165562913908) translate(46.699999999999996 53.4)"/><path d="M634.5 723.28h-2v-6.2h2zm0-27.8h-2v-24.42h2zM634.5 671.06h-2v-3h2zM633.5 738.28L628.9 724h9.27z"/><path d="M633.5 741.52l-6-18.5h12.03zm-3.25-16.5l3.26 10.02 3.27-10.03z"/><use xlink:href="#m" transform="matrix(1,0,0,1,618.8385135135134,695.4867357651373) translate(0 14.4)"/><path d="M633.5 873.64l45.42 43.7-45.4 43.72-45.4-43.7z" stroke="#000" stroke-width="2" fill="#fff"/><use xlink:href="#n" transform="matrix(1,0,0,1,593.1081081081079,878.6423841059604) translate(21.225 42.6)"/><path d="M633.5 830.93v23.1M633.5 830.93v-3" stroke="#000" stroke-width="2" fill="none"/><path d="M633.5 869.02l-4.62-14.27h9.27z" stroke="#000" stroke-width="2"/><path d="M634.5 1029.24h-2v-13.48h2zm0-35.08h-2v-31.7h2zM634.5 962.45h-2v-3h2zM633.5 1044.24l-4.62-14.27h9.27z"/><path d="M633.5 1047.48l-6-18.5h12.03zm-3.25-16.5l3.26 10.02 3.27-10.03z"/><use xlink:href="#m" transform="matrix(1,0,0,1,618.8385135135134,994.1622324538789) translate(0 14.4)"/><path d="M696.68 1048.48c23.25 0 42.1 13.04 42.1 29.14s-18.85 29.13-42.1 29.13H570.35c-23.25 0-42.1-13.04-42.1-29.13 0-16.1 18.85-29.14 42.1-29.14z" stroke="#000" stroke-width="2" fill="#fff"/><use xlink:href="#A" transform="matrix(1,0,0,1,533.2432432432431,1053.4768211920527) translate(21.674999999999997 17.299999999999997)"/><use xlink:href="#p" transform="matrix(1,0,0,1,533.2432432432431,1053.4768211920527) translate(53.675 17.299999999999997)"/><use xlink:href="#B" transform="matrix(1,0,0,1,533.2432432432431,1053.4768211920527) translate(101.625 17.299999999999997)"/><use xlink:href="#C" transform="matrix(1,0,0,1,533.2432432432431,1053.4768211920527) translate(121.625 17.299999999999997)"/><use xlink:href="#D" transform="matrix(1,0,0,1,533.2432432432431,1053.4768211920527) translate(164.325 17.299999999999997)"/><use xlink:href="#E" transform="matrix(1,0,0,1,533.2432432432431,1053.4768211920527) translate(81.175 38.9)"/><path d="M722.8 918.35h-42.44v-2h42.44zm47.15 0h-24.2v-2h24.2z"/><path d="M680.36 918.35h-3v-2h3zM784.95 917.35L770.7 922v-9.28z"/><path d="M788.2 917.35l-18.5 6v-12zm-16.5 3.26l10.02-3.25-10.03-3.26z"/><use xlink:href="#k" transform="matrix(1,0,0,1,722.7997872991843,906.5509933774837) translate(0 14.4)"/><path d="M893.84 880.93c14.45 0 26.16 16.3 26.16 36.42s-11.7 36.42-26.16 36.42h-78.5c-14.44 0-26.15-16.3-26.15-36.42s11.7-36.42 26.15-36.42z" stroke="#000" stroke-width="2" fill="#fff"/><use xlink:href="#i" transform="matrix(1,0,0,1,794.1891891891892,885.9271523178809) translate(33.55 14.4)"/><use xlink:href="#F" transform="matrix(1,0,0,1,794.1891891891892,885.9271523178809) translate(3.6499999999999915 36)"/><use xlink:href="#G" transform="matrix(1,0,0,1,794.1891891891892,885.9271523178809) translate(18.725 57.6)"/><use xlink:href="#H" transform="matrix(1,0,0,1,794.1891891891892,885.9271523178809) translate(39.675 57.6)"/><path d="M520 60h700v120H520z" stroke="#000" stroke-width="2" fill="#fff"/><use xlink:href="#I" transform="matrix(1,0,0,1,525,65) translate(319.6 58.6)"/><path d="M920 320h320v87.42H920z" stroke="#000" stroke-width="2" fill="#fff"/><use xlink:href="#J" transform="matrix(1,0,0,1,925,325) translate(61.875000000000014 42.6)"/><path d="M1005.95 452.13h147.56v87.4h-147.55z" stroke="#000" stroke-width="2" fill="#fff"/><use xlink:href="#b" transform="matrix(1,0,0,1,1010.9459459459458,457.12582781456956) translate(1.2249999999999943 31.799999999999997)"/><use xlink:href="#c" transform="matrix(1,0,0,1,1010.9459459459458,457.12582781456956) translate(63.175 31.799999999999997)"/><use xlink:href="#d" transform="matrix(1,0,0,1,1010.9459459459458,457.12582781456956) translate(89.125 31.799999999999997)"/><use xlink:href="#e" transform="matrix(1,0,0,1,1010.9459459459458,457.12582781456956) translate(7.125 53.4)"/><use xlink:href="#f" transform="matrix(1,0,0,1,1010.9459459459458,457.12582781456956) translate(70.975 53.4)"/><path d="M1079.73 583.25l45.4 43.7-45.4 43.72-45.4-43.7z" stroke="#000" stroke-width="2" fill="#fff"/><use xlink:href="#g" transform="matrix(1,0,0,1,1039.3243243243242,588.2516556291391) translate(4.549999999999997 42.6)"/><use xlink:href="#h" transform="matrix(1,0,0,1,1039.3243243243242,588.2516556291391) translate(60.5 42.6)"/><path d="M1080 408.42v21.35h-.27v3.12M1080 408.42v-3" stroke="#000" stroke-width="2" fill="none"/><path d="M1079.73 447.9l-4.64-14.28h9.27z" stroke="#000" stroke-width="2"/><path d="M1079.73 540.54v23.1M1079.73 540.54v-3" stroke="#000" stroke-width="2" fill="none"/><path d="M1079.73 578.63l-4.64-14.27h9.27z" stroke="#000" stroke-width="2"/><path d="M1341.5 596.82c14.1 0 25.53 13.05 25.53 29.14 0 16.1-11.43 29.14-25.52 29.14h-76.53c-14.1 0-25.5-13.05-25.5-29.14 0-16.1 11.4-29.14 25.5-29.14z" stroke="#000" stroke-width="2" fill="#fff"/><use xlink:href="#i" transform="matrix(1,0,0,1,1244.4594594594591,601.8211920529802) translate(32.05 17.299999999999997)"/><use xlink:href="#j" transform="matrix(1,0,0,1,1244.4594594594591,601.8211920529802) translate(2.1499999999999915 38.9)"/><path d="M1171.04 627.96h-44.46v-2h44.46zm49.18-1H1194v-2h26.22zM1126.58 627.96h-3v-2h3zM1235.22 625.96l-14.26 4.64v-9.28z"/><path d="M1238.46 625.96l-18.5 6v-12zm-16.5 3.26l10.03-3.26-10.04-3.26z"/><use xlink:href="#k" transform="matrix(1,0,0,1,1171.0432159473507,615.6602649006624) translate(0 14.4)"/><path d="M1080.73 723.28h-2v-5.7h2zm0-27.3h-2v-23.92h2zM1080.73 672.06h-2v-3h2zM1079.73 738.28L1075.1 724h9.27z"/><path d="M1079.73 741.52l-6-18.5h12zm-3.26-16.5l3.26 10.02L1083 725z"/><use xlink:href="#m" transform="matrix(1,0,0,1,1065.0547297297296,695.9867357651373) translate(0 14.4)"/><path d="M989.73 742.52h180v87.4h-180z" stroke="#000" stroke-width="2" fill="#fff"/><use xlink:href="#K" transform="matrix(1,0,0,1,994.7297297297296,747.5165562913908) translate(34.425 42.6)"/><path d="M1141.73 882.33c21 0 38 21.58 38 48.2 0 26.62-17 48.2-38 48.2h-114c-21 0-38-21.58-38-48.2 0-26.62 17-48.2 38-48.2z" stroke="#000" stroke-width="2" fill="#fff"/><use xlink:href="#L" transform="matrix(1,0,0,1,994.7297297297296,887.3298013244755) translate(32.599999999999994 25.5)"/><use xlink:href="#M" transform="matrix(1,0,0,1,994.7297297297296,887.3298013244755) translate(17.200000000000003 47.1)"/><use xlink:href="#c" transform="matrix(1,0,0,1,994.7297297297296,887.3298013244755) translate(90.2 47.1)"/><use xlink:href="#d" transform="matrix(1,0,0,1,994.7297297297296,887.3298013244755) translate(116.15 47.1)"/><use xlink:href="#N" transform="matrix(1,0,0,1,994.7297297297296,887.3298013244755) translate(49.175 68.7)"/><use xlink:href="#O" transform="matrix(1,0,0,1,994.7297297297296,887.3298013244755) translate(88.175 68.7)"/><path d="M1079.73 830.93v32.16M1079.73 830.93v-3" stroke="#000" stroke-width="2" fill="none"/><path d="M1079.73 878.1l-4.64-14.27h9.27z" stroke="#000" stroke-width="2"/><path d="M1380 320h320v87.42h-320z" stroke="#000" stroke-width="2" fill="#fff"/><use xlink:href="#P" transform="matrix(1,0,0,1,1385,325) translate(40.85000000000002 31.799999999999997)"/><use xlink:href="#Q" transform="matrix(1,0,0,1,1385,325) translate(73.60000000000001 53.4)"/><path d="M1465.95 452.13h147.56v87.4h-147.55z" stroke="#000" stroke-width="2" fill="#fff"/><use xlink:href="#u" transform="matrix(1,0,0,1,1470.9459459459458,457.12582781456956) translate(27.549999999999997 21)"/><use xlink:href="#v" transform="matrix(1,0,0,1,1470.9459459459458,457.12582781456956) translate(89.5 21)"/><use xlink:href="#w" transform="matrix(1,0,0,1,1470.9459459459458,457.12582781456956) translate(19.725 42.6)"/><use xlink:href="#x" transform="matrix(1,0,0,1,1470.9459459459458,457.12582781456956) translate(7.125 64.2)"/><use xlink:href="#y" transform="matrix(1,0,0,1,1470.9459459459458,457.12582781456956) translate(70.975 64.2)"/><path d="M1539.73 583.25l45.4 43.7-45.4 43.72-45.4-43.7z" stroke="#000" stroke-width="2" fill="#fff"/><g><use xlink:href="#g" transform="matrix(1,0,0,1,1499.3243243243242,588.2516556291391) translate(4.549999999999997 42.6)"/><use xlink:href="#h" transform="matrix(1,0,0,1,1499.3243243243242,588.2516556291391) translate(60.5 42.6)"/></g><path d="M1540 408.42v21.35h-.27v3.12M1540 408.42v-3" stroke="#000" stroke-width="2" fill="none"/><path d="M1539.73 447.9l-4.64-14.28h9.27z" stroke="#000" stroke-width="2"/><path d="M1539.73 540.54v23.1M1539.73 540.54v-3" stroke="#000" stroke-width="2" fill="none"/><path d="M1539.73 578.63l-4.64-14.27h9.27z" stroke="#000" stroke-width="2"/><path d="M1802.05 597.82c14.1 0 25.52 13.05 25.52 29.14 0 16.1-11.43 29.14-25.52 29.14h-76.54c-14.08 0-25.5-13.05-25.5-29.14 0-16.1 11.42-29.14 25.5-29.14z" stroke="#000" stroke-width="2" fill="#fff"/><g><use xlink:href="#i" transform="matrix(1,0,0,1,1705,602.8211920529802) translate(32.05 17.299999999999997)"/><use xlink:href="#j" transform="matrix(1,0,0,1,1705,602.8211920529802) translate(2.1499999999999915 38.9)"/></g><path d="M1631.3 627.96h-44.72v-2h44.73zm49.46 0h-26.5v-2h26.5zM1586.58 627.96h-3v-2h3zM1695.76 626.96l-14.26 4.64v-9.28z"/><path d="M1699 626.96l-18.5 6v-12zm-16.5 3.26l10.03-3.26-10.03-3.26z"/><g><use xlink:href="#k" transform="matrix(1,0,0,1,1631.3134862176212,616.1602649006624) translate(0 14.4)"/></g><path d="M1541 723.28h-2v-5.7h2zm-.27-27.3h-2v-23.92h2zM1540.73 672.06h-2v-3h2zM1540 738.28l-4.64-14.27h9.28z"/><path d="M1540 741.52l-6-18.5h12zm-3.26-16.5l3.26 10.02 3.26-10.03z"/><g><use xlink:href="#m" transform="matrix(1,0,0,1,1525.1898648648648,695.9867357651373) translate(0 14.4)"/></g><path d="M1400 742.52h280v87.4h-280z" stroke="#000" stroke-width="2" fill="#fff"/><g><use xlink:href="#R" transform="matrix(1,0,0,1,1405,747.5165562913908) translate(9.450000000000017 42.6)"/></g><path d="M1624 882.33c30.93 0 56 21.58 56 48.2 0 26.62-25.07 48.2-56 48.2h-168c-30.93 0-56-21.58-56-48.2 0-26.62 25.07-48.2 56-48.2z" stroke="#000" stroke-width="2" fill="#fff"/><g><use xlink:href="#S" transform="matrix(1,0,0,1,1405,887.3298013244755) translate(16.67500000000001 25.5)"/><use xlink:href="#T" transform="matrix(1,0,0,1,1405,887.3298013244755) translate(52.52500000000001 25.5)"/><use xlink:href="#U" transform="matrix(1,0,0,1,1405,887.3298013244755) translate(9 47.1)"/><use xlink:href="#c" transform="matrix(1,0,0,1,1405,887.3298013244755) translate(69.25 47.1)"/><use xlink:href="#V" transform="matrix(1,0,0,1,1405,887.3298013244755) translate(95.2 47.1)"/><use xlink:href="#W" transform="matrix(1,0,0,1,1405,887.3298013244755) translate(139.2 47.1)"/><use xlink:href="#X" transform="matrix(1,0,0,1,1405,887.3298013244755) translate(247.05 47.1)"/><use xlink:href="#Y" transform="matrix(1,0,0,1,1405,887.3298013244755) translate(85.725 68.7)"/></g><path d="M1540 830.93v25.2h-.24v6.96M1540 830.93v-3" stroke="#000" stroke-width="2" fill="none"/><path d="M1539.76 878.1l-4.63-14.27h9.27z" stroke="#000" stroke-width="2"/><path d="M519 120H167.57v180.76M519 120h3" stroke="#000" stroke-width="2" fill="none"/><path d="M167.57 315.76l-4.64-14.26h9.27z" stroke="#000" stroke-width="2"/><path d="M1086.67 181v119.76M1086.67 181v-3" stroke="#000" stroke-width="2" fill="none"/><path d="M1086.67 315.76l-4.64-14.26h9.27z" stroke="#000" stroke-width="2"/><path d="M1221 120h319v180.76M1221 120h-3" stroke="#000" stroke-width="2" fill="none"/><path d="M1540 315.76l-4.64-14.26h9.28z" stroke="#000" stroke-width="2"/><path d="M636 181v119.76M636 181v-3" stroke="#000" stroke-width="2" fill="none"/><path d="M636 315.76l-4.64-14.26h9.28z" stroke="#000" stroke-width="2"/><defs><path d="M114-163C36-179 61-72 57 0H25l-1-190h30c1 12-1 29 2 39 6-27 23-49 58-41v29" id="Z"/><path d="M100-194c63 0 86 42 84 106H49c0 40 14 67 53 68 26 1 43-12 49-29l28 8c-11 28-37 45-77 45C44 4 14-33 15-96c1-61 26-98 85-98zm52 81c6-60-76-77-97-28-3 7-6 17-6 28h103" id="aa"/><path d="M177-190C167-65 218 103 67 71c-23-6-38-20-44-43l32-5c15 47 100 32 89-28v-30C133-14 115 1 83 1 29 1 15-40 15-95c0-56 16-97 71-98 29-1 48 16 59 35 1-10 0-23 2-32h30zM94-22c36 0 50-32 50-73 0-42-14-75-50-75-39 0-46 34-46 75s6 73 46 73" id="ab"/><path d="M24-231v-30h32v30H24zM24 0v-190h32V0H24" id="ac"/><path d="M135-143c-3-34-86-38-87 0 15 53 115 12 119 90S17 21 10-45l28-5c4 36 97 45 98 0-10-56-113-15-118-90-4-57 82-63 122-42 12 7 21 19 24 35" id="ad"/><path d="M59-47c-2 24 18 29 38 22v24C64 9 27 4 27-40v-127H5v-23h24l9-43h21v43h35v23H59v120" id="ae"/><path d="M179-190L93 31C79 59 56 82 12 73V49c39 6 53-20 64-50L1-190h34L92-34l54-156h33" id="af"/><path d="M-5 72V49h209v23H-5" id="ag"/><path d="M108 0H70L1-190h34L89-25l56-165h34" id="ah"/><path d="M141-36C126-15 110 5 73 4 37 3 15-17 15-53c-1-64 63-63 125-63 3-35-9-54-41-54-24 1-41 7-42 31l-33-3c5-37 33-52 76-52 45 0 72 20 72 64v82c-1 20 7 32 28 27v20c-31 9-61-2-59-35zM48-53c0 20 12 33 32 33 41-3 63-29 60-74-43 2-92-5-92 41" id="ai"/><path d="M24 0v-261h32V0H24" id="aj"/><path d="M84 4C-5 8 30-112 23-190h32v120c0 31 7 50 39 49 72-2 45-101 50-169h31l1 190h-30c-1-10 1-25-2-33-11 22-28 36-60 37" id="ak"/><path d="M87 75C49 33 22-17 22-94c0-76 28-126 65-167h31c-38 41-64 92-64 168S80 34 118 75H87" id="al"/><path d="M109-170H84l-4-78h32zm-65 0H19l-4-78h33" id="am"/><path d="M96-169c-40 0-48 33-48 73s9 75 48 75c24 0 41-14 43-38l32 2c-6 37-31 61-74 61-59 0-76-41-82-99-10-93 101-131 147-64 4 7 5 14 7 22l-32 3c-4-21-16-35-41-35" id="an"/><path d="M100-194c62-1 85 37 85 99 1 63-27 99-86 99S16-35 15-95c0-66 28-99 85-99zM99-20c44 1 53-31 53-75 0-43-8-75-51-75s-53 32-53 75 10 74 51 75" id="ao"/><path d="M85-194c31 0 48 13 60 33l-1-100h32l1 261h-30c-2-10 0-23-3-31C134-8 116 4 85 4 32 4 16-35 15-94c0-66 23-100 70-100zm9 24c-40 0-46 34-46 75 0 40 6 74 45 74 42 0 51-32 51-76 0-42-9-74-50-73" id="ap"/><path d="M0 4l72-265h28L28 4H0" id="aq"/><path d="M115-194c55 1 70 41 70 98S169 2 115 4C84 4 66-9 55-30l1 105H24l-1-265h31l2 30c10-21 28-34 59-34zm-8 174c40 0 45-34 45-75s-6-73-45-74c-42 0-51 32-51 76 0 43 10 73 51 73" id="ar"/><path d="M33-261c38 41 65 92 65 168S71 34 33 75H2C39 34 66-17 66-93S39-220 2-261h31" id="as"/><g id="a"><use transform="matrix(0.05,0,0,0.05,0,0)" xlink:href="#Z"/><use transform="matrix(0.05,0,0,0.05,5.95,0)" xlink:href="#aa"/><use transform="matrix(0.05,0,0,0.05,15.949999999999998,0)" xlink:href="#ab"/><use transform="matrix(0.05,0,0,0.05,25.950000000000003,0)" xlink:href="#ac"/><use transform="matrix(0.05,0,0,0.05,29.899999999999995,0)" xlink:href="#ad"/><use transform="matrix(0.05,0,0,0.05,38.9,0)" xlink:href="#ae"/><use transform="matrix(0.05,0,0,0.05,43.9,0)" xlink:href="#Z"/><use transform="matrix(0.05,0,0,0.05,49.85,0)" xlink:href="#af"/><use transform="matrix(0.05,0,0,0.05,58.85,0)" xlink:href="#ag"/><use transform="matrix(0.05,0,0,0.05,68.85,0)" xlink:href="#ab"/><use transform="matrix(0.05,0,0,0.05,78.85,0)" xlink:href="#aa"/><use transform="matrix(0.05,0,0,0.05,88.85,0)" xlink:href="#ae"/><use transform="matrix(0.05,0,0,0.05,93.85,0)" xlink:href="#ag"/><use transform="matrix(0.05,0,0,0.05,103.84999999999998,0)" xlink:href="#ah"/><use transform="matrix(0.05,0,0,0.05,112.84999999999998,0)" xlink:href="#ai"/><use transform="matrix(0.05,0,0,0.05,122.84999999999998,0)" xlink:href="#aj"/><use transform="matrix(0.05,0,0,0.05,126.80000000000001,0)" xlink:href="#ak"/><use transform="matrix(0.05,0,0,0.05,136.8,0)" xlink:href="#aa"/><use transform="matrix(0.05,0,0,0.05,146.8,0)" xlink:href="#al"/><use transform="matrix(0.05,0,0,0.05,152.75,0)" xlink:href="#am"/><use transform="matrix(0.05,0,0,0.05,159.1,0)" xlink:href="#an"/><use transform="matrix(0.05,0,0,0.05,168.1,0)" xlink:href="#ao"/><use transform="matrix(0.05,0,0,0.05,178.1,0)" xlink:href="#Z"/><use transform="matrix(0.05,0,0,0.05,184.04999999999998,0)" xlink:href="#ap"/><use transform="matrix(0.05,0,0,0.05,194.04999999999998,0)" xlink:href="#aq"/><use transform="matrix(0.05,0,0,0.05,199.04999999999998,0)" xlink:href="#Z"/><use transform="matrix(0.05,0,0,0.05,204.99999999999997,0)" xlink:href="#ap"/><use transform="matrix(0.05,0,0,0.05,214.99999999999997,0)" xlink:href="#ag"/><use transform="matrix(0.05,0,0,0.05,224.99999999999997,0)" xlink:href="#ac"/><use transform="matrix(0.05,0,0,0.05,228.94999999999996,0)" xlink:href="#ar"/><use transform="matrix(0.05,0,0,0.05,238.94999999999996,0)" xlink:href="#ag"/><use transform="matrix(0.05,0,0,0.05,248.94999999999996,0)" xlink:href="#ai"/><use transform="matrix(0.05,0,0,0.05,258.94999999999993,0)" xlink:href="#ap"/><use transform="matrix(0.05,0,0,0.05,268.94999999999993,0)" xlink:href="#ap"/><use transform="matrix(0.05,0,0,0.05,278.94999999999993,0)" xlink:href="#Z"/><use transform="matrix(0.05,0,0,0.05,284.8999999999999,0)" xlink:href="#am"/><use transform="matrix(0.05,0,0,0.05,291.24999999999994,0)" xlink:href="#as"/></g><path d="M185-189c-5-48-123-54-124 2 14 75 158 14 163 119 3 78-121 87-175 55-17-10-28-26-33-46l33-7c5 56 141 63 141-1 0-78-155-14-162-118-5-82 145-84 179-34 5 7 8 16 11 25" id="at"/><path d="M106-169C34-169 62-67 57 0H25v-261h32l-1 103c12-21 28-36 61-36 89 0 53 116 60 194h-32v-121c2-32-8-49-39-48" id="au"/><g id="b"><use transform="matrix(0.05,0,0,0.05,0,0)" xlink:href="#at"/><use transform="matrix(0.05,0,0,0.05,12,0)" xlink:href="#aa"/><use transform="matrix(0.05,0,0,0.05,22,0)" xlink:href="#ai"/><use transform="matrix(0.05,0,0,0.05,32,0)" xlink:href="#Z"/><use transform="matrix(0.05,0,0,0.05,37.95,0)" xlink:href="#an"/><use transform="matrix(0.05,0,0,0.05,46.95,0)" xlink:href="#au"/></g><path d="M101-234c-31-9-42 10-38 44h38v23H63V0H32v-167H5v-23h27c-7-52 17-82 69-68v24" id="av"/><g id="c"><use transform="matrix(0.05,0,0,0.05,0,0)" xlink:href="#av"/><use transform="matrix(0.05,0,0,0.05,5,0)" xlink:href="#ao"/><use transform="matrix(0.05,0,0,0.05,15,0)" xlink:href="#Z"/></g><g id="d"><use transform="matrix(0.05,0,0,0.05,0,0)" xlink:href="#am"/><use transform="matrix(0.05,0,0,0.05,6.3500000000000005,0)" xlink:href="#an"/><use transform="matrix(0.05,0,0,0.05,15.350000000000001,0)" xlink:href="#ao"/><use transform="matrix(0.05,0,0,0.05,25.35,0)" xlink:href="#Z"/><use transform="matrix(0.05,0,0,0.05,31.3,0)" xlink:href="#ap"/><use transform="matrix(0.05,0,0,0.05,41.3,0)" xlink:href="#am"/></g><g id="e"><use transform="matrix(0.05,0,0,0.05,0,0)" xlink:href="#Z"/><use transform="matrix(0.05,0,0,0.05,5.95,0)" xlink:href="#aa"/><use transform="matrix(0.05,0,0,0.05,15.949999999999998,0)" xlink:href="#ab"/><use transform="matrix(0.05,0,0,0.05,25.950000000000003,0)" xlink:href="#ac"/><use transform="matrix(0.05,0,0,0.05,29.899999999999995,0)" xlink:href="#ad"/><use transform="matrix(0.05,0,0,0.05,38.9,0)" xlink:href="#ae"/><use transform="matrix(0.05,0,0,0.05,43.9,0)" xlink:href="#Z"/><use transform="matrix(0.05,0,0,0.05,49.85,0)" xlink:href="#af"/></g><path d="M117-194c89-4 53 116 60 194h-32v-121c0-31-8-49-39-48C34-167 62-67 57 0H25l-1-190h30c1 10-1 24 2 32 11-22 29-35 61-36" id="aw"/><g id="f"><use transform="matrix(0.05,0,0,0.05,0,0)" xlink:href="#au"/><use transform="matrix(0.05,0,0,0.05,10,0)" xlink:href="#ai"/><use transform="matrix(0.05,0,0,0.05,20,0)" xlink:href="#aw"/><use transform="matrix(0.05,0,0,0.05,30,0)" xlink:href="#ap"/><use transform="matrix(0.05,0,0,0.05,40,0)" xlink:href="#aj"/><use transform="matrix(0.05,0,0,0.05,43.95,0)" xlink:href="#aa"/><use transform="matrix(0.05,0,0,0.05,53.95,0)" xlink:href="#Z"/></g><path d="M63-220v92h138v28H63V0H30v-248h175v28H63" id="ax"/><g id="g"><use transform="matrix(0.05,0,0,0.05,0,0)" xlink:href="#ax"/><use transform="matrix(0.05,0,0,0.05,10.950000000000001,0)" xlink:href="#ao"/><use transform="matrix(0.05,0,0,0.05,20.950000000000003,0)" xlink:href="#ak"/><use transform="matrix(0.05,0,0,0.05,30.950000000000003,0)" xlink:href="#aw"/><use transform="matrix(0.05,0,0,0.05,40.95,0)" xlink:href="#ap"/></g><g id="h"><use transform="matrix(0.05,0,0,0.05,0,0)" xlink:href="#Z"/><use transform="matrix(0.05,0,0,0.05,5.95,0)" xlink:href="#au"/></g><path d="M233-177c-1 41-23 64-60 70L243 0h-38l-65-103H63V0H30v-248c88 3 205-21 203 71zM63-129c60-2 137 13 137-47 0-61-80-42-137-45v92" id="ay"/><g id="i"><use transform="matrix(0.05,0,0,0.05,0,0)" xlink:href="#ay"/><use transform="matrix(0.05,0,0,0.05,12.950000000000001,0)" xlink:href="#aa"/><use transform="matrix(0.05,0,0,0.05,22.950000000000003,0)" xlink:href="#ae"/><use transform="matrix(0.05,0,0,0.05,27.950000000000003,0)" xlink:href="#ak"/><use transform="matrix(0.05,0,0,0.05,37.95,0)" xlink:href="#Z"/><use transform="matrix(0.05,0,0,0.05,43.900000000000006,0)" xlink:href="#aw"/></g><path d="M30 0v-248h187v28H63v79h144v27H63v87h162V0H30" id="az"/><path d="M190 0L58-211 59 0H30v-248h39L202-35l-2-213h31V0h-41" id="aA"/><path d="M140-251c81 0 123 46 123 126C263-46 219 4 140 4 59 4 17-45 17-125s42-126 123-126zm0 227c63 0 89-41 89-101s-29-99-89-99c-61 0-89 39-89 99S79-25 140-24" id="aB"/><path d="M127-220V0H93v-220H8v-28h204v28h-85" id="aC"/><path d="M232-93c-1 65-40 97-104 97C67 4 28-28 28-90v-158h33c8 89-33 224 67 224 102 0 64-133 71-224h33v155" id="aD"/><path d="M30-248c118-7 216 8 213 122C240-48 200 0 122 0H30v-248zM63-27c89 8 146-16 146-99s-60-101-146-95v194" id="aE"/><g id="j"><use transform="matrix(0.05,0,0,0.05,0,0)" xlink:href="#az"/><use transform="matrix(0.05,0,0,0.05,12,0)" xlink:href="#aA"/><use transform="matrix(0.05,0,0,0.05,24.950000000000003,0)" xlink:href="#aB"/><use transform="matrix(0.05,0,0,0.05,38.95,0)" xlink:href="#aC"/><use transform="matrix(0.05,0,0,0.05,49.900000000000006,0)" xlink:href="#ax"/><use transform="matrix(0.05,0,0,0.05,60.85,0)" xlink:href="#aB"/><use transform="matrix(0.05,0,0,0.05,74.85000000000001,0)" xlink:href="#aD"/><use transform="matrix(0.05,0,0,0.05,87.80000000000001,0)" xlink:href="#aA"/><use transform="matrix(0.05,0,0,0.05,100.75000000000001,0)" xlink:href="#aE"/></g><g id="k"><use transform="matrix(0.05,0,0,0.05,0,0)" xlink:href="#aA"/><use transform="matrix(0.05,0,0,0.05,12.950000000000001,0)" xlink:href="#ao"/></g><path d="M16-82v-28h88v28H16" id="aF"/><path d="M18-27v-27l151-64-151-65v-27l175 74v36" id="aG"/><g id="l"><use transform="matrix(0.05,0,0,0.05,0,0)" xlink:href="#Z"/><use transform="matrix(0.05,0,0,0.05,5.95,0)" xlink:href="#au"/><use transform="matrix(0.05,0,0,0.05,15.949999999999998,0)" xlink:href="#aF"/><use transform="matrix(0.05,0,0,0.05,21.9,0)" xlink:href="#aG"/><use transform="matrix(0.05,0,0,0.05,32.4,0)" xlink:href="#ab"/><use transform="matrix(0.05,0,0,0.05,42.4,0)" xlink:href="#aa"/><use transform="matrix(0.05,0,0,0.05,52.400000000000006,0)" xlink:href="#ae"/><use transform="matrix(0.05,0,0,0.05,57.400000000000006,0)" xlink:href="#al"/><use transform="matrix(0.05,0,0,0.05,63.35,0)" xlink:href="#am"/><use transform="matrix(0.05,0,0,0.05,69.7,0)" xlink:href="#Z"/><use transform="matrix(0.05,0,0,0.05,75.65,0)" xlink:href="#ap"/><use transform="matrix(0.05,0,0,0.05,85.65,0)" xlink:href="#ag"/><use transform="matrix(0.05,0,0,0.05,95.65,0)" xlink:href="#ac"/><use transform="matrix(0.05,0,0,0.05,99.60000000000001,0)" xlink:href="#ar"/><use transform="matrix(0.05,0,0,0.05,109.60000000000001,0)" xlink:href="#ag"/><use transform="matrix(0.05,0,0,0.05,119.60000000000001,0)" xlink:href="#ai"/><use transform="matrix(0.05,0,0,0.05,129.60000000000002,0)" xlink:href="#ap"/><use transform="matrix(0.05,0,0,0.05,139.60000000000002,0)" xlink:href="#ap"/><use transform="matrix(0.05,0,0,0.05,149.60000000000002,0)" xlink:href="#Z"/><use transform="matrix(0.05,0,0,0.05,155.55,0)" xlink:href="#am"/><use transform="matrix(0.05,0,0,0.05,161.9,0)" xlink:href="#as"/></g><path d="M137-103V0h-34v-103L8-248h37l75 118 75-118h37" id="aH"/><g id="m"><use transform="matrix(0.05,0,0,0.05,0,0)" xlink:href="#aH"/><use transform="matrix(0.05,0,0,0.05,10.35,0)" xlink:href="#aa"/><use transform="matrix(0.05,0,0,0.05,20.35,0)" xlink:href="#ad"/></g><path d="M137 0h-34L2-248h35l83 218 83-218h36" id="aI"/><g id="n"><use transform="matrix(0.05,0,0,0.05,0,0)" xlink:href="#aI"/><use transform="matrix(0.05,0,0,0.05,10.65,0)" xlink:href="#ai"/><use transform="matrix(0.05,0,0,0.05,20.65,0)" xlink:href="#aj"/><use transform="matrix(0.05,0,0,0.05,24.599999999999998,0)" xlink:href="#ac"/><use transform="matrix(0.05,0,0,0.05,28.549999999999997,0)" xlink:href="#ap"/></g><path d="M143 4C61 4 22-44 18-125c-5-107 100-154 193-111 17 8 29 25 37 43l-32 9c-13-25-37-40-76-40-61 0-88 39-88 99 0 61 29 100 91 101 35 0 62-11 79-27v-45h-74v-28h105v86C228-13 192 4 143 4" id="aJ"/><g id="o"><use transform="matrix(0.05,0,0,0.05,0,0)" xlink:href="#aJ"/><use transform="matrix(0.05,0,0,0.05,14,0)" xlink:href="#aa"/><use transform="matrix(0.05,0,0,0.05,24,0)" xlink:href="#ae"/></g><g id="p"><use transform="matrix(0.05,0,0,0.05,0,0)" xlink:href="#ah"/><use transform="matrix(0.05,0,0,0.05,9,0)" xlink:href="#ai"/><use transform="matrix(0.05,0,0,0.05,19,0)" xlink:href="#aj"/><use transform="matrix(0.05,0,0,0.05,22.95,0)" xlink:href="#ak"/><use transform="matrix(0.05,0,0,0.05,32.95,0)" xlink:href="#aa"/></g><g id="q"><use transform="matrix(0.05,0,0,0.05,0,0)" xlink:href="#ao"/><use transform="matrix(0.05,0,0,0.05,10,0)" xlink:href="#av"/></g><g id="r"><use transform="matrix(0.05,0,0,0.05,0,0)" xlink:href="#am"/><use transform="matrix(0.05,0,0,0.05,6.3500000000000005,0)" xlink:href="#Z"/><use transform="matrix(0.05,0,0,0.05,12.3,0)" xlink:href="#ap"/><use transform="matrix(0.05,0,0,0.05,22.3,0)" xlink:href="#ag"/><use transform="matrix(0.05,0,0,0.05,32.3,0)" xlink:href="#ac"/><use transform="matrix(0.05,0,0,0.05,36.25,0)" xlink:href="#ar"/><use transform="matrix(0.05,0,0,0.05,46.25,0)" xlink:href="#ag"/><use transform="matrix(0.05,0,0,0.05,56.25,0)" xlink:href="#ai"/><use transform="matrix(0.05,0,0,0.05,66.25,0)" xlink:href="#ap"/><use transform="matrix(0.05,0,0,0.05,76.25,0)" xlink:href="#ap"/><use transform="matrix(0.05,0,0,0.05,86.25,0)" xlink:href="#Z"/><use transform="matrix(0.05,0,0,0.05,92.2,0)" xlink:href="#am"/></g><path d="M68-38c1 34 0 65-14 84H32c9-13 17-26 17-46H33v-38h35" id="aK"/><g id="s"><use transform="matrix(0.05,0,0,0.05,0,0)" xlink:href="#Z"/><use transform="matrix(0.05,0,0,0.05,5.95,0)" xlink:href="#aa"/><use transform="matrix(0.05,0,0,0.05,15.949999999999998,0)" xlink:href="#ab"/><use transform="matrix(0.05,0,0,0.05,25.950000000000003,0)" xlink:href="#ac"/><use transform="matrix(0.05,0,0,0.05,29.899999999999995,0)" xlink:href="#ad"/><use transform="matrix(0.05,0,0,0.05,38.9,0)" xlink:href="#ae"/><use transform="matrix(0.05,0,0,0.05,43.9,0)" xlink:href="#Z"/><use transform="matrix(0.05,0,0,0.05,49.85,0)" xlink:href="#af"/><use transform="matrix(0.05,0,0,0.05,58.85,0)" xlink:href="#ag"/><use transform="matrix(0.05,0,0,0.05,68.85,0)" xlink:href="#ad"/><use transform="matrix(0.05,0,0,0.05,77.85,0)" xlink:href="#aa"/><use transform="matrix(0.05,0,0,0.05,87.85,0)" xlink:href="#ae"/><use transform="matrix(0.05,0,0,0.05,92.85,0)" xlink:href="#ag"/><use transform="matrix(0.05,0,0,0.05,102.84999999999998,0)" xlink:href="#ah"/><use transform="matrix(0.05,0,0,0.05,111.84999999999998,0)" xlink:href="#ai"/><use transform="matrix(0.05,0,0,0.05,121.84999999999998,0)" xlink:href="#aj"/><use transform="matrix(0.05,0,0,0.05,125.80000000000001,0)" xlink:href="#ak"/><use transform="matrix(0.05,0,0,0.05,135.8,0)" xlink:href="#aa"/><use transform="matrix(0.05,0,0,0.05,145.8,0)" xlink:href="#al"/><use transform="matrix(0.05,0,0,0.05,151.75,0)" xlink:href="#am"/><use transform="matrix(0.05,0,0,0.05,158.1,0)" xlink:href="#ai"/><use transform="matrix(0.05,0,0,0.05,168.1,0)" xlink:href="#ar"/><use transform="matrix(0.05,0,0,0.05,178.1,0)" xlink:href="#ar"/><use transform="matrix(0.05,0,0,0.05,188.1,0)" xlink:href="#aj"/><use transform="matrix(0.05,0,0,0.05,192.04999999999998,0)" xlink:href="#ac"/><use transform="matrix(0.05,0,0,0.05,195.99999999999997,0)" xlink:href="#an"/><use transform="matrix(0.05,0,0,0.05,204.99999999999997,0)" xlink:href="#ai"/><use transform="matrix(0.05,0,0,0.05,214.99999999999997,0)" xlink:href="#ae"/><use transform="matrix(0.05,0,0,0.05,219.99999999999997,0)" xlink:href="#ac"/><use transform="matrix(0.05,0,0,0.05,223.94999999999996,0)" xlink:href="#ao"/><use transform="matrix(0.05,0,0,0.05,233.94999999999996,0)" xlink:href="#aw"/><use transform="matrix(0.05,0,0,0.05,243.94999999999996,0)" xlink:href="#aq"/><use transform="matrix(0.05,0,0,0.05,248.94999999999996,0)" xlink:href="#av"/><use transform="matrix(0.05,0,0,0.05,253.94999999999996,0)" xlink:href="#ao"/><use transform="matrix(0.05,0,0,0.05,263.94999999999993,0)" xlink:href="#ao"/><use transform="matrix(0.05,0,0,0.05,273.94999999999993,0)" xlink:href="#am"/><use transform="matrix(0.05,0,0,0.05,280.29999999999995,0)" xlink:href="#aK"/></g><path d="M115-194c53 0 69 39 70 98 0 66-23 100-70 100C84 3 66-7 56-30L54 0H23l1-261h32v101c10-23 28-34 59-34zm-8 174c40 0 45-34 45-75 0-40-5-75-45-74-42 0-51 32-51 76 0 43 10 73 51 73" id="aL"/><g id="t"><use transform="matrix(0.05,0,0,0.05,0,0)" xlink:href="#am"/><use transform="matrix(0.05,0,0,0.05,6.3500000000000005,0)" xlink:href="#aL"/><use transform="matrix(0.05,0,0,0.05,16.35,0)" xlink:href="#ai"/><use transform="matrix(0.05,0,0,0.05,26.35,0)" xlink:href="#Z"/><use transform="matrix(0.05,0,0,0.05,32.300000000000004,0)" xlink:href="#am"/><use transform="matrix(0.05,0,0,0.05,38.650000000000006,0)" xlink:href="#as"/></g><g id="u"><use transform="matrix(0.05,0,0,0.05,0,0)" xlink:href="#at"/><use transform="matrix(0.05,0,0,0.05,12,0)" xlink:href="#aa"/><use transform="matrix(0.05,0,0,0.05,22,0)" xlink:href="#ai"/><use transform="matrix(0.05,0,0,0.05,32,0)" xlink:href="#Z"/><use transform="matrix(0.05,0,0,0.05,37.95,0)" xlink:href="#an"/><use transform="matrix(0.05,0,0,0.05,46.95,0)" xlink:href="#au"/></g><g id="v"><use transform="matrix(0.05,0,0,0.05,0,0)" xlink:href="#av"/><use transform="matrix(0.05,0,0,0.05,5,0)" xlink:href="#ao"/><use transform="matrix(0.05,0,0,0.05,15,0)" xlink:href="#Z"/></g><g id="w"><use transform="matrix(0.05,0,0,0.05,0,0)" xlink:href="#am"/><use transform="matrix(0.05,0,0,0.05,6.3500000000000005,0)" xlink:href="#ai"/><use transform="matrix(0.05,0,0,0.05,16.35,0)" xlink:href="#ar"/><use transform="matrix(0.05,0,0,0.05,26.35,0)" xlink:href="#ar"/><use transform="matrix(0.05,0,0,0.05,36.35,0)" xlink:href="#aj"/><use transform="matrix(0.05,0,0,0.05,40.300000000000004,0)" xlink:href="#ac"/><use transform="matrix(0.05,0,0,0.05,44.25000000000001,0)" xlink:href="#an"/><use transform="matrix(0.05,0,0,0.05,53.25,0)" xlink:href="#ai"/><use transform="matrix(0.05,0,0,0.05,63.25,0)" xlink:href="#ae"/><use transform="matrix(0.05,0,0,0.05,68.25,0)" xlink:href="#ac"/><use transform="matrix(0.05,0,0,0.05,72.2,0)" xlink:href="#ao"/><use transform="matrix(0.05,0,0,0.05,82.2,0)" xlink:href="#aw"/><use transform="matrix(0.05,0,0,0.05,92.2,0)" xlink:href="#am"/></g><g id="x"><use transform="matrix(0.05,0,0,0.05,0,0)" xlink:href="#Z"/><use transform="matrix(0.05,0,0,0.05,5.95,0)" xlink:href="#aa"/><use transform="matrix(0.05,0,0,0.05,15.949999999999998,0)" xlink:href="#ab"/><use transform="matrix(0.05,0,0,0.05,25.950000000000003,0)" xlink:href="#ac"/><use transform="matrix(0.05,0,0,0.05,29.899999999999995,0)" xlink:href="#ad"/><use transform="matrix(0.05,0,0,0.05,38.9,0)" xlink:href="#ae"/><use transform="matrix(0.05,0,0,0.05,43.9,0)" xlink:href="#Z"/><use transform="matrix(0.05,0,0,0.05,49.85,0)" xlink:href="#af"/></g><g id="y"><use transform="matrix(0.05,0,0,0.05,0,0)" xlink:href="#au"/><use transform="matrix(0.05,0,0,0.05,10,0)" xlink:href="#ai"/><use transform="matrix(0.05,0,0,0.05,20,0)" xlink:href="#aw"/><use transform="matrix(0.05,0,0,0.05,30,0)" xlink:href="#ap"/><use transform="matrix(0.05,0,0,0.05,40,0)" xlink:href="#aj"/><use transform="matrix(0.05,0,0,0.05,43.95,0)" xlink:href="#aa"/><use transform="matrix(0.05,0,0,0.05,53.95,0)" xlink:href="#Z"/></g><g id="z"><use transform="matrix(0.05,0,0,0.05,0,0)" xlink:href="#Z"/><use transform="matrix(0.05,0,0,0.05,5.95,0)" xlink:href="#au"/><use transform="matrix(0.05,0,0,0.05,15.949999999999998,0)" xlink:href="#aF"/><use transform="matrix(0.05,0,0,0.05,21.9,0)" xlink:href="#aG"/><use transform="matrix(0.05,0,0,0.05,32.4,0)" xlink:href="#ad"/><use transform="matrix(0.05,0,0,0.05,41.4,0)" xlink:href="#aa"/><use transform="matrix(0.05,0,0,0.05,51.400000000000006,0)" xlink:href="#ae"/><use transform="matrix(0.05,0,0,0.05,56.400000000000006,0)" xlink:href="#al"/><use transform="matrix(0.05,0,0,0.05,62.35,0)" xlink:href="#am"/><use transform="matrix(0.05,0,0,0.05,68.7,0)" xlink:href="#av"/><use transform="matrix(0.05,0,0,0.05,73.7,0)" xlink:href="#ao"/><use transform="matrix(0.05,0,0,0.05,83.7,0)" xlink:href="#ao"/><use transform="matrix(0.05,0,0,0.05,93.7,0)" xlink:href="#am"/><use transform="matrix(0.05,0,0,0.05,100.05,0)" xlink:href="#aK"/></g><g id="A"><use transform="matrix(0.05,0,0,0.05,0,0)" xlink:href="#at"/><use transform="matrix(0.05,0,0,0.05,12,0)" xlink:href="#aa"/><use transform="matrix(0.05,0,0,0.05,22,0)" xlink:href="#ae"/></g><g id="B"><use transform="matrix(0.05,0,0,0.05,0,0)" xlink:href="#ao"/><use transform="matrix(0.05,0,0,0.05,10,0)" xlink:href="#av"/></g><g id="C"><use transform="matrix(0.05,0,0,0.05,0,0)" xlink:href="#am"/><use transform="matrix(0.05,0,0,0.05,6.3500000000000005,0)" xlink:href="#av"/><use transform="matrix(0.05,0,0,0.05,11.350000000000001,0)" xlink:href="#ao"/><use transform="matrix(0.05,0,0,0.05,21.35,0)" xlink:href="#ao"/><use transform="matrix(0.05,0,0,0.05,31.35,0)" xlink:href="#am"/></g><g id="D"><use transform="matrix(0.05,0,0,0.05,0,0)" xlink:href="#ae"/><use transform="matrix(0.05,0,0,0.05,5,0)" xlink:href="#ao"/></g><g id="E"><use transform="matrix(0.05,0,0,0.05,0,0)" xlink:href="#am"/><use transform="matrix(0.05,0,0,0.05,6.3500000000000005,0)" xlink:href="#aL"/><use transform="matrix(0.05,0,0,0.05,16.35,0)" xlink:href="#ai"/><use transform="matrix(0.05,0,0,0.05,26.35,0)" xlink:href="#Z"/><use transform="matrix(0.05,0,0,0.05,32.300000000000004,0)" xlink:href="#am"/></g><g id="F"><use transform="matrix(0.05,0,0,0.05,0,0)" xlink:href="#az"/><use transform="matrix(0.05,0,0,0.05,12,0)" xlink:href="#aA"/><use transform="matrix(0.05,0,0,0.05,24.950000000000003,0)" xlink:href="#aB"/><use transform="matrix(0.05,0,0,0.05,38.95,0)" xlink:href="#aC"/><use transform="matrix(0.05,0,0,0.05,49.900000000000006,0)" xlink:href="#ax"/><use transform="matrix(0.05,0,0,0.05,60.85,0)" xlink:href="#aB"/><use transform="matrix(0.05,0,0,0.05,74.85000000000001,0)" xlink:href="#aD"/><use transform="matrix(0.05,0,0,0.05,87.80000000000001,0)" xlink:href="#aA"/><use transform="matrix(0.05,0,0,0.05,100.75000000000001,0)" xlink:href="#aE"/></g><g id="G"><use transform="matrix(0.05,0,0,0.05,0,0)" xlink:href="#ao"/><use transform="matrix(0.05,0,0,0.05,10,0)" xlink:href="#Z"/></g><path d="M33 0v-248h34V0H33" id="aM"/><path d="M205 0l-28-72H64L36 0H1l101-248h38L239 0h-34zm-38-99l-47-123c-12 45-31 82-46 123h93" id="aN"/><path d="M30 0v-248h33v221h125V0H30" id="aO"/><g id="H"><use transform="matrix(0.05,0,0,0.05,0,0)" xlink:href="#az"/><use transform="matrix(0.05,0,0,0.05,12,0)" xlink:href="#aM"/><use transform="matrix(0.05,0,0,0.05,17,0)" xlink:href="#aA"/><use transform="matrix(0.05,0,0,0.05,29.950000000000003,0)" xlink:href="#aI"/><use transform="matrix(0.05,0,0,0.05,40.6,0)" xlink:href="#aN"/><use transform="matrix(0.05,0,0,0.05,52.6,0)" xlink:href="#aO"/></g><path d="M210-169c-67 3-38 105-44 169h-31v-121c0-29-5-50-35-48C34-165 62-65 56 0H25l-1-190h30c1 10-1 24 2 32 10-44 99-50 107 0 11-21 27-35 58-36 85-2 47 119 55 194h-31v-121c0-29-5-49-35-48" id="aP"/><g id="I"><use transform="matrix(0.05,0,0,0.05,0,0)" xlink:href="#aP"/><use transform="matrix(0.05,0,0,0.05,14.950000000000001,0)" xlink:href="#ai"/><use transform="matrix(0.05,0,0,0.05,24.950000000000003,0)" xlink:href="#ac"/><use transform="matrix(0.05,0,0,0.05,28.900000000000002,0)" xlink:href="#aw"/><use transform="matrix(0.05,0,0,0.05,38.900000000000006,0)" xlink:href="#al"/><use transform="matrix(0.05,0,0,0.05,44.85000000000001,0)" xlink:href="#as"/></g><g id="J"><use transform="matrix(0.05,0,0,0.05,0,0)" xlink:href="#Z"/><use transform="matrix(0.05,0,0,0.05,5.95,0)" xlink:href="#aa"/><use transform="matrix(0.05,0,0,0.05,15.949999999999998,0)" xlink:href="#ab"/><use transform="matrix(0.05,0,0,0.05,25.950000000000003,0)" xlink:href="#ac"/><use transform="matrix(0.05,0,0,0.05,29.899999999999995,0)" xlink:href="#ad"/><use transform="matrix(0.05,0,0,0.05,38.9,0)" xlink:href="#ae"/><use transform="matrix(0.05,0,0,0.05,43.9,0)" xlink:href="#Z"/><use transform="matrix(0.05,0,0,0.05,49.85,0)" xlink:href="#af"/><use transform="matrix(0.05,0,0,0.05,58.85,0)" xlink:href="#ag"/><use transform="matrix(0.05,0,0,0.05,68.85,0)" xlink:href="#an"/><use transform="matrix(0.05,0,0,0.05,77.85,0)" xlink:href="#ao"/><use transform="matrix(0.05,0,0,0.05,87.85,0)" xlink:href="#aP"/><use transform="matrix(0.05,0,0,0.05,102.80000000000001,0)" xlink:href="#aP"/><use transform="matrix(0.05,0,0,0.05,117.75,0)" xlink:href="#ac"/><use transform="matrix(0.05,0,0,0.05,121.7,0)" xlink:href="#ae"/><use transform="matrix(0.05,0,0,0.05,126.7,0)" xlink:href="#al"/><use transform="matrix(0.05,0,0,0.05,132.65,0)" xlink:href="#am"/><use transform="matrix(0.05,0,0,0.05,139,0)" xlink:href="#an"/><use transform="matrix(0.05,0,0,0.05,148,0)" xlink:href="#ao"/><use transform="matrix(0.05,0,0,0.05,158,0)" xlink:href="#Z"/><use transform="matrix(0.05,0,0,0.05,163.95,0)" xlink:href="#ap"/><use transform="matrix(0.05,0,0,0.05,173.95,0)" xlink:href="#am"/><use transform="matrix(0.05,0,0,0.05,180.29999999999998,0)" xlink:href="#as"/></g><g id="K"><use transform="matrix(0.05,0,0,0.05,0,0)" xlink:href="#Z"/><use transform="matrix(0.05,0,0,0.05,5.95,0)" xlink:href="#au"/><use transform="matrix(0.05,0,0,0.05,15.949999999999998,0)" xlink:href="#aF"/><use transform="matrix(0.05,0,0,0.05,21.9,0)" xlink:href="#aG"/><use transform="matrix(0.05,0,0,0.05,32.4,0)" xlink:href="#an"/><use transform="matrix(0.05,0,0,0.05,41.4,0)" xlink:href="#ao"/><use transform="matrix(0.05,0,0,0.05,51.400000000000006,0)" xlink:href="#aP"/><use transform="matrix(0.05,0,0,0.05,66.35,0)" xlink:href="#aP"/><use transform="matrix(0.05,0,0,0.05,81.3,0)" xlink:href="#ac"/><use transform="matrix(0.05,0,0,0.05,85.25,0)" xlink:href="#ae"/><use transform="matrix(0.05,0,0,0.05,90.25,0)" xlink:href="#al"/><use transform="matrix(0.05,0,0,0.05,96.2,0)" xlink:href="#as"/></g><path d="M212-179c-10-28-35-45-73-45-59 0-87 40-87 99 0 60 29 101 89 101 43 0 62-24 78-52l27 14C228-24 195 4 139 4 59 4 22-46 18-125c-6-104 99-153 187-111 19 9 31 26 39 46" id="aQ"/><g id="L"><use transform="matrix(0.05,0,0,0.05,0,0)" xlink:href="#aQ"/><use transform="matrix(0.05,0,0,0.05,12.950000000000001,0)" xlink:href="#ao"/><use transform="matrix(0.05,0,0,0.05,22.950000000000003,0)" xlink:href="#aw"/><use transform="matrix(0.05,0,0,0.05,32.95,0)" xlink:href="#av"/><use transform="matrix(0.05,0,0,0.05,37.95,0)" xlink:href="#ac"/><use transform="matrix(0.05,0,0,0.05,41.900000000000006,0)" xlink:href="#ab"/><use transform="matrix(0.05,0,0,0.05,51.900000000000006,0)" xlink:href="#ak"/><use transform="matrix(0.05,0,0,0.05,61.900000000000006,0)" xlink:href="#Z"/><use transform="matrix(0.05,0,0,0.05,67.85000000000001,0)" xlink:href="#ai"/><use transform="matrix(0.05,0,0,0.05,77.85000000000001,0)" xlink:href="#ae"/><use transform="matrix(0.05,0,0,0.05,82.85000000000001,0)" xlink:href="#ac"/><use transform="matrix(0.05,0,0,0.05,86.80000000000001,0)" xlink:href="#ao"/><use transform="matrix(0.05,0,0,0.05,96.80000000000001,0)" xlink:href="#aw"/><use transform="matrix(0.05,0,0,0.05,106.80000000000001,0)" xlink:href="#ad"/></g><g id="M"><use transform="matrix(0.05,0,0,0.05,0,0)" xlink:href="#an"/><use transform="matrix(0.05,0,0,0.05,9,0)" xlink:href="#au"/><use transform="matrix(0.05,0,0,0.05,19,0)" xlink:href="#ai"/><use transform="matrix(0.05,0,0,0.05,29,0)" xlink:href="#aw"/><use transform="matrix(0.05,0,0,0.05,39,0)" xlink:href="#ab"/><use transform="matrix(0.05,0,0,0.05,49,0)" xlink:href="#aa"/><use transform="matrix(0.05,0,0,0.05,59,0)" xlink:href="#ad"/></g><path d="M143 0L79-87 56-68V0H24v-261h32v163l83-92h37l-77 82L181 0h-38" id="aR"/><g id="N"><use transform="matrix(0.05,0,0,0.05,0,0)" xlink:href="#ae"/><use transform="matrix(0.05,0,0,0.05,5,0)" xlink:href="#ai"/><use transform="matrix(0.05,0,0,0.05,15,0)" xlink:href="#aR"/><use transform="matrix(0.05,0,0,0.05,24,0)" xlink:href="#aa"/></g><g id="O"><use transform="matrix(0.05,0,0,0.05,0,0)" xlink:href="#aa"/><use transform="matrix(0.05,0,0,0.05,10,0)" xlink:href="#av"/><use transform="matrix(0.05,0,0,0.05,14.65,0)" xlink:href="#av"/><use transform="matrix(0.05,0,0,0.05,19.65,0)" xlink:href="#aa"/><use transform="matrix(0.05,0,0,0.05,29.649999999999995,0)" xlink:href="#an"/><use transform="matrix(0.05,0,0,0.05,38.65,0)" xlink:href="#ae"/></g><path d="M141 0L90-78 38 0H4l68-98-65-92h35l48 74 47-74h35l-64 92 68 98h-35" id="aS"/><g id="P"><use transform="matrix(0.05,0,0,0.05,0,0)" xlink:href="#Z"/><use transform="matrix(0.05,0,0,0.05,5.95,0)" xlink:href="#aa"/><use transform="matrix(0.05,0,0,0.05,15.949999999999998,0)" xlink:href="#ab"/><use transform="matrix(0.05,0,0,0.05,25.950000000000003,0)" xlink:href="#ac"/><use transform="matrix(0.05,0,0,0.05,29.899999999999995,0)" xlink:href="#ad"/><use transform="matrix(0.05,0,0,0.05,38.9,0)" xlink:href="#ae"/><use transform="matrix(0.05,0,0,0.05,43.9,0)" xlink:href="#Z"/><use transform="matrix(0.05,0,0,0.05,49.85,0)" xlink:href="#af"/><use transform="matrix(0.05,0,0,0.05,58.85,0)" xlink:href="#ag"/><use transform="matrix(0.05,0,0,0.05,68.85,0)" xlink:href="#aa"/><use transform="matrix(0.05,0,0,0.05,78.85,0)" xlink:href="#aS"/><use transform="matrix(0.05,0,0,0.05,87.85,0)" xlink:href="#ar"/><use transform="matrix(0.05,0,0,0.05,97.85,0)" xlink:href="#ao"/><use transform="matrix(0.05,0,0,0.05,107.84999999999998,0)" xlink:href="#Z"/><use transform="matrix(0.05,0,0,0.05,113.80000000000001,0)" xlink:href="#ae"/><use transform="matrix(0.05,0,0,0.05,118.80000000000001,0)" xlink:href="#al"/><use transform="matrix(0.05,0,0,0.05,124.75,0)" xlink:href="#am"/><use transform="matrix(0.05,0,0,0.05,131.1,0)" xlink:href="#ai"/><use transform="matrix(0.05,0,0,0.05,141.1,0)" xlink:href="#ar"/><use transform="matrix(0.05,0,0,0.05,151.1,0)" xlink:href="#ar"/><use transform="matrix(0.05,0,0,0.05,161.1,0)" xlink:href="#aj"/><use transform="matrix(0.05,0,0,0.05,165.04999999999998,0)" xlink:href="#ac"/><use transform="matrix(0.05,0,0,0.05,168.99999999999997,0)" xlink:href="#an"/><use transform="matrix(0.05,0,0,0.05,177.99999999999997,0)" xlink:href="#ai"/><use transform="matrix(0.05,0,0,0.05,187.99999999999997,0)" xlink:href="#ae"/><use transform="matrix(0.05,0,0,0.05,192.99999999999997,0)" xlink:href="#ac"/><use transform="matrix(0.05,0,0,0.05,196.94999999999996,0)" xlink:href="#ao"/><use transform="matrix(0.05,0,0,0.05,206.94999999999996,0)" xlink:href="#aw"/><use transform="matrix(0.05,0,0,0.05,216.94999999999996,0)" xlink:href="#am"/><use transform="matrix(0.05,0,0,0.05,223.29999999999995,0)" xlink:href="#aK"/></g><g id="Q"><use transform="matrix(0.05,0,0,0.05,0,0)" xlink:href="#aP"/><use transform="matrix(0.05,0,0,0.05,14.950000000000001,0)" xlink:href="#af"/><use transform="matrix(0.05,0,0,0.05,23.950000000000003,0)" xlink:href="#ag"/><use transform="matrix(0.05,0,0,0.05,33.95,0)" xlink:href="#aa"/><use transform="matrix(0.05,0,0,0.05,43.95,0)" xlink:href="#aS"/><use transform="matrix(0.05,0,0,0.05,52.95,0)" xlink:href="#ar"/><use transform="matrix(0.05,0,0,0.05,62.95,0)" xlink:href="#ao"/><use transform="matrix(0.05,0,0,0.05,72.95,0)" xlink:href="#Z"/><use transform="matrix(0.05,0,0,0.05,78.9,0)" xlink:href="#ae"/><use transform="matrix(0.05,0,0,0.05,83.9,0)" xlink:href="#ag"/><use transform="matrix(0.05,0,0,0.05,93.9,0)" xlink:href="#av"/><use transform="matrix(0.05,0,0,0.05,98.9,0)" xlink:href="#ak"/><use transform="matrix(0.05,0,0,0.05,108.9,0)" xlink:href="#aw"/><use transform="matrix(0.05,0,0,0.05,118.9,0)" xlink:href="#an"/><use transform="matrix(0.05,0,0,0.05,127.9,0)" xlink:href="#ae"/><use transform="matrix(0.05,0,0,0.05,132.9,0)" xlink:href="#ac"/><use transform="matrix(0.05,0,0,0.05,136.85,0)" xlink:href="#ao"/><use transform="matrix(0.05,0,0,0.05,146.85,0)" xlink:href="#aw"/><use transform="matrix(0.05,0,0,0.05,156.85,0)" xlink:href="#as"/></g><g id="R"><use transform="matrix(0.05,0,0,0.05,0,0)" xlink:href="#Z"/><use transform="matrix(0.05,0,0,0.05,5.95,0)" xlink:href="#au"/><use transform="matrix(0.05,0,0,0.05,15.949999999999998,0)" xlink:href="#aF"/><use transform="matrix(0.05,0,0,0.05,21.9,0)" xlink:href="#aG"/><use transform="matrix(0.05,0,0,0.05,32.4,0)" xlink:href="#aa"/><use transform="matrix(0.05,0,0,0.05,42.4,0)" xlink:href="#aS"/><use transform="matrix(0.05,0,0,0.05,51.400000000000006,0)" xlink:href="#ar"/><use transform="matrix(0.05,0,0,0.05,61.400000000000006,0)" xlink:href="#ao"/><use transform="matrix(0.05,0,0,0.05,71.4,0)" xlink:href="#Z"/><use transform="matrix(0.05,0,0,0.05,77.35000000000001,0)" xlink:href="#ae"/><use transform="matrix(0.05,0,0,0.05,82.35000000000001,0)" xlink:href="#al"/><use transform="matrix(0.05,0,0,0.05,88.30000000000001,0)" xlink:href="#aP"/><use transform="matrix(0.05,0,0,0.05,103.25,0)" xlink:href="#af"/><use transform="matrix(0.05,0,0,0.05,112.25,0)" xlink:href="#ag"/><use transform="matrix(0.05,0,0,0.05,122.25,0)" xlink:href="#aa"/><use transform="matrix(0.05,0,0,0.05,132.25,0)" xlink:href="#aS"/><use transform="matrix(0.05,0,0,0.05,141.25,0)" xlink:href="#ar"/><use transform="matrix(0.05,0,0,0.05,151.25,0)" xlink:href="#ao"/><use transform="matrix(0.05,0,0,0.05,161.25,0)" xlink:href="#Z"/><use transform="matrix(0.05,0,0,0.05,167.2,0)" xlink:href="#ae"/><use transform="matrix(0.05,0,0,0.05,172.2,0)" xlink:href="#ag"/><use transform="matrix(0.05,0,0,0.05,182.2,0)" xlink:href="#av"/><use transform="matrix(0.05,0,0,0.05,187.2,0)" xlink:href="#ak"/><use transform="matrix(0.05,0,0,0.05,197.2,0)" xlink:href="#aw"/><use transform="matrix(0.05,0,0,0.05,207.19999999999996,0)" xlink:href="#an"/><use transform="matrix(0.05,0,0,0.05,216.19999999999996,0)" xlink:href="#ae"/><use transform="matrix(0.05,0,0,0.05,221.19999999999996,0)" xlink:href="#ac"/><use transform="matrix(0.05,0,0,0.05,225.14999999999998,0)" xlink:href="#ao"/><use transform="matrix(0.05,0,0,0.05,235.14999999999998,0)" xlink:href="#aw"/><use transform="matrix(0.05,0,0,0.05,245.14999999999998,0)" xlink:href="#as"/></g><g id="S"><use transform="matrix(0.05,0,0,0.05,0,0)" xlink:href="#aQ"/><use transform="matrix(0.05,0,0,0.05,12.950000000000001,0)" xlink:href="#ai"/><use transform="matrix(0.05,0,0,0.05,22.950000000000003,0)" xlink:href="#aj"/><use transform="matrix(0.05,0,0,0.05,26.900000000000002,0)" xlink:href="#aj"/></g><g id="T"><use transform="matrix(0.05,0,0,0.05,0,0)" xlink:href="#am"/><use transform="matrix(0.05,0,0,0.05,6.3500000000000005,0)" xlink:href="#aP"/><use transform="matrix(0.05,0,0,0.05,21.3,0)" xlink:href="#af"/><use transform="matrix(0.05,0,0,0.05,30.3,0)" xlink:href="#ag"/><use transform="matrix(0.05,0,0,0.05,40.3,0)" xlink:href="#aa"/><use transform="matrix(0.05,0,0,0.05,50.3,0)" xlink:href="#aS"/><use transform="matrix(0.05,0,0,0.05,59.29999999999999,0)" xlink:href="#ar"/><use transform="matrix(0.05,0,0,0.05,69.3,0)" xlink:href="#ao"/><use transform="matrix(0.05,0,0,0.05,79.3,0)" xlink:href="#Z"/><use transform="matrix(0.05,0,0,0.05,85.25,0)" xlink:href="#ae"/><use transform="matrix(0.05,0,0,0.05,90.25,0)" xlink:href="#ag"/><use transform="matrix(0.05,0,0,0.05,100.25,0)" xlink:href="#av"/><use transform="matrix(0.05,0,0,0.05,105.25,0)" xlink:href="#ak"/><use transform="matrix(0.05,0,0,0.05,115.25,0)" xlink:href="#aw"/><use transform="matrix(0.05,0,0,0.05,125.25,0)" xlink:href="#an"/><use transform="matrix(0.05,0,0,0.05,134.25,0)" xlink:href="#ae"/><use transform="matrix(0.05,0,0,0.05,139.25,0)" xlink:href="#ac"/><use transform="matrix(0.05,0,0,0.05,143.2,0)" xlink:href="#ao"/><use transform="matrix(0.05,0,0,0.05,153.2,0)" xlink:href="#aw"/><use transform="matrix(0.05,0,0,0.05,163.2,0)" xlink:href="#al"/><use transform="matrix(0.05,0,0,0.05,169.14999999999998,0)" xlink:href="#aR"/><use transform="matrix(0.05,0,0,0.05,178.14999999999998,0)" xlink:href="#aa"/><use transform="matrix(0.05,0,0,0.05,188.14999999999998,0)" xlink:href="#af"/><use transform="matrix(0.05,0,0,0.05,195.79999999999998,0)" xlink:href="#aK"/></g><g id="U"><use transform="matrix(0.05,0,0,0.05,0,0)" xlink:href="#ah"/><use transform="matrix(0.05,0,0,0.05,9,0)" xlink:href="#ai"/><use transform="matrix(0.05,0,0,0.05,19,0)" xlink:href="#aj"/><use transform="matrix(0.05,0,0,0.05,22.95,0)" xlink:href="#ak"/><use transform="matrix(0.05,0,0,0.05,32.95,0)" xlink:href="#aa"/><use transform="matrix(0.05,0,0,0.05,42.95,0)" xlink:href="#as"/><use transform="matrix(0.05,0,0,0.05,48.900000000000006,0)" xlink:href="#am"/></g><g id="V"><use transform="matrix(0.05,0,0,0.05,0,0)" xlink:href="#aa"/><use transform="matrix(0.05,0,0,0.05,10,0)" xlink:href="#ai"/><use transform="matrix(0.05,0,0,0.05,20,0)" xlink:href="#an"/><use transform="matrix(0.05,0,0,0.05,29,0)" xlink:href="#au"/></g><g id="W"><use transform="matrix(0.05,0,0,0.05,0,0)" xlink:href="#an"/><use transform="matrix(0.05,0,0,0.05,9,0)" xlink:href="#ao"/><use transform="matrix(0.05,0,0,0.05,19,0)" xlink:href="#aw"/><use transform="matrix(0.05,0,0,0.05,29,0)" xlink:href="#av"/><use transform="matrix(0.05,0,0,0.05,34,0)" xlink:href="#ac"/><use transform="matrix(0.05,0,0,0.05,37.95,0)" xlink:href="#ab"/><use transform="matrix(0.05,0,0,0.05,47.95,0)" xlink:href="#ak"/><use transform="matrix(0.05,0,0,0.05,57.95,0)" xlink:href="#Z"/><use transform="matrix(0.05,0,0,0.05,63.900000000000006,0)" xlink:href="#ai"/><use transform="matrix(0.05,0,0,0.05,73.9,0)" xlink:href="#ae"/><use transform="matrix(0.05,0,0,0.05,78.9,0)" xlink:href="#ac"/><use transform="matrix(0.05,0,0,0.05,82.85000000000001,0)" xlink:href="#ao"/><use transform="matrix(0.05,0,0,0.05,92.85000000000001,0)" xlink:href="#aw"/></g><g id="X"><use transform="matrix(0.05,0,0,0.05,0,0)" xlink:href="#ac"/><use transform="matrix(0.05,0,0,0.05,3.95,0)" xlink:href="#aw"/></g><g id="Y"><use transform="matrix(0.05,0,0,0.05,0,0)" xlink:href="#am"/><use transform="matrix(0.05,0,0,0.05,6.3500000000000005,0)" xlink:href="#ai"/><use transform="matrix(0.05,0,0,0.05,16.35,0)" xlink:href="#ar"/><use transform="matrix(0.05,0,0,0.05,26.35,0)" xlink:href="#ar"/><use transform="matrix(0.05,0,0,0.05,36.35,0)" xlink:href="#aj"/><use transform="matrix(0.05,0,0,0.05,40.300000000000004,0)" xlink:href="#ac"/><use transform="matrix(0.05,0,0,0.05,44.25000000000001,0)" xlink:href="#an"/><use transform="matrix(0.05,0,0,0.05,53.25,0)" xlink:href="#ai"/><use transform="matrix(0.05,0,0,0.05,63.25,0)" xlink:href="#ae"/><use transform="matrix(0.05,0,0,0.05,68.25,0)" xlink:href="#ac"/><use transform="matrix(0.05,0,0,0.05,72.2,0)" xlink:href="#ao"/><use transform="matrix(0.05,0,0,0.05,82.2,0)" xlink:href="#aw"/><use transform="matrix(0.05,0,0,0.05,92.2,0)" xlink:href="#am"/></g></defs></g></svg>