<svg xmlns="http://www.w3.org/2000/svg" xmlns:xlink="http://www.w3.org/1999/xlink" xmlns:lucid="lucid" width="500" height="880"><g transform="translate(-760 -40)" lucid:page-tab-id="0_0"><path d="M780 60h160v120H780z" stroke="#000" stroke-width="2" fill="#fff"/><use xlink:href="#a" transform="matrix(1,0,0,1,785,65) translate(32.724999999999994 58.6)"/><use xlink:href="#b" transform="matrix(1,0,0,1,785,65) translate(80.275 58.6)"/><path d="M812 240h96l32 60-32 60h-96l-32-60z" stroke="#000" stroke-width="2" fill="#fff"/><use xlink:href="#c" transform="matrix(1,0,0,1,785,245) translate(10.125 47.8)"/><use xlink:href="#d" transform="matrix(1,0,0,1,785,245) translate(81.025 47.8)"/><use xlink:href="#e" transform="matrix(1,0,0,1,785,245) translate(21.574999999999996 69.4)"/><use xlink:href="#f" transform="matrix(1,0,0,1,785,245) translate(86.475 69.4)"/><use xlink:href="#g" transform="matrix(1,0,0,1,785,245) translate(110.475 69.4)"/><path d="M860 181v39.76M860 181v-3" stroke="#000" stroke-width="2" fill="none"/><path d="M860 235.76l-4.64-14.26h9.28z" stroke="#000" stroke-width="2"/><path d="M1000 240h240v120h-240z" stroke="#000" stroke-width="2" fill="#fff"/><use xlink:href="#h" transform="matrix(1,0,0,1,1005,245) translate(36.72500000000002 58.6)"/><path d="M941.13 300h39.63M941.13 300h-3" stroke="#000" stroke-width="2" fill="none"/><path d="M995.76 300l-14.26 4.64v-9.28z" stroke="#000" stroke-width="2"/><path d="M812 420h96l32 60-32 60h-96l-32-60z" stroke="#000" stroke-width="2" fill="#fff"/><use xlink:href="#c" transform="matrix(1,0,0,1,785,425) translate(9.574999999999989 37)"/><use xlink:href="#i" transform="matrix(1,0,0,1,785,425) translate(80.475 37)"/><use xlink:href="#j" transform="matrix(1,0,0,1,785,425) translate(8.599999999999994 58.6)"/><use xlink:href="#k" transform="matrix(1,0,0,1,785,425) translate(63.449999999999996 58.6)"/><use xlink:href="#l" transform="matrix(1,0,0,1,785,425) translate(122.4 58.6)"/><use xlink:href="#m" transform="matrix(1,0,0,1,785,425) translate(61.5 80.20000000000002)"/><path d="M1000 420h240v120h-240z" stroke="#000" stroke-width="2" fill="#fff"/><use xlink:href="#n" transform="matrix(1,0,0,1,1005,425) translate(15.750000000000028 58.6)"/><path d="M941.13 480h39.63M941.13 480h-3" stroke="#000" stroke-width="2" fill="none"/><path d="M995.76 480l-14.26 4.64v-9.28z" stroke="#000" stroke-width="2"/><path d="M860 361v39.76M860 361v-3" stroke="#000" stroke-width="2" fill="none"/><path d="M860 415.76l-4.64-14.26h9.28z" stroke="#000" stroke-width="2"/><path d="M812 600h96l32 60-32 60h-96l-32-60z" stroke="#000" stroke-width="2" fill="#fff"/><use xlink:href="#c" transform="matrix(1,0,0,1,785,605) translate(9.574999999999989 37)"/><use xlink:href="#i" transform="matrix(1,0,0,1,785,605) translate(80.475 37)"/><use xlink:href="#j" transform="matrix(1,0,0,1,785,605) translate(4.125 58.6)"/><use xlink:href="#o" transform="matrix(1,0,0,1,785,605) translate(58.975 58.6)"/><use xlink:href="#f" transform="matrix(1,0,0,1,785,605) translate(44.55 80.20000000000002)"/><use xlink:href="#p" transform="matrix(1,0,0,1,785,605) translate(68.55 80.20000000000002)"/><path d="M1000 600h240v120h-240z" stroke="#000" stroke-width="2" fill="#fff"/><g><use xlink:href="#q" transform="matrix(1,0,0,1,1005,605) translate(15.700000000000017 58.6)"/></g><path d="M941.13 660h39.63M941.13 660h-3" stroke="#000" stroke-width="2" fill="none"/><path d="M995.76 660l-14.26 4.64v-9.28z" stroke="#000" stroke-width="2"/><path d="M860 541v39.76M860 541v-3" stroke="#000" stroke-width="2" fill="none"/><path d="M860 595.76l-4.64-14.26h9.28z" stroke="#000" stroke-width="2"/><path d="M780 780h160v120H780z" stroke="#000" stroke-width="2" fill="#fff"/><g><use xlink:href="#r" transform="matrix(1,0,0,1,785,785) translate(49.599999999999994 58.6)"/></g><path d="M860 721v39.76M860 721v-3" stroke="#000" stroke-width="2" fill="none"/><path d="M860 775.76l-4.64-14.26h9.28z" stroke="#000" stroke-width="2"/><defs><path d="M233-177c-1 41-23 64-60 70L243 0h-38l-65-103H63V0H30v-248c88 3 205-21 203 71zM63-129c60-2 137 13 137-47 0-61-80-42-137-45v92" id="s"/><path d="M33 0v-248h34V0H33" id="t"/><path d="M140-251c81 0 123 46 123 126C263-46 219 4 140 4 59 4 17-45 17-125s42-126 123-126zm0 227c63 0 89-41 89-101s-29-99-89-99c-61 0-89 39-89 99S79-25 140-24" id="u"/><path d="M127-220V0H93v-220H8v-28h204v28h-85" id="v"/><g id="a"><use transform="matrix(0.05,0,0,0.05,0,0)" xlink:href="#s"/><use transform="matrix(0.05,0,0,0.05,12.950000000000001,0)" xlink:href="#t"/><use transform="matrix(0.05,0,0,0.05,17.950000000000003,0)" xlink:href="#u"/><use transform="matrix(0.05,0,0,0.05,31.950000000000003,0)" xlink:href="#v"/></g><path d="M160-131c35 5 61 23 61 61C221 17 115-2 30 0v-248c76 3 177-17 177 60 0 33-19 50-47 57zm-97-11c50-1 110 9 110-42 0-47-63-36-110-37v79zm0 115c55-2 124 14 124-45 0-56-70-42-124-44v89" id="w"/><path d="M100-194c62-1 85 37 85 99 1 63-27 99-86 99S16-35 15-95c0-66 28-99 85-99zM99-20c44 1 53-31 53-75 0-43-8-75-51-75s-53 32-53 75 10 74 51 75" id="x"/><path d="M59-47c-2 24 18 29 38 22v24C64 9 27 4 27-40v-127H5v-23h24l9-43h21v43h35v23H59v120" id="y"/><g id="b"><use transform="matrix(0.05,0,0,0.05,0,0)" xlink:href="#w"/><use transform="matrix(0.05,0,0,0.05,12,0)" xlink:href="#x"/><use transform="matrix(0.05,0,0,0.05,22,0)" xlink:href="#x"/><use transform="matrix(0.05,0,0,0.05,32,0)" xlink:href="#y"/></g><path d="M63-220v92h138v28H63V0H30v-248h175v28H63" id="z"/><path d="M114-163C36-179 61-72 57 0H25l-1-190h30c1 12-1 29 2 39 6-27 23-49 58-41v29" id="A"/><path d="M100-194c63 0 86 42 84 106H49c0 40 14 67 53 68 26 1 43-12 49-29l28 8c-11 28-37 45-77 45C44 4 14-33 15-96c1-61 26-98 85-98zm52 81c6-60-76-77-97-28-3 7-6 17-6 28h103" id="B"/><path d="M141-36C126-15 110 5 73 4 37 3 15-17 15-53c-1-64 63-63 125-63 3-35-9-54-41-54-24 1-41 7-42 31l-33-3c5-37 33-52 76-52 45 0 72 20 72 64v82c-1 20 7 32 28 27v20c-31 9-61-2-59-35zM48-53c0 20 12 33 32 33 41-3 63-29 60-74-43 2-92-5-92 41" id="C"/><path d="M96-169c-40 0-48 33-48 73s9 75 48 75c24 0 41-14 43-38l32 2c-6 37-31 61-74 61-59 0-76-41-82-99-10-93 101-131 147-64 4 7 5 14 7 22l-32 3c-4-21-16-35-41-35" id="D"/><path d="M106-169C34-169 62-67 57 0H25v-261h32l-1 103c12-21 28-36 61-36 89 0 53 116 60 194h-32v-121c2-32-8-49-39-48" id="E"/><g id="c"><use transform="matrix(0.05,0,0,0.05,0,0)" xlink:href="#z"/><use transform="matrix(0.05,0,0,0.05,10.950000000000001,0)" xlink:href="#x"/><use transform="matrix(0.05,0,0,0.05,20.950000000000003,0)" xlink:href="#A"/><use transform="matrix(0.05,0,0,0.05,26.900000000000002,0)" xlink:href="#B"/><use transform="matrix(0.05,0,0,0.05,36.900000000000006,0)" xlink:href="#C"/><use transform="matrix(0.05,0,0,0.05,46.900000000000006,0)" xlink:href="#D"/><use transform="matrix(0.05,0,0,0.05,55.900000000000006,0)" xlink:href="#E"/></g><path d="M177-190C167-65 218 103 67 71c-23-6-38-20-44-43l32-5c15 47 100 32 89-28v-30C133-14 115 1 83 1 29 1 15-40 15-95c0-56 16-97 71-98 29-1 48 16 59 35 1-10 0-23 2-32h30zM94-22c36 0 50-32 50-73 0-42-14-75-50-75-39 0-46 34-46 75s6 73 46 73" id="F"/><path d="M24-231v-30h32v30H24zM24 0v-190h32V0H24" id="G"/><path d="M135-143c-3-34-86-38-87 0 15 53 115 12 119 90S17 21 10-45l28-5c4 36 97 45 98 0-10-56-113-15-118-90-4-57 82-63 122-42 12 7 21 19 24 35" id="H"/><path d="M179-190L93 31C79 59 56 82 12 73V49c39 6 53-20 64-50L1-190h34L92-34l54-156h33" id="I"/><g id="d"><use transform="matrix(0.05,0,0,0.05,0,0)" xlink:href="#A"/><use transform="matrix(0.05,0,0,0.05,5.95,0)" xlink:href="#B"/><use transform="matrix(0.05,0,0,0.05,15.949999999999998,0)" xlink:href="#F"/><use transform="matrix(0.05,0,0,0.05,25.950000000000003,0)" xlink:href="#G"/><use transform="matrix(0.05,0,0,0.05,29.899999999999995,0)" xlink:href="#H"/><use transform="matrix(0.05,0,0,0.05,38.9,0)" xlink:href="#y"/><use transform="matrix(0.05,0,0,0.05,43.9,0)" xlink:href="#A"/><use transform="matrix(0.05,0,0,0.05,49.85,0)" xlink:href="#I"/></g><path d="M117-194c89-4 53 116 60 194h-32v-121c0-31-8-49-39-48C34-167 62-67 57 0H25l-1-190h30c1 10-1 24 2 32 11-22 29-35 61-36" id="J"/><path d="M85-194c31 0 48 13 60 33l-1-100h32l1 261h-30c-2-10 0-23-3-31C134-8 116 4 85 4 32 4 16-35 15-94c0-66 23-100 70-100zm9 24c-40 0-46 34-46 75 0 40 6 74 45 74 42 0 51-32 51-76 0-42-9-74-50-73" id="K"/><path d="M24 0v-261h32V0H24" id="L"/><g id="e"><use transform="matrix(0.05,0,0,0.05,0,0)" xlink:href="#E"/><use transform="matrix(0.05,0,0,0.05,10,0)" xlink:href="#C"/><use transform="matrix(0.05,0,0,0.05,20,0)" xlink:href="#J"/><use transform="matrix(0.05,0,0,0.05,30,0)" xlink:href="#K"/><use transform="matrix(0.05,0,0,0.05,40,0)" xlink:href="#L"/><use transform="matrix(0.05,0,0,0.05,43.95,0)" xlink:href="#B"/><use transform="matrix(0.05,0,0,0.05,53.95,0)" xlink:href="#A"/></g><g id="f"><use transform="matrix(0.05,0,0,0.05,0,0)" xlink:href="#C"/><use transform="matrix(0.05,0,0,0.05,10,0)" xlink:href="#H"/></g><path d="M135-150c-39-12-60 13-60 57V0H25l-1-190h47c2 13-1 29 3 40 6-28 27-53 61-41v41" id="M"/><path d="M114-157C55-157 80-60 75 0H25v-261h50l-1 109c12-26 28-41 61-42 86-1 58 113 63 194h-50c-7-57 23-157-34-157" id="N"/><g id="g"><use transform="matrix(0.05,0,0,0.05,0,0)" xlink:href="#M"/><use transform="matrix(0.05,0,0,0.05,7,0)" xlink:href="#N"/></g><path d="M-5 72V49h209v23H-5" id="O"/><path d="M87 75C49 33 22-17 22-94c0-76 28-126 65-167h31c-38 41-64 92-64 168S80 34 118 75H87" id="P"/><path d="M33-261c38 41 65 92 65 168S71 34 33 75H2C39 34 66-17 66-93S39-220 2-261h31" id="Q"/><g id="h"><use transform="matrix(0.05,0,0,0.05,0,0)" xlink:href="#A"/><use transform="matrix(0.05,0,0,0.05,5.95,0)" xlink:href="#B"/><use transform="matrix(0.05,0,0,0.05,15.949999999999998,0)" xlink:href="#F"/><use transform="matrix(0.05,0,0,0.05,25.950000000000003,0)" xlink:href="#G"/><use transform="matrix(0.05,0,0,0.05,29.899999999999995,0)" xlink:href="#H"/><use transform="matrix(0.05,0,0,0.05,38.9,0)" xlink:href="#y"/><use transform="matrix(0.05,0,0,0.05,43.9,0)" xlink:href="#A"/><use transform="matrix(0.05,0,0,0.05,49.85,0)" xlink:href="#I"/><use transform="matrix(0.05,0,0,0.05,58.85,0)" xlink:href="#O"/><use transform="matrix(0.05,0,0,0.05,68.85,0)" xlink:href="#A"/><use transform="matrix(0.05,0,0,0.05,74.8,0)" xlink:href="#B"/><use transform="matrix(0.05,0,0,0.05,84.8,0)" xlink:href="#F"/><use transform="matrix(0.05,0,0,0.05,94.8,0)" xlink:href="#G"/><use transform="matrix(0.05,0,0,0.05,98.75,0)" xlink:href="#H"/><use transform="matrix(0.05,0,0,0.05,107.75,0)" xlink:href="#y"/><use transform="matrix(0.05,0,0,0.05,112.75,0)" xlink:href="#B"/><use transform="matrix(0.05,0,0,0.05,122.75,0)" xlink:href="#A"/><use transform="matrix(0.05,0,0,0.05,128.7,0)" xlink:href="#P"/><use transform="matrix(0.05,0,0,0.05,134.64999999999998,0)" xlink:href="#A"/><use transform="matrix(0.05,0,0,0.05,140.59999999999997,0)" xlink:href="#E"/><use transform="matrix(0.05,0,0,0.05,150.59999999999997,0)" xlink:href="#Q"/></g><g id="i"><use transform="matrix(0.05,0,0,0.05,0,0)" xlink:href="#H"/><use transform="matrix(0.05,0,0,0.05,9,0)" xlink:href="#y"/><use transform="matrix(0.05,0,0,0.05,14,0)" xlink:href="#x"/><use transform="matrix(0.05,0,0,0.05,24,0)" xlink:href="#A"/><use transform="matrix(0.05,0,0,0.05,29.950000000000003,0)" xlink:href="#C"/><use transform="matrix(0.05,0,0,0.05,39.95,0)" xlink:href="#F"/><use transform="matrix(0.05,0,0,0.05,49.95,0)" xlink:href="#B"/></g><path d="M101-234c-31-9-42 10-38 44h38v23H63V0H32v-167H5v-23h27c-7-52 17-82 69-68v24" id="R"/><g id="j"><use transform="matrix(0.05,0,0,0.05,0,0)" xlink:href="#R"/><use transform="matrix(0.05,0,0,0.05,5,0)" xlink:href="#C"/><use transform="matrix(0.05,0,0,0.05,15,0)" xlink:href="#D"/><use transform="matrix(0.05,0,0,0.05,24,0)" xlink:href="#G"/><use transform="matrix(0.05,0,0,0.05,27.950000000000003,0)" xlink:href="#L"/><use transform="matrix(0.05,0,0,0.05,31.899999999999995,0)" xlink:href="#G"/><use transform="matrix(0.05,0,0,0.05,35.85,0)" xlink:href="#y"/><use transform="matrix(0.05,0,0,0.05,40.85,0)" xlink:href="#I"/></g><path d="M84 4C-5 8 30-112 23-190h32v120c0 31 7 50 39 49 72-2 45-101 50-169h31l1 190h-30c-1-10 1-25-2-33-11 22-28 36-60 37" id="S"/><g id="k"><use transform="matrix(0.05,0,0,0.05,0,0)" xlink:href="#H"/><use transform="matrix(0.05,0,0,0.05,9,0)" xlink:href="#x"/><use transform="matrix(0.05,0,0,0.05,19,0)" xlink:href="#S"/><use transform="matrix(0.05,0,0,0.05,29,0)" xlink:href="#A"/><use transform="matrix(0.05,0,0,0.05,34.95,0)" xlink:href="#D"/><use transform="matrix(0.05,0,0,0.05,43.95,0)" xlink:href="#B"/></g><g id="l"><use transform="matrix(0.05,0,0,0.05,0,0)" xlink:href="#C"/><use transform="matrix(0.05,0,0,0.05,10,0)" xlink:href="#H"/></g><path d="M137-138c1-29-70-34-71-4 15 46 118 7 119 86 1 83-164 76-172 9l43-7c4 19 20 25 44 25 33 8 57-30 24-41C81-84 22-81 20-136c-2-80 154-74 161-7" id="T"/><path d="M190-63c-7 42-38 67-86 67-59 0-84-38-90-98-12-110 154-137 174-36l-49 2c-2-19-15-32-35-32-30 0-35 28-38 64-6 74 65 87 74 30" id="U"/><g id="m"><use transform="matrix(0.05,0,0,0.05,0,0)" xlink:href="#T"/><use transform="matrix(0.05,0,0,0.05,10,0)" xlink:href="#M"/><use transform="matrix(0.05,0,0,0.05,17,0)" xlink:href="#U"/></g><g id="n"><use transform="matrix(0.05,0,0,0.05,0,0)" xlink:href="#A"/><use transform="matrix(0.05,0,0,0.05,5.95,0)" xlink:href="#B"/><use transform="matrix(0.05,0,0,0.05,15.949999999999998,0)" xlink:href="#F"/><use transform="matrix(0.05,0,0,0.05,25.950000000000003,0)" xlink:href="#G"/><use transform="matrix(0.05,0,0,0.05,29.899999999999995,0)" xlink:href="#H"/><use transform="matrix(0.05,0,0,0.05,38.9,0)" xlink:href="#y"/><use transform="matrix(0.05,0,0,0.05,43.9,0)" xlink:href="#A"/><use transform="matrix(0.05,0,0,0.05,49.85,0)" xlink:href="#I"/><use transform="matrix(0.05,0,0,0.05,58.85,0)" xlink:href="#O"/><use transform="matrix(0.05,0,0,0.05,68.85,0)" xlink:href="#H"/><use transform="matrix(0.05,0,0,0.05,77.85,0)" xlink:href="#A"/><use transform="matrix(0.05,0,0,0.05,83.8,0)" xlink:href="#D"/><use transform="matrix(0.05,0,0,0.05,92.8,0)" xlink:href="#O"/><use transform="matrix(0.05,0,0,0.05,102.80000000000001,0)" xlink:href="#A"/><use transform="matrix(0.05,0,0,0.05,108.75,0)" xlink:href="#B"/><use transform="matrix(0.05,0,0,0.05,118.75,0)" xlink:href="#F"/><use transform="matrix(0.05,0,0,0.05,128.75,0)" xlink:href="#G"/><use transform="matrix(0.05,0,0,0.05,132.7,0)" xlink:href="#H"/><use transform="matrix(0.05,0,0,0.05,141.7,0)" xlink:href="#y"/><use transform="matrix(0.05,0,0,0.05,146.7,0)" xlink:href="#B"/><use transform="matrix(0.05,0,0,0.05,156.7,0)" xlink:href="#A"/><use transform="matrix(0.05,0,0,0.05,162.64999999999998,0)" xlink:href="#P"/><use transform="matrix(0.05,0,0,0.05,168.59999999999997,0)" xlink:href="#H"/><use transform="matrix(0.05,0,0,0.05,177.59999999999997,0)" xlink:href="#A"/><use transform="matrix(0.05,0,0,0.05,183.54999999999995,0)" xlink:href="#D"/><use transform="matrix(0.05,0,0,0.05,192.54999999999995,0)" xlink:href="#Q"/></g><g id="o"><use transform="matrix(0.05,0,0,0.05,0,0)" xlink:href="#K"/><use transform="matrix(0.05,0,0,0.05,10,0)" xlink:href="#B"/><use transform="matrix(0.05,0,0,0.05,20,0)" xlink:href="#H"/><use transform="matrix(0.05,0,0,0.05,29,0)" xlink:href="#y"/><use transform="matrix(0.05,0,0,0.05,34,0)" xlink:href="#G"/><use transform="matrix(0.05,0,0,0.05,37.95,0)" xlink:href="#J"/><use transform="matrix(0.05,0,0,0.05,47.95,0)" xlink:href="#C"/><use transform="matrix(0.05,0,0,0.05,57.95,0)" xlink:href="#y"/><use transform="matrix(0.05,0,0,0.05,62.95,0)" xlink:href="#G"/><use transform="matrix(0.05,0,0,0.05,66.9,0)" xlink:href="#x"/><use transform="matrix(0.05,0,0,0.05,76.9,0)" xlink:href="#J"/></g><path d="M88-194c31-1 46 15 58 34l-1-101h50l1 261h-48c-2-10 0-23-3-31C134-8 116 4 84 4 32 4 16-41 15-95c0-56 19-97 73-99zm17 164c33 0 40-30 41-66 1-37-9-64-41-64s-38 30-39 65c0 43 13 65 39 65" id="V"/><path d="M185-48c-13 30-37 53-82 52C43 2 14-33 14-96s30-98 90-98c62 0 83 45 84 108H66c0 31 8 55 39 56 18 0 30-7 34-22zm-45-69c5-46-57-63-70-21-2 6-4 13-4 21h74" id="W"/><path d="M115-3C79 11 28 4 28-45v-112H4v-33h27l15-45h31v45h36v33H77v99c-1 23 16 31 38 25v30" id="X"/><g id="p"><use transform="matrix(0.05,0,0,0.05,0,0)" xlink:href="#V"/><use transform="matrix(0.05,0,0,0.05,10.950000000000001,0)" xlink:href="#W"/><use transform="matrix(0.05,0,0,0.05,20.950000000000003,0)" xlink:href="#T"/><use transform="matrix(0.05,0,0,0.05,30.950000000000003,0)" xlink:href="#X"/></g><g id="q"><use transform="matrix(0.05,0,0,0.05,0,0)" xlink:href="#A"/><use transform="matrix(0.05,0,0,0.05,5.95,0)" xlink:href="#B"/><use transform="matrix(0.05,0,0,0.05,15.949999999999998,0)" xlink:href="#F"/><use transform="matrix(0.05,0,0,0.05,25.950000000000003,0)" xlink:href="#G"/><use transform="matrix(0.05,0,0,0.05,29.899999999999995,0)" xlink:href="#H"/><use transform="matrix(0.05,0,0,0.05,38.9,0)" xlink:href="#y"/><use transform="matrix(0.05,0,0,0.05,43.9,0)" xlink:href="#A"/><use transform="matrix(0.05,0,0,0.05,49.85,0)" xlink:href="#I"/><use transform="matrix(0.05,0,0,0.05,58.85,0)" xlink:href="#O"/><use transform="matrix(0.05,0,0,0.05,68.85,0)" xlink:href="#K"/><use transform="matrix(0.05,0,0,0.05,78.85,0)" xlink:href="#H"/><use transform="matrix(0.05,0,0,0.05,87.85,0)" xlink:href="#y"/><use transform="matrix(0.05,0,0,0.05,92.85,0)" xlink:href="#O"/><use transform="matrix(0.05,0,0,0.05,102.84999999999998,0)" xlink:href="#A"/><use transform="matrix(0.05,0,0,0.05,108.80000000000001,0)" xlink:href="#B"/><use transform="matrix(0.05,0,0,0.05,118.80000000000001,0)" xlink:href="#F"/><use transform="matrix(0.05,0,0,0.05,128.8,0)" xlink:href="#G"/><use transform="matrix(0.05,0,0,0.05,132.75,0)" xlink:href="#H"/><use transform="matrix(0.05,0,0,0.05,141.75,0)" xlink:href="#y"/><use transform="matrix(0.05,0,0,0.05,146.75,0)" xlink:href="#B"/><use transform="matrix(0.05,0,0,0.05,156.75,0)" xlink:href="#A"/><use transform="matrix(0.05,0,0,0.05,162.7,0)" xlink:href="#P"/><use transform="matrix(0.05,0,0,0.05,168.64999999999998,0)" xlink:href="#K"/><use transform="matrix(0.05,0,0,0.05,178.64999999999998,0)" xlink:href="#H"/><use transform="matrix(0.05,0,0,0.05,187.64999999999998,0)" xlink:href="#y"/><use transform="matrix(0.05,0,0,0.05,192.64999999999998,0)" xlink:href="#Q"/></g><path d="M210-169c-67 3-38 105-44 169h-31v-121c0-29-5-50-35-48C34-165 62-65 56 0H25l-1-190h30c1 10-1 24 2 32 10-44 99-50 107 0 11-21 27-35 58-36 85-2 47 119 55 194h-31v-121c0-29-5-49-35-48" id="Y"/><g id="r"><use transform="matrix(0.05,0,0,0.05,0,0)" xlink:href="#Y"/><use transform="matrix(0.05,0,0,0.05,14.950000000000001,0)" xlink:href="#C"/><use transform="matrix(0.05,0,0,0.05,24.950000000000003,0)" xlink:href="#G"/><use transform="matrix(0.05,0,0,0.05,28.900000000000002,0)" xlink:href="#J"/><use transform="matrix(0.05,0,0,0.05,38.900000000000006,0)" xlink:href="#P"/><use transform="matrix(0.05,0,0,0.05,44.85000000000001,0)" xlink:href="#Q"/></g></defs></g></svg>