<svg xmlns="http://www.w3.org/2000/svg" xmlns:xlink="http://www.w3.org/1999/xlink" xmlns:lucid="lucid" width="1420" height="800"><g transform="translate(-200 -280)" lucid:page-tab-id="0_0"><path d="M220 520h1380v380H220z" fill-opacity="0"/><path d="M232.03 520h8.03m8.02 0h8.02m8.03 0h8.02m8.02 0h8.03m8.02 0h8.02m8.03 0h8.02m8 0h8.04m8.02 0h8.02m8.03 0h8.03m8.02 0h8.03m8.02 0h8.02m8.03 0h8.02m8.02 0h8.02m8.02 0h8.02m8.03 0h8m8.03 0h8.03m8.02 0h8.02m8.03 0h8.02m8.02 0h8.03m8.02 0h8.02m8.03 0H561m8 0h8.03m8.03 0h8.02m8.02 0h8.03m8.02 0h8.02m8.03 0h8.02m8.02 0h8.03m8.02 0h8m8.04 0h8.02m8.02 0h8.03m8.03 0h8.02m8.03 0h8.02m8.02 0h8.03m8.02 0h8.02m8.02 0h8.02m8.02 0h8.03m8 0h8.03m8.03 0h8.02m8.02 0h8.03m8.02 0h8.02m8.03 0h8.02m8.02 0h8.03m8.02 0h8m8.03 0h8.03m8.02 0h8.02m8.03 0h8.02m8.02 0h8.03m8.02 0h8.02m8.03 0h8.02m8 0h8.04m8.02 0h8.02m8.03 0h8.03m8.02 0h8.03m8.02 0h8.02m8.03 0h8.02m8.02 0h8.02m8.02 0h8.02m8.03 0h8m8.03 0h8.03m8.02 0h8.02m8.03 0h8.02m8.02 0h8.03m8.02 0h8.02m8.03 0h8.02m8 0h8.03m8.03 0h8.02m8.02 0h8.03m8.02 0h8.02m8.03 0h8.02m8.02 0h8.03m8.02 0h8m8.04 0h8.02m8.02 0h8.03m8.03 0h8.02m8.03 0h8.02m8.02 0h8.03m8.02 0h8.02m8.02 0h8.02m8.02 0h8.03m8 0h8.03m8.03 0h8.02m8.02 0h8.03m8.02 0h8.02m8.03 0h8.02m8.02 0h8.03m8.02 0h4v3.96m0 7.9v7.93m0 7.9v7.92m0 7.92v7.92m0 7.9v7.93m0 7.9v7.92m0 7.92v7.92m0 7.9v7.93m0 7.9v7.92m0 7.92v7.92m0 7.9v7.93m0 7.9v7.92m0 7.92v7.92m0 7.9v7.93m0 7.9v7.92m0 7.92v7.92m0 7.9v7.93m0 7.9v7.92m0 7.92v7.92m0 7.9v7.93m0 7.9v7.92m0 7.92v7.92m0 7.9v7.93m0 7.9v7.92m0 7.92V900h-4m-8.03 0h-8.03m-8.02 0h-8.02m-8.03 0h-8.02m-8.02 0h-8.03m-8.02 0h-8.02m-8.03 0h-8.02m-8 0h-8.04m-8.02 0h-8.02m-8.03 0h-8.03m-8.02 0h-8.03m-8.02 0h-8.02m-8.03 0h-8.02m-8.02 0h-8.02m-8.02 0h-8.02m-8.03 0h-8m-8.03 0h-8.03m-8.02 0h-8.02m-8.03 0h-8.02m-8.02 0h-8.03m-8.02 0h-8.02m-8.03 0H1259m-8 0h-8.03m-8.03 0h-8.02m-8.02 0h-8.03m-8.02 0h-8.02m-8.03 0h-8.02m-8.02 0h-8.03m-8.02 0h-8m-8.04 0h-8.02m-8.02 0h-8.03m-8.03 0h-8.02m-8.03 0h-8.02m-8.02 0h-8.03m-8.02 0h-8.02m-8.02 0h-8.02m-8.02 0h-8.03m-8 0h-8.03m-8.03 0h-8.02m-8.02 0h-8.03m-8.02 0h-8.02m-8.03 0h-8.02m-8.02 0h-8.03m-8.02 0h-8m-8.03 0h-8.03m-8.02 0h-8.02m-8.03 0h-8.02m-8.02 0h-8.03m-8.02 0h-8.02m-8.03 0h-8.02m-8 0h-8.04m-8.02 0h-8.02m-8.03 0h-8.03m-8.02 0h-8.03m-8.02 0h-8.02m-8.03 0h-8.02m-8.02 0h-8.02m-8.02 0h-8.02m-8.03 0h-8m-8.03 0h-8.03m-8.02 0h-8.02m-8.03 0h-8.02m-8.02 0h-8.03m-8.02 0h-8.02m-8.03 0H569m-8 0h-8.03m-8.03 0h-8.02m-8.02 0h-8.03m-8.02 0h-8.02m-8.03 0h-8.02m-8.02 0h-8.03m-8.02 0h-8m-8.04 0h-8.02m-8.02 0h-8.03m-8.03 0h-8.02m-8.03 0h-8.02m-8.02 0h-8.03m-8.02 0h-8.02m-8.02 0h-8.02m-8.02 0h-8.03m-8 0h-8.03m-8.03 0h-8.02m-8.02 0h-8.03m-8.02 0h-8.02m-8.03 0h-8.02m-8.02 0h-8.03m-8.02 0h-4v-3.96m0-7.9v-7.93m0-7.9v-7.92m0-7.92v-7.92m0-7.9v-7.93m0-7.9v-7.92m0-7.92v-7.92m0-7.9v-7.93m0-7.9v-7.92m0-7.92v-7.92m0-7.9v-7.93m0-7.9v-7.92m0-7.92v-7.92m0-7.9v-7.93m0-7.9v-7.92m0-7.92v-7.92m0-7.9v-7.93m0-7.9v-7.92m0-7.92v-7.92m0-7.9v-7.93m0-7.9v-7.92m0-7.92v-7.92m0-7.9v-7.93m0-7.9v-7.92m0-7.92V520h4" stroke="#000" stroke-width="2" fill="none"/><path d="M740 560h340v220H740z" stroke="#000" stroke-width="2" fill="#fcc438"/><use xlink:href="#a" transform="matrix(1,0,0,1,745,565) translate(39 113)"/><use xlink:href="#b" transform="matrix(1,0,0,1,745,565) translate(144.66666666666669 113)"/><path d="M260 740h160v120H260z" stroke="#000" stroke-width="2" fill="#99d2f2"/><use xlink:href="#c" transform="matrix(1,0,0,1,265,745) translate(31.074999999999996 47.8)"/><use xlink:href="#d" transform="matrix(1,0,0,1,265,745) translate(8.149999999999991 69.4)"/><use xlink:href="#e" transform="matrix(1,0,0,1,265,745) translate(79 69.4)"/><path d="M480 740h160v120H480z" stroke="#000" stroke-width="2" fill="#99d2f2"/><use xlink:href="#f" transform="matrix(1,0,0,1,485,745) translate(19.5 47.8)"/><use xlink:href="#d" transform="matrix(1,0,0,1,485,745) translate(8.149999999999991 69.4)"/><use xlink:href="#e" transform="matrix(1,0,0,1,485,745) translate(79 69.4)"/><path d="M260 940h160v120H260z" stroke="#000" stroke-width="2" fill="#fcc438"/><use xlink:href="#g" transform="matrix(1,0,0,1,265,945) translate(31.074999999999996 58.6)"/><path d="M480 940h160v120H480z" stroke="#000" stroke-width="2" fill="#fcc438"/><use xlink:href="#h" transform="matrix(1,0,0,1,485,945) translate(19.5 58.6)"/><path d="M739 670H560v50.76M739 670h3" stroke="#000" stroke-width="2" fill="none"/><path d="M560 735.76l-4.64-14.26h9.28z" stroke="#000" stroke-width="2"/><path d="M340 720.76V670h380.76" stroke="#000" stroke-width="2" fill="none"/><path d="M340 735.76l-4.64-14.26h9.28zM735.76 670l-14.26 4.64v-9.28z" stroke="#000" stroke-width="2"/><path d="M340 879.24v41.52" stroke="#000" stroke-width="2" fill="none"/><path d="M340 864.24l4.64 14.26h-9.28zM340 935.76l-4.64-14.26h9.28z" stroke="#000" stroke-width="2"/><path d="M560 879.24v41.52" stroke="#000" stroke-width="2" fill="none"/><path d="M560 864.24l4.64 14.26h-9.28zM560 935.76l-4.64-14.26h9.28z" stroke="#000" stroke-width="2"/><path d="M1180 740h160v120h-160z" stroke="#000" stroke-width="2" fill="#99d2f2"/><use xlink:href="#i" transform="matrix(1,0,0,1,1185,745) translate(2.0749999999999886 47.8)"/><use xlink:href="#j" transform="matrix(1,0,0,1,1185,745) translate(84.975 47.8)"/><use xlink:href="#k" transform="matrix(1,0,0,1,1185,745) translate(47.099999999999994 69.4)"/><path d="M1400 740h160v120h-160z" stroke="#000" stroke-width="2" fill="#99d2f2"/><use xlink:href="#l" transform="matrix(1,0,0,1,1405,745) translate(25.424999999999997 47.8)"/><use xlink:href="#j" transform="matrix(1,0,0,1,1405,745) translate(61.625 47.8)"/><use xlink:href="#k" transform="matrix(1,0,0,1,1405,745) translate(47.099999999999994 69.4)"/><path d="M1180 940h160v120h-160z" stroke="#000" stroke-width="2" fill="#fcc438"/><use xlink:href="#m" transform="matrix(1,0,0,1,1185,945) translate(36.05 58.6)"/><path d="M1400 940h160v120h-160z" stroke="#000" stroke-width="2" fill="#fcc438"/><use xlink:href="#n" transform="matrix(1,0,0,1,1405,945) translate(59.224999999999994 58.6)"/><path d="M1260 879.24v41.52" stroke="#000" stroke-width="2" fill="none"/><path d="M1260 864.24l4.64 14.26h-9.28zM1260 935.76l-4.64-14.26h9.28z" stroke="#000" stroke-width="2"/><path d="M1480 879.24v41.52" stroke="#000" stroke-width="2" fill="none"/><path d="M1480 864.24l4.64 14.26h-9.28zM1480 935.76l-4.64-14.26h9.28z" stroke="#000" stroke-width="2"/><path d="M1099.24 670H1480v50.76" stroke="#000" stroke-width="2" fill="none"/><path d="M1084.24 670l14.26-4.64v9.28zM1480 735.76l-4.64-14.26h9.28z" stroke="#000" stroke-width="2"/><path d="M1260 720.76V670h-160.76" stroke="#000" stroke-width="2" fill="none"/><path d="M1260 735.76l-4.64-14.26h9.28zM1084.24 670l14.26-4.64v9.28z" stroke="#000" stroke-width="2"/><path d="M220 300h1380v120H220z" stroke="#000" stroke-width="2" fill="#e5e5e5"/><g><use xlink:href="#o" transform="matrix(1,0,0,1,225,305) translate(466.62962962962956 65.66666666666667)"/><use xlink:href="#p" transform="matrix(1,0,0,1,225,305) translate(607.5185185185185 65.66666666666667)"/><use xlink:href="#q" transform="matrix(1,0,0,1,225,305) translate(817.4444444444445 65.66666666666667)"/></g><g><path d="M580 420v64h20l-40 36-40-36h20v-64z" stroke="#000" stroke-width="2" fill="#fff"/></g><g><path d="M1280 420v64h20l-40 36-40-36h20v-64z" stroke="#000" stroke-width="2" fill="#fff"/></g><defs><path d="M233-177c-1 41-23 64-60 70L243 0h-38l-65-103H63V0H30v-248c88 3 205-21 203 71zM63-129c60-2 137 13 137-47 0-61-80-42-137-45v92" id="r"/><path d="M33 0v-248h34V0H33" id="s"/><path d="M140-251c81 0 123 46 123 126C263-46 219 4 140 4 59 4 17-45 17-125s42-126 123-126zm0 227c63 0 89-41 89-101s-29-99-89-99c-61 0-89 39-89 99S79-25 140-24" id="t"/><path d="M127-220V0H93v-220H8v-28h204v28h-85" id="u"/><g id="a"><use transform="matrix(0.1111111111111111,0,0,0.1111111111111111,0,0)" xlink:href="#r"/><use transform="matrix(0.1111111111111111,0,0,0.1111111111111111,28.777777777777775,0)" xlink:href="#s"/><use transform="matrix(0.1111111111111111,0,0,0.1111111111111111,39.888888888888886,0)" xlink:href="#t"/><use transform="matrix(0.1111111111111111,0,0,0.1111111111111111,71,0)" xlink:href="#u"/></g><path d="M100-194c63 0 86 42 84 106H49c0 40 14 67 53 68 26 1 43-12 49-29l28 8c-11 28-37 45-77 45C44 4 14-33 15-96c1-61 26-98 85-98zm52 81c6-60-76-77-97-28-3 7-6 17-6 28h103" id="v"/><path d="M177-190C167-65 218 103 67 71c-23-6-38-20-44-43l32-5c15 47 100 32 89-28v-30C133-14 115 1 83 1 29 1 15-40 15-95c0-56 16-97 71-98 29-1 48 16 59 35 1-10 0-23 2-32h30zM94-22c36 0 50-32 50-73 0-42-14-75-50-75-39 0-46 34-46 75s6 73 46 73" id="w"/><path d="M24-231v-30h32v30H24zM24 0v-190h32V0H24" id="x"/><path d="M135-143c-3-34-86-38-87 0 15 53 115 12 119 90S17 21 10-45l28-5c4 36 97 45 98 0-10-56-113-15-118-90-4-57 82-63 122-42 12 7 21 19 24 35" id="y"/><path d="M59-47c-2 24 18 29 38 22v24C64 9 27 4 27-40v-127H5v-23h24l9-43h21v43h35v23H59v120" id="z"/><path d="M114-163C36-179 61-72 57 0H25l-1-190h30c1 12-1 29 2 39 6-27 23-49 58-41v29" id="A"/><path d="M179-190L93 31C79 59 56 82 12 73V49c39 6 53-20 64-50L1-190h34L92-34l54-156h33" id="B"/><g id="b"><use transform="matrix(0.1111111111111111,0,0,0.1111111111111111,0,0)" xlink:href="#r"/><use transform="matrix(0.1111111111111111,0,0,0.1111111111111111,28.777777777777775,0)" xlink:href="#v"/><use transform="matrix(0.1111111111111111,0,0,0.1111111111111111,51,0)" xlink:href="#w"/><use transform="matrix(0.1111111111111111,0,0,0.1111111111111111,73.22222222222223,0)" xlink:href="#x"/><use transform="matrix(0.1111111111111111,0,0,0.1111111111111111,82,0)" xlink:href="#y"/><use transform="matrix(0.1111111111111111,0,0,0.1111111111111111,102,0)" xlink:href="#z"/><use transform="matrix(0.1111111111111111,0,0,0.1111111111111111,113.11111111111111,0)" xlink:href="#A"/><use transform="matrix(0.1111111111111111,0,0,0.1111111111111111,126.33333333333336,0)" xlink:href="#B"/></g><path d="M205 0l-28-72H64L36 0H1l101-248h38L239 0h-34zm-38-99l-47-123c-12 45-31 82-46 123h93" id="C"/><path d="M115-194c55 1 70 41 70 98S169 2 115 4C84 4 66-9 55-30l1 105H24l-1-265h31l2 30c10-21 28-34 59-34zm-8 174c40 0 45-34 45-75s-6-73-45-74c-42 0-51 32-51 76 0 43 10 73 51 73" id="D"/><path d="M24 0v-261h32V0H24" id="E"/><path d="M96-169c-40 0-48 33-48 73s9 75 48 75c24 0 41-14 43-38l32 2c-6 37-31 61-74 61-59 0-76-41-82-99-10-93 101-131 147-64 4 7 5 14 7 22l-32 3c-4-21-16-35-41-35" id="F"/><path d="M141-36C126-15 110 5 73 4 37 3 15-17 15-53c-1-64 63-63 125-63 3-35-9-54-41-54-24 1-41 7-42 31l-33-3c5-37 33-52 76-52 45 0 72 20 72 64v82c-1 20 7 32 28 27v20c-31 9-61-2-59-35zM48-53c0 20 12 33 32 33 41-3 63-29 60-74-43 2-92-5-92 41" id="G"/><path d="M100-194c62-1 85 37 85 99 1 63-27 99-86 99S16-35 15-95c0-66 28-99 85-99zM99-20c44 1 53-31 53-75 0-43-8-75-51-75s-53 32-53 75 10 74 51 75" id="H"/><path d="M117-194c89-4 53 116 60 194h-32v-121c0-31-8-49-39-48C34-167 62-67 57 0H25l-1-190h30c1 10-1 24 2 32 11-22 29-35 61-36" id="I"/><g id="c"><use transform="matrix(0.05,0,0,0.05,0,0)" xlink:href="#C"/><use transform="matrix(0.05,0,0,0.05,12,0)" xlink:href="#D"/><use transform="matrix(0.05,0,0,0.05,22,0)" xlink:href="#D"/><use transform="matrix(0.05,0,0,0.05,32,0)" xlink:href="#E"/><use transform="matrix(0.05,0,0,0.05,35.95,0)" xlink:href="#x"/><use transform="matrix(0.05,0,0,0.05,39.900000000000006,0)" xlink:href="#F"/><use transform="matrix(0.05,0,0,0.05,48.900000000000006,0)" xlink:href="#G"/><use transform="matrix(0.05,0,0,0.05,58.900000000000006,0)" xlink:href="#z"/><use transform="matrix(0.05,0,0,0.05,63.900000000000006,0)" xlink:href="#x"/><use transform="matrix(0.05,0,0,0.05,67.85000000000001,0)" xlink:href="#H"/><use transform="matrix(0.05,0,0,0.05,77.85000000000001,0)" xlink:href="#I"/></g><g id="d"><use transform="matrix(0.05,0,0,0.05,0,0)" xlink:href="#r"/><use transform="matrix(0.05,0,0,0.05,12.950000000000001,0)" xlink:href="#v"/><use transform="matrix(0.05,0,0,0.05,22.950000000000003,0)" xlink:href="#w"/><use transform="matrix(0.05,0,0,0.05,32.95,0)" xlink:href="#x"/><use transform="matrix(0.05,0,0,0.05,36.900000000000006,0)" xlink:href="#y"/><use transform="matrix(0.05,0,0,0.05,45.900000000000006,0)" xlink:href="#z"/><use transform="matrix(0.05,0,0,0.05,50.900000000000006,0)" xlink:href="#A"/><use transform="matrix(0.05,0,0,0.05,56.85,0)" xlink:href="#B"/></g><path d="M197 0v-115H63V0H30v-248h33v105h134v-105h34V0h-34" id="J"/><path d="M85-194c31 0 48 13 60 33l-1-100h32l1 261h-30c-2-10 0-23-3-31C134-8 116 4 85 4 32 4 16-35 15-94c0-66 23-100 70-100zm9 24c-40 0-46 34-46 75 0 40 6 74 45 74 42 0 51-32 51-76 0-42-9-74-50-73" id="K"/><g id="e"><use transform="matrix(0.05,0,0,0.05,0,0)" xlink:href="#J"/><use transform="matrix(0.05,0,0,0.05,12.950000000000001,0)" xlink:href="#G"/><use transform="matrix(0.05,0,0,0.05,22.950000000000003,0)" xlink:href="#I"/><use transform="matrix(0.05,0,0,0.05,32.95,0)" xlink:href="#K"/><use transform="matrix(0.05,0,0,0.05,42.95,0)" xlink:href="#E"/><use transform="matrix(0.05,0,0,0.05,46.900000000000006,0)" xlink:href="#v"/><use transform="matrix(0.05,0,0,0.05,56.900000000000006,0)" xlink:href="#A"/></g><path d="M30 0v-248h187v28H63v79h144v27H63v87h162V0H30" id="L"/><path d="M134-131c28 9 52 24 51 62-1 50-34 73-85 73S17-19 16-69c0-36 21-54 49-61-75-25-45-126 34-121 46 3 78 18 79 63 0 33-17 51-44 57zm-34-11c31 1 46-15 46-44 0-28-17-43-47-42-29 0-46 13-45 42 1 28 16 44 46 44zm1 122c35 0 51-18 51-52 0-30-18-46-53-46-33 0-51 17-51 47 0 34 19 51 53 51" id="M"/><path d="M101-251c68 0 85 55 85 127S166 4 100 4C33 4 14-52 14-124c0-73 17-127 87-127zm-1 229c47 0 54-49 54-102s-4-102-53-102c-51 0-55 48-55 102 0 53 5 102 54 102" id="N"/><path d="M101-251c82-7 93 87 43 132L82-64C71-53 59-42 53-27h129V0H18c2-99 128-94 128-182 0-28-16-43-45-43s-46 15-49 41l-32-3c6-41 34-60 81-64" id="O"/><path d="M33 0v-38h34V0H33" id="P"/><path d="M27 0v-27h64v-190l-56 39v-29l58-41h29v221h61V0H27" id="Q"/><path d="M54-142c48-35 137-8 131 61C196 18 31 33 14-55l32-4c7 23 22 37 52 37 35-1 51-22 54-58 4-55-73-65-99-34H22l8-134h141v27H59" id="R"/><path d="M155-56V0h-30v-56H8v-25l114-167h33v167h35v25h-35zm-30-156c-27 46-58 90-88 131h88v-131" id="S"/><g id="f"><use transform="matrix(0.05,0,0,0.05,0,0)" xlink:href="#s"/><use transform="matrix(0.05,0,0,0.05,5,0)" xlink:href="#L"/><use transform="matrix(0.05,0,0,0.05,17,0)" xlink:href="#L"/><use transform="matrix(0.05,0,0,0.05,29,0)" xlink:href="#L"/><use transform="matrix(0.05,0,0,0.05,41,0)" xlink:href="#M"/><use transform="matrix(0.05,0,0,0.05,51,0)" xlink:href="#N"/><use transform="matrix(0.05,0,0,0.05,61,0)" xlink:href="#O"/><use transform="matrix(0.05,0,0,0.05,71,0)" xlink:href="#P"/><use transform="matrix(0.05,0,0,0.05,76,0)" xlink:href="#Q"/><use transform="matrix(0.05,0,0,0.05,86,0)" xlink:href="#R"/><use transform="matrix(0.05,0,0,0.05,96,0)" xlink:href="#P"/><use transform="matrix(0.05,0,0,0.05,101,0)" xlink:href="#S"/></g><g id="g"><use transform="matrix(0.05,0,0,0.05,0,0)" xlink:href="#C"/><use transform="matrix(0.05,0,0,0.05,12,0)" xlink:href="#D"/><use transform="matrix(0.05,0,0,0.05,22,0)" xlink:href="#D"/><use transform="matrix(0.05,0,0,0.05,32,0)" xlink:href="#E"/><use transform="matrix(0.05,0,0,0.05,35.95,0)" xlink:href="#x"/><use transform="matrix(0.05,0,0,0.05,39.900000000000006,0)" xlink:href="#F"/><use transform="matrix(0.05,0,0,0.05,48.900000000000006,0)" xlink:href="#G"/><use transform="matrix(0.05,0,0,0.05,58.900000000000006,0)" xlink:href="#z"/><use transform="matrix(0.05,0,0,0.05,63.900000000000006,0)" xlink:href="#x"/><use transform="matrix(0.05,0,0,0.05,67.85000000000001,0)" xlink:href="#H"/><use transform="matrix(0.05,0,0,0.05,77.85000000000001,0)" xlink:href="#I"/></g><g id="h"><use transform="matrix(0.05,0,0,0.05,0,0)" xlink:href="#s"/><use transform="matrix(0.05,0,0,0.05,5,0)" xlink:href="#L"/><use transform="matrix(0.05,0,0,0.05,17,0)" xlink:href="#L"/><use transform="matrix(0.05,0,0,0.05,29,0)" xlink:href="#L"/><use transform="matrix(0.05,0,0,0.05,41,0)" xlink:href="#M"/><use transform="matrix(0.05,0,0,0.05,51,0)" xlink:href="#N"/><use transform="matrix(0.05,0,0,0.05,61,0)" xlink:href="#O"/><use transform="matrix(0.05,0,0,0.05,71,0)" xlink:href="#P"/><use transform="matrix(0.05,0,0,0.05,76,0)" xlink:href="#Q"/><use transform="matrix(0.05,0,0,0.05,86,0)" xlink:href="#R"/><use transform="matrix(0.05,0,0,0.05,96,0)" xlink:href="#P"/><use transform="matrix(0.05,0,0,0.05,101,0)" xlink:href="#S"/></g><path d="M30-248c87 1 191-15 191 75 0 78-77 80-158 76V0H30v-248zm33 125c57 0 124 11 124-50 0-59-68-47-124-48v98" id="T"/><path d="M240 0l2-218c-23 76-54 145-80 218h-23L58-218 59 0H30v-248h44l77 211c21-75 51-140 76-211h43V0h-30" id="U"/><g id="i"><use transform="matrix(0.05,0,0,0.05,0,0)" xlink:href="#L"/><use transform="matrix(0.05,0,0,0.05,12,0)" xlink:href="#L"/><use transform="matrix(0.05,0,0,0.05,24,0)" xlink:href="#T"/><use transform="matrix(0.05,0,0,0.05,36,0)" xlink:href="#r"/><use transform="matrix(0.05,0,0,0.05,48.95,0)" xlink:href="#t"/><use transform="matrix(0.05,0,0,0.05,62.95,0)" xlink:href="#U"/></g><path d="M185-189c-5-48-123-54-124 2 14 75 158 14 163 119 3 78-121 87-175 55-17-10-28-26-33-46l33-7c5 56 141 63 141-1 0-78-155-14-162-118-5-82 145-84 179-34 5 7 8 16 11 25" id="V"/><g id="j"><use transform="matrix(0.05,0,0,0.05,0,0)" xlink:href="#V"/><use transform="matrix(0.05,0,0,0.05,12,0)" xlink:href="#z"/><use transform="matrix(0.05,0,0,0.05,17,0)" xlink:href="#H"/><use transform="matrix(0.05,0,0,0.05,27,0)" xlink:href="#A"/><use transform="matrix(0.05,0,0,0.05,32.95,0)" xlink:href="#G"/><use transform="matrix(0.05,0,0,0.05,42.95,0)" xlink:href="#w"/><use transform="matrix(0.05,0,0,0.05,52.95,0)" xlink:href="#v"/></g><path d="M63-220v92h138v28H63V0H30v-248h175v28H63" id="W"/><g id="k"><use transform="matrix(0.05,0,0,0.05,0,0)" xlink:href="#W"/><use transform="matrix(0.05,0,0,0.05,10.950000000000001,0)" xlink:href="#G"/><use transform="matrix(0.05,0,0,0.05,20.950000000000003,0)" xlink:href="#F"/><use transform="matrix(0.05,0,0,0.05,29.950000000000003,0)" xlink:href="#x"/><use transform="matrix(0.05,0,0,0.05,33.900000000000006,0)" xlink:href="#E"/><use transform="matrix(0.05,0,0,0.05,37.85000000000001,0)" xlink:href="#x"/><use transform="matrix(0.05,0,0,0.05,41.80000000000001,0)" xlink:href="#z"/><use transform="matrix(0.05,0,0,0.05,46.80000000000001,0)" xlink:href="#B"/></g><g id="l"><use transform="matrix(0.05,0,0,0.05,0,0)" xlink:href="#W"/><use transform="matrix(0.05,0,0,0.05,9.950000000000001,0)" xlink:href="#C"/><use transform="matrix(0.05,0,0,0.05,20.6,0)" xlink:href="#u"/></g><g id="m"><use transform="matrix(0.05,0,0,0.05,0,0)" xlink:href="#L"/><use transform="matrix(0.05,0,0,0.05,12,0)" xlink:href="#L"/><use transform="matrix(0.05,0,0,0.05,24,0)" xlink:href="#T"/><use transform="matrix(0.05,0,0,0.05,36,0)" xlink:href="#r"/><use transform="matrix(0.05,0,0,0.05,48.95,0)" xlink:href="#t"/><use transform="matrix(0.05,0,0,0.05,62.95,0)" xlink:href="#U"/></g><g id="n"><use transform="matrix(0.05,0,0,0.05,0,0)" xlink:href="#W"/><use transform="matrix(0.05,0,0,0.05,9.950000000000001,0)" xlink:href="#C"/><use transform="matrix(0.05,0,0,0.05,20.6,0)" xlink:href="#u"/></g><g id="o"><use transform="matrix(0.14814814814814817,0,0,0.14814814814814817,0,0)" xlink:href="#r"/><use transform="matrix(0.14814814814814817,0,0,0.14814814814814817,38.370370370370374,0)" xlink:href="#s"/><use transform="matrix(0.14814814814814817,0,0,0.14814814814814817,53.18518518518519,0)" xlink:href="#t"/><use transform="matrix(0.14814814814814817,0,0,0.14814814814814817,94.66666666666669,0)" xlink:href="#u"/></g><g id="p"><use transform="matrix(0.14814814814814817,0,0,0.14814814814814817,0,0)" xlink:href="#r"/><use transform="matrix(0.14814814814814817,0,0,0.14814814814814817,38.370370370370374,0)" xlink:href="#v"/><use transform="matrix(0.14814814814814817,0,0,0.14814814814814817,68,0)" xlink:href="#w"/><use transform="matrix(0.14814814814814817,0,0,0.14814814814814817,97.62962962962962,0)" xlink:href="#x"/><use transform="matrix(0.14814814814814817,0,0,0.14814814814814817,109.33333333333334,0)" xlink:href="#y"/><use transform="matrix(0.14814814814814817,0,0,0.14814814814814817,136,0)" xlink:href="#z"/><use transform="matrix(0.14814814814814817,0,0,0.14814814814814817,150.8148148148148,0)" xlink:href="#A"/><use transform="matrix(0.14814814814814817,0,0,0.14814814814814817,168.44444444444446,0)" xlink:href="#B"/></g><g id="q"><use transform="matrix(0.14814814814814817,0,0,0.14814814814814817,0,0)" xlink:href="#C"/><use transform="matrix(0.14814814814814817,0,0,0.14814814814814817,35.55555555555556,0)" xlink:href="#T"/><use transform="matrix(0.14814814814814817,0,0,0.14814814814814817,71.11111111111111,0)" xlink:href="#s"/></g></defs></g></svg>