<?xml version="1.0" encoding="UTF-8" standalone="no"?><svg xmlns="http://www.w3.org/2000/svg" xmlns:xlink="http://www.w3.org/1999/xlink" contentStyleType="text/css" height="461px" preserveAspectRatio="none" style="width:1389px;height:461px;background:#FFFFFF;" version="1.1" viewBox="0 0 1389 461" width="1389px" zoomAndPan="magnify"><defs/><g><rect height="154.7969" style="stroke:#000000;stroke-width:1.5;fill:none;" width="1373.5" x="10" y="127.8594"/><rect height="96.5313" style="stroke:#000000;stroke-width:1.5;fill:none;" width="1288.5" x="10" y="296.6563"/><line style="stroke:#181818;stroke-width:0.5;fill:none;stroke-dasharray:5.0,5.0;" x1="163" x2="163" y1="52.5938" y2="410.1875"/><line style="stroke:#181818;stroke-width:0.5;fill:none;stroke-dasharray:5.0,5.0;" x1="848.5" x2="848.5" y1="52.5938" y2="410.1875"/><line style="stroke:#181818;stroke-width:0.5;fill:none;stroke-dasharray:5.0,5.0;" x1="1148.5" x2="1148.5" y1="52.5938" y2="410.1875"/><rect fill="#E2E2F0" height="46.5938" rx="2.5" ry="2.5" style="stroke:#181818;stroke-width:0.5;" width="286" x="20" y="5"/><ellipse cx="38" cy="23" fill="#ADD1B2" rx="11" ry="11" style="stroke:#181818;stroke-width:1.0;"/><path d="M38.1094,18.3438 L36.9531,23.4219 L39.2813,23.4219 L38.1094,18.3438 Z M36.625,16.1094 L39.6094,16.1094 L42.9688,28.5 L40.5156,28.5 L39.75,25.4375 L36.4688,25.4375 L35.7188,28.5 L33.2813,28.5 L36.625,16.1094 Z " fill="#000000"/><text fill="#000000" font-family="sans-serif" font-size="14" lengthAdjust="spacing" textLength="101" x="60.5" y="24.9951">2001:db8:0:0:</text><text fill="#9A9A9A" font-family="sans-serif" font-size="14" lengthAdjust="spacing" textLength="132" x="161.5" y="24.9951">c8f4:13ff:fece:3f43</text><text fill="#000000" font-family="sans-serif" font-size="14" lengthAdjust="spacing" textLength="101" x="55" y="41.292">2001:db8:0:8:</text><text fill="#9A9A9A" font-family="sans-serif" font-size="14" lengthAdjust="spacing" textLength="143" x="156" y="41.292">3c27:6dff:fe25:e95d</text><rect fill="#E2E2F0" height="46.5938" rx="2.5" ry="2.5" style="stroke:#181818;stroke-width:0.5;" width="286" x="20" y="409.1875"/><ellipse cx="38" cy="427.1875" fill="#ADD1B2" rx="11" ry="11" style="stroke:#181818;stroke-width:1.0;"/><path d="M38.1094,422.5313 L36.9531,427.6094 L39.2813,427.6094 L38.1094,422.5313 Z M36.625,420.2969 L39.6094,420.2969 L42.9688,432.6875 L40.5156,432.6875 L39.75,429.625 L36.4688,429.625 L35.7188,432.6875 L33.2813,432.6875 L36.625,420.2969 Z " fill="#000000"/><text fill="#000000" font-family="sans-serif" font-size="14" lengthAdjust="spacing" textLength="101" x="60.5" y="429.1826">2001:db8:0:0:</text><text fill="#9A9A9A" font-family="sans-serif" font-size="14" lengthAdjust="spacing" textLength="132" x="161.5" y="429.1826">c8f4:13ff:fece:3f43</text><text fill="#000000" font-family="sans-serif" font-size="14" lengthAdjust="spacing" textLength="101" x="55" y="445.4795">2001:db8:0:8:</text><text fill="#9A9A9A" font-family="sans-serif" font-size="14" lengthAdjust="spacing" textLength="143" x="156" y="445.4795">3c27:6dff:fe25:e95d</text><rect fill="#E2E2F0" height="36" rx="2.5" ry="2.5" style="stroke:#181818;stroke-width:0.5;" width="299" x="699.5" y="15.5938"/><ellipse cx="717.5" cy="33.5938" fill="#ADD1B2" rx="11" ry="11" style="stroke:#181818;stroke-width:1.0;"/><path d="M716.4063,33.9688 L716.4063,37.6406 L718.0313,37.6406 Q719.2031,37.6406 719.6719,37.25 Q720.1406,36.8438 720.1406,35.8438 Q720.1406,34.8438 719.6406,34.4063 Q719.1563,33.9688 718.0313,33.9688 L716.4063,33.9688 Z M716.4063,29.1406 L716.4063,32.0156 L718.0313,32.0156 Q718.9531,32.0156 719.3438,31.6875 Q719.75,31.3438 719.75,30.5938 Q719.75,29.8281 719.3438,29.4844 Q718.9375,29.1406 718.0313,29.1406 L716.4063,29.1406 Z M714.0313,27.1875 L718.0313,27.1875 Q720.0938,27.1875 721.1406,27.9688 Q722.1875,28.75 722.1875,30.3125 Q722.1875,31.5156 721.5625,32.1875 Q720.9531,32.8594 719.7656,32.9688 Q721.1875,33.1094 721.9063,33.9219 Q722.625,34.7344 722.625,36.1875 Q722.625,37.9844 721.5469,38.7969 Q720.4688,39.5938 718.0313,39.5938 L714.0313,39.5938 L714.0313,27.1875 Z " fill="#000000"/><text fill="#000000" font-family="sans-serif" font-size="14" lengthAdjust="spacing" textLength="101" x="734.5" y="35.5889">2001:db8:0:0:</text><text fill="#9A9A9A" font-family="sans-serif" font-size="14" lengthAdjust="spacing" textLength="156" x="835.5" y="35.5889">a7a2:12e0:48bc:7487</text><rect fill="#E2E2F0" height="36" rx="2.5" ry="2.5" style="stroke:#181818;stroke-width:0.5;" width="299" x="699.5" y="409.1875"/><ellipse cx="717.5" cy="427.1875" fill="#ADD1B2" rx="11" ry="11" style="stroke:#181818;stroke-width:1.0;"/><path d="M716.4063,427.5625 L716.4063,431.2344 L718.0313,431.2344 Q719.2031,431.2344 719.6719,430.8438 Q720.1406,430.4375 720.1406,429.4375 Q720.1406,428.4375 719.6406,428 Q719.1563,427.5625 718.0313,427.5625 L716.4063,427.5625 Z M716.4063,422.7344 L716.4063,425.6094 L718.0313,425.6094 Q718.9531,425.6094 719.3438,425.2813 Q719.75,424.9375 719.75,424.1875 Q719.75,423.4219 719.3438,423.0781 Q718.9375,422.7344 718.0313,422.7344 L716.4063,422.7344 Z M714.0313,420.7813 L718.0313,420.7813 Q720.0938,420.7813 721.1406,421.5625 Q722.1875,422.3438 722.1875,423.9063 Q722.1875,425.1094 721.5625,425.7813 Q720.9531,426.4531 719.7656,426.5625 Q721.1875,426.7031 721.9063,427.5156 Q722.625,428.3281 722.625,429.7813 Q722.625,431.5781 721.5469,432.3906 Q720.4688,433.1875 718.0313,433.1875 L714.0313,433.1875 L714.0313,420.7813 Z " fill="#000000"/><text fill="#000000" font-family="sans-serif" font-size="14" lengthAdjust="spacing" textLength="101" x="734.5" y="429.1826">2001:db8:0:0:</text><text fill="#9A9A9A" font-family="sans-serif" font-size="14" lengthAdjust="spacing" textLength="156" x="835.5" y="429.1826">a7a2:12e0:48bc:7487</text><rect fill="#E2E2F0" height="36" rx="2.5" ry="2.5" style="stroke:#181818;stroke-width:0.5;" width="280" x="1008.5" y="15.5938"/><ellipse cx="1026.5" cy="33.5938" fill="#ADD1B2" rx="11" ry="11" style="stroke:#181818;stroke-width:1.0;"/><path d="M1029.4688,39.2344 Q1028.8906,39.5313 1028.25,39.6719 Q1027.6094,39.8281 1026.9063,39.8281 Q1024.4063,39.8281 1023.0781,38.1875 Q1021.7656,36.5313 1021.7656,33.4063 Q1021.7656,30.2813 1023.0781,28.625 Q1024.4063,26.9688 1026.9063,26.9688 Q1027.6094,26.9688 1028.25,27.125 Q1028.9063,27.2813 1029.4688,27.5781 L1029.4688,30.2969 Q1028.8438,29.7188 1028.25,29.4531 Q1027.6563,29.1719 1027.0313,29.1719 Q1025.6875,29.1719 1025,30.25 Q1024.3125,31.3125 1024.3125,33.4063 Q1024.3125,35.5 1025,36.5781 Q1025.6875,37.6406 1027.0313,37.6406 Q1027.6563,37.6406 1028.25,37.375 Q1028.8438,37.0938 1029.4688,36.5156 L1029.4688,39.2344 Z " fill="#000000"/><text fill="#000000" font-family="sans-serif" font-size="14" lengthAdjust="spacing" textLength="101" x="1043.5" y="35.5889">2001:db8:0:8:</text><text fill="#9A9A9A" font-family="sans-serif" font-size="14" lengthAdjust="spacing" textLength="137" x="1144.5" y="35.5889">5075:35ff:fefa:30bc</text><rect fill="#E2E2F0" height="36" rx="2.5" ry="2.5" style="stroke:#181818;stroke-width:0.5;" width="280" x="1008.5" y="409.1875"/><ellipse cx="1026.5" cy="427.1875" fill="#ADD1B2" rx="11" ry="11" style="stroke:#181818;stroke-width:1.0;"/><path d="M1029.4688,432.8281 Q1028.8906,433.125 1028.25,433.2656 Q1027.6094,433.4219 1026.9063,433.4219 Q1024.4063,433.4219 1023.0781,431.7813 Q1021.7656,430.125 1021.7656,427 Q1021.7656,423.875 1023.0781,422.2188 Q1024.4063,420.5625 1026.9063,420.5625 Q1027.6094,420.5625 1028.25,420.7188 Q1028.9063,420.875 1029.4688,421.1719 L1029.4688,423.8906 Q1028.8438,423.3125 1028.25,423.0469 Q1027.6563,422.7656 1027.0313,422.7656 Q1025.6875,422.7656 1025,423.8438 Q1024.3125,424.9063 1024.3125,427 Q1024.3125,429.0938 1025,430.1719 Q1025.6875,431.2344 1027.0313,431.2344 Q1027.6563,431.2344 1028.25,430.9688 Q1028.8438,430.6875 1029.4688,430.1094 L1029.4688,432.8281 Z " fill="#000000"/><text fill="#000000" font-family="sans-serif" font-size="14" lengthAdjust="spacing" textLength="101" x="1043.5" y="429.1826">2001:db8:0:8:</text><text fill="#9A9A9A" font-family="sans-serif" font-size="14" lengthAdjust="spacing" textLength="137" x="1144.5" y="429.1826">5075:35ff:fefa:30bc</text><polygon fill="#181818" points="1136.5,79.7266,1146.5,83.7266,1136.5,87.7266,1140.5,83.7266" style="stroke:#181818;stroke-width:1.0;"/><line style="stroke:#181818;stroke-width:1.0;" x1="163" x2="1142.5" y1="83.7266" y2="83.7266"/><text fill="#000000" font-family="sans-serif" font-size="13" lengthAdjust="spacing" textLength="377" x="170" y="78.6606">RA: I'm a default router, PIO: You can use 2001:db8:0:8::/61</text><text fill="#000000" font-family="sans-serif" font-size="13" font-weight="bold" lengthAdjust="spacing" textLength="87" x="551" y="78.6606">[broadcast]</text><polygon fill="#181818" points="837,108.8594,847,112.8594,837,116.8594,841,112.8594" style="stroke:#181818;stroke-width:1.0;"/><line style="stroke:#181818;stroke-width:1.0;" x1="163" x2="843" y1="112.8594" y2="112.8594"/><text fill="#000000" font-family="sans-serif" font-size="13" lengthAdjust="spacing" textLength="44" x="170" y="107.7935">RA: I'm</text><text fill="#000000" font-family="sans-serif" font-size="13" font-style="italic" lengthAdjust="spacing" textLength="21" x="218" y="107.7935">not</text><text fill="#000000" font-family="sans-serif" font-size="13" lengthAdjust="spacing" textLength="494" x="243" y="107.7935">a default router (ltime = 0), RIO: You can reach 2001:db8:0:8::/61 through me</text><text fill="#000000" font-family="sans-serif" font-size="13" font-weight="bold" lengthAdjust="spacing" textLength="87" x="745" y="107.7935">[broadcast]</text><path d="M10,127.8594 L211,127.8594 L211,134.9922 L201,144.9922 L10,144.9922 L10,127.8594 " fill="#EEEEEE" style="stroke:#000000;stroke-width:1.5;"/><rect fill="none" height="154.7969" style="stroke:#000000;stroke-width:1.5;" width="1373.5" x="10" y="127.8594"/><text fill="#000000" font-family="sans-serif" font-size="13" font-weight="bold" lengthAdjust="spacing" textLength="156" x="25" y="140.9263">C sends request to B</text><polygon fill="#181818" points="174,155.5586,164,159.5586,174,163.5586,170,159.5586" style="stroke:#181818;stroke-width:1.0;"/><line style="stroke:#181818;stroke-width:1.0;" x1="168" x2="1147.5" y1="159.5586" y2="159.5586"/><text fill="#000000" font-family="sans-serif" font-size="13" lengthAdjust="spacing" textLength="244" x="180" y="172.6255">forward PING request to 2001:db8:0:0:</text><text fill="#9A9A9A" font-family="sans-serif" font-size="13" lengthAdjust="spacing" textLength="139" x="424" y="172.6255">a7a2:12e0:48bc:7487</text><path d="M1153,149.9922 L1153,189.9922 L1368,189.9922 L1368,159.9922 L1358,149.9922 L1153,149.9922 " fill="#FEFFDD" style="stroke:#181818;stroke-width:0.5;"/><path d="M1358,149.9922 L1358,159.9922 L1368,159.9922 L1358,149.9922 " fill="#FEFFDD" style="stroke:#181818;stroke-width:0.5;"/><text fill="#000000" font-family="sans-serif" font-size="13" lengthAdjust="spacing" textLength="133" x="1159" y="167.0591">destination of off-link</text><text fill="#000000" font-family="sans-serif" font-size="13" lengthAdjust="spacing" textLength="194" x="1159" y="182.1919">use default router to forward it</text><polygon fill="#181818" points="837,212.3906,847,216.3906,837,220.3906,841,216.3906" style="stroke:#181818;stroke-width:1.0;"/><line style="stroke:#181818;stroke-width:1.0;stroke-dasharray:2.0,2.0;" x1="163" x2="843" y1="216.3906" y2="216.3906"/><text fill="#000000" font-family="sans-serif" font-size="13" lengthAdjust="spacing" textLength="173" x="170" y="211.3247">NS: Who has 2001:db8:0:0:</text><text fill="#9A9A9A" font-family="sans-serif" font-size="13" lengthAdjust="spacing" textLength="139" x="343" y="211.3247">a7a2:12e0:48bc:7487</text><text fill="#000000" font-family="sans-serif" font-size="13" lengthAdjust="spacing" textLength="7" x="482" y="211.3247">?</text><text fill="#000000" font-family="sans-serif" font-size="13" font-weight="bold" lengthAdjust="spacing" textLength="87" x="497" y="211.3247">[broadcast]</text><polygon fill="#181818" points="174,224.3906,164,228.3906,174,232.3906,170,228.3906" style="stroke:#181818;stroke-width:1.0;"/><line style="stroke:#181818;stroke-width:1.0;" x1="168" x2="848" y1="228.3906" y2="228.3906"/><text fill="#000000" font-family="sans-serif" font-size="13" lengthAdjust="spacing" textLength="51" x="180" y="241.4575">NA: Me!</text><polygon fill="#181818" points="837,270.6563,847,274.6563,837,278.6563,841,274.6563" style="stroke:#181818;stroke-width:1.0;"/><line style="stroke:#181818;stroke-width:1.0;" x1="163" x2="843" y1="274.6563" y2="274.6563"/><text fill="#000000" font-family="sans-serif" font-size="13" lengthAdjust="spacing" textLength="210" x="170" y="269.5903">PING request from 2001:db8:0:8:</text><text fill="#9A9A9A" font-family="sans-serif" font-size="13" lengthAdjust="spacing" textLength="123" x="380" y="269.5903">5075:35ff:fefa:30bc</text><path d="M10,296.6563 L191,296.6563 L191,303.7891 L181,313.7891 L10,313.7891 L10,296.6563 " fill="#EEEEEE" style="stroke:#000000;stroke-width:1.5;"/><rect fill="none" height="96.5313" style="stroke:#000000;stroke-width:1.5;" width="1288.5" x="10" y="296.6563"/><text fill="#000000" font-family="sans-serif" font-size="13" font-weight="bold" lengthAdjust="spacing" textLength="136" x="25" y="309.7231">B sends reply to C</text><polygon fill="#181818" points="174,324.3555,164,328.3555,174,332.3555,170,328.3555" style="stroke:#181818;stroke-width:1.0;"/><line style="stroke:#181818;stroke-width:1.0;" x1="168" x2="848" y1="328.3555" y2="328.3555"/><text fill="#000000" font-family="sans-serif" font-size="13" lengthAdjust="spacing" textLength="254" x="180" y="341.4224">forward PING response to 2001:db8:0:8:</text><text fill="#9A9A9A" font-family="sans-serif" font-size="13" lengthAdjust="spacing" textLength="123" x="434" y="341.4224">5075:35ff:fefa:30bc</text><path d="M854,318.7891 L854,358.7891 L1141,358.7891 L1141,328.7891 L1131,318.7891 L854,318.7891 " fill="#FEFFDD" style="stroke:#181818;stroke-width:0.5;"/><path d="M1131,318.7891 L1131,328.7891 L1141,328.7891 L1131,318.7891 " fill="#FEFFDD" style="stroke:#181818;stroke-width:0.5;"/><text fill="#000000" font-family="sans-serif" font-size="13" lengthAdjust="spacing" textLength="192" x="860" y="335.856">destination is in 2001:db8::/60</text><text fill="#000000" font-family="sans-serif" font-size="13" lengthAdjust="spacing" textLength="266" x="860" y="350.9888">but 2001:db8:0:8::/61 is a stronger match</text><polygon fill="#181818" points="1136.5,381.1875,1146.5,385.1875,1136.5,389.1875,1140.5,385.1875" style="stroke:#181818;stroke-width:1.0;"/><line style="stroke:#181818;stroke-width:1.0;" x1="163" x2="1142.5" y1="385.1875" y2="385.1875"/><text fill="#000000" font-family="sans-serif" font-size="13" lengthAdjust="spacing" textLength="220" x="170" y="380.1216">PING response from 2001:db8:0:0:</text><text fill="#9A9A9A" font-family="sans-serif" font-size="13" lengthAdjust="spacing" textLength="139" x="390" y="380.1216">a7a2:12e0:48bc:7487</text><!--MD5=[b2f86e0bd78deed5a26b220c9b0b96f6]
@startuml

skinparam responseMessageBelowArrow true

participant "2001:db8:0:0:<color:#9a9a9a>c8f4:13ff:fece:3f43\n2001:db8:0:8:<color:#9a9a9a>3c27:6dff:fe25:e95d" as A << (A,#ADD1B2) >>
participant "2001:db8:0:0:<color:#9a9a9a>a7a2:12e0:48bc:7487" as B << (B,#ADD1B2) >>
participant "2001:db8:0:8:<color:#9a9a9a>5075:35ff:fefa:30bc" as C << (C,#ADD1B2) >>

A -> C: RA: I'm a default router, PIO: You can use 2001:db8:0:8::/61 **[broadcast]**
A -> B: RA: I'm <i>not</i> a default router (ltime = 0), RIO: You can reach 2001:db8:0:8::/61 through me  **[broadcast]**
group C sends request to B
C -> A: forward PING request to 2001:db8:0:0:<color:#9a9a9a>a7a2:12e0:48bc:7487
note right
destination of off-link
use default router to forward it
end note
A - -> B: NS: Who has 2001:db8:0:0:<color:#9a9a9a>a7a2:12e0:48bc:7487</color>?  **[broadcast]**
B -> A: NA: Me!
A -> B: PING request from 2001:db8:0:8:<color:#9a9a9a>5075:35ff:fefa:30bc
end
group B sends reply to C
B -> A: forward PING response to 2001:db8:0:8:<color:#9a9a9a>5075:35ff:fefa:30bc
note right
destination is in 2001:db8::/60
but 2001:db8:0:8::/61 is a stronger match
end note
A -> C: PING response from 2001:db8:0:0:<color:#9a9a9a>a7a2:12e0:48bc:7487</color>

end
@enduml

PlantUML version 1.2022.6(Tue Jun 21 19:34:49 CEST 2022)
(GPL source distribution)
Java Runtime: OpenJDK Runtime Environment
JVM: OpenJDK 64-Bit Server VM
Default Encoding: UTF-8
Language: en
Country: US
--></g></svg>