<?xml version="1.0" encoding="UTF-8" standalone="no"?><svg xmlns="http://www.w3.org/2000/svg" xmlns:xlink="http://www.w3.org/1999/xlink" contentStyleType="text/css" height="403px" preserveAspectRatio="none" style="width:1141px;height:403px;background:#FFFFFF;" version="1.1" viewBox="0 0 1141 403" width="1141px" zoomAndPan="magnify"><defs/><g><rect height="154.7969" style="stroke:#000000;stroke-width:1.5;fill:none;" width="1125.5" x="10" y="98.7266"/><rect height="67.3984" style="stroke:#000000;stroke-width:1.5;fill:none;" width="987" x="10" y="267.5234"/><line style="stroke:#181818;stroke-width:0.5;fill:none;stroke-dasharray:5.0,5.0;" x1="163" x2="163" y1="52.5938" y2="351.9219"/><line style="stroke:#181818;stroke-width:0.5;fill:none;stroke-dasharray:5.0,5.0;" x1="600.5" x2="600.5" y1="52.5938" y2="351.9219"/><line style="stroke:#181818;stroke-width:0.5;fill:none;stroke-dasharray:5.0,5.0;" x1="900.5" x2="900.5" y1="52.5938" y2="351.9219"/><rect fill="#E2E2F0" height="46.5938" rx="2.5" ry="2.5" style="stroke:#181818;stroke-width:0.5;" width="286" x="20" y="5"/><ellipse cx="38" cy="23" fill="#ADD1B2" rx="11" ry="11" style="stroke:#181818;stroke-width:1.0;"/><path d="M38.1094,18.3438 L36.9531,23.4219 L39.2813,23.4219 L38.1094,18.3438 Z M36.625,16.1094 L39.6094,16.1094 L42.9688,28.5 L40.5156,28.5 L39.75,25.4375 L36.4688,25.4375 L35.7188,28.5 L33.2813,28.5 L36.625,16.1094 Z " fill="#000000"/><text fill="#000000" font-family="sans-serif" font-size="14" lengthAdjust="spacing" textLength="101" x="60.5" y="24.9951">2001:db8:0:0:</text><text fill="#9A9A9A" font-family="sans-serif" font-size="14" lengthAdjust="spacing" textLength="132" x="161.5" y="24.9951">c8f4:13ff:fece:3f43</text><text fill="#000000" font-family="sans-serif" font-size="14" lengthAdjust="spacing" textLength="101" x="55" y="41.292">2001:db8:0:8:</text><text fill="#9A9A9A" font-family="sans-serif" font-size="14" lengthAdjust="spacing" textLength="143" x="156" y="41.292">3c27:6dff:fe25:e95d</text><rect fill="#E2E2F0" height="46.5938" rx="2.5" ry="2.5" style="stroke:#181818;stroke-width:0.5;" width="286" x="20" y="350.9219"/><ellipse cx="38" cy="368.9219" fill="#ADD1B2" rx="11" ry="11" style="stroke:#181818;stroke-width:1.0;"/><path d="M38.1094,364.2656 L36.9531,369.3438 L39.2813,369.3438 L38.1094,364.2656 Z M36.625,362.0313 L39.6094,362.0313 L42.9688,374.4219 L40.5156,374.4219 L39.75,371.3594 L36.4688,371.3594 L35.7188,374.4219 L33.2813,374.4219 L36.625,362.0313 Z " fill="#000000"/><text fill="#000000" font-family="sans-serif" font-size="14" lengthAdjust="spacing" textLength="101" x="60.5" y="370.917">2001:db8:0:0:</text><text fill="#9A9A9A" font-family="sans-serif" font-size="14" lengthAdjust="spacing" textLength="132" x="161.5" y="370.917">c8f4:13ff:fece:3f43</text><text fill="#000000" font-family="sans-serif" font-size="14" lengthAdjust="spacing" textLength="101" x="55" y="387.2139">2001:db8:0:8:</text><text fill="#9A9A9A" font-family="sans-serif" font-size="14" lengthAdjust="spacing" textLength="143" x="156" y="387.2139">3c27:6dff:fe25:e95d</text><rect fill="#E2E2F0" height="36" rx="2.5" ry="2.5" style="stroke:#181818;stroke-width:0.5;" width="299" x="451.5" y="15.5938"/><ellipse cx="469.5" cy="33.5938" fill="#ADD1B2" rx="11" ry="11" style="stroke:#181818;stroke-width:1.0;"/><path d="M468.4063,33.9688 L468.4063,37.6406 L470.0313,37.6406 Q471.2031,37.6406 471.6719,37.25 Q472.1406,36.8438 472.1406,35.8438 Q472.1406,34.8438 471.6406,34.4063 Q471.1563,33.9688 470.0313,33.9688 L468.4063,33.9688 Z M468.4063,29.1406 L468.4063,32.0156 L470.0313,32.0156 Q470.9531,32.0156 471.3438,31.6875 Q471.75,31.3438 471.75,30.5938 Q471.75,29.8281 471.3438,29.4844 Q470.9375,29.1406 470.0313,29.1406 L468.4063,29.1406 Z M466.0313,27.1875 L470.0313,27.1875 Q472.0938,27.1875 473.1406,27.9688 Q474.1875,28.75 474.1875,30.3125 Q474.1875,31.5156 473.5625,32.1875 Q472.9531,32.8594 471.7656,32.9688 Q473.1875,33.1094 473.9063,33.9219 Q474.625,34.7344 474.625,36.1875 Q474.625,37.9844 473.5469,38.7969 Q472.4688,39.5938 470.0313,39.5938 L466.0313,39.5938 L466.0313,27.1875 Z " fill="#000000"/><text fill="#000000" font-family="sans-serif" font-size="14" lengthAdjust="spacing" textLength="101" x="486.5" y="35.5889">2001:db8:0:0:</text><text fill="#9A9A9A" font-family="sans-serif" font-size="14" lengthAdjust="spacing" textLength="156" x="587.5" y="35.5889">a7a2:12e0:48bc:7487</text><rect fill="#E2E2F0" height="36" rx="2.5" ry="2.5" style="stroke:#181818;stroke-width:0.5;" width="299" x="451.5" y="350.9219"/><ellipse cx="469.5" cy="368.9219" fill="#ADD1B2" rx="11" ry="11" style="stroke:#181818;stroke-width:1.0;"/><path d="M468.4063,369.2969 L468.4063,372.9688 L470.0313,372.9688 Q471.2031,372.9688 471.6719,372.5781 Q472.1406,372.1719 472.1406,371.1719 Q472.1406,370.1719 471.6406,369.7344 Q471.1563,369.2969 470.0313,369.2969 L468.4063,369.2969 Z M468.4063,364.4688 L468.4063,367.3438 L470.0313,367.3438 Q470.9531,367.3438 471.3438,367.0156 Q471.75,366.6719 471.75,365.9219 Q471.75,365.1563 471.3438,364.8125 Q470.9375,364.4688 470.0313,364.4688 L468.4063,364.4688 Z M466.0313,362.5156 L470.0313,362.5156 Q472.0938,362.5156 473.1406,363.2969 Q474.1875,364.0781 474.1875,365.6406 Q474.1875,366.8438 473.5625,367.5156 Q472.9531,368.1875 471.7656,368.2969 Q473.1875,368.4375 473.9063,369.25 Q474.625,370.0625 474.625,371.5156 Q474.625,373.3125 473.5469,374.125 Q472.4688,374.9219 470.0313,374.9219 L466.0313,374.9219 L466.0313,362.5156 Z " fill="#000000"/><text fill="#000000" font-family="sans-serif" font-size="14" lengthAdjust="spacing" textLength="101" x="486.5" y="370.917">2001:db8:0:0:</text><text fill="#9A9A9A" font-family="sans-serif" font-size="14" lengthAdjust="spacing" textLength="156" x="587.5" y="370.917">a7a2:12e0:48bc:7487</text><rect fill="#E2E2F0" height="36" rx="2.5" ry="2.5" style="stroke:#181818;stroke-width:0.5;" width="280" x="760.5" y="15.5938"/><ellipse cx="778.5" cy="33.5938" fill="#ADD1B2" rx="11" ry="11" style="stroke:#181818;stroke-width:1.0;"/><path d="M781.4688,39.2344 Q780.8906,39.5313 780.25,39.6719 Q779.6094,39.8281 778.9063,39.8281 Q776.4063,39.8281 775.0781,38.1875 Q773.7656,36.5313 773.7656,33.4063 Q773.7656,30.2813 775.0781,28.625 Q776.4063,26.9688 778.9063,26.9688 Q779.6094,26.9688 780.25,27.125 Q780.9063,27.2813 781.4688,27.5781 L781.4688,30.2969 Q780.8438,29.7188 780.25,29.4531 Q779.6563,29.1719 779.0313,29.1719 Q777.6875,29.1719 777,30.25 Q776.3125,31.3125 776.3125,33.4063 Q776.3125,35.5 777,36.5781 Q777.6875,37.6406 779.0313,37.6406 Q779.6563,37.6406 780.25,37.375 Q780.8438,37.0938 781.4688,36.5156 L781.4688,39.2344 Z " fill="#000000"/><text fill="#000000" font-family="sans-serif" font-size="14" lengthAdjust="spacing" textLength="101" x="795.5" y="35.5889">2001:db8:0:8:</text><text fill="#9A9A9A" font-family="sans-serif" font-size="14" lengthAdjust="spacing" textLength="137" x="896.5" y="35.5889">5075:35ff:fefa:30bc</text><rect fill="#E2E2F0" height="36" rx="2.5" ry="2.5" style="stroke:#181818;stroke-width:0.5;" width="280" x="760.5" y="350.9219"/><ellipse cx="778.5" cy="368.9219" fill="#ADD1B2" rx="11" ry="11" style="stroke:#181818;stroke-width:1.0;"/><path d="M781.4688,374.5625 Q780.8906,374.8594 780.25,375 Q779.6094,375.1563 778.9063,375.1563 Q776.4063,375.1563 775.0781,373.5156 Q773.7656,371.8594 773.7656,368.7344 Q773.7656,365.6094 775.0781,363.9531 Q776.4063,362.2969 778.9063,362.2969 Q779.6094,362.2969 780.25,362.4531 Q780.9063,362.6094 781.4688,362.9063 L781.4688,365.625 Q780.8438,365.0469 780.25,364.7813 Q779.6563,364.5 779.0313,364.5 Q777.6875,364.5 777,365.5781 Q776.3125,366.6406 776.3125,368.7344 Q776.3125,370.8281 777,371.9063 Q777.6875,372.9688 779.0313,372.9688 Q779.6563,372.9688 780.25,372.7031 Q780.8438,372.4219 781.4688,371.8438 L781.4688,374.5625 Z " fill="#000000"/><text fill="#000000" font-family="sans-serif" font-size="14" lengthAdjust="spacing" textLength="101" x="795.5" y="370.917">2001:db8:0:8:</text><text fill="#9A9A9A" font-family="sans-serif" font-size="14" lengthAdjust="spacing" textLength="137" x="896.5" y="370.917">5075:35ff:fefa:30bc</text><polygon fill="#181818" points="888.5,79.7266,898.5,83.7266,888.5,87.7266,892.5,83.7266" style="stroke:#181818;stroke-width:1.0;"/><line style="stroke:#181818;stroke-width:1.0;" x1="163" x2="894.5" y1="83.7266" y2="83.7266"/><text fill="#000000" font-family="sans-serif" font-size="13" lengthAdjust="spacing" textLength="377" x="170" y="78.6606">RA: I'm a default router, PIO: You can use 2001:db8:0:8::/61</text><text fill="#000000" font-family="sans-serif" font-size="13" font-weight="bold" lengthAdjust="spacing" textLength="87" x="551" y="78.6606">[broadcast]</text><path d="M10,98.7266 L211,98.7266 L211,105.8594 L201,115.8594 L10,115.8594 L10,98.7266 " fill="#EEEEEE" style="stroke:#000000;stroke-width:1.5;"/><rect fill="none" height="154.7969" style="stroke:#000000;stroke-width:1.5;" width="1125.5" x="10" y="98.7266"/><text fill="#000000" font-family="sans-serif" font-size="13" font-weight="bold" lengthAdjust="spacing" textLength="156" x="25" y="111.7935">C sends request to B</text><polygon fill="#181818" points="174,126.4258,164,130.4258,174,134.4258,170,130.4258" style="stroke:#181818;stroke-width:1.0;"/><line style="stroke:#181818;stroke-width:1.0;" x1="168" x2="899.5" y1="130.4258" y2="130.4258"/><text fill="#000000" font-family="sans-serif" font-size="13" lengthAdjust="spacing" textLength="244" x="180" y="143.4927">forward PING request to 2001:db8:0:0:</text><text fill="#9A9A9A" font-family="sans-serif" font-size="13" lengthAdjust="spacing" textLength="139" x="424" y="143.4927">a7a2:12e0:48bc:7487</text><path d="M905,120.8594 L905,160.8594 L1120,160.8594 L1120,130.8594 L1110,120.8594 L905,120.8594 " fill="#FEFFDD" style="stroke:#181818;stroke-width:0.5;"/><path d="M1110,120.8594 L1110,130.8594 L1120,130.8594 L1110,120.8594 " fill="#FEFFDD" style="stroke:#181818;stroke-width:0.5;"/><text fill="#000000" font-family="sans-serif" font-size="13" lengthAdjust="spacing" textLength="133" x="911" y="137.9263">destination of off-link</text><text fill="#000000" font-family="sans-serif" font-size="13" lengthAdjust="spacing" textLength="194" x="911" y="153.0591">use default router to forward it</text><polygon fill="#181818" points="589,183.2578,599,187.2578,589,191.2578,593,187.2578" style="stroke:#181818;stroke-width:1.0;"/><line style="stroke:#181818;stroke-width:1.0;stroke-dasharray:2.0,2.0;" x1="163" x2="595" y1="187.2578" y2="187.2578"/><text fill="#000000" font-family="sans-serif" font-size="13" lengthAdjust="spacing" textLength="173" x="170" y="182.1919">NS: Who has 2001:db8:0:0:</text><text fill="#9A9A9A" font-family="sans-serif" font-size="13" lengthAdjust="spacing" textLength="139" x="343" y="182.1919">a7a2:12e0:48bc:7487</text><text fill="#000000" font-family="sans-serif" font-size="13" lengthAdjust="spacing" textLength="7" x="482" y="182.1919">?</text><text fill="#000000" font-family="sans-serif" font-size="13" font-weight="bold" lengthAdjust="spacing" textLength="87" x="497" y="182.1919">[broadcast]</text><polygon fill="#181818" points="174,195.2578,164,199.2578,174,203.2578,170,199.2578" style="stroke:#181818;stroke-width:1.0;"/><line style="stroke:#181818;stroke-width:1.0;" x1="168" x2="600" y1="199.2578" y2="199.2578"/><text fill="#000000" font-family="sans-serif" font-size="13" lengthAdjust="spacing" textLength="51" x="180" y="212.3247">NA: Me!</text><polygon fill="#181818" points="589,241.5234,599,245.5234,589,249.5234,593,245.5234" style="stroke:#181818;stroke-width:1.0;"/><line style="stroke:#181818;stroke-width:1.0;" x1="163" x2="595" y1="245.5234" y2="245.5234"/><text fill="#000000" font-family="sans-serif" font-size="13" lengthAdjust="spacing" textLength="210" x="170" y="240.4575">PING request from 2001:db8:0:8:</text><text fill="#9A9A9A" font-family="sans-serif" font-size="13" lengthAdjust="spacing" textLength="123" x="380" y="240.4575">5075:35ff:fefa:30bc</text><path d="M10,267.5234 L191,267.5234 L191,274.6563 L181,284.6563 L10,284.6563 L10,267.5234 " fill="#EEEEEE" style="stroke:#000000;stroke-width:1.5;"/><rect fill="none" height="67.3984" style="stroke:#000000;stroke-width:1.5;" width="987" x="10" y="267.5234"/><text fill="#000000" font-family="sans-serif" font-size="13" font-weight="bold" lengthAdjust="spacing" textLength="136" x="25" y="280.5903">B sends reply to C</text><line style="stroke:#181818;stroke-width:2.0;" x1="170" x2="180" y1="294.2227" y2="304.2227"/><line style="stroke:#181818;stroke-width:2.0;" x1="170" x2="180" y1="304.2227" y2="294.2227"/><line style="stroke:#181818;stroke-width:1.0;stroke-dasharray:2.0,2.0;" x1="175" x2="600" y1="299.2227" y2="299.2227"/><text fill="#000000" font-family="sans-serif" font-size="13" lengthAdjust="spacing" textLength="173" x="180" y="312.2896">NS: Who has 2001:db8:0:8:</text><text fill="#9A9A9A" font-family="sans-serif" font-size="13" lengthAdjust="spacing" textLength="123" x="353" y="312.2896">5075:35ff:fefa:30bc</text><text fill="#000000" font-family="sans-serif" font-size="13" lengthAdjust="spacing" textLength="7" x="476" y="312.2896">?</text><text fill="#000000" font-family="sans-serif" font-size="13" font-weight="bold" lengthAdjust="spacing" textLength="87" x="487" y="312.2896">[broadcast]</text><path d="M606,289.6563 L606,329.6563 L982,329.6563 L982,299.6563 L972,289.6563 L606,289.6563 " fill="#FEFFDD" style="stroke:#181818;stroke-width:0.5;"/><path d="M972,289.6563 L972,299.6563 L982,299.6563 L972,289.6563 " fill="#FEFFDD" style="stroke:#181818;stroke-width:0.5;"/><text fill="#000000" font-family="sans-serif" font-size="13" lengthAdjust="spacing" textLength="355" x="612" y="306.7231">destination is in the same subnet, so it must be on-link.</text><text fill="#000000" font-family="sans-serif" font-size="13" lengthAdjust="spacing" textLength="182" x="612" y="321.856">Send NS to resolve address.</text><!--MD5=[987e47b823799ae771d31507339abd69]
@startuml

skinparam responseMessageBelowArrow true

participant "2001:db8:0:0:<color:#9a9a9a>c8f4:13ff:fece:3f43\n2001:db8:0:8:<color:#9a9a9a>3c27:6dff:fe25:e95d" as A << (A,#ADD1B2) >>
participant "2001:db8:0:0:<color:#9a9a9a>a7a2:12e0:48bc:7487" as B << (B,#ADD1B2) >>
participant "2001:db8:0:8:<color:#9a9a9a>5075:35ff:fefa:30bc" as C << (C,#ADD1B2) >>

A -> C: RA: I'm a default router, PIO: You can use 2001:db8:0:8::/61 **[broadcast]**
group C sends request to B
C -> A: forward PING request to 2001:db8:0:0:<color:#9a9a9a>a7a2:12e0:48bc:7487
note right
destination of off-link
use default router to forward it
end note
A - -> B: NS: Who has 2001:db8:0:0:<color:#9a9a9a>a7a2:12e0:48bc:7487</color>?  **[broadcast]**
B -> A: NA: Me!
A -> B: PING request from 2001:db8:0:8:<color:#9a9a9a>5075:35ff:fefa:30bc
end
group B sends reply to C
B - ->x A: NS: Who has 2001:db8:0:8:<color:#9a9a9a>5075:35ff:fefa:30bc</color>? **[broadcast]**
note right
destination is in the same subnet, so it must be on-link.
Send NS to resolve address.
end note
end
@enduml

PlantUML version 1.2022.6(Tue Jun 21 19:34:49 CEST 2022)
(GPL source distribution)
Java Runtime: OpenJDK Runtime Environment
JVM: OpenJDK 64-Bit Server VM
Default Encoding: UTF-8
Language: en
Country: US
--></g></svg>