<?xml version="1.0" encoding="UTF-8" standalone="no"?><svg xmlns="http://www.w3.org/2000/svg" xmlns:xlink="http://www.w3.org/1999/xlink" contentScriptType="application/ecmascript" contentStyleType="text/css" height="567px" preserveAspectRatio="none" style="width:602px;height:567px;background:#FFFFFF;" version="1.1" viewBox="0 0 602 567" width="602px" zoomAndPan="magnify"><defs><filter height="300%" id="f8fo3qvvf3v1x" width="300%" x="-1" y="-1"><feGaussianBlur result="blurOut" stdDeviation="2.0"/><feColorMatrix in="blurOut" result="blurOut2" type="matrix" values="0 0 0 0 0 0 0 0 0 0 0 0 0 0 0 0 0 0 .4 0"/><feOffset dx="4.0" dy="4.0" in="blurOut2" result="blurOut3"/><feBlend in="SourceGraphic" in2="blurOut3" mode="normal"/></filter></defs><g><line style="stroke:#275A4B;stroke-width:2.0;stroke-dasharray:5.0,5.0;" x1="79" x2="79" y1="56.5938" y2="507.5859"/><line style="stroke:#275A4B;stroke-width:2.0;stroke-dasharray:5.0,5.0;" x1="303" x2="303" y1="56.5938" y2="507.5859"/><line style="stroke:#275A4B;stroke-width:2.0;stroke-dasharray:5.0,5.0;" x1="520.5" x2="520.5" y1="56.5938" y2="507.5859"/><rect fill="#275A4B" filter="url(#f8fo3qvvf3v1x)" height="46.5938" style="stroke:#3FA687;stroke-width:2.0;" width="145" x="5" y="5"/><text fill="#FFFFFF" font-family="sans-serif" font-size="14" font-weight="bold" lengthAdjust="spacing" textLength="11" x="72" y="24.9951">A</text><text fill="#FFFFFF" font-family="sans-serif" font-size="14" lengthAdjust="spacing" textLength="113" x="12" y="41.292">2e:a3:9e:a9:68:</text><text fill="#FFFFFF" font-family="sans-serif" font-size="14" font-style="italic" lengthAdjust="spacing" textLength="18" x="125" y="41.292">23</text><rect fill="#275A4B" filter="url(#f8fo3qvvf3v1x)" height="46.5938" style="stroke:#3FA687;stroke-width:2.0;" width="145" x="5" y="506.5859"/><text fill="#FFFFFF" font-family="sans-serif" font-size="14" font-weight="bold" lengthAdjust="spacing" textLength="11" x="72" y="526.5811">A</text><text fill="#FFFFFF" font-family="sans-serif" font-size="14" lengthAdjust="spacing" textLength="113" x="12" y="542.8779">2e:a3:9e:a9:68:</text><text fill="#FFFFFF" font-family="sans-serif" font-size="14" font-style="italic" lengthAdjust="spacing" textLength="18" x="125" y="542.8779">23</text><rect fill="#275A4B" filter="url(#f8fo3qvvf3v1x)" height="46.5938" style="stroke:#3FA687;stroke-width:2.0;" width="145" x="229" y="5"/><text fill="#FFFFFF" font-family="sans-serif" font-size="14" font-weight="bold" lengthAdjust="spacing" textLength="10" x="296.5" y="24.9951">B</text><text fill="#FFFFFF" font-family="sans-serif" font-size="14" lengthAdjust="spacing" textLength="113" x="236" y="41.292">2e:a3:9e:a9:68:</text><text fill="#FFFFFF" font-family="sans-serif" font-size="14" font-style="italic" lengthAdjust="spacing" textLength="18" x="349" y="41.292">42</text><rect fill="#275A4B" filter="url(#f8fo3qvvf3v1x)" height="46.5938" style="stroke:#3FA687;stroke-width:2.0;" width="145" x="229" y="506.5859"/><text fill="#FFFFFF" font-family="sans-serif" font-size="14" font-weight="bold" lengthAdjust="spacing" textLength="10" x="296.5" y="526.5811">B</text><text fill="#FFFFFF" font-family="sans-serif" font-size="14" lengthAdjust="spacing" textLength="113" x="236" y="542.8779">2e:a3:9e:a9:68:</text><text fill="#FFFFFF" font-family="sans-serif" font-size="14" font-style="italic" lengthAdjust="spacing" textLength="18" x="349" y="542.8779">42</text><rect fill="#275A4B" filter="url(#f8fo3qvvf3v1x)" height="46.5938" style="stroke:#3FA687;stroke-width:2.0;" width="140" x="448.5" y="5"/><text fill="#FFFFFF" font-family="sans-serif" font-size="14" font-weight="bold" lengthAdjust="spacing" textLength="11" x="513" y="24.9951">C</text><text fill="#FFFFFF" font-family="sans-serif" font-size="14" lengthAdjust="spacing" textLength="113" x="455.5" y="41.292">2e:a3:9e:a9:68:</text><text fill="#FFFFFF" font-family="sans-serif" font-size="14" font-style="italic" lengthAdjust="spacing" textLength="13" x="568.5" y="41.292">f6</text><rect fill="#275A4B" filter="url(#f8fo3qvvf3v1x)" height="46.5938" style="stroke:#3FA687;stroke-width:2.0;" width="140" x="448.5" y="506.5859"/><text fill="#FFFFFF" font-family="sans-serif" font-size="14" font-weight="bold" lengthAdjust="spacing" textLength="11" x="513" y="526.5811">C</text><text fill="#FFFFFF" font-family="sans-serif" font-size="14" lengthAdjust="spacing" textLength="113" x="455.5" y="542.8779">2e:a3:9e:a9:68:</text><text fill="#FFFFFF" font-family="sans-serif" font-size="14" font-style="italic" lengthAdjust="spacing" textLength="13" x="568.5" y="542.8779">f6</text><path d="M8,71.5938 L8,96.5938 L590,96.5938 L590,81.5938 L580,71.5938 L8,71.5938 " fill="#30735F" filter="url(#f8fo3qvvf3v1x)" style="stroke:#388D73;stroke-width:1.0;"/><path d="M580,71.5938 L580,81.5938 L590,81.5938 L580,71.5938 " fill="#30735F" style="stroke:#388D73;stroke-width:1.0;"/><text fill="#FFFFFF" font-family="sans-serif" font-size="13" font-style="italic" lengthAdjust="spacing" textLength="68" x="150.75" y="88.6606">Address of</text><text fill="#FFFFFF" font-family="sans-serif" font-size="13" font-style="italic" font-weight="bold" lengthAdjust="spacing" textLength="10" x="222.75" y="88.6606">A</text><text fill="#FFFFFF" font-family="sans-serif" font-size="13" font-style="italic" lengthAdjust="spacing" textLength="83" x="236.75" y="88.6606">&lt; Address of</text><text fill="#FFFFFF" font-family="sans-serif" font-size="13" font-style="italic" font-weight="bold" lengthAdjust="spacing" textLength="10" x="323.75" y="88.6606">B</text><text fill="#FFFFFF" font-family="sans-serif" font-size="13" font-style="italic" lengthAdjust="spacing" textLength="83" x="337.75" y="88.6606">&lt; Address of</text><text fill="#FFFFFF" font-family="sans-serif" font-size="13" font-style="italic" font-weight="bold" lengthAdjust="spacing" textLength="10" x="424.75" y="88.6606">C</text><path d="M17,110.7266 L17,150.7266 L138,150.7266 L138,120.7266 L128,110.7266 L17,110.7266 " fill="#30735F" filter="url(#f8fo3qvvf3v1x)" style="stroke:#388D73;stroke-width:1.0;"/><path d="M128,110.7266 L128,120.7266 L138,120.7266 L128,110.7266 " fill="#30735F" style="stroke:#388D73;stroke-width:1.0;"/><text fill="#FFFFFF" font-family="sans-serif" font-size="13" lengthAdjust="spacing" textLength="50" x="23" y="127.7935">index: 0</text><text fill="#FFFFFF" font-family="sans-serif" font-size="13" lengthAdjust="spacing" textLength="100" x="23" y="142.9263">local subnets: 2</text><path d="M458,110.7266 L458,150.7266 L579,150.7266 L579,120.7266 L569,110.7266 L458,110.7266 " fill="#30735F" filter="url(#f8fo3qvvf3v1x)" style="stroke:#388D73;stroke-width:1.0;"/><path d="M569,110.7266 L569,120.7266 L579,120.7266 L569,110.7266 " fill="#30735F" style="stroke:#388D73;stroke-width:1.0;"/><text fill="#FFFFFF" font-family="sans-serif" font-size="13" lengthAdjust="spacing" textLength="50" x="464" y="127.7935">index: 0</text><text fill="#FFFFFF" font-family="sans-serif" font-size="13" lengthAdjust="spacing" textLength="100" x="464" y="142.9263">local subnets: 1</text><path d="M241,110.7266 L241,150.7266 L362,150.7266 L362,120.7266 L352,110.7266 L241,110.7266 " fill="#30735F" filter="url(#f8fo3qvvf3v1x)" style="stroke:#388D73;stroke-width:1.0;"/><path d="M352,110.7266 L352,120.7266 L362,120.7266 L352,110.7266 " fill="#30735F" style="stroke:#388D73;stroke-width:1.0;"/><text fill="#FFFFFF" font-family="sans-serif" font-size="13" lengthAdjust="spacing" textLength="50" x="247" y="127.7935">index: 0</text><text fill="#FFFFFF" font-family="sans-serif" font-size="13" lengthAdjust="spacing" textLength="100" x="247" y="142.9263">local subnets: 1</text><polygon fill="#3FA687" points="508.5,177.125,518.5,181.125,508.5,185.125,512.5,181.125" style="stroke:#3FA687;stroke-width:1.0;"/><line style="stroke:#3FA687;stroke-width:2.0;" x1="79.5" x2="514.5" y1="181.125" y2="181.125"/><text fill="#000000" font-family="sans-serif" font-size="13" lengthAdjust="spacing" textLength="99" x="86.5" y="176.0591">I want to create</text><text fill="#000000" font-family="sans-serif" font-size="13" font-weight="bold" lengthAdjust="spacing" textLength="9" x="189.5" y="176.0591">2</text><text fill="#000000" font-family="sans-serif" font-size="13" lengthAdjust="spacing" textLength="84" x="202.5" y="176.0591">local subnets</text><polygon fill="#3FA687" points="291.5,206.2578,301.5,210.2578,291.5,214.2578,295.5,210.2578" style="stroke:#3FA687;stroke-width:1.0;"/><line style="stroke:#3FA687;stroke-width:2.0;" x1="79.5" x2="297.5" y1="210.2578" y2="210.2578"/><text fill="#000000" font-family="sans-serif" font-size="13" lengthAdjust="spacing" textLength="99" x="86.5" y="205.1919">I want to create</text><text fill="#000000" font-family="sans-serif" font-size="13" font-weight="bold" lengthAdjust="spacing" textLength="9" x="189.5" y="205.1919">2</text><text fill="#000000" font-family="sans-serif" font-size="13" lengthAdjust="spacing" textLength="84" x="202.5" y="205.1919">local subnets</text><path d="M457,223.2578 L457,263.2578 L579,263.2578 L579,233.2578 L569,223.2578 L457,223.2578 " fill="#30735F" filter="url(#f8fo3qvvf3v1x)" style="stroke:#388D73;stroke-width:1.0;"/><path d="M569,223.2578 L569,233.2578 L579,233.2578 L569,223.2578 " fill="#30735F" style="stroke:#388D73;stroke-width:1.0;"/><text fill="#FFFFFF" font-family="sans-serif" font-size="13" lengthAdjust="spacing" textLength="38" x="463" y="240.3247">index:</text><text fill="#FFFFFF" font-family="sans-serif" font-size="13" font-weight="bold" lengthAdjust="spacing" textLength="9" x="505" y="240.3247">2</text><text fill="#FFFFFF" font-family="sans-serif" font-size="13" lengthAdjust="spacing" textLength="88" x="463" y="255.4575">total subnets:</text><text fill="#FFFFFF" font-family="sans-serif" font-size="13" font-weight="bold" lengthAdjust="spacing" textLength="9" x="555" y="255.4575">3</text><path d="M240,223.2578 L240,263.2578 L362,263.2578 L362,233.2578 L352,223.2578 L240,223.2578 " fill="#30735F" filter="url(#f8fo3qvvf3v1x)" style="stroke:#388D73;stroke-width:1.0;"/><path d="M352,223.2578 L352,233.2578 L362,233.2578 L352,223.2578 " fill="#30735F" style="stroke:#388D73;stroke-width:1.0;"/><text fill="#FFFFFF" font-family="sans-serif" font-size="13" lengthAdjust="spacing" textLength="38" x="246" y="240.3247">index:</text><text fill="#FFFFFF" font-family="sans-serif" font-size="13" font-weight="bold" lengthAdjust="spacing" textLength="9" x="288" y="240.3247">2</text><text fill="#FFFFFF" font-family="sans-serif" font-size="13" lengthAdjust="spacing" textLength="88" x="246" y="255.4575">total subnets:</text><text fill="#FFFFFF" font-family="sans-serif" font-size="13" font-weight="bold" lengthAdjust="spacing" textLength="9" x="338" y="255.4575">3</text><polygon fill="#3FA687" points="90.5,289.6563,80.5,293.6563,90.5,297.6563,86.5,293.6563" style="stroke:#3FA687;stroke-width:1.0;"/><line style="stroke:#3FA687;stroke-width:2.0;" x1="84.5" x2="519.5" y1="293.6563" y2="293.6563"/><text fill="#000000" font-family="sans-serif" font-size="13" lengthAdjust="spacing" textLength="99" x="96.5" y="288.5903">I want to create</text><text fill="#000000" font-family="sans-serif" font-size="13" font-weight="bold" lengthAdjust="spacing" textLength="9" x="199.5" y="288.5903">1</text><text fill="#000000" font-family="sans-serif" font-size="13" lengthAdjust="spacing" textLength="77" x="212.5" y="288.5903">local subnet</text><polygon fill="#3FA687" points="314.5,318.7891,304.5,322.7891,314.5,326.7891,310.5,322.7891" style="stroke:#3FA687;stroke-width:1.0;"/><line style="stroke:#3FA687;stroke-width:2.0;" x1="308.5" x2="519.5" y1="322.7891" y2="322.7891"/><text fill="#000000" font-family="sans-serif" font-size="13" lengthAdjust="spacing" textLength="99" x="320.5" y="317.7231">I want to create</text><text fill="#000000" font-family="sans-serif" font-size="13" font-weight="bold" lengthAdjust="spacing" textLength="9" x="423.5" y="317.7231">1</text><text fill="#000000" font-family="sans-serif" font-size="13" lengthAdjust="spacing" textLength="77" x="436.5" y="317.7231">local subnet</text><path d="M16,335.7891 L16,375.7891 L138,375.7891 L138,345.7891 L128,335.7891 L16,335.7891 " fill="#30735F" filter="url(#f8fo3qvvf3v1x)" style="stroke:#388D73;stroke-width:1.0;"/><path d="M128,335.7891 L128,345.7891 L138,345.7891 L128,335.7891 " fill="#30735F" style="stroke:#388D73;stroke-width:1.0;"/><text fill="#FFFFFF" font-family="sans-serif" font-size="13" lengthAdjust="spacing" textLength="50" x="22" y="352.856">index: 0</text><text fill="#FFFFFF" font-family="sans-serif" font-size="13" lengthAdjust="spacing" textLength="88" x="22" y="367.9888">total subnets:</text><text fill="#FFFFFF" font-family="sans-serif" font-size="13" font-weight="bold" lengthAdjust="spacing" textLength="9" x="114" y="367.9888">3</text><path d="M240,335.7891 L240,375.7891 L362,375.7891 L362,345.7891 L352,335.7891 L240,335.7891 " fill="#30735F" filter="url(#f8fo3qvvf3v1x)" style="stroke:#388D73;stroke-width:1.0;"/><path d="M352,335.7891 L352,345.7891 L362,345.7891 L352,335.7891 " fill="#30735F" style="stroke:#388D73;stroke-width:1.0;"/><text fill="#FFFFFF" font-family="sans-serif" font-size="13" lengthAdjust="spacing" textLength="50" x="246" y="352.856">index: 2</text><text fill="#FFFFFF" font-family="sans-serif" font-size="13" lengthAdjust="spacing" textLength="88" x="246" y="367.9888">total subnets:</text><text fill="#FFFFFF" font-family="sans-serif" font-size="13" font-weight="bold" lengthAdjust="spacing" textLength="9" x="338" y="367.9888">4</text><polygon fill="#3FA687" points="508.5,402.1875,518.5,406.1875,508.5,410.1875,512.5,406.1875" style="stroke:#3FA687;stroke-width:1.0;"/><line style="stroke:#3FA687;stroke-width:2.0;" x1="303.5" x2="514.5" y1="406.1875" y2="406.1875"/><text fill="#000000" font-family="sans-serif" font-size="13" lengthAdjust="spacing" textLength="99" x="310.5" y="401.1216">I want to create</text><text fill="#000000" font-family="sans-serif" font-size="13" font-weight="bold" lengthAdjust="spacing" textLength="9" x="413.5" y="401.1216">1</text><text fill="#000000" font-family="sans-serif" font-size="13" lengthAdjust="spacing" textLength="77" x="426.5" y="401.1216">local subnet</text><polygon fill="#3FA687" points="90.5,431.3203,80.5,435.3203,90.5,439.3203,86.5,435.3203" style="stroke:#3FA687;stroke-width:1.0;"/><line style="stroke:#3FA687;stroke-width:2.0;" x1="84.5" x2="302.5" y1="435.3203" y2="435.3203"/><text fill="#000000" font-family="sans-serif" font-size="13" lengthAdjust="spacing" textLength="99" x="96.5" y="430.2544">I want to create</text><text fill="#000000" font-family="sans-serif" font-size="13" font-weight="bold" lengthAdjust="spacing" textLength="9" x="199.5" y="430.2544">1</text><text fill="#000000" font-family="sans-serif" font-size="13" lengthAdjust="spacing" textLength="77" x="212.5" y="430.2544">local subnet</text><path d="M16,448.3203 L16,488.3203 L138,488.3203 L138,458.3203 L128,448.3203 L16,448.3203 " fill="#30735F" filter="url(#f8fo3qvvf3v1x)" style="stroke:#388D73;stroke-width:1.0;"/><path d="M128,448.3203 L128,458.3203 L138,458.3203 L128,448.3203 " fill="#30735F" style="stroke:#388D73;stroke-width:1.0;"/><text fill="#FFFFFF" font-family="sans-serif" font-size="13" lengthAdjust="spacing" textLength="99" x="22" y="465.3872">index: 0 local: 2</text><text fill="#FFFFFF" font-family="sans-serif" font-size="13" lengthAdjust="spacing" textLength="88" x="22" y="480.52">total subnets:</text><text fill="#FFFFFF" font-family="sans-serif" font-size="13" font-weight="bold" lengthAdjust="spacing" textLength="9" x="114" y="480.52">4</text><path d="M457,448.3203 L457,488.3203 L579,488.3203 L579,458.3203 L569,448.3203 L457,448.3203 " fill="#30735F" filter="url(#f8fo3qvvf3v1x)" style="stroke:#388D73;stroke-width:1.0;"/><path d="M569,448.3203 L569,458.3203 L579,458.3203 L569,448.3203 " fill="#30735F" style="stroke:#388D73;stroke-width:1.0;"/><text fill="#FFFFFF" font-family="sans-serif" font-size="13" lengthAdjust="spacing" textLength="38" x="463" y="465.3872">index:</text><text fill="#FFFFFF" font-family="sans-serif" font-size="13" font-weight="bold" lengthAdjust="spacing" textLength="9" x="505" y="465.3872">3</text><text fill="#FFFFFF" font-family="sans-serif" font-size="13" lengthAdjust="spacing" textLength="45" x="518" y="465.3872">local: 1</text><text fill="#FFFFFF" font-family="sans-serif" font-size="13" lengthAdjust="spacing" textLength="88" x="463" y="480.52">total subnets:</text><text fill="#FFFFFF" font-family="sans-serif" font-size="13" font-weight="bold" lengthAdjust="spacing" textLength="9" x="555" y="480.52">4</text><path d="M241,448.3203 L241,488.3203 L362,488.3203 L362,458.3203 L352,448.3203 L241,448.3203 " fill="#30735F" filter="url(#f8fo3qvvf3v1x)" style="stroke:#388D73;stroke-width:1.0;"/><path d="M352,448.3203 L352,458.3203 L362,458.3203 L352,448.3203 " fill="#30735F" style="stroke:#388D73;stroke-width:1.0;"/><text fill="#FFFFFF" font-family="sans-serif" font-size="13" lengthAdjust="spacing" textLength="99" x="247" y="465.3872">index: 2 local: 1</text><text fill="#FFFFFF" font-family="sans-serif" font-size="13" lengthAdjust="spacing" textLength="100" x="247" y="480.52">total subnets: 4</text></g></svg>
