<?xml version="1.0" standalone="no"?>
<!DOCTYPE svg PUBLIC "-//W3C//DTD SVG 1.1//EN" "http://www.w3.org/Graphics/SVG/1.1/DTD/svg11.dtd" >
<svg>
<metadata>
Created by FontForge 20120731 at Mon Oct 19 14:37:46 2015
 By Martine Lenders,,,
Copyright (c) Marten Nettelbladt, 2006. All rights reserved.
</metadata>
<defs>
<font id="Miso" horiz-adv-x="416" >
  <font-face
    font-family="Miso"
    font-weight="400"
    font-style="italic"
    font-stretch="normal"
    units-per-em="1000"
    panose-1="0 0 0 0 0 0 0 0 0 0"
    ascent="800"
    descent="-200"
    x-height="454"
    cap-height="640"
    bbox="-32 -204 1032 873"
    underline-thickness="96"
    underline-position="96"
    slope="10"
    stemh="64"
    stemv="64"
    unicode-range="U+0020-2122"
  />
<missing-glyph horiz-adv-x="192"
 />
    <glyph glyph-name=".notdef" horiz-adv-x="192"
 />
    <glyph glyph-name="O" unicode="O"
d="M208 -4c-84 0 -152 68 -152 152v340c0 84 68 152 152 152s152 -68 152 -152v-340c0 -84 -68 -152 -152 -152zM208 576c-49 0 -88 -40 -88 -88v-340c0 -49 39 -88 88 -88c48 0 88 39 88 88v340c0 48 -40 88 -88 88z" />
    <glyph glyph-name="Q" unicode="Q"
d="M56 488c0 84 68 152 152 152s152 -68 152 -152v-340c0 -45 -19 -85 -50 -113l46 -79c9 -15 3 -35 -12 -44c-15 -8 -35 -3 -44 12l-45 79c-15 -4 -31 -7 -47 -7c-84 0 -152 68 -152 152v340zM208 576c-48 0 -88 -40 -88 -88v-340c0 -49 40 -88 88 -88c49 0 88 39 88 88
v340c0 48 -39 88 -88 88z" />
    <glyph glyph-name="R" unicode="R"
d="M372 428c0 -64 -38 -118 -94 -141l92 -248c7 -16 -2 -34 -19 -41c-16 -7 -34 2 -41 19l-96 259h-82v-248c0 -19 -13 -32 -32 -32c-17 0 -32 13 -32 32v576c0 19 15 32 32 32h120c84 0 152 -68 152 -152v-56zM220 340c49 0 88 39 88 88v56c0 48 -39 88 -88 88h-88v-232h88
z" />
    <glyph glyph-name="S" unicode="S" horiz-adv-x="382"
d="M240 79c23 17 35 39 37 67c3 27 -7 53 -26 72l-160 164c-31 31 -46 74 -42 117c3 44 25 83 60 110s79 37 122 28s78 -34 101 -73c9 -15 4 -35 -12 -44c-15 -9 -35 -3 -43 12c-13 23 -33 37 -59 42s-50 0 -71 -16c-21 -15 -32 -36 -34 -63c-2 -26 6 -49 24 -68l160 -165
c31 -32 47 -76 44 -121c-4 -45 -26 -86 -62 -113s-82 -38 -126 -29s-82 36 -105 75c-8 16 -3 35 12 44s35 4 44 -12c13 -23 35 -39 62 -44s52 0 74 17z" />
    <glyph glyph-name="T" unicode="T" horiz-adv-x="380"
d="M320 636c19 0 32 -13 32 -32s-13 -32 -32 -32h-98v-544c0 -19 -13 -32 -32 -32c-17 0 -32 13 -32 32v544h-98c-17 0 -32 13 -32 32s15 32 32 32h260z" />
    <glyph glyph-name="U" unicode="U" horiz-adv-x="424"
d="M124 148c0 -49 39 -88 88 -88c48 0 88 39 88 88v460c0 19 13 32 32 32c17 0 32 -13 32 -32v-460c0 -84 -69 -152 -152 -152c-84 0 -152 68 -152 152v460c0 19 13 32 32 32c17 0 32 -13 32 -32v-460z" />
    <glyph glyph-name="V" unicode="V" horiz-adv-x="448"
d="M34 599c-5 17 5 35 22 40c17 4 35 -6 39 -23c17 -61 34 -121 50 -179c27 -99 58 -216 80 -289c19 73 52 191 79 289c16 58 33 118 50 179c4 17 22 27 39 23c17 -5 27 -23 22 -40l-160 -580c-3 -13 -15 -23 -30 -23s-27 10 -31 23z" />
    <glyph glyph-name="W" unicode="W" horiz-adv-x="698"
d="M38 600c-4 19 6 35 23 39s35 -5 39 -24c13 -57 27 -112 40 -167c21 -93 50 -207 69 -284c19 77 44 192 68 284c13 55 27 110 41 167c3 15 16 25 31 25c16 0 26 -8 31 -25c13 -57 27 -112 40 -167c21 -93 50 -207 69 -284c19 77 44 192 68 284c13 55 27 110 41 167
c4 19 21 28 38 24s28 -20 24 -39l-140 -580c-4 -15 -16 -24 -31 -24s-28 9 -31 24c-14 56 -28 112 -41 167c-24 93 -49 208 -68 285c-19 -77 -48 -192 -69 -285c-13 -55 -27 -111 -40 -167c-4 -15 -16 -24 -31 -24s-28 9 -31 24z" />
    <glyph glyph-name="X" unicode="X" horiz-adv-x="422"
d="M47 -1c-16 8 -23 27 -15 43l143 286l-133 266c-8 15 -1 35 15 43c15 7 35 1 43 -15l111 -222l111 222c8 16 27 22 43 15c16 -8 22 -28 15 -43l-133 -266l143 -286c7 -16 1 -35 -15 -43s-35 -1 -43 15l-121 242l-121 -242c-8 -16 -28 -23 -43 -15z" />
    <glyph glyph-name="Y" unicode="Y" horiz-adv-x="402"
d="M169 320l-137 274c-8 15 -1 35 15 43c15 7 35 1 43 -15l111 -222l111 222c8 16 27 22 43 15c16 -8 23 -28 15 -43l-137 -274v-292c0 -19 -13 -32 -32 -32s-32 13 -32 32v292z" />
    <glyph glyph-name="Z" unicode="Z" horiz-adv-x="384"
d="M40 32c0 4 1 8 3 12c35 85 68 163 98 235c51 122 107 255 123 293h-192c-19 0 -32 13 -32 32s13 32 32 32h240c12 0 21 -5 27 -14c3 -7 5 -13 5 -18c0 -3 -1 -7 -2 -12c-36 -85 -69 -164 -99 -236c-53 -123 -107 -255 -123 -292h192c19 0 32 -13 32 -32s-13 -32 -32 -32
h-240c-12 0 -21 5 -27 14c-3 7 -5 13 -5 18z" />
    <glyph glyph-name="N" unicode="N" horiz-adv-x="480"
d="M387 -3c-15 -4 -29 4 -36 17c-28 57 -55 114 -82 169c-45 93 -100 208 -137 285v-440c0 -19 -13 -32 -32 -32s-32 13 -32 32v580c0 15 10 28 25 31s29 -4 36 -17c27 -57 54 -114 81 -169c45 -93 101 -208 138 -285v440c0 19 13 32 32 32s32 -13 32 -32v-580
c0 -15 -10 -28 -25 -31z" />
    <glyph glyph-name="M" unicode="M" horiz-adv-x="520"
d="M100 -4c-19 0 -32 13 -32 32v580c0 15 10 28 25 31s29 -4 36 -17c17 -37 34 -73 51 -108c28 -60 60 -130 80 -171c19 41 51 112 80 171c17 35 34 71 51 108c7 13 21 20 36 17s25 -16 25 -31v-580c0 -19 -15 -32 -32 -32c-19 0 -32 13 -32 32v437
c-24 -51 -48 -103 -67 -143c-11 -23 -22 -46 -32 -68c-7 -12 -16 -18 -29 -18c-14 0 -24 6 -29 18c-10 22 -21 45 -32 68c-19 40 -44 92 -67 143v-437c0 -19 -15 -32 -32 -32z" />
    <glyph glyph-name="L" unicode="L" horiz-adv-x="348"
d="M100 0c-19 0 -32 13 -32 32v576c0 19 13 32 32 32c17 0 32 -13 32 -32v-544h168c17 0 32 -13 32 -32s-15 -32 -32 -32h-200z" />
    <glyph glyph-name="K" unicode="K" horiz-adv-x="421"
d="M389 42c8 -16 1 -35 -15 -43s-35 -1 -42 15l-144 297l-56 -78v-205c0 -19 -13 -32 -32 -32c-17 0 -32 13 -32 32v580c0 19 15 32 32 32c19 0 32 -13 32 -32v-265l202 284c11 15 30 18 45 7s18 -30 7 -45l-155 -218z" />
    <glyph glyph-name="J" unicode="J" horiz-adv-x="333"
d="M269 148c0 -55 -29 -105 -76 -132c-23 -13 -49 -20 -76 -20s-53 7 -76 20c-16 9 -21 29 -12 44s28 21 44 12c13 -8 28 -12 43 -12c16 0 31 4 45 12c27 15 44 45 44 76v460c0 19 13 32 32 32c17 0 32 -13 32 -32v-460z" />
    <glyph glyph-name="I" unicode="I" horiz-adv-x="200"
d="M100 -4c-17 0 -32 13 -32 32v580c0 19 15 32 32 32c19 0 32 -13 32 -32v-580c0 -19 -13 -32 -32 -32z" />
    <glyph glyph-name="H" unicode="H" horiz-adv-x="440"
d="M308 608c0 19 15 32 32 32c19 0 32 -13 32 -32v-580c0 -19 -13 -32 -32 -32c-17 0 -32 13 -32 32v268h-176v-268c0 -19 -13 -32 -32 -32c-17 0 -32 13 -32 32v580c0 19 15 32 32 32c19 0 32 -13 32 -32v-248h176v248z" />
    <glyph glyph-name="G" unicode="G" horiz-adv-x="412"
d="M56 488c0 69 46 128 113 147s136 -12 171 -71c9 -15 4 -35 -12 -44c-15 -9 -35 -3 -44 12c-19 35 -59 52 -98 41s-66 -45 -66 -85v-340c0 -49 40 -88 88 -88c49 0 88 39 88 88v128h-68c-17 0 -32 13 -32 32s15 32 32 32h100c19 0 32 -13 32 -32v-160
c0 -84 -68 -152 -152 -152s-152 68 -152 152v340z" />
    <glyph glyph-name="F" unicode="F" horiz-adv-x="360"
d="M100 0c-17 0 -32 13 -32 32v572c0 19 15 32 32 32h200c19 0 32 -13 32 -32s-13 -32 -32 -32h-168v-212h148c19 0 32 -13 32 -32s-13 -32 -32 -32h-148v-264c0 -19 -13 -32 -32 -32z" />
    <glyph glyph-name="E" unicode="E" horiz-adv-x="368"
d="M68 604c0 19 13 32 32 32h200c19 0 32 -13 32 -32s-13 -32 -32 -32h-168v-212h148c19 0 32 -13 32 -32s-13 -32 -32 -32h-148v-232h168c19 0 32 -13 32 -32s-13 -32 -32 -32h-200c-19 0 -32 13 -32 32v572z" />
    <glyph glyph-name="D" unicode="D" horiz-adv-x="428"
d="M220 636c84 0 152 -68 152 -152v-332c0 -84 -68 -152 -152 -152h-120c-19 0 -32 13 -32 32v572c0 19 13 32 32 32h120zM308 484c0 48 -39 88 -88 88h-88v-508h88c49 0 88 39 88 88v332z" />
    <glyph glyph-name="C" unicode="C" horiz-adv-x="385"
d="M169 1c-68 19 -113 78 -113 147v340c0 69 45 128 113 147c67 19 136 -12 171 -71c8 -15 3 -35 -12 -44s-35 -3 -44 12c-20 35 -60 52 -99 41s-65 -45 -65 -85v-340c0 -40 26 -74 65 -85s79 6 99 41c9 15 29 20 44 12c15 -9 20 -29 12 -44c-34 -60 -105 -89 -171 -71z" />
    <glyph glyph-name="B" unicode="B" horiz-adv-x="428"
d="M68 604c0 19 13 32 32 32h120c84 0 152 -68 152 -152v-36c0 -49 -23 -92 -59 -120c36 -28 59 -71 59 -120v-56c0 -84 -68 -152 -152 -152h-120c-19 0 -32 13 -32 32v572zM308 208c0 48 -40 88 -88 88h-88v-232h88c48 0 88 39 88 88v56zM308 484c0 48 -40 88 -88 88h-88
v-212h88c48 0 88 39 88 88v36z" />
    <glyph glyph-name="A" unicode="A" horiz-adv-x="432"
d="M407 36c5 -17 -4 -34 -23 -39c-17 -5 -34 5 -39 22c-3 10 -6 21 -9 33c-7 21 -14 49 -23 84h-194c-11 -35 -16 -63 -23 -84c-3 -12 -6 -23 -9 -33c-5 -17 -21 -27 -40 -22c-17 5 -27 22 -22 39l160 580c4 15 16 24 31 24s27 -9 31 -24zM295 200c-27 99 -60 216 -79 288
c-21 -72 -52 -189 -79 -288h158z" />
    <glyph glyph-name="u" unicode="u" horiz-adv-x="392"
d="M192 2c-72 0 -130 58 -130 130v296c0 17 13 30 30 30s30 -13 30 -30v-296c0 -39 31 -70 70 -70h70v366c0 17 13 30 30 30s30 -13 30 -30v-396c0 -17 -13 -30 -30 -30h-100z" />
    <glyph glyph-name="v" unicode="v" horiz-adv-x="370"
d="M36 419c-4 16 5 33 21 38c15 4 32 -5 37 -20l33 -111c19 -63 41 -138 58 -194c16 56 39 131 58 194l33 111c5 15 22 24 38 20c16 -5 25 -22 20 -38l-120 -400c-4 -12 -16 -21 -29 -21s-25 9 -29 21z" />
    <glyph glyph-name="w" unicode="w" horiz-adv-x="538"
d="M39 421c-4 16 6 32 22 36s32 -6 36 -22c9 -33 17 -65 25 -98c15 -56 31 -126 46 -185c15 59 32 129 47 185c8 33 16 65 24 98c5 15 14 23 29 23s26 -8 29 -23c9 -33 17 -65 25 -98c15 -56 31 -126 46 -185c15 59 32 129 47 185c8 33 16 65 24 98c4 16 20 26 37 22
c16 -4 25 -20 21 -36l-100 -400c-3 -15 -14 -23 -29 -23s-24 8 -29 23c-8 33 -16 65 -24 98c-15 56 -32 125 -47 185c-15 -60 -31 -129 -46 -185c-8 -33 -16 -65 -25 -98c-3 -15 -14 -23 -29 -23s-24 8 -29 23z" />
    <glyph glyph-name="x" unicode="x" horiz-adv-x="360"
d="M54 2c-15 8 -20 25 -12 40l104 190l-100 181c-8 15 -3 33 12 41s33 3 41 -12l81 -148l82 148c8 15 26 20 41 12s20 -26 12 -41l-100 -181l104 -190c8 -15 3 -32 -12 -40s-33 -4 -41 11l-86 156l-85 -156c-8 -15 -26 -19 -41 -11z" />
    <glyph glyph-name="y" unicode="y" horiz-adv-x="369"
d="M50 -202c-17 0 -30 13 -30 30s13 30 30 30c31 0 58 19 67 50l36 120l-117 391c-5 16 4 33 20 38c16 4 32 -5 37 -20l91 -305l92 305c4 15 21 24 37 20c16 -5 25 -22 20 -38l-120 -400l-38 -128c-9 -29 -25 -51 -47 -67c-23 -17 -49 -26 -78 -26z" />
    <glyph glyph-name="z" unicode="z" horiz-adv-x="344"
d="M42 32c0 4 1 9 3 14c27 53 52 102 75 148c40 77 85 166 103 200h-151c-17 0 -30 13 -30 30s13 30 30 30h200c11 0 20 -5 25 -14c3 -5 5 -11 5 -16s-1 -9 -4 -14c-27 -53 -52 -102 -75 -148c-40 -78 -86 -166 -102 -200h151c16 0 30 -13 30 -30s-14 -30 -30 -30h-200
c-12 0 -21 5 -26 14c-3 5 -4 10 -4 16z" />
    <glyph glyph-name="t" unicode="t" horiz-adv-x="296"
d="M56 394c-17 0 -30 13 -30 30s13 30 30 30h50v174c0 17 13 30 30 30s30 -13 30 -30v-174h70c17 0 30 -13 30 -30s-13 -30 -30 -30h-70v-266c0 -39 31 -70 70 -70c17 0 30 -13 30 -30s-13 -30 -30 -30c-72 0 -130 58 -130 130v266h-50z" />
    <glyph glyph-name="s" unicode="s" horiz-adv-x="329"
d="M202 75c15 14 22 31 20 51c-1 20 -10 36 -27 48l-93 66c-31 21 -48 54 -51 90c-3 37 12 72 39 96c27 25 63 36 99 31c36 -7 67 -27 86 -59c8 -15 4 -33 -11 -41s-33 -4 -41 11c-9 16 -24 26 -43 29s-36 -2 -50 -15s-20 -29 -19 -48s10 -34 26 -45l93 -65
c31 -23 49 -55 52 -94s-12 -74 -40 -99c-28 -27 -65 -37 -102 -32c-39 7 -70 28 -89 61c-8 15 -4 33 11 41s33 4 41 -11c11 -17 26 -28 46 -31c19 -3 37 2 53 16z" />
    <glyph glyph-name="r" unicode="r" horiz-adv-x="299"
d="M100 -2c-17 0 -30 13 -30 30v396c0 17 13 30 30 30h100c23 0 44 -6 65 -17c15 -9 19 -26 11 -41s-26 -20 -41 -11c-11 6 -23 9 -35 9h-70v-366c0 -17 -13 -30 -30 -30z" />
    <glyph glyph-name="q" unicode="q" horiz-adv-x="388"
d="M188 2c-72 0 -130 58 -130 130v192c0 72 58 130 130 130h100c16 0 30 -13 30 -30v-596c0 -17 -14 -30 -30 -30c-17 0 -30 13 -30 30v174h-70zM188 394c-39 0 -70 -31 -70 -70v-192c0 -39 31 -70 70 -70h70v332h-70z" />
    <glyph glyph-name="p" unicode="p" horiz-adv-x="388"
d="M100 -202c-17 0 -30 13 -30 30v596c0 17 13 30 30 30h100c71 0 130 -58 130 -130v-192c0 -72 -59 -130 -130 -130h-70v-174c0 -17 -14 -30 -30 -30zM270 324c0 39 -31 70 -70 70h-70v-332h70c39 0 70 31 70 70v192z" />
    <glyph glyph-name="o" unicode="o" horiz-adv-x="376"
d="M188 -2c-72 0 -130 58 -130 130v200c0 72 58 130 130 130c71 0 130 -58 130 -130v-200c0 -72 -59 -130 -130 -130zM188 398c-39 0 -70 -31 -70 -70v-200c0 -39 31 -70 70 -70s70 31 70 70v200c0 39 -31 70 -70 70z" />
    <glyph glyph-name="n" unicode="n" horiz-adv-x="392"
d="M100 -2c-17 0 -30 13 -30 30v396c0 17 13 30 30 30h100c71 0 130 -58 130 -130v-296c0 -17 -14 -30 -30 -30c-17 0 -30 13 -30 30v296c0 39 -31 70 -70 70h-70v-366c0 -17 -14 -30 -30 -30z" />
    <glyph glyph-name="m" unicode="m" horiz-adv-x="592"
d="M130 394v-366c0 -17 -14 -30 -30 -30c-17 0 -30 13 -30 30v396c0 17 13 30 30 30h300c71 0 130 -58 130 -130v-296c0 -17 -14 -30 -30 -30c-17 0 -30 13 -30 30v296c0 39 -31 70 -70 70h-70v-366c0 -17 -14 -30 -30 -30c-17 0 -30 13 -30 30v366h-140z" />
    <glyph glyph-name="l" unicode="l" horiz-adv-x="200"
d="M122 2c-33 20 -55 56 -55 95v531c0 17 14 30 30 30c17 0 30 -13 30 -30v-531c0 -19 10 -34 25 -43c15 -8 20 -26 11 -41c-8 -15 -26 -19 -41 -11z" />
    <glyph glyph-name="k" unicode="k" horiz-adv-x="380"
d="M346 42c8 -15 3 -32 -12 -40s-33 -4 -41 11l-115 211l-48 -53v-143c0 -17 -14 -30 -30 -30c-17 0 -30 13 -30 30v600c0 17 13 30 30 30c16 0 30 -13 30 -30v-367l167 187c11 12 30 13 43 2c12 -11 13 -30 2 -42l-122 -136z" />
    <glyph glyph-name="j" unicode="j" horiz-adv-x="208"
d="M108 538c-23 0 -40 17 -40 40s17 40 40 40s40 -17 40 -40s-17 -40 -40 -40zM8 -202c-16 0 -30 13 -30 30s14 30 30 30c39 0 70 31 70 70v500c0 17 14 30 30 30c17 0 30 -13 30 -30v-500c0 -72 -58 -130 -130 -130z" />
    <glyph glyph-name="i" unicode="i" horiz-adv-x="200"
d="M100 538c-23 0 -40 17 -40 40s17 40 40 40s40 -17 40 -40s-17 -40 -40 -40zM130 28c0 -17 -13 -30 -30 -30c-16 0 -30 13 -30 30v400c0 17 14 30 30 30c17 0 30 -13 30 -30v-400z" />
    <glyph glyph-name="h" unicode="h" horiz-adv-x="392"
d="M100 -2c-16 0 -30 13 -30 30v600c0 17 14 30 30 30c17 0 30 -13 30 -30v-174h70c72 0 130 -58 130 -130v-296c0 -17 -13 -30 -30 -30c-16 0 -30 13 -30 30v296c0 39 -31 70 -70 70h-70v-366c0 -17 -13 -30 -30 -30z" />
    <glyph glyph-name="g" unicode="g" horiz-adv-x="384"
d="M188 2c-72 0 -130 58 -130 130v192c0 72 58 130 130 130h100c17 0 30 -13 30 -30v-496c0 -53 -31 -100 -80 -120s-103 -9 -142 28c-6 6 -9 13 -9 22c0 8 3 15 9 20c6 6 13 9 21 9c9 0 16 -3 22 -9c20 -20 49 -26 76 -15s43 37 43 65v74h-70zM188 394
c-39 0 -70 -31 -70 -70v-192c0 -39 31 -70 70 -70h70v332h-70z" />
    <glyph glyph-name="f" unicode="f" horiz-adv-x="296"
d="M56 394c-17 0 -30 13 -30 30s13 30 30 30h50v74c0 72 58 130 130 130c17 0 30 -13 30 -30s-13 -30 -30 -30c-39 0 -70 -31 -70 -70v-74h70c17 0 30 -13 30 -30s-13 -30 -30 -30h-70v-366c0 -17 -13 -30 -30 -30s-30 13 -30 30v366h-50z" />
    <glyph glyph-name="e" unicode="e" horiz-adv-x="368"
d="M138 8c-49 20 -80 67 -80 120v200c0 72 58 130 130 130s130 -58 130 -130v-100c0 -17 -13 -30 -30 -30h-170v-70c0 -28 16 -54 43 -65s56 -5 76 15c6 6 13 9 21 9c9 0 16 -3 22 -9c6 -5 9 -12 9 -21c0 -8 -3 -15 -9 -21c-37 -37 -93 -48 -142 -28zM188 398
c-39 0 -70 -31 -70 -70v-70h140v70c0 39 -31 70 -70 70z" />
    <glyph glyph-name="d" unicode="d" horiz-adv-x="388"
d="M188 2c-72 0 -130 58 -130 130v192c0 72 58 130 130 130h70v174c0 17 13 30 30 30c16 0 30 -13 30 -30v-596c0 -17 -14 -30 -30 -30h-100zM188 394c-39 0 -70 -31 -70 -70v-192c0 -39 31 -70 70 -70h70v332h-70z" />
    <glyph glyph-name="c" unicode="c"
d="M138 8c-49 20 -80 67 -80 120v200c0 53 31 100 80 120s103 9 142 -28c5 -6 8 -13 8 -22c0 -8 -3 -15 -8 -21c-6 -5 -13 -8 -22 -8c-8 0 -15 3 -21 8c-20 21 -49 27 -76 16s-43 -37 -43 -65v-200c0 -28 16 -54 43 -65s56 -5 76 15c6 6 13 9 21 9c9 0 16 -3 22 -9
c5 -5 8 -12 8 -21c0 -8 -3 -15 -8 -21c-39 -37 -93 -48 -142 -28z" />
    <glyph glyph-name="b" unicode="b" horiz-adv-x="388"
d="M100 2c-17 0 -30 13 -30 30v596c0 17 13 30 30 30c16 0 30 -13 30 -30v-174h70c71 0 130 -58 130 -130v-192c0 -72 -59 -130 -130 -130h-100zM130 394v-332h70c39 0 70 31 70 70v192c0 39 -31 70 -70 70h-70z" />
    <glyph glyph-name="a" unicode="a" horiz-adv-x="352"
d="M230 262v68c0 28 -17 52 -42 63c-27 11 -55 5 -74 -15c-6 -6 -13 -9 -22 -9c-8 0 -15 3 -21 9s-9 13 -9 21c0 9 3 16 9 21c37 37 92 48 140 28s79 -66 79 -118v-298c0 -17 -14 -30 -30 -30h-100c-72 0 -130 58 -130 130s58 130 130 130h70zM90 132c0 -39 31 -70 70 -70
h70v140h-70c-39 0 -70 -31 -70 -70z" />
    <glyph glyph-name="zero" unicode="0"
d="M208 -4c-84 0 -152 68 -152 152v340c0 84 68 152 152 152c83 0 152 -68 152 -152v-340c0 -84 -69 -152 -152 -152zM208 576c-49 0 -88 -40 -88 -88v-340c0 -49 39 -88 88 -88c48 0 88 39 88 88v340c0 48 -40 88 -88 88z" />
    <glyph glyph-name="one" unicode="1"
d="M134 465c-6 -6 -13 -9 -22 -9s-16 3 -23 9c-6 7 -9 14 -9 23s3 16 9 23l120 120c9 9 23 11 35 7c13 -5 20 -15 20 -30v-580c0 -19 -15 -32 -32 -32c-19 0 -32 13 -32 32v503z" />
    <glyph glyph-name="two" unicode="2"
d="M76 520c-15 9 -21 29 -12 44c21 37 51 60 91 70c39 11 79 6 114 -13s61 -50 72 -89c12 -39 8 -78 -11 -115c-28 -53 -54 -102 -78 -149c-42 -80 -88 -168 -107 -204h171c17 0 32 -13 32 -32s-15 -32 -32 -32h-224c-13 0 -22 5 -27 15c-7 11 -7 22 -1 32l210 400
c11 21 13 43 6 66s-21 41 -42 52s-43 14 -66 8c-23 -7 -41 -21 -52 -41c-9 -15 -29 -21 -44 -12z" />
    <glyph glyph-name="three" unicode="3"
d="M205 63c39 11 65 45 65 85v60c0 48 -40 88 -88 88c-19 0 -32 13 -32 32s13 32 32 32c48 0 88 39 88 88v40c0 40 -26 74 -65 85s-79 -6 -99 -41c-9 -15 -29 -21 -44 -12s-21 29 -12 44c35 59 104 90 171 71c68 -19 113 -78 113 -147v-40c0 -49 -23 -92 -59 -120
c36 -28 59 -71 59 -120v-60c0 -69 -45 -128 -113 -147c-66 -18 -137 11 -171 71c-9 15 -3 35 12 44c15 8 35 3 44 -12c20 -35 60 -52 99 -41z" />
    <glyph glyph-name="four" unicode="4"
d="M74 136c-11 0 -19 4 -26 13s-8 18 -5 29l140 440c7 16 24 27 41 20c15 -5 22 -15 22 -30c0 -5 -1 -8 -2 -10c-19 -63 -38 -121 -55 -174c-29 -91 -61 -190 -71 -224h124v108c0 19 13 32 32 32s32 -13 32 -32v-108h48c19 0 32 -13 32 -32s-13 -32 -32 -32h-48v-108
c0 -19 -13 -32 -32 -32s-32 13 -32 32v108h-168z" />
    <glyph glyph-name="five" unicode="5"
d="M95 287c-15 4 -24 16 -24 31v286c0 19 13 32 32 32h208c19 0 32 -13 32 -32s-13 -32 -32 -32h-176v-180c35 19 72 23 111 13c68 -19 113 -78 113 -147v-110c0 -69 -45 -128 -113 -147c-66 -18 -137 11 -171 71c-8 15 -3 35 12 44c15 8 35 3 44 -12c20 -35 60 -52 99 -41
s65 45 65 85v110c0 40 -26 74 -65 85s-79 -6 -99 -41c-7 -13 -21 -19 -36 -15z" />
    <glyph glyph-name="six" unicode="6"
d="M217 -4c-84 0 -152 68 -152 152v340c0 69 46 128 113 147s136 -12 171 -71c9 -15 3 -35 -12 -44s-35 -3 -44 12c-19 35 -60 52 -99 41s-65 -45 -65 -85v-116c26 19 55 28 88 28c84 0 152 -68 152 -152v-100c0 -84 -68 -152 -152 -152zM217 336c-48 0 -88 -40 -88 -88
v-100c0 -49 40 -88 88 -88c49 0 88 39 88 88v100c0 48 -39 88 -88 88z" />
    <glyph glyph-name="seven" unicode="7"
d="M85 492c-17 0 -32 13 -32 32v80c0 19 15 32 32 32h240c10 0 18 -4 25 -12c7 -9 9 -19 6 -28l-140 -576c-4 -17 -21 -27 -38 -23c-15 3 -25 16 -25 31c0 3 1 5 1 8c21 88 41 169 59 242c32 125 64 259 72 294h-168v-48c0 -19 -13 -32 -32 -32z" />
    <glyph glyph-name="eight" unicode="8"
d="M208 -4c-83 0 -152 68 -152 152v60c0 49 23 92 59 120c-36 28 -59 71 -59 120v40c0 84 69 152 152 152c84 0 152 -68 152 -152v-40c0 -49 -23 -92 -58 -120c35 -28 58 -71 58 -120v-60c0 -84 -68 -152 -152 -152zM120 448c0 -49 40 -88 88 -88c49 0 88 39 88 88v40
c0 48 -39 88 -88 88c-48 0 -88 -40 -88 -88v-40zM296 208c0 48 -39 88 -88 88c-48 0 -88 -40 -88 -88v-60c0 -49 40 -88 88 -88c49 0 88 39 88 88v60z" />
    <glyph glyph-name="nine" unicode="9"
d="M199 236c-83 0 -152 68 -152 152v100c0 84 69 152 152 152c84 0 152 -68 152 -152v-340c0 -69 -45 -128 -112 -147c-68 -19 -136 11 -171 71c-9 15 -4 35 11 44c16 8 35 3 44 -12c20 -35 60 -52 99 -41s65 45 65 85v116c-25 -19 -54 -28 -88 -28zM199 576
c-48 0 -88 -40 -88 -88v-100c0 -49 40 -88 88 -88c49 0 88 39 88 88v100c0 48 -39 88 -88 88z" />
    <glyph glyph-name="period" unicode="." horiz-adv-x="192"
d="M54 38c0 23 19 42 42 42s42 -19 42 -42s-19 -42 -42 -42s-42 19 -42 42z" />
    <glyph glyph-name="at" unicode="@" horiz-adv-x="764"
d="M609 544c60 -61 93 -141 93 -226v-186c0 -72 -58 -130 -130 -130h-200c-71 0 -130 58 -130 130c0 71 59 130 130 130h70v68c0 27 -16 51 -43 62s-56 5 -76 -15c-6 -5 -13 -8 -22 -8c-8 0 -15 3 -21 9c-5 6 -8 13 -8 21c0 9 3 16 9 21c37 37 92 47 140 28
c49 -19 81 -66 81 -118v-268h70c39 0 70 31 70 70v186c0 69 -27 134 -76 183c-49 51 -113 77 -184 77c-69 0 -134 -26 -183 -77c-51 -49 -77 -114 -77 -183v-180c0 -71 26 -135 77 -184c49 -49 114 -76 183 -76h110c17 0 30 -14 30 -30c0 -17 -13 -30 -30 -30h-110
c-85 0 -165 33 -226 93c-60 61 -94 140 -94 227v180c0 85 34 165 94 226c61 60 141 94 226 94c87 0 166 -34 227 -94zM302 132c0 -39 31 -70 70 -70h70v140h-70c-39 0 -70 -31 -70 -70z" />
    <glyph glyph-name="aring" unicode="&#xe5;" horiz-adv-x="352"
d="M264 588c0 -47 -37 -84 -84 -84s-84 37 -84 84s37 84 84 84s84 -37 84 -84zM144 588c0 -20 16 -36 36 -36s36 16 36 36s-16 36 -36 36s-36 -16 -36 -36zM230 262v68c0 28 -15 52 -42 63c-25 11 -55 5 -74 -15c-6 -6 -13 -9 -22 -9c-8 0 -15 3 -20 9c-6 6 -9 13 -9 21
c0 9 3 16 9 21c36 37 91 48 139 28s79 -66 79 -118v-298c0 -17 -13 -30 -30 -30h-100c-72 0 -130 58 -130 130s58 130 130 130h70zM90 132c0 -39 31 -70 70 -70h70v140h-70c-39 0 -70 -31 -70 -70z" />
    <glyph glyph-name="odieresis" unicode="&#xf6;" horiz-adv-x="376"
d="M148 578c0 -23 -17 -40 -40 -40s-40 17 -40 40s17 40 40 40s40 -17 40 -40zM308 578c0 -23 -17 -40 -40 -40s-40 17 -40 40s17 40 40 40s40 -17 40 -40zM318 128c0 -72 -58 -130 -130 -130s-130 58 -130 130v200c0 72 58 130 130 130s130 -58 130 -130v-200zM188 58
c39 0 70 31 70 70v200c0 39 -31 70 -70 70s-70 -31 -70 -70v-200c0 -39 31 -70 70 -70z" />
    <glyph glyph-name="Aring" unicode="&#xc5;" horiz-adv-x="432"
d="M302 788c0 -47 -38 -86 -86 -86s-85 39 -85 86s38 85 85 85c48 0 86 -38 86 -85zM182 788c0 -19 15 -35 34 -35s35 16 35 35s-16 34 -35 34s-34 -15 -34 -34zM407 36c5 -17 -4 -34 -23 -39c-17 -5 -34 5 -39 22c-3 10 -6 21 -9 33c-7 21 -14 49 -23 84h-194
c-11 -35 -16 -63 -23 -84c-3 -12 -6 -23 -9 -33c-5 -17 -21 -27 -40 -22c-17 5 -27 22 -22 39l160 580c4 15 16 24 31 24s27 -9 31 -24zM295 200c-27 99 -60 216 -79 288c-21 -72 -52 -189 -79 -288h158z" />
    <glyph glyph-name="Adieresis" unicode="&#xc4;" horiz-adv-x="432"
d="M296 736c-23 0 -42 19 -42 42s19 42 42 42s42 -19 42 -42s-19 -42 -42 -42zM136 820c23 0 42 -19 42 -42s-19 -42 -42 -42s-42 19 -42 42s19 42 42 42zM407 36c5 -17 -4 -34 -23 -39c-17 -5 -34 5 -39 22c-3 10 -6 21 -9 33c-7 21 -14 49 -23 84h-194
c-11 -35 -16 -63 -23 -84c-3 -12 -6 -23 -9 -33c-5 -17 -21 -27 -40 -22c-17 5 -27 22 -22 39l160 580c4 15 16 24 31 24s27 -9 31 -24zM295 200c-27 99 -60 216 -79 288c-21 -72 -52 -189 -79 -288h158z" />
    <glyph glyph-name="Odieresis" unicode="&#xd6;"
d="M360 148c0 -84 -69 -152 -152 -152c-84 0 -152 68 -152 152v340c0 84 68 152 152 152c83 0 152 -68 152 -152v-340zM208 60c48 0 88 39 88 88v340c0 48 -40 88 -88 88c-49 0 -88 -40 -88 -88v-340c0 -49 39 -88 88 -88zM330 778c0 -23 -19 -42 -42 -42
c-24 0 -42 19 -42 42s18 42 42 42c23 0 42 -19 42 -42zM170 778c0 -23 -19 -42 -42 -42c-24 0 -42 19 -42 42s18 42 42 42c23 0 42 -19 42 -42z" />
    <glyph glyph-name="adieresis" unicode="&#xe4;" horiz-adv-x="352"
d="M230 262v68c0 28 -17 52 -42 63c-27 11 -55 5 -74 -15c-6 -6 -13 -9 -22 -9c-8 0 -15 3 -21 9c-5 6 -8 13 -8 21c0 9 3 16 8 21c37 37 92 48 140 28s79 -66 79 -118v-298c0 -17 -14 -30 -30 -30h-100c-72 0 -130 58 -130 130s58 130 130 130h70zM90 132
c0 -39 31 -70 70 -70h70v140h-70c-39 0 -70 -31 -70 -70zM220 578c0 23 17 40 40 40s40 -17 40 -40s-17 -40 -40 -40s-40 17 -40 40zM100 538c-23 0 -40 17 -40 40s17 40 40 40s40 -17 40 -40s-17 -40 -40 -40z" />
    <glyph glyph-name="hyphen" unicode="-"
d="M360 288c0 -19 -15 -32 -32 -32h-240c-19 0 -32 13 -32 32s13 32 32 32h240c17 0 32 -13 32 -32z" />
    <glyph glyph-name="ocircumflex" unicode="&#xf4;" horiz-adv-x="376"
d="M115 515c-12 -9 -29 -7 -40 5c-9 13 -7 31 5 40l90 70c12 9 24 9 35 0l90 -70c13 -9 16 -27 5 -40c-9 -12 -27 -14 -40 -5c-9 7 -18 15 -27 22c-15 12 -34 26 -45 35c-12 -9 -30 -23 -45 -35c-9 -7 -18 -15 -28 -22zM58 328c0 72 58 130 130 130s130 -58 130 -130v-200
c0 -72 -58 -130 -130 -130s-130 58 -130 130v200zM188 398c-39 0 -70 -31 -70 -70v-200c0 -39 31 -70 70 -70s70 31 70 70v200c0 39 -31 70 -70 70z" />
    <glyph glyph-name="oacute" unicode="&#xf3;" horiz-adv-x="376"
d="M116 518c-11 12 -10 31 2 42l100 90c12 11 31 10 42 -2s10 -31 -2 -42l-100 -90c-12 -11 -31 -10 -42 2zM188 -2c-72 0 -130 58 -130 130v200c0 72 58 130 130 130s130 -58 130 -130v-200c0 -72 -58 -130 -130 -130zM188 398c-39 0 -70 -31 -70 -70v-200
c0 -39 31 -70 70 -70s70 31 70 70v200c0 39 -31 70 -70 70z" />
    <glyph glyph-name="ograve" unicode="&#xf2;" horiz-adv-x="376"
d="M118 606c-13 11 -14 30 -2 42c11 12 30 13 42 2l100 -90c12 -11 13 -30 2 -42s-30 -13 -42 -2zM318 128c0 -72 -58 -130 -130 -130s-130 58 -130 130v200c0 72 58 130 130 130s130 -58 130 -130v-200zM188 58c39 0 70 31 70 70v200c0 39 -31 70 -70 70s-70 -31 -70 -70
v-200c0 -39 31 -70 70 -70z" />
    <glyph glyph-name="otilde" unicode="&#xf5;" horiz-adv-x="376"
d="M122 550c-9 -13 -27 -16 -40 -8c-13 9 -16 27 -8 40c15 21 34 34 59 38s48 -1 68 -16l8 -6c7 -6 15 -8 24 -6c10 1 17 6 21 14c9 13 27 16 40 8c13 -9 17 -27 8 -40c-15 -21 -34 -34 -59 -38s-48 1 -68 16l-8 6c-7 5 -15 7 -24 6s-16 -5 -21 -14zM318 128
c0 -72 -58 -130 -130 -130s-130 58 -130 130v200c0 72 58 130 130 130s130 -58 130 -130v-200zM188 58c39 0 70 31 70 70v200c0 39 -31 70 -70 70s-70 -31 -70 -70v-200c0 -39 31 -70 70 -70z" />
    <glyph glyph-name="ntilde" unicode="&#xf1;" horiz-adv-x="392"
d="M266 606c9 13 25 16 40 8c13 -9 16 -27 8 -40c-15 -21 -34 -34 -59 -38s-48 1 -68 16l-8 6c-7 5 -16 7 -25 6s-16 -6 -20 -14c-9 -13 -27 -16 -40 -8c-13 9 -17 27 -8 40c14 21 34 34 59 38c24 4 47 -1 68 -16l8 -6c7 -6 15 -8 24 -6c9 1 16 5 21 14zM300 -2
c-17 0 -30 13 -30 30v296c0 39 -31 70 -70 70h-70v-366c0 -17 -14 -30 -30 -30c-17 0 -30 13 -30 30v396c0 17 13 30 30 30h100c71 0 130 -58 130 -130v-296c0 -17 -14 -30 -30 -30z" />
    <glyph glyph-name="eth" unicode="&#xf0;" horiz-adv-x="376"
d="M318 128c0 -72 -58 -130 -130 -130s-130 58 -130 130v200c0 72 58 130 130 130c17 0 33 -3 47 -9c-12 30 -28 58 -48 84l-43 -29c-13 -8 -31 -5 -40 8c-8 13 -5 31 8 40l35 23c-11 11 -24 19 -37 28s-17 27 -8 42c9 13 27 17 42 8c18 -12 36 -27 54 -44l34 23
c13 8 31 5 40 -8s5 -31 -8 -40l-27 -18c13 -17 24 -35 35 -54c31 -57 46 -119 46 -184v-200zM188 58c39 0 70 31 70 70v200c0 39 -31 70 -70 70s-70 -31 -70 -70v-200c0 -39 31 -70 70 -70z" />
    <glyph glyph-name="idieresis" unicode="&#xef;" horiz-adv-x="200"
d="M20 538c-23 0 -40 17 -40 40s17 40 40 40s40 -17 40 -40s-17 -40 -40 -40zM180 538c-23 0 -40 17 -40 40s17 40 40 40s40 -17 40 -40s-17 -40 -40 -40zM70 428c0 17 13 30 30 30c16 0 30 -13 30 -30v-400c0 -17 -14 -30 -30 -30c-17 0 -30 13 -30 30v400z" />
    <glyph glyph-name="icircumflex" unicode="&#xee;" horiz-adv-x="200"
d="M-12 520c-11 13 -7 31 5 40l90 70c5 4 11 6 17 6c7 0 13 -2 18 -6l90 -70c13 -9 16 -27 5 -40c-11 -12 -27 -14 -40 -5c-10 7 -19 15 -28 22c-15 12 -33 26 -44 35c-12 -9 -30 -23 -45 -35c-9 -7 -18 -15 -28 -22c-12 -9 -29 -7 -40 5zM131 28c0 -17 -14 -30 -30 -30
c-17 0 -30 13 -30 30v400c0 17 13 30 30 30c16 0 30 -13 30 -30v-400z" />
    <glyph glyph-name="iacute" unicode="&#xed;" horiz-adv-x="200"
d="M70 428c0 17 13 30 30 30c16 0 30 -13 30 -30v-400c0 -17 -14 -30 -30 -30c-17 0 -30 13 -30 30v400zM192 648c11 -12 10 -31 -2 -42l-100 -90c-13 -11 -32 -10 -43 2s-10 31 3 42l100 90c12 11 31 10 42 -2z" />
    <glyph glyph-name="igrave" unicode="&#xec;" horiz-adv-x="200"
d="M153 518c-11 -12 -30 -13 -43 -2l-100 90c-12 11 -13 30 -2 42s30 13 43 2l100 -90c12 -11 13 -30 2 -42zM70 428c0 17 14 30 30 30c17 0 30 -13 30 -30v-400c0 -17 -13 -30 -30 -30c-16 0 -30 13 -30 30v400z" />
    <glyph glyph-name="edieresis" unicode="&#xeb;" horiz-adv-x="368"
d="M58 328c0 72 59 130 130 130c72 0 130 -58 130 -130v-100c0 -17 -13 -30 -30 -30h-170v-70c0 -28 17 -54 44 -65s56 -5 76 15c6 6 13 9 21 9c9 0 16 -3 21 -9c6 -5 9 -12 9 -21c0 -8 -3 -15 -9 -21c-37 -37 -93 -48 -141 -28c-49 20 -81 67 -81 120v200zM188 398
c-39 0 -70 -31 -70 -70v-70h140v70c0 39 -31 70 -70 70zM148 578c0 -23 -17 -40 -40 -40s-40 17 -40 40s17 40 40 40s40 -17 40 -40zM268 538c-23 0 -40 17 -40 40s17 40 40 40s40 -17 40 -40s-17 -40 -40 -40z" />
    <glyph glyph-name="dotlessi" unicode="&#x131;" horiz-adv-x="200"
d="M70 428c0 17 14 30 30 30c17 0 30 -13 30 -30v-400c0 -17 -13 -30 -30 -30c-16 0 -30 13 -30 30v400z" />
    <glyph glyph-name="space" unicode="&#xa0;" horiz-adv-x="192"
 />
    <glyph glyph-name="uni0020" unicode=" " horiz-adv-x="192"
 />
    <glyph glyph-name="oslash" unicode="&#xf8;" horiz-adv-x="386"
d="M63 328c0 72 58 130 130 130c32 0 60 -10 83 -30l32 54c8 15 26 18 39 11c15 -8 18 -26 11 -39l-45 -77c7 -17 10 -33 10 -49v-200c0 -72 -58 -130 -130 -130c-32 0 -60 10 -83 30l-32 -54c-8 -15 -26 -19 -39 -11c-15 8 -19 26 -11 39l45 76c-7 15 -10 32 -10 50v200z
M193 58c39 0 70 31 70 70v163l-122 -209c13 -16 30 -24 52 -24zM193 398c-39 0 -70 -31 -70 -70v-163l122 209c-14 16 -31 24 -52 24z" />
    <glyph glyph-name="uacute" unicode="&#xfa;" horiz-adv-x="392"
d="M162 516c-12 -11 -31 -10 -42 2s-10 31 2 42l100 90c13 11 32 10 43 -2s10 -31 -3 -42zM192 2c-71 0 -130 58 -130 130v296c0 17 14 30 30 30c17 0 30 -13 30 -30v-296c0 -39 31 -70 70 -70h70v366c0 17 14 30 30 30c17 0 30 -13 30 -30v-396c0 -17 -13 -30 -30 -30h-100
z" />
    <glyph glyph-name="ugrave" unicode="&#xf9;" horiz-adv-x="392"
d="M120 648c11 12 30 13 42 2l100 -90c13 -11 14 -30 3 -42c-12 -12 -30 -13 -43 -2l-100 90c-12 11 -13 30 -2 42zM192 2c-71 0 -130 58 -130 130v296c0 17 14 30 30 30c17 0 30 -13 30 -30v-296c0 -39 31 -70 70 -70h70v366c0 17 14 30 30 30c17 0 30 -13 30 -30v-396
c0 -17 -13 -30 -30 -30h-100z" />
    <glyph glyph-name="ucircumflex" unicode="&#xfb;" horiz-adv-x="392"
d="M120 515c-13 -9 -29 -7 -40 5c-11 13 -7 31 5 40l90 70c5 4 11 6 17 6c7 0 13 -2 18 -6l90 -70c12 -9 16 -27 5 -40c-11 -12 -28 -14 -40 -5c-10 7 -19 15 -28 22c-15 12 -34 26 -45 35c-11 -9 -29 -23 -44 -35c-9 -7 -18 -15 -28 -22zM62 428c0 17 14 30 30 30
c17 0 30 -13 30 -30v-296c0 -39 31 -70 70 -70h70v366c0 17 14 30 30 30c17 0 30 -13 30 -30v-396c0 -17 -13 -30 -30 -30h-100c-71 0 -130 58 -130 130v296z" />
    <glyph glyph-name="udieresis" unicode="&#xfc;" horiz-adv-x="392"
d="M72 578c0 23 17 40 40 40s40 -17 40 -40s-17 -40 -40 -40s-40 17 -40 40zM232 578c0 23 17 40 40 40s40 -17 40 -40s-17 -40 -40 -40s-40 17 -40 40zM192 2c-71 0 -130 58 -130 130v296c0 17 14 30 30 30c17 0 30 -13 30 -30v-296c0 -39 31 -70 70 -70h70v366
c0 17 14 30 30 30c17 0 30 -13 30 -30v-396c0 -17 -13 -30 -30 -30h-100z" />
    <glyph glyph-name="yacute" unicode="&#xfd;" horiz-adv-x="369"
d="M112 518c-11 12 -10 31 2 42l100 90c13 11 32 10 43 -2s10 -31 -2 -42l-100 -90c-13 -11 -32 -10 -43 2zM185 132l91 305c5 15 21 24 37 20c16 -5 25 -22 20 -38l-120 -400l-38 -128c-8 -28 -24 -50 -47 -67s-49 -26 -78 -26c-16 0 -30 13 -30 30s14 30 30 30
c31 0 58 19 67 50l36 120l-117 391c-5 16 4 33 20 38c16 4 33 -5 37 -20z" />
    <glyph glyph-name="thorn" unicode="&#xfe;" horiz-adv-x="388"
d="M130 -172c0 -17 -13 -30 -30 -30s-30 13 -30 30v800c0 17 13 30 30 30s30 -13 30 -30v-170h70c72 0 130 -58 130 -130v-200c0 -72 -58 -130 -130 -130h-70v-170zM130 398v-340h70c39 0 70 31 70 70v200c0 39 -31 70 -70 70h-70z" />
    <glyph glyph-name="ecircumflex" unicode="&#xea;" horiz-adv-x="368"
d="M139 8c-49 20 -81 67 -81 120v200c0 72 59 130 130 130c72 0 130 -58 130 -130v-100c0 -17 -13 -30 -30 -30h-170v-70c0 -28 17 -54 44 -65s56 -5 76 15c6 6 13 9 21 9c9 0 16 -3 21 -9c6 -5 9 -12 9 -21c0 -8 -3 -15 -9 -21c-37 -37 -93 -48 -141 -28zM188 398
c-39 0 -70 -31 -70 -70v-70h140v70c0 39 -31 70 -70 70zM116 515c-13 -9 -31 -7 -40 5c-11 13 -8 31 5 40l90 70c5 4 11 6 17 6c7 0 13 -2 18 -6l90 -70c12 -9 14 -27 5 -40c-11 -12 -28 -14 -40 -5c-10 7 -19 15 -28 22c-15 12 -34 26 -45 35c-11 -9 -29 -23 -44 -35
c-9 -7 -18 -15 -28 -22z" />
    <glyph glyph-name="egrave" unicode="&#xe8;" horiz-adv-x="368"
d="M280 36c-37 -37 -93 -48 -142 -28c-48 20 -80 67 -80 120v200c0 72 59 130 130 130c72 0 130 -58 130 -130v-100c0 -17 -13 -30 -30 -30h-170v-70c0 -28 16 -54 43 -65s57 -5 77 15c5 6 12 9 20 9c9 0 16 -3 22 -9c6 -5 9 -12 9 -21c0 -8 -3 -15 -9 -21zM188 398
c-39 0 -70 -31 -70 -70v-70h140v70c0 39 -31 70 -70 70zM258 560c13 -11 14 -30 2 -42c-11 -12 -30 -13 -42 -2l-100 90c-12 11 -13 30 -2 42s30 13 42 2z" />
    <glyph glyph-name="ccedilla" unicode="&#xe7;"
d="M138 448c49 20 105 9 142 -28c6 -6 9 -13 9 -22c0 -8 -3 -15 -9 -21c-6 -5 -13 -8 -22 -8c-8 0 -15 3 -20 8c-20 21 -50 27 -77 16s-43 -37 -43 -65v-200c0 -28 16 -54 43 -65c10 -3 19 -5 26 -5h1h1c18 0 34 7 49 20c5 6 12 9 20 9c9 0 16 -3 22 -9c6 -5 9 -12 9 -21
c0 -8 -3 -15 -9 -21c-17 -17 -37 -28 -62 -35v-34c0 -39 -20 -76 -55 -96c-15 -8 -33 -4 -41 11s-4 33 11 41c16 9 25 25 25 44v34c-7 2 -14 4 -20 7c-48 20 -80 67 -80 120v200c0 53 32 100 80 120z" />
    <glyph glyph-name="eacute" unicode="&#xe9;" horiz-adv-x="368"
d="M139 8c-49 20 -81 67 -81 120v200c0 72 59 130 130 130c72 0 130 -58 130 -130v-100c0 -17 -13 -30 -30 -30h-170v-70c0 -28 16 -54 43 -65s57 -5 77 15c5 6 12 9 20 9c9 0 16 -3 22 -9c6 -5 9 -12 9 -21c0 -8 -3 -15 -9 -21c-37 -37 -93 -48 -141 -28zM188 398
c-39 0 -70 -31 -70 -70v-70h140v70c0 39 -31 70 -70 70zM218 650c13 11 31 10 43 -2c11 -12 10 -31 -3 -42l-100 -90c-12 -11 -31 -10 -42 2s-10 31 2 42z" />
    <glyph glyph-name="ae" unicode="&#xe6;" horiz-adv-x="541"
d="M261 45c-13 -17 -30 -29 -51 -37c-48 -20 -104 -9 -141 28c-39 37 -49 93 -28 142c20 48 67 80 120 80h70v70c0 28 -16 54 -43 65s-57 5 -77 -16c-5 -5 -12 -8 -21 -8c-8 0 -15 3 -21 8c-6 6 -9 13 -9 21c0 9 3 16 9 22c37 37 93 48 141 28c21 -8 38 -20 51 -37
c24 29 60 47 100 47c71 0 130 -58 130 -130v-100c0 -17 -14 -30 -30 -30h-170v-70c0 -28 16 -54 43 -65s56 -5 76 15c6 6 13 9 21 9c9 0 16 -3 22 -9c5 -5 8 -12 8 -21c0 -8 -3 -15 -8 -21c-39 -37 -93 -48 -142 -28c-20 8 -37 20 -50 37zM291 258h140v70
c0 39 -31 70 -70 70s-70 -31 -70 -70v-70zM111 78c20 -20 50 -26 77 -15s43 37 43 65v70h-70c-29 0 -54 -16 -65 -43s-5 -56 15 -77z" />
    <glyph glyph-name="atilde" unicode="&#xe3;" horiz-adv-x="352"
d="M160 2c-72 0 -130 58 -130 130s58 130 130 130h70v68c0 28 -17 52 -42 63c-27 11 -55 5 -74 -15c-6 -6 -13 -9 -22 -9c-8 0 -15 3 -21 9c-5 6 -8 13 -8 21c0 9 3 16 8 21c37 37 92 48 140 28s79 -66 79 -118v-298c0 -17 -13 -30 -30 -30h-100zM160 202
c-39 0 -70 -31 -70 -70s31 -70 70 -70h70v140h-70zM286 614c13 -9 16 -27 8 -40c-15 -21 -34 -34 -59 -38s-48 1 -68 16l-8 6c-7 5 -15 7 -24 6s-16 -5 -21 -14c-9 -13 -27 -16 -40 -8c-13 9 -16 27 -8 40c15 21 34 34 59 38s48 -1 68 -16l8 -6c7 -6 15 -8 24 -6
c9 1 16 5 21 14c9 13 27 16 40 8z" />
    <glyph glyph-name="acircumflex" unicode="&#xe2;" horiz-adv-x="352"
d="M230 262v68c0 28 -17 52 -42 63c-27 11 -55 5 -74 -15c-6 -6 -13 -9 -22 -9c-8 0 -15 3 -21 9c-5 6 -8 13 -8 21c0 9 3 16 8 21c37 37 92 48 140 28s79 -66 79 -118v-298c0 -17 -14 -30 -30 -30h-100c-72 0 -130 58 -130 130s58 130 130 130h70zM90 132
c0 -39 31 -70 70 -70h70v140h-70c-39 0 -70 -31 -70 -70zM162 630c12 9 24 9 35 0l90 -70c13 -9 16 -27 5 -40c-9 -12 -27 -14 -40 -5c-9 7 -18 15 -27 22c-15 12 -34 26 -45 35c-12 -9 -30 -23 -45 -35c-9 -7 -18 -15 -28 -22c-12 -9 -29 -7 -40 5c-9 13 -7 31 5 40z" />
    <glyph glyph-name="aacute" unicode="&#xe1;" horiz-adv-x="352"
d="M290 32c0 -17 -14 -30 -30 -30h-100c-72 0 -130 58 -130 130s58 130 130 130h70v68c0 28 -17 52 -42 63c-27 11 -55 5 -74 -15c-6 -6 -13 -9 -22 -9c-8 0 -15 3 -21 9c-5 6 -8 13 -8 21c0 9 3 16 8 21c37 37 92 48 140 28s79 -66 79 -118v-298zM90 132
c0 -39 31 -70 70 -70h70v140h-70c-39 0 -70 -31 -70 -70zM150 516c-13 -11 -31 -10 -43 2c-11 12 -10 31 3 42l100 90c12 11 31 10 42 -2s10 -31 -2 -42z" />
    <glyph glyph-name="agrave" unicode="&#xe0;" horiz-adv-x="352"
d="M160 2c-72 0 -130 58 -130 130s58 130 130 130h70v68c0 28 -17 52 -42 63c-27 11 -55 5 -74 -15c-6 -6 -13 -9 -22 -9c-8 0 -15 3 -21 9s-9 13 -9 21c0 9 3 16 9 21c37 37 92 48 140 28s79 -66 79 -118v-298c0 -17 -14 -30 -30 -30h-100zM160 202c-39 0 -70 -31 -70 -70
s31 -70 70 -70h70v140h-70zM250 560c12 -11 13 -30 2 -42s-30 -13 -42 -2l-100 90c-13 11 -14 30 -3 42s30 13 43 2z" />
    <glyph glyph-name="uni00DF" unicode="&#xdf;" horiz-adv-x="428"
d="M370 148c0 -83 -67 -150 -150 -150c-17 0 -30 13 -30 30s13 30 30 30c51 0 90 39 90 90v160c0 51 -39 90 -90 90c-15 0 -27 9 -30 24s5 27 18 34l19 7c24 11 40 31 43 58s-10 50 -31 65c-23 15 -49 16 -72 4c-23 -13 -37 -35 -37 -62v-500c0 -17 -14 -30 -30 -30
c-17 0 -30 13 -30 30v500c0 48 26 92 69 115s93 20 133 -7c36 -24 58 -65 58 -108c0 -5 0 -10 -1 -13c-3 -30 -15 -56 -35 -77c45 -27 76 -74 76 -130v-160z" />
    <glyph glyph-name="ydieresis" unicode="&#xff;" horiz-adv-x="369"
d="M305 578c0 -23 -17 -40 -40 -40s-40 17 -40 40s17 40 40 40s40 -17 40 -40zM105 538c-23 0 -40 17 -40 40s17 40 40 40s40 -17 40 -40s-17 -40 -40 -40zM175 -109c-8 -28 -24 -50 -47 -67s-49 -26 -78 -26c-16 0 -30 13 -30 30s14 30 30 30c31 0 58 19 67 50l36 120
l-117 391c-5 16 4 33 20 38c16 4 33 -5 37 -20l92 -305l91 305c5 15 21 24 37 20c16 -5 25 -22 20 -38l-120 -400z" />
    <glyph glyph-name="oe" unicode="&#x153;" horiz-adv-x="568"
d="M288 45c-24 -29 -60 -47 -100 -47c-72 0 -130 58 -130 130v200c0 72 58 130 130 130c40 0 76 -18 100 -47c24 29 60 47 100 47c71 0 130 -58 130 -130v-100c0 -17 -14 -30 -30 -30h-170v-70c0 -28 16 -54 43 -65s56 -5 76 15c6 6 13 9 21 9c9 0 16 -3 22 -9
c5 -5 8 -12 8 -21c0 -8 -3 -15 -8 -21c-39 -37 -93 -48 -142 -28c-20 8 -37 20 -50 37zM388 398c-39 0 -70 -31 -70 -70v-70h140v70c0 39 -31 70 -70 70zM188 58c39 0 70 31 70 70v200c0 39 -31 70 -70 70s-70 -31 -70 -70v-200c0 -39 31 -70 70 -70z" />
    <glyph glyph-name="Idieresis" unicode="&#xcf;" horiz-adv-x="200"
d="M222 778c0 -23 -19 -42 -42 -42s-42 19 -42 42s19 42 42 42s42 -19 42 -42zM20 736c-23 0 -42 19 -42 42s19 42 42 42s42 -19 42 -42s-19 -42 -42 -42zM100 -4c-19 0 -32 13 -32 32v580c0 19 13 32 32 32s32 -13 32 -32v-580c0 -19 -13 -32 -32 -32z" />
    <glyph glyph-name="Icircumflex" unicode="&#xce;" horiz-adv-x="200"
d="M214 719c-11 -13 -28 -16 -43 -5l-27 21c-15 11 -33 25 -44 34c-12 -9 -30 -23 -45 -34c-9 -7 -17 -14 -26 -21c-15 -11 -32 -8 -43 5c-11 15 -8 32 5 43l90 70c5 5 12 7 19 7s14 -2 19 -7l90 -70c13 -11 16 -28 5 -43zM68 608c0 19 13 32 32 32s32 -13 32 -32v-580
c0 -19 -13 -32 -32 -32s-32 13 -32 32v580z" />
    <glyph glyph-name="Igrave" unicode="&#xcc;" horiz-adv-x="200"
d="M171 762c13 -12 15 -32 3 -45c-12 -15 -32 -15 -45 -3l-100 90c-15 12 -15 32 -3 45s32 15 45 3zM132 28c0 -19 -13 -32 -32 -32s-32 13 -32 32v580c0 19 13 32 32 32s32 -13 32 -32v-580z" />
    <glyph glyph-name="Iacute" unicode="&#xcd;" horiz-adv-x="200"
d="M68 608c0 19 13 32 32 32s32 -13 32 -32v-580c0 -19 -13 -32 -32 -32s-32 13 -32 32v580zM26 717c-12 13 -12 33 3 45l100 90c13 12 33 10 45 -3s10 -33 -3 -45l-100 -90c-13 -12 -33 -12 -45 3z" />
    <glyph glyph-name="Ntilde" unicode="&#xd1;" horiz-adv-x="480"
d="M93 639c15 3 29 -4 36 -17c28 -57 55 -114 82 -169c45 -93 100 -208 137 -285v440c0 19 15 32 32 32c19 0 32 -13 32 -32v-580c0 -15 -10 -28 -25 -31c-15 -4 -29 4 -36 17c-27 57 -54 114 -81 169c-45 93 -101 208 -138 285v-440c0 -19 -13 -32 -32 -32
c-17 0 -32 13 -32 32v580c0 15 10 28 25 31zM133 741c-15 9 -19 27 -8 42c13 22 33 35 60 39c24 4 50 -2 69 -17l8 -6c7 -5 15 -7 23 -5c8 1 15 5 20 13c9 15 27 19 42 8c15 -9 18 -27 9 -42c-15 -22 -35 -35 -60 -39c-26 -4 -49 2 -70 17l-8 6c-7 4 -15 6 -23 5
s-14 -6 -19 -13c-11 -15 -28 -19 -43 -8z" />
    <glyph glyph-name="Edieresis" unicode="&#xcb;" horiz-adv-x="368"
d="M132 572v-212h148c19 0 32 -13 32 -32s-13 -32 -32 -32h-148v-232h168c19 0 32 -13 32 -32s-13 -32 -32 -32h-200c-19 0 -32 13 -32 32v572c0 19 13 32 32 32h200c19 0 32 -13 32 -32s-13 -32 -32 -32h-168zM238 778c0 23 19 42 42 42s42 -19 42 -42s-19 -42 -42 -42
s-42 19 -42 42zM78 778c0 23 19 42 42 42s42 -19 42 -42s-19 -42 -42 -42s-42 19 -42 42z" />
    <glyph glyph-name="Ecircumflex" unicode="&#xca;" horiz-adv-x="368"
d="M332 32c0 -19 -15 -32 -32 -32h-200c-19 0 -32 13 -32 32v572c0 19 13 32 32 32h200c17 0 32 -13 32 -32s-15 -32 -32 -32h-168v-212h148c17 0 32 -13 32 -32s-15 -32 -32 -32h-148v-232h168c17 0 32 -13 32 -32zM86 719c-11 15 -8 32 5 43l90 70c5 5 11 7 18 7
s14 -2 19 -7l90 -70c15 -11 17 -28 6 -43c-11 -13 -30 -16 -43 -5l-27 21c-15 11 -33 25 -44 34c-12 -9 -30 -23 -45 -34l-27 -21c-13 -11 -31 -8 -42 5z" />
    <glyph glyph-name="Egrave" unicode="&#xc8;" horiz-adv-x="368"
d="M332 32c0 -19 -15 -32 -32 -32h-200c-19 0 -32 13 -32 32v572c0 19 13 32 32 32h200c17 0 32 -13 32 -32s-15 -32 -32 -32h-168v-212h148c17 0 32 -13 32 -32s-15 -32 -32 -32h-148v-232h168c17 0 32 -13 32 -32zM128 804c-13 12 -14 32 -2 45s32 15 45 3l100 -90
c13 -12 14 -32 2 -45c-11 -15 -32 -15 -45 -3z" />
    <glyph glyph-name="Eacute" unicode="&#xc9;" horiz-adv-x="368"
d="M132 572v-212h148c17 0 32 -13 32 -32s-15 -32 -32 -32h-148v-232h168c17 0 32 -13 32 -32s-15 -32 -32 -32h-200c-19 0 -32 13 -32 32v572c0 19 13 32 32 32h200c17 0 32 -13 32 -32s-15 -32 -32 -32h-168zM228 852c13 12 34 10 45 -3c12 -13 11 -33 -2 -45l-100 -90
c-13 -12 -33 -12 -45 3c-12 13 -11 33 2 45z" />
    <glyph glyph-name="Ccedilla" unicode="&#xc7;" horiz-adv-x="394"
d="M168 1c-67 19 -112 78 -112 147v340c0 69 45 128 112 147s136 -12 171 -71l10 -17c9 -16 4 -35 -12 -44c-15 -9 -34 -4 -43 12l-10 17c-20 35 -60 52 -99 41s-65 -45 -65 -85v-340c0 -40 26 -74 65 -85s79 6 99 41l10 17c9 16 28 21 43 12c16 -9 21 -28 12 -44l-10 -17
c-23 -39 -59 -64 -99 -73v-34c0 -40 -22 -77 -57 -97c-15 -9 -34 -4 -43 11c-9 16 -4 35 12 44c15 9 24 25 24 42v34c-1 1 -3 1 -4 1s-3 0 -4 1z" />
    <glyph glyph-name="AE" unicode="&#xc6;" horiz-adv-x="617"
d="M380 572v-212h148c19 0 32 -13 32 -32s-13 -32 -32 -32h-148v-232h168c19 0 32 -13 32 -32s-13 -32 -32 -32h-200c-17 0 -32 13 -32 32v104h-184c-16 -36 -30 -66 -39 -87c-6 -12 -11 -23 -15 -34c-8 -16 -27 -23 -43 -16s-23 26 -16 42l258 576c5 13 15 19 30 19h241
c19 0 32 -13 32 -32s-13 -32 -32 -32h-168zM316 200v348c-26 -61 -99 -219 -155 -348h155z" />
    <glyph glyph-name="Atilde" unicode="&#xc3;" horiz-adv-x="432"
d="M152 749c-11 -15 -28 -19 -43 -8c-15 9 -17 27 -8 42c15 22 35 35 60 39c24 4 50 -2 70 -17l8 -6c7 -5 14 -7 22 -5c8 1 15 5 20 13c9 15 27 19 42 8c15 -9 18 -27 9 -42c-15 -22 -35 -35 -60 -39c-26 -4 -49 2 -70 17l-8 6c-7 4 -15 6 -23 5s-14 -6 -19 -13zM407 36
c5 -17 -4 -34 -23 -39c-17 -5 -34 5 -39 22c-3 10 -6 21 -9 33c-7 21 -14 49 -23 84h-194c-11 -35 -16 -63 -23 -84c-3 -12 -6 -23 -9 -33c-5 -17 -21 -27 -40 -22c-17 5 -27 22 -22 39l160 580c4 15 16 24 31 24s27 -9 31 -24zM295 200c-27 99 -60 216 -79 288
c-21 -72 -52 -189 -79 -288h158z" />
    <glyph glyph-name="Acircumflex" unicode="&#xc2;" horiz-adv-x="432"
d="M197 832c5 5 12 7 19 7s14 -2 19 -7l90 -70c13 -11 16 -28 5 -43c-11 -13 -28 -16 -43 -5l-27 21c-15 11 -32 25 -44 34c-12 -9 -29 -23 -44 -34l-27 -21c-13 -11 -32 -8 -43 5c-11 15 -8 32 5 43zM407 36c5 -17 -4 -34 -23 -39c-17 -5 -34 5 -39 22c-3 10 -6 21 -9 33
c-7 21 -14 49 -23 84h-194c-11 -35 -16 -63 -23 -84c-3 -12 -6 -23 -9 -33c-5 -17 -21 -27 -40 -22c-17 5 -27 22 -22 39l160 580c4 15 16 24 31 24s27 -9 31 -24zM295 200c-27 99 -60 216 -79 288c-21 -72 -52 -189 -79 -288h158z" />
    <glyph glyph-name="Agrave" unicode="&#xc0;" horiz-adv-x="432"
d="M142 849c12 13 32 15 45 3l100 -90c13 -12 15 -32 3 -45c-12 -15 -32 -15 -45 -3l-100 90c-15 12 -15 32 -3 45zM407 36c5 -17 -4 -34 -23 -39c-17 -5 -34 5 -39 22c-3 10 -6 21 -9 33c-7 21 -14 49 -23 84h-194c-11 -35 -16 -63 -23 -84c-3 -12 -6 -23 -9 -33
c-5 -17 -21 -27 -40 -22c-17 5 -27 22 -22 39l160 580c4 15 16 24 31 24s27 -9 31 -24zM295 200c-27 99 -60 216 -79 288c-21 -72 -52 -189 -79 -288h158z" />
    <glyph glyph-name="Aacute" unicode="&#xc1;" horiz-adv-x="432"
d="M245 852c13 12 33 10 45 -3s12 -33 -3 -45l-100 -90c-13 -12 -33 -12 -45 3c-12 13 -12 33 3 45zM407 36c5 -17 -4 -34 -23 -39c-17 -5 -34 5 -39 22c-3 10 -6 21 -9 33c-7 21 -14 49 -23 84h-194c-11 -35 -16 -63 -23 -84c-3 -12 -6 -23 -9 -33c-5 -17 -21 -27 -40 -22
c-17 5 -27 22 -22 39l160 580c4 15 16 24 31 24s27 -9 31 -24zM295 200c-27 99 -60 216 -79 288c-21 -72 -52 -189 -79 -288h158z" />
    <glyph glyph-name="OE" unicode="&#x152;" horiz-adv-x="596"
d="M208 -4c-84 0 -152 68 -152 152v340c0 84 68 152 152 152c33 0 64 -10 89 -29c3 15 16 25 31 25h200c17 0 32 -13 32 -32s-15 -32 -32 -32h-168v-104v-108h148c17 0 32 -13 32 -32s-15 -32 -32 -32h-148v-128v-104h168c17 0 32 -13 32 -32s-15 -32 -32 -32h-200
c-15 0 -28 10 -31 25c-25 -19 -56 -29 -89 -29zM208 576c-49 0 -88 -40 -88 -88v-340c0 -49 39 -88 88 -88c48 0 88 39 88 88v20v300v20c0 48 -40 88 -88 88z" />
    <glyph glyph-name="Oacute" unicode="&#xd3;"
d="M360 148c0 -84 -68 -152 -152 -152c-83 0 -152 68 -152 152v340c0 84 69 152 152 152c84 0 152 -68 152 -152v-340zM120 148c0 -49 40 -88 88 -88c49 0 88 39 88 88v340c0 48 -39 88 -88 88c-48 0 -88 -40 -88 -88v-340zM135 717c-12 13 -11 33 2 45l100 90
c13 12 33 10 45 -3s11 -33 -2 -45l-100 -90c-13 -12 -34 -12 -45 3z" />
    <glyph glyph-name="Ograve" unicode="&#xd2;"
d="M360 148c0 -84 -68 -152 -152 -152s-152 68 -152 152v340c0 84 68 152 152 152s152 -68 152 -152v-340zM208 60c49 0 88 39 88 88v340c0 48 -39 88 -88 88c-48 0 -88 -40 -88 -88v-340c0 -49 40 -88 88 -88zM134 849c12 13 33 15 46 3l100 -90c13 -12 14 -32 2 -45
c-12 -15 -32 -15 -45 -3l-100 90c-13 12 -14 32 -3 45z" />
    <glyph glyph-name="Ocircumflex" unicode="&#xd4;"
d="M360 148c0 -84 -68 -152 -152 -152c-83 0 -152 68 -152 152v340c0 84 69 152 152 152c84 0 152 -68 152 -152v-340zM120 148c0 -49 40 -88 88 -88c49 0 88 39 88 88v340c0 48 -39 88 -88 88c-48 0 -88 -40 -88 -88v-340zM137 714c-13 -11 -32 -8 -43 5c-11 15 -9 32 6 43
l90 70c5 5 11 7 18 7s14 -2 19 -7l90 -70c15 -11 17 -28 6 -43c-11 -13 -30 -16 -43 -5l-27 21c-15 11 -33 25 -45 34c-12 -9 -29 -23 -44 -34z" />
    <glyph glyph-name="Otilde" unicode="&#xd5;"
d="M360 148c0 -84 -69 -152 -152 -152c-84 0 -152 68 -152 152v340c0 84 68 152 152 152c83 0 152 -68 152 -152v-340zM208 60c48 0 88 39 88 88v340c0 48 -40 88 -88 88c-49 0 -88 -40 -88 -88v-340c0 -49 39 -88 88 -88zM92 783c15 22 35 35 60 39c26 4 49 -2 70 -17l8 -6
c7 -5 15 -7 23 -5c8 1 14 6 19 13c11 15 28 19 43 8c15 -9 17 -27 8 -42c-15 -22 -35 -35 -60 -39c-24 -4 -50 2 -70 17l-8 6c-7 5 -14 6 -22 5s-15 -5 -20 -13c-9 -15 -27 -19 -42 -8c-15 9 -18 27 -9 42z" />
    <glyph glyph-name="Oslash" unicode="&#xd8;" horiz-adv-x="426"
d="M407 675c15 -8 21 -27 13 -42l-60 -108c3 -13 5 -26 5 -37v-340c0 -84 -68 -152 -152 -152c-45 0 -86 20 -113 51l-40 -74c-9 -15 -27 -20 -42 -12s-20 27 -12 42l59 108c-3 11 -4 23 -4 37v340c0 84 68 152 152 152c45 0 85 -20 113 -51l40 74c8 15 26 20 41 12z
M213 576c-49 0 -88 -40 -88 -88v-268l167 307c-15 29 -44 49 -79 49zM213 60c48 0 88 39 88 88v268l-167 -307c15 -29 44 -49 79 -49z" />
    <glyph glyph-name="Uacute" unicode="&#xda;" horiz-adv-x="424"
d="M364 148c0 -84 -68 -152 -152 -152s-152 68 -152 152v460c0 19 13 32 32 32s32 -13 32 -32v-460c0 -49 39 -88 88 -88c48 0 88 39 88 88v460c0 19 13 32 32 32s32 -13 32 -32v-460zM183 714c-13 -12 -33 -12 -45 3c-12 13 -12 33 3 45l100 90c13 12 33 10 45 -3
s10 -33 -3 -45z" />
    <glyph glyph-name="Ugrave" unicode="&#xd9;" horiz-adv-x="424"
d="M212 -4c-84 0 -152 68 -152 152v460c0 19 13 32 32 32s32 -13 32 -32v-460c0 -49 39 -88 88 -88c48 0 88 39 88 88v460c0 19 13 32 32 32s32 -13 32 -32v-460c0 -84 -68 -152 -152 -152zM283 762c13 -12 14 -32 3 -45c-12 -15 -31 -15 -46 -3l-100 90
c-13 12 -14 32 -2 45s32 15 45 3z" />
    <glyph glyph-name="Ucircumflex" unicode="&#xdb;" horiz-adv-x="424"
d="M60 608c0 19 15 32 32 32c19 0 32 -13 32 -32v-460c0 -49 40 -88 88 -88c49 0 88 39 88 88v460c0 19 15 32 32 32c19 0 32 -13 32 -32v-460c0 -84 -68 -152 -152 -152c-83 0 -152 68 -152 152v460zM321 762c13 -11 16 -28 5 -43c-11 -13 -29 -16 -42 -5l-27 21
c-15 11 -33 25 -45 34c-12 -9 -29 -23 -44 -34l-27 -21c-13 -11 -32 -8 -43 5c-11 15 -9 32 6 43l90 70c5 5 11 7 18 7s14 -2 19 -7z" />
    <glyph glyph-name="Udieresis" unicode="&#xdc;" horiz-adv-x="424"
d="M212 -4c-83 0 -152 68 -152 152v460c0 19 15 32 32 32c19 0 32 -13 32 -32v-460c0 -49 40 -88 88 -88c49 0 88 39 88 88v460c0 19 15 32 32 32c19 0 32 -13 32 -32v-460c0 -84 -68 -152 -152 -152zM250 778c0 23 19 42 42 42c24 0 42 -19 42 -42s-18 -42 -42 -42
c-23 0 -42 19 -42 42zM132 736c-23 0 -42 19 -42 42s19 42 42 42c24 0 42 -19 42 -42s-18 -42 -42 -42z" />
    <glyph glyph-name="Yacute" unicode="&#xdd;" horiz-adv-x="402"
d="M201 400c19 36 45 91 69 138c13 27 28 55 43 84c8 16 27 22 43 15c15 -8 22 -28 14 -43l-137 -274v-292c0 -19 -13 -32 -32 -32c-17 0 -32 13 -32 32v292l-136 274c-8 15 -2 35 14 43c16 7 35 1 43 -15zM173 714c-15 -12 -34 -12 -46 3c-11 13 -10 33 3 45l100 90
c13 12 33 10 45 -3s11 -33 -2 -45z" />
    <glyph glyph-name="Ydieresis" unicode="&#x178;" horiz-adv-x="402"
d="M312 622c8 16 27 22 43 15c15 -8 22 -28 14 -43l-137 -274v-292c0 -19 -13 -32 -32 -32c-17 0 -32 13 -32 32v292l-136 274c-8 15 -2 35 14 43c16 7 35 1 43 -15l111 -222c19 36 47 91 70 138zM238 778c0 23 19 42 42 42c24 0 42 -19 42 -42s-18 -42 -42 -42
c-23 0 -42 19 -42 42zM120 736c-23 0 -42 19 -42 42s19 42 42 42c24 0 42 -19 42 -42s-18 -42 -42 -42z" />
    <glyph glyph-name="Eth" unicode="&#xd0;" horiz-adv-x="441"
d="M81 604c0 19 15 32 32 32h120c84 0 152 -68 152 -152v-332c0 -84 -68 -152 -152 -152h-120c-17 0 -32 13 -32 32v265h-48c-16 0 -30 14 -30 31s14 30 30 30h48v246zM321 484c0 48 -39 88 -88 88h-88v-214h68c17 0 31 -13 31 -30s-14 -31 -31 -31h-68v-233h88
c49 0 88 39 88 88v332z" />
    <glyph glyph-name="Thorn" unicode="&#xde;" horiz-adv-x="400"
d="M220 510c83 0 152 -68 152 -152v-60c0 -84 -69 -152 -152 -152h-88v-118c0 -19 -15 -32 -32 -32c-19 0 -32 13 -32 32v576c0 19 13 32 32 32c17 0 32 -13 32 -32v-94h88zM220 210c48 0 88 39 88 88v60c0 48 -40 88 -88 88h-88v-236h88z" />
    <glyph glyph-name="trademark" unicode="&#x2122;" horiz-adv-x="670"
d="M402 626c9 -13 18 -26 27 -38c15 -23 33 -48 48 -68c15 20 33 45 48 68c9 12 18 25 27 38c9 11 21 15 35 11c12 -4 21 -16 21 -29v-300c0 -17 -14 -31 -31 -31s-30 14 -30 31v205c-11 -16 -23 -31 -31 -43c-5 -7 -10 -14 -14 -20c-7 -9 -15 -13 -25 -13s-18 4 -25 13
c-5 6 -9 13 -14 20c-8 12 -19 27 -30 43v-205c0 -17 -14 -31 -31 -31s-30 14 -30 31v300c0 13 8 25 21 29s25 0 34 -11zM157 277c-17 0 -30 14 -30 31v265h-70c-17 0 -30 14 -30 31s13 30 30 30h200c17 0 31 -13 31 -30s-14 -31 -31 -31h-69v-265c0 -17 -14 -31 -31 -31z
" />
    <glyph glyph-name="copyright" unicode="&#xa9;" horiz-adv-x="718"
d="M347 436c-23 -7 -37 -25 -37 -48v-140c0 -23 14 -41 37 -48c21 -7 44 4 55 23c9 15 27 20 42 11c15 -8 20 -26 11 -41c-25 -44 -76 -65 -124 -52s-82 56 -82 107v140c0 51 34 94 82 107s99 -9 124 -52c9 -15 4 -33 -11 -41c-15 -9 -33 -4 -42 11c-11 19 -34 30 -55 23z
M680 318c0 -87 -33 -166 -94 -227c-60 -60 -140 -94 -227 -94c-85 0 -166 34 -226 94c-61 61 -94 140 -94 227s33 166 94 227c60 60 141 93 226 93c87 0 167 -33 227 -93c61 -61 94 -140 94 -227zM359 58c71 0 135 27 184 76s76 115 76 184s-27 134 -76 183s-113 76 -184 76
c-69 0 -134 -27 -183 -76s-76 -114 -76 -183s27 -135 76 -184s114 -76 183 -76z" />
    <glyph glyph-name="registered" unicode="&#xae;" horiz-adv-x="718"
d="M289 137c-16 0 -30 14 -30 31v296c0 17 14 30 30 30h80c60 0 111 -49 111 -110c0 -44 -25 -80 -62 -99l58 -102c8 -15 4 -33 -11 -42c-15 -8 -34 -3 -42 12l-69 120h-34v-105c0 -17 -14 -31 -31 -31zM419 384c0 27 -22 49 -50 49h-49v-99h49c28 0 50 23 50 50zM39 318
c0 87 33 166 94 227c60 60 141 93 226 93c87 0 167 -33 227 -93c61 -61 94 -140 94 -227s-33 -166 -94 -227c-60 -60 -140 -94 -227 -94c-85 0 -166 34 -226 94c-61 61 -94 140 -94 227zM359 577c-69 0 -134 -27 -183 -76s-76 -114 -76 -183s27 -135 76 -184
s114 -76 183 -76c71 0 135 27 184 76s76 115 76 184s-27 134 -76 183s-113 76 -184 76z" />
    <glyph glyph-name="question" unicode="?" horiz-adv-x="357"
d="M218 558c-21 16 -45 21 -71 16s-46 -19 -59 -42c-9 -15 -28 -21 -44 -12c-15 9 -20 29 -11 44c23 39 58 64 101 73s87 -1 122 -28s57 -67 60 -110c3 -44 -13 -87 -44 -118l-50 -51c-17 -17 -26 -38 -26 -62v-80c0 -19 -13 -32 -32 -32c-17 0 -32 13 -32 32v80
c0 40 16 78 44 107l51 51c19 19 27 41 25 68c-3 25 -14 49 -34 64zM206 38c0 -23 -19 -42 -42 -42s-42 19 -42 42s19 42 42 42s42 -19 42 -42z" />
    <glyph glyph-name="exclam" unicode="!" horiz-adv-x="200"
d="M100 -4c-23 0 -42 19 -42 42s19 42 42 42s42 -19 42 -42s-19 -42 -42 -42zM68 588c0 19 15 32 32 32c19 0 32 -13 32 -32v-400c0 -19 -13 -32 -32 -32c-17 0 -32 13 -32 32v400z" />
    <glyph glyph-name="questiondown" unicode="&#xbf;" horiz-adv-x="357"
d="M150 418c0 23 19 42 42 42s42 -19 42 -42s-19 -42 -42 -42s-42 19 -42 42zM100 -153c-35 27 -56 67 -59 110c-3 44 12 87 43 118l51 51c17 18 25 39 25 62v80c0 19 15 32 32 32c19 0 32 -13 32 -32v-80c0 -40 -15 -78 -44 -107l-50 -51c-19 -19 -27 -41 -25 -68
c1 -27 13 -48 34 -64s45 -21 71 -16c24 5 46 19 59 42c8 15 28 20 43 12c16 -9 21 -29 12 -44c-23 -39 -59 -65 -102 -73c-43 -9 -87 1 -122 28z" />
    <glyph glyph-name="exclamdown" unicode="&#xa1;" horiz-adv-x="200"
d="M100 460c23 0 42 -19 42 -42s-19 -42 -42 -42s-42 19 -42 42s19 42 42 42zM100 300c19 0 32 -13 32 -32v-400c0 -19 -13 -32 -32 -32c-17 0 -32 13 -32 32v400c0 19 15 32 32 32z" />
    <glyph glyph-name="bullet" unicode="&#x2022;" horiz-adv-x="256"
d="M128 381c56 0 99 -46 99 -99c0 -56 -43 -99 -99 -99c-55 0 -98 43 -98 99c0 53 44 99 98 99zM128 241c23 0 42 18 42 41s-19 41 -42 41s-41 -18 -41 -41s18 -41 41 -41z" />
    <glyph glyph-name="quotedblbase" unicode="&#x201e;" horiz-adv-x="372"
d="M92 -76c-16 -7 -33 1 -40 16c-7 16 1 33 16 40c9 3 13 10 13 20v17h-1c-17 0 -31 14 -31 31s14 30 31 30h32c17 0 30 -13 30 -30v-48c0 -33 -19 -63 -50 -76zM248 -20c9 3 13 10 13 20v17h-1c-17 0 -31 14 -31 31s14 30 31 30h32c17 0 30 -13 30 -30v-48
c0 -33 -19 -63 -50 -76c-16 -7 -33 1 -40 16c-7 16 1 33 16 40z" />
    <glyph glyph-name="quotedblleft" unicode="&#x201c;" horiz-adv-x="371"
d="M303 580c-9 -5 -13 -11 -13 -20v-18h1c17 0 31 -13 31 -30s-14 -31 -31 -31h-32c-17 0 -30 14 -30 31v48c0 33 19 63 50 76c16 7 33 -1 40 -16c7 -16 -1 -33 -16 -40zM123 580c-9 -5 -13 -11 -13 -20v-18h1c17 0 31 -13 31 -30s-14 -31 -31 -31h-32c-17 0 -30 14 -30 31
v48c0 33 19 63 50 76c16 7 33 -1 40 -16c7 -16 -1 -33 -16 -40z" />
    <glyph glyph-name="quotedblright" unicode="&#x201d;" horiz-adv-x="372"
d="M68 536c9 3 14 10 14 20v17h-2c-17 0 -30 14 -30 31s13 30 30 30h32c17 0 31 -13 31 -30v-48c0 -33 -20 -63 -51 -76c-16 -7 -33 1 -40 16c-7 16 1 33 16 40zM230 604c0 17 13 30 30 30h32c17 0 31 -13 31 -30v-48c0 -33 -20 -63 -51 -76c-16 -7 -33 1 -40 16
c-7 16 1 33 16 40c9 3 14 10 14 20v17h-2c-17 0 -30 14 -30 31z" />
    <glyph glyph-name="quotedbl" unicode="&#x22;" horiz-adv-x="352"
d="M256 640c19 0 32 -13 32 -32v-100c0 -19 -13 -32 -32 -32s-32 13 -32 32v100c0 19 13 32 32 32zM64 608c0 19 13 32 32 32s32 -13 32 -32v-100c0 -19 -13 -32 -32 -32s-32 13 -32 32v100z" />
    <glyph glyph-name="quotesinglbase" unicode="&#x201a;" horiz-adv-x="191"
d="M112 78c16 0 30 -13 30 -30v-48c0 -33 -20 -63 -51 -76c-15 -7 -33 1 -40 16c-7 16 1 33 17 40c9 3 13 10 13 20v17h-1c-17 0 -31 14 -31 31s14 30 31 30h32z" />
    <glyph glyph-name="quoteleft" unicode="&#x2018;" horiz-adv-x="192"
d="M123 580c-9 -5 -13 -11 -13 -20v-18h2c16 0 30 -13 30 -30s-14 -31 -30 -31h-32c-17 0 -31 14 -31 31v48c0 33 20 63 51 76c15 7 33 -1 40 -16c7 -16 -1 -33 -17 -40z" />
    <glyph glyph-name="quoteright" unicode="&#x2019;" horiz-adv-x="192"
d="M68 536c9 3 13 10 13 20v17h-1c-17 0 -31 14 -31 31s14 30 31 30h32c16 0 30 -13 30 -30v-48c0 -33 -20 -63 -51 -76c-15 -7 -33 1 -40 16c-7 16 1 33 17 40z" />
    <glyph glyph-name="quotesingle" unicode="'" horiz-adv-x="192"
d="M128 508c0 -19 -15 -32 -32 -32c-19 0 -32 13 -32 32v100c0 19 13 32 32 32c17 0 32 -13 32 -32v-100z" />
    <glyph glyph-name="periodcentered" unicode="&#xb7;" horiz-adv-x="192"
d="M54 388c0 23 19 42 42 42s42 -19 42 -42s-19 -42 -42 -42s-42 19 -42 42z" />
    <glyph glyph-name="semicolon" unicode=";" horiz-adv-x="192"
d="M112 78c17 0 31 -13 31 -30v-48c0 -33 -20 -63 -51 -76c-16 -7 -33 1 -40 16c-7 16 1 33 16 40c9 3 14 10 14 20v17h-2c-17 0 -30 14 -30 31s13 30 30 30h32zM96 376c-23 0 -42 19 -42 42s19 42 42 42s42 -19 42 -42s-19 -42 -42 -42z" />
    <glyph glyph-name="colon" unicode=":" horiz-adv-x="192"
d="M138 38c0 -23 -18 -42 -42 -42c-23 0 -42 19 -42 42s19 42 42 42c24 0 42 -19 42 -42zM96 460c24 0 42 -19 42 -42s-18 -42 -42 -42c-23 0 -42 19 -42 42s19 42 42 42z" />
    <glyph glyph-name="comma" unicode="," horiz-adv-x="192"
d="M68 -20c9 3 14 10 14 20v17h-2c-17 0 -30 14 -30 31s13 30 30 30h32c17 0 31 -13 31 -30v-48c0 -33 -20 -63 -51 -76c-16 -7 -33 1 -40 16c-7 16 1 33 16 40z" />
    <glyph glyph-name="ellipsis" unicode="&#x2026;" horiz-adv-x="576"
d="M88 80c24 0 42 -19 42 -42s-18 -42 -42 -42c-23 0 -42 19 -42 42s19 42 42 42zM330 38c0 -23 -18 -42 -42 -42c-23 0 -42 19 -42 42s19 42 42 42c24 0 42 -19 42 -42zM446 38c0 23 19 42 42 42c24 0 42 -19 42 -42s-18 -42 -42 -42c-23 0 -42 19 -42 42z" />
    <glyph glyph-name="guillemotright" unicode="&#xbb;" horiz-adv-x="419"
d="M239 168c0 3 1 8 4 15c9 16 18 31 25 45c13 24 28 52 35 64c-7 11 -21 36 -33 59c-7 13 -15 27 -23 42c-3 5 -4 10 -4 15c0 13 6 22 17 28c15 9 35 3 43 -13l64 -116c6 -11 6 -21 0 -31l-68 -123c-8 -16 -28 -22 -43 -13c-11 6 -17 15 -17 28zM59 168c0 3 1 8 4 15
c9 16 18 31 25 45c13 24 28 52 35 64c-7 11 -21 36 -33 59c-7 13 -15 27 -23 42c-3 5 -4 10 -4 15c0 13 6 22 17 28c15 9 35 3 43 -13l64 -116c6 -11 6 -21 0 -31l-68 -123c-8 -16 -28 -22 -43 -13c-11 6 -17 15 -17 28z" />
    <glyph glyph-name="guillemotleft" unicode="&#xab;" horiz-adv-x="419"
d="M356 408c0 -7 -1 -12 -4 -15c-8 -15 -16 -29 -23 -42c-12 -23 -25 -48 -32 -59c7 -12 21 -40 34 -64c7 -14 16 -29 25 -45c3 -5 4 -10 4 -15c0 -12 -5 -21 -16 -28c-16 -9 -35 -3 -44 13l-68 123c-5 10 -5 20 0 31l64 116c9 16 28 22 44 13c11 -7 16 -16 16 -28zM164 140
c-16 -9 -35 -3 -44 13l-68 123c-5 10 -5 20 0 31l64 116c9 16 28 22 44 13c11 -7 16 -16 16 -28c0 -7 -1 -12 -4 -15c-8 -15 -16 -29 -23 -42c-12 -23 -25 -48 -32 -59c7 -12 21 -40 34 -64c7 -14 16 -29 25 -45c3 -5 4 -10 4 -15c0 -12 -5 -21 -16 -28z" />
    <glyph glyph-name="guilsinglright" unicode="&#x203a;" horiz-adv-x="239"
d="M187 307c6 -11 6 -21 0 -31l-68 -123c-8 -16 -28 -22 -43 -13c-11 6 -17 15 -17 28c0 3 1 8 4 15c9 16 18 31 25 45c13 24 28 52 35 64c-7 11 -21 36 -33 59c-7 13 -15 27 -23 42c-3 5 -4 10 -4 15c0 13 6 22 17 28c15 9 35 3 43 -13z" />
    <glyph glyph-name="guilsinglleft" unicode="&#x2039;" horiz-adv-x="239"
d="M176 408c0 -7 -1 -12 -4 -15c-8 -15 -16 -29 -23 -42c-12 -23 -25 -48 -32 -59c7 -12 21 -40 34 -64c7 -14 16 -29 25 -45c3 -5 4 -10 4 -15c0 -12 -5 -21 -16 -28c-16 -9 -35 -3 -44 13l-68 123c-5 10 -5 20 0 31l64 116c9 16 28 22 44 13c11 -7 16 -16 16 -28z" />
    <glyph glyph-name="braceright" unicode="}" horiz-adv-x="256"
d="M96 248c0 33 11 59 33 80c-22 21 -33 47 -33 80v200c0 27 -21 48 -48 48c-19 0 -32 13 -32 32s13 32 32 32c61 0 112 -51 112 -112v-200c0 -27 21 -48 48 -48c17 0 32 -13 32 -32s-15 -32 -32 -32c-27 0 -48 -21 -48 -48v-220c0 -61 -51 -112 -112 -112
c-19 0 -32 13 -32 32s13 32 32 32c27 0 48 21 48 48v220z" />
    <glyph glyph-name="bracketright" unicode="]" horiz-adv-x="256"
d="M156 716c17 0 32 -13 32 -32v-732c0 -19 -15 -32 -32 -32h-100c-19 0 -32 13 -32 32s13 32 32 32h68v668h-68c-19 0 -32 13 -32 32s13 32 32 32h100z" />
    <glyph glyph-name="parenright" unicode=")" horiz-adv-x="269"
d="M212 328c0 -71 -11 -139 -34 -204c-23 -68 -57 -130 -101 -186c-11 -15 -30 -16 -45 -5c-13 11 -16 30 -5 45c40 51 70 107 91 167c20 59 30 120 30 183s-10 124 -30 183c-21 60 -51 116 -91 167c-11 15 -8 34 5 45c15 11 34 10 45 -5c45 -58 78 -120 101 -186
c23 -65 34 -133 34 -204z" />
    <glyph glyph-name="parenleft" unicode="(" horiz-adv-x="268"
d="M241 668c-40 -51 -70 -107 -91 -167c-20 -59 -30 -120 -30 -183s10 -124 30 -183c21 -60 51 -116 91 -167c11 -15 9 -34 -6 -45s-34 -10 -45 5c-45 57 -78 119 -100 186c-23 65 -34 133 -34 204s11 139 34 204c23 68 56 129 100 186c11 15 30 16 45 5s17 -30 6 -45z" />
    <glyph glyph-name="bracketleft" unicode="[" horiz-adv-x="256"
d="M100 -80c-19 0 -32 13 -32 32v732c0 19 13 32 32 32h100c19 0 32 -13 32 -32s-13 -32 -32 -32h-68v-668h68c19 0 32 -13 32 -32s-13 -32 -32 -32h-100z" />
    <glyph glyph-name="braceleft" unicode="{" horiz-adv-x="256"
d="M160 408c0 -31 -13 -60 -34 -80c21 -20 34 -49 34 -80v-220c0 -27 21 -48 48 -48c19 0 32 -13 32 -32s-13 -32 -32 -32c-61 0 -112 51 -112 112v220c0 27 -21 48 -48 48c-19 0 -32 13 -32 32s13 32 32 32c27 0 48 21 48 48v200c0 61 51 112 112 112c19 0 32 -13 32 -32
s-13 -32 -32 -32c-27 0 -48 -21 -48 -48v-200z" />
    <glyph glyph-name="cedilla" unicode="&#xb8;" horiz-adv-x="500"
d="M220 28c0 19 13 32 32 32s32 -13 32 -32v-61c0 -40 -21 -77 -56 -97c-15 -9 -35 -4 -44 11c-8 16 -3 35 12 44c16 9 24 23 24 42v61z" />
    <glyph glyph-name="uni02DC" unicode="&#x2dc;" horiz-adv-x="500"
d="M194 624c27 4 50 -2 71 -17l8 -6c7 -5 14 -7 22 -6c8 2 14 6 18 12c11 15 30 20 45 9c15 -9 20 -29 9 -44c-14 -21 -34 -35 -61 -40c-27 -4 -50 2 -71 17l-8 6c-6 5 -13 7 -22 6c-9 -3 -15 -7 -18 -13c-11 -15 -30 -18 -45 -9c-15 11 -18 30 -9 45c15 21 37 35 61 40z
" />
    <glyph glyph-name="dieresis" unicode="&#xa8;" horiz-adv-x="500"
d="M288 578c0 23 19 42 42 42s42 -19 42 -42s-19 -42 -42 -42s-42 19 -42 42zM128 578c0 23 19 42 42 42s42 -19 42 -42s-19 -42 -42 -42s-42 19 -42 42z" />
    <glyph glyph-name="uni02C6" unicode="&#x2c6;" horiz-adv-x="500"
d="M180 513c-15 -11 -34 -10 -45 5s-9 34 6 45l90 70c5 5 12 7 19 7s14 -2 20 -7l90 -70c15 -11 17 -30 6 -45s-30 -16 -45 -5c-9 7 -18 13 -27 20c-15 11 -32 25 -44 34c-12 -9 -29 -23 -44 -34c-9 -7 -17 -13 -26 -20z" />
    <glyph glyph-name="grave" unicode="`" horiz-adv-x="500"
d="M322 562c13 -12 14 -32 2 -45c-12 -15 -32 -15 -45 -3l-100 90c-13 12 -14 32 -3 45c12 13 33 15 46 3z" />
    <glyph glyph-name="acute" unicode="&#xb4;" horiz-adv-x="500"
d="M279 652c13 12 33 10 45 -3s11 -33 -2 -45l-100 -90c-13 -12 -34 -12 -45 3c-12 13 -11 33 2 45z" />
    <glyph glyph-name="less" unicode="&#x3c;"
d="M344 67c-11 -13 -30 -15 -45 -4l-240 200c-7 6 -11 14 -11 25c0 9 4 18 11 25l240 200c15 11 34 10 45 -5c5 -7 8 -13 8 -20c0 -10 -4 -18 -12 -25c-31 -26 -61 -50 -88 -73c-47 -39 -100 -83 -122 -102c22 -19 75 -63 122 -102c27 -23 57 -47 88 -73c8 -7 12 -16 12 -25
c0 -7 -3 -14 -8 -21z" />
    <glyph glyph-name="greater" unicode="&#x3e;"
d="M64 88c0 9 4 18 11 25c32 26 62 50 89 73c48 40 98 83 122 102c-24 19 -74 62 -122 102c-27 23 -57 47 -89 73c-7 7 -11 16 -11 25c0 8 2 15 7 20c12 15 32 16 45 5l240 -200c8 -7 12 -16 12 -25c0 -11 -4 -19 -12 -25l-240 -200c-13 -11 -33 -9 -45 4c-5 5 -7 12 -7 21z
" />
    <glyph glyph-name="equal" unicode="="
d="M328 240c19 0 32 -13 32 -32s-13 -32 -32 -32h-240c-17 0 -32 13 -32 32s15 32 32 32h240zM328 400c19 0 32 -13 32 -32s-13 -32 -32 -32h-240c-17 0 -32 13 -32 32s15 32 32 32h240z" />
    <glyph glyph-name="multiply" unicode="&#xd7;"
d="M331 411c6 -7 9 -14 9 -23s-3 -16 -9 -23l-78 -77l78 -77c6 -7 9 -14 9 -23s-3 -16 -9 -23c-7 -6 -14 -9 -23 -9s-16 3 -23 9l-77 78l-77 -78c-7 -6 -14 -9 -23 -9s-16 3 -23 9c-6 7 -9 14 -9 23s3 16 9 23l78 77l-78 77c-6 7 -9 14 -9 23s3 16 9 23c7 6 14 9 23 9
s16 -3 23 -9l77 -78l77 78c7 6 14 9 23 9s16 -3 23 -9z" />
    <glyph glyph-name="divide" unicode="&#xf7;"
d="M166 158c0 23 18 42 42 42c23 0 42 -19 42 -42s-19 -42 -42 -42c-24 0 -42 19 -42 42zM208 376c-24 0 -42 19 -42 42s18 42 42 42c23 0 42 -19 42 -42s-19 -42 -42 -42zM360 288c0 -19 -15 -32 -32 -32h-240c-19 0 -32 13 -32 32s13 32 32 32h240c17 0 32 -13 32 -32z
" />
    <glyph glyph-name="plusminus" unicode="&#xb1;"
d="M328 64c19 0 32 -13 32 -32s-13 -32 -32 -32h-240c-17 0 -32 13 -32 32s15 32 32 32h240zM328 320c19 0 32 -13 32 -32s-13 -32 -32 -32h-88v-88c0 -19 -13 -32 -32 -32c-17 0 -32 13 -32 32v88h-88c-17 0 -32 13 -32 32s15 32 32 32h88v88c0 19 15 32 32 32
c19 0 32 -13 32 -32v-88h88z" />
    <glyph glyph-name="logicalnot" unicode="&#xac;"
d="M328 320c19 0 32 -13 32 -32v-120c0 -19 -13 -32 -32 -32c-17 0 -32 13 -32 32v88h-208c-17 0 -32 13 -32 32s15 32 32 32h240z" />
    <glyph glyph-name="asciicircum" unicode="^" horiz-adv-x="500"
d="M71 404c-13 12 -14 32 -3 45l158 180c6 7 14 11 24 11s18 -4 24 -11l158 -180c11 -13 10 -33 -3 -45c-15 -12 -34 -10 -46 3c-18 21 -36 42 -53 61c-29 33 -63 71 -80 91c-19 -20 -51 -58 -80 -91c-17 -19 -35 -40 -53 -61c-12 -13 -31 -15 -46 -3z" />
    <glyph glyph-name="plus" unicode="+"
d="M328 320c17 0 32 -13 32 -32s-15 -32 -32 -32h-88v-88c0 -19 -15 -32 -32 -32c-19 0 -32 13 -32 32v88h-88c-19 0 -32 13 -32 32s13 32 32 32h88v88c0 19 13 32 32 32c17 0 32 -13 32 -32v-88h88z" />
    <glyph glyph-name="degree" unicode="&#xb0;" horiz-adv-x="313"
d="M276 518c0 -66 -54 -119 -119 -119c-66 0 -119 53 -119 119c0 65 53 119 119 119c65 0 119 -54 119 -119zM96 518c0 -35 26 -61 61 -61s61 26 61 61s-26 61 -61 61s-61 -26 -61 -61z" />
    <glyph glyph-name="brokenbar" unicode="&#xa6;" horiz-adv-x="208"
d="M104 260c19 0 32 -13 32 -32v-400c0 -19 -13 -32 -32 -32s-32 13 -32 32v400c0 19 13 32 32 32zM104 860c19 0 32 -13 32 -32v-400c0 -19 -13 -32 -32 -32s-32 13 -32 32v400c0 19 13 32 32 32z" />
    <glyph glyph-name="bar" unicode="|" horiz-adv-x="208"
d="M109 860c19 0 32 -13 32 -32v-1000c0 -19 -13 -32 -32 -32s-32 13 -32 32v1000c0 19 13 32 32 32z" />
    <glyph glyph-name="backslash" unicode="\"
d="M358 -1c7 -17 -2 -34 -19 -41c-16 -7 -34 2 -41 19l-240 660c-7 17 3 34 19 41c17 7 34 -3 41 -19z" />
    <glyph glyph-name="slash" unicode="/"
d="M339 678c17 -7 26 -24 19 -41l-240 -660c-7 -17 -24 -26 -41 -19c-16 7 -26 24 -19 41l240 660c7 16 25 26 41 19z" />
    <glyph glyph-name="uni00AF" unicode="&#xaf;" horiz-adv-x="500"
d="M500 780c17 0 32 -13 32 -32s-15 -32 -32 -32h-500c-19 0 -32 13 -32 32s13 32 32 32h500z" />
    <glyph glyph-name="underscore" unicode="_" horiz-adv-x="500"
d="M500 -80c17 0 32 -13 32 -32s-15 -32 -32 -32h-500c-19 0 -32 13 -32 32s13 32 32 32h500z" />
    <glyph glyph-name="emdash" unicode="&#x2014;" horiz-adv-x="1000"
d="M0 256c-17 0 -32 13 -32 32s15 32 32 32h1000c19 0 32 -13 32 -32s-13 -32 -32 -32h-1000z" />
    <glyph glyph-name="endash" unicode="&#x2013;" horiz-adv-x="500"
d="M500 320c19 0 32 -13 32 -32s-13 -32 -32 -32h-500c-17 0 -32 13 -32 32s15 32 32 32h500z" />
    <glyph glyph-name="dollar" unicode="$"
d="M293 295c35 -27 53 -68 54 -112c0 -43 -19 -84 -52 -112c-19 -16 -39 -25 -62 -32v-51c0 -19 -15 -32 -32 -32c-19 0 -32 13 -32 32v52c-40 8 -74 33 -95 69c-9 15 -3 35 12 44c15 8 35 3 44 -12c13 -23 32 -36 57 -40c2 -1 4 -1 6 -1h7h1c20 0 38 7 53 20
c19 16 29 37 29 63c-1 24 -12 47 -31 62l-125 103c-33 27 -52 65 -52 108c-1 43 17 83 50 110c17 15 37 25 60 30v52c0 19 13 32 32 32c17 0 32 -13 32 -32v-52c39 -9 71 -32 91 -67c8 -15 3 -35 -12 -44s-35 -3 -44 12c-11 21 -29 34 -54 38c-2 1 -4 1 -7 1h-6h-1
c-19 0 -35 -6 -50 -19c-19 -16 -28 -36 -27 -60c0 -25 9 -44 28 -59z" />
    <glyph glyph-name="cent" unicode="&#xa2;"
d="M196 391c-27 -11 -42 -35 -42 -63v-200c0 -28 15 -52 42 -63c9 -3 17 -5 25 -5h1h1c18 0 34 7 47 20c6 6 13 9 22 9s16 -3 23 -9c6 -7 9 -14 9 -23s-3 -16 -9 -22c-17 -19 -38 -28 -61 -35v-52c0 -19 -15 -32 -32 -32c-19 0 -32 13 -32 32v52c-7 1 -13 3 -19 6
c-49 21 -81 67 -81 122v200c0 55 32 101 81 122c7 3 12 3 19 6v52c0 19 13 32 32 32c17 0 32 -13 32 -32v-52c23 -7 44 -16 61 -35c6 -6 9 -13 9 -22s-3 -16 -9 -23c-7 -6 -14 -9 -23 -9s-16 3 -22 9c-13 13 -29 20 -47 20h-1h-1c-8 0 -16 -2 -25 -5z" />
    <glyph glyph-name="sterling" unicode="&#xa3;"
d="M348 64c19 0 32 -13 32 -32s-13 -32 -32 -32h-280c-15 0 -28 11 -31 27c-3 15 6 30 21 35c35 13 58 46 58 83v151h-48c-17 0 -32 13 -32 32s15 32 32 32h48v148c0 60 41 112 98 127c59 16 118 -9 149 -61c8 -15 3 -35 -12 -44s-35 -3 -44 12c-15 27 -47 40 -76 32
c-31 -8 -51 -35 -51 -66v-148h88c19 0 32 -13 32 -32s-13 -32 -32 -32h-88v-151c0 -29 -8 -56 -23 -81h191z" />
    <glyph glyph-name="_191"
d="M208 176c-31 0 -59 9 -82 24l-37 -36c-6 -7 -14 -10 -23 -10s-16 3 -22 10c-7 6 -10 13 -10 22s3 17 10 23l36 37c-15 23 -24 51 -24 82s9 59 24 82l-36 37c-7 6 -10 13 -10 22s3 17 10 23c6 6 13 9 22 9s17 -3 23 -9l37 -36c23 15 51 24 82 24s59 -9 82 -24l37 36
c6 6 13 9 22 9s17 -3 23 -9c7 -6 10 -14 10 -23s-3 -16 -10 -22l-36 -37c15 -23 24 -51 24 -82s-9 -59 -24 -82l36 -37c7 -6 10 -14 10 -23s-3 -16 -10 -22c-6 -7 -14 -10 -23 -10s-16 3 -22 10l-37 36c-23 -15 -51 -24 -82 -24zM296 328c0 48 -40 88 -88 88
c-49 0 -88 -40 -88 -88c0 -49 39 -88 88 -88c48 0 88 39 88 88z" />
    <glyph glyph-name="yen" unicode="&#xa5;"
d="M176 136h-84c-19 0 -32 13 -32 32s13 32 32 32h84v96h-84c-19 0 -32 13 -32 32s13 32 32 32h64l-117 234c-8 15 -1 35 15 43c15 7 35 1 43 -15l111 -222l111 222c8 16 27 22 43 15c16 -8 22 -28 15 -43l-117 -234h72c19 0 32 -13 32 -32s-13 -32 -32 -32h-92v-96h92
c19 0 32 -13 32 -32s-13 -32 -32 -32h-92v-108c0 -19 -13 -32 -32 -32s-32 13 -32 32v108z" />
    <glyph glyph-name="uni20AC" unicode="&#x20ac;"
d="M227 573c-39 -11 -65 -45 -65 -85v-58h128c17 0 32 -13 32 -32s-15 -32 -32 -32h-128v-96h88c17 0 32 -13 32 -32s-15 -32 -32 -32h-88v-58c0 -40 26 -74 65 -85s79 6 99 41l10 17c9 16 28 21 44 12c15 -9 20 -28 11 -44l-10 -17c-35 -60 -103 -90 -171 -71
c-67 19 -112 78 -112 147v58h-48c-19 0 -32 13 -32 32s13 32 32 32h48v96h-48c-19 0 -32 13 -32 32s13 32 32 32h48v58c0 69 45 128 112 147c68 19 136 -11 171 -71l10 -17c9 -16 4 -35 -11 -44c-16 -9 -35 -4 -44 12l-10 17c-20 35 -60 52 -99 41z" />
    <glyph glyph-name="ampersand" unicode="&#x26;" horiz-adv-x="493"
d="M349 100l-18 -30c-23 -37 -57 -60 -98 -71c-41 -9 -83 0 -118 23c-36 25 -58 59 -65 102s3 82 30 117l80 104l-68 88l-1 1v1h-1v1c-27 41 -29 93 -5 136c24 44 69 71 120 68s94 -31 115 -76s16 -97 -15 -137l-64 -82l76 -99l25 -33l31 51c9 16 29 20 44 11s20 -28 11 -44
l-44 -72l79 -101c11 -15 9 -34 -6 -45s-34 -10 -45 5zM201 397l53 69c16 21 19 48 8 71s-34 38 -59 39c-27 1 -49 -12 -62 -35c-12 -23 -11 -49 2 -70zM307 154l-41 53l-65 85l-70 -90c-15 -21 -21 -43 -17 -68c3 -24 17 -44 37 -59c20 -14 43 -18 68 -13c24 5 43 19 57 41z
" />
    <glyph glyph-name="asterisk" unicode="*"
d="M239 405v-97c0 -17 -14 -31 -31 -31s-30 14 -30 31v97l-85 -48c-15 -9 -33 -4 -41 11c-9 15 -4 33 11 41l84 49l-84 49c-15 8 -20 26 -11 41c8 15 26 20 41 11l85 -48v97c0 17 13 30 30 30s31 -13 31 -30v-97l84 48c15 9 33 4 41 -11c9 -15 4 -33 -11 -41l-84 -49l84 -49
c15 -8 20 -26 11 -41c-8 -15 -26 -20 -41 -11z" />
    <glyph glyph-name="perthousand" unicode="&#x2030;" horiz-adv-x="893"
d="M737 237c64 0 118 -54 118 -119c0 -66 -54 -119 -118 -119c-66 0 -119 53 -119 119c0 65 53 119 119 119zM737 57c33 0 61 26 61 61s-28 61 -61 61c-35 0 -62 -26 -62 -61s27 -61 62 -61zM437 237c64 0 118 -54 118 -119c0 -66 -54 -119 -118 -119
c-66 0 -119 53 -119 119c0 65 53 119 119 119zM437 57c33 0 61 26 61 61s-28 61 -61 61c-35 0 -62 -26 -62 -61s27 -61 62 -61zM275 518c0 -66 -54 -119 -118 -119c-66 0 -119 53 -119 119c0 65 53 119 119 119c64 0 118 -54 118 -119zM95 518c0 -35 27 -61 62 -61
c33 0 61 26 61 61s-28 61 -61 61c-35 0 -62 -26 -62 -61zM451 637c15 -8 22 -27 14 -43l-280 -580c-7 -16 -26 -23 -42 -15s-23 27 -15 43l280 580c8 16 27 22 43 15z" />
    <glyph glyph-name="percent" unicode="%" horiz-adv-x="593"
d="M437 237c65 0 119 -54 119 -119c0 -66 -54 -119 -119 -119c-66 0 -119 53 -119 119c0 65 53 119 119 119zM437 57c35 0 61 26 61 61s-26 61 -61 61s-61 -26 -61 -61s26 -61 61 -61zM276 518c0 -66 -54 -119 -119 -119c-66 0 -119 53 -119 119c0 65 53 119 119 119
c65 0 119 -54 119 -119zM96 518c0 -35 26 -61 61 -61s61 26 61 61s-26 61 -61 61s-61 -26 -61 -61zM451 637c16 -8 22 -27 15 -43l-280 -580c-8 -16 -27 -23 -43 -15s-23 27 -15 43l280 580c8 16 27 22 43 15z" />
    <glyph glyph-name="numbersign" unicode="#" horiz-adv-x="458"
d="M340 377v-99h69c17 0 31 -13 31 -30s-14 -31 -31 -31h-69v-189c0 -17 -14 -31 -31 -31s-30 14 -30 31v189h-99v-189c0 -17 -14 -31 -31 -31s-30 14 -30 31v189h-70c-17 0 -30 14 -30 31s13 30 30 30h70v99h-70c-17 0 -30 14 -30 31s13 30 30 30h70v170c0 17 13 30 30 30
s31 -13 31 -30v-170h99v170c0 17 13 30 30 30s31 -13 31 -30v-170h69c17 0 31 -13 31 -30s-14 -31 -31 -31h-69zM279 377h-99v-99h99v99z" />
    <glyph glyph-name="paragraph" unicode="&#xb6;" horiz-adv-x="480"
d="M434 634c17 0 31 -13 31 -30s-14 -31 -31 -31h-39v-625c0 -17 -14 -31 -31 -31s-30 14 -30 31v625h-79v-625c0 -17 -14 -31 -31 -31s-30 14 -30 31v385h-10c-83 0 -150 68 -150 151s67 150 150 150h250zM194 573h-10c-49 0 -89 -40 -89 -89s40 -90 89 -90h10v179z" />
    <glyph glyph-name="uni0192" unicode="&#x192;" horiz-adv-x="500"
d="M349 653c47 16 99 4 134 -32c7 -6 10 -13 10 -22s-3 -16 -10 -23c-6 -6 -14 -9 -23 -9s-16 3 -22 9c-19 19 -45 25 -69 17c-25 -8 -43 -28 -46 -55l-13 -82h62c19 0 32 -13 32 -32s-13 -32 -32 -32h-72l-60 -384c-8 -51 -42 -90 -89 -106c-48 -15 -99 -3 -135 33
c-6 6 -9 13 -9 22s3 16 9 23c7 6 14 9 23 9s16 -3 23 -9c19 -19 44 -25 69 -17c24 8 42 28 46 55l58 374h-63c-17 0 -32 13 -32 32s15 32 32 32h73l14 92c8 51 42 90 90 105z" />
    <glyph glyph-name="dagger" unicode="&#x2020;" horiz-adv-x="420"
d="M330 456c19 0 32 -13 32 -32s-13 -32 -32 -32h-88v-444c0 -19 -13 -32 -32 -32c-17 0 -32 13 -32 32v444h-88c-17 0 -32 13 -32 32s15 32 32 32h88v152c0 19 15 32 32 32c19 0 32 -13 32 -32v-152h88z" />
    <glyph glyph-name="daggerdbl" unicode="&#x2021;" horiz-adv-x="420"
d="M242 392v-228h88c19 0 32 -13 32 -32s-13 -32 -32 -32h-88v-152c0 -19 -13 -32 -32 -32c-17 0 -32 13 -32 32v152h-88c-17 0 -32 13 -32 32s15 32 32 32h88v228h-88c-17 0 -32 13 -32 32s15 32 32 32h88v152c0 19 15 32 32 32c19 0 32 -13 32 -32v-152h88
c19 0 32 -13 32 -32s-13 -32 -32 -32h-88z" />
    <glyph glyph-name="Scaron" unicode="&#x160;" horiz-adv-x="387"
d="M298 262c31 -32 47 -76 43 -121c-3 -45 -25 -86 -61 -113s-82 -38 -126 -29s-82 36 -105 75c-9 16 -4 35 12 44c15 9 35 4 43 -12c15 -24 35 -39 62 -44c28 -5 53 0 75 17c21 16 34 40 37 67s-7 53 -26 72l-160 164c-31 31 -46 74 -43 117c4 44 25 83 60 110
s79 37 122 28s79 -34 102 -73c8 -15 3 -35 -12 -44s-35 -3 -44 12c-12 23 -34 37 -59 42s-49 0 -70 -16s-33 -37 -35 -63c-2 -27 6 -49 25 -68zM272 832c15 11 32 8 43 -5c11 -15 8 -32 -5 -43l-90 -70c-5 -5 -12 -7 -19 -7s-14 2 -19 7l-90 70c-13 11 -16 28 -5 43
c11 13 28 16 43 5c9 -7 17 -14 26 -21c15 -12 33 -25 45 -34c11 9 29 22 44 34z" />
    <glyph glyph-name="Zcaron" unicode="&#x17d;" horiz-adv-x="384"
d="M344 604c0 -4 -1 -8 -3 -12c-36 -85 -69 -164 -99 -236c-51 -124 -106 -255 -122 -292h192c19 0 32 -13 32 -32s-13 -32 -32 -32h-240c-12 0 -21 5 -27 14c-3 7 -5 13 -5 18c0 3 1 7 2 12c35 85 68 163 99 235c51 122 107 255 123 293h-192c-19 0 -32 13 -32 32
s13 32 32 32h240c12 0 21 -5 27 -14c3 -7 5 -13 5 -18zM263 832c15 11 32 8 43 -5c11 -15 8 -32 -5 -43l-90 -70c-5 -5 -12 -7 -19 -7s-14 2 -19 7l-90 70c-13 11 -16 28 -5 43c11 13 28 16 43 5c9 -7 17 -14 26 -21c15 -12 33 -25 45 -34c11 9 29 22 44 34z" />
    <glyph glyph-name="scaron" unicode="&#x161;" horiz-adv-x="329"
d="M227 224c31 -23 49 -55 52 -94s-12 -74 -40 -99c-28 -27 -65 -37 -102 -32c-39 7 -70 28 -89 61c-8 15 -4 33 11 41s33 4 41 -11c11 -17 26 -28 46 -31c19 -3 37 2 53 16c15 14 22 31 20 51c-1 20 -10 36 -27 48l-93 66c-31 21 -48 54 -51 90c-3 37 12 72 39 96
c27 25 63 36 99 31c36 -7 67 -27 86 -59c8 -15 4 -33 -11 -41s-33 -4 -41 11c-9 16 -24 26 -43 29s-36 -2 -50 -15s-20 -29 -19 -48s10 -34 26 -45zM240 630c13 11 31 8 40 -5c11 -12 8 -29 -5 -40l-90 -70c-11 -9 -23 -9 -35 0l-90 70c-12 11 -14 28 -5 40
c11 13 28 16 40 5c10 -7 19 -14 28 -21c15 -12 33 -26 45 -35c11 9 30 23 45 35z" />
    <glyph glyph-name="zcaron" unicode="&#x17e;" horiz-adv-x="344"
d="M302 424c0 -5 -1 -9 -3 -14c-27 -53 -53 -102 -76 -148c-40 -78 -86 -166 -102 -200h151c17 0 30 -13 30 -30s-13 -30 -30 -30h-200c-11 0 -20 5 -26 14c-3 5 -4 10 -4 16c0 4 1 9 3 14c27 53 53 102 76 148c40 78 83 165 102 200h-151c-17 0 -30 13 -30 30s13 30 30 30
h200c11 0 20 -5 26 -14c3 -7 4 -12 4 -16zM59 625c11 13 28 16 40 5c10 -7 19 -14 28 -21c15 -12 33 -26 45 -35c11 9 30 23 45 35l27 21c13 11 31 8 40 -5c11 -12 8 -29 -5 -40l-90 -70c-11 -9 -23 -9 -35 0l-90 70c-12 11 -14 28 -5 40z" />
    <glyph glyph-name="Lslash" unicode="&#x141;" horiz-adv-x="375"
d="M315 64c19 0 32 -13 32 -32s-13 -32 -32 -32h-200c-19 0 -32 13 -32 32v241l-30 -18c-15 -9 -35 -3 -44 12s-3 35 12 44l62 35v262c0 19 13 32 32 32s32 -13 32 -32v-225l56 33c15 8 35 3 44 -12c8 -15 3 -35 -12 -44l-88 -51v-245h168z" />
    <glyph glyph-name="lslash" unicode="&#x142;" horiz-adv-x="238"
d="M182 399c15 8 33 4 41 -11s4 -33 -11 -41l-63 -36v-214c0 -19 10 -34 25 -43c15 -8 19 -26 11 -41s-26 -19 -41 -11c-35 20 -55 56 -55 95v179l-33 -19c-15 -8 -33 -4 -41 11s-4 33 11 41l63 36v283c0 17 13 30 30 30s30 -13 30 -30v-248z" />
    <glyph glyph-name="uni00B5" unicode="&#xb5;" horiz-adv-x="400"
d="M300 458c17 0 30 -13 30 -30v-400c0 -17 -13 -30 -30 -30c-15 0 -25 9 -29 21c-21 -14 -45 -21 -71 -21s-49 7 -70 20v-190c0 -17 -13 -30 -30 -30s-30 13 -30 30v600c0 17 13 30 30 30s30 -13 30 -30v-300c0 -39 31 -70 70 -70s70 31 70 70v300c0 17 13 30 30 30z" />
    <glyph glyph-name="threequarters" unicode="&#xbe;" horiz-adv-x="628"
d="M223 378c0 -45 -30 -84 -73 -95c-44 -12 -89 7 -112 46c-8 13 -4 31 11 39s31 4 39 -11c11 -16 28 -24 47 -19s30 21 30 40v20c0 23 -18 41 -41 41c-16 0 -29 13 -29 29s13 29 29 29c15 0 27 7 36 20c7 14 7 28 0 42c-9 13 -21 20 -36 20s-27 -7 -36 -20
c-8 -15 -24 -19 -39 -11s-19 26 -11 39c19 31 51 50 86 50s68 -19 85 -50c9 -15 14 -32 14 -49s-5 -34 -14 -49c-4 -8 -9 -15 -15 -21c19 -19 29 -43 29 -70v-20zM566 137c16 0 29 -13 29 -29s-13 -29 -29 -29h-23v-51c0 -16 -13 -29 -29 -29s-29 13 -29 29v51h-100
c-11 0 -19 4 -24 13c-6 9 -7 18 -3 27l89 220c7 15 23 23 38 16c12 -5 18 -14 18 -27c0 -4 -1 -7 -2 -11c-10 -25 -20 -48 -29 -70c-16 -39 -34 -83 -45 -110h58v31c0 16 13 29 29 29s29 -13 29 -29v-31h23zM468 637c16 -8 22 -27 15 -43l-280 -580c-8 -16 -27 -23 -43 -15
s-23 27 -15 43l280 580c8 16 27 22 43 15z" />
    <glyph glyph-name="onequarter" unicode="&#xbc;" horiz-adv-x="598"
d="M115 539c-11 -11 -20 -21 -27 -28c-4 -5 -8 -9 -12 -12c-6 -5 -13 -8 -21 -8s-15 3 -20 8s-8 12 -8 20s3 15 8 21l89 88c8 9 18 12 31 7c12 -5 18 -14 18 -27v-300c0 -16 -13 -29 -29 -29s-29 13 -29 29v231zM536 137c16 0 29 -13 29 -29s-13 -29 -29 -29h-23v-51
c0 -16 -13 -29 -29 -29s-29 13 -29 29v51h-100c-11 0 -19 4 -24 13c-6 9 -7 18 -3 27l89 220c7 15 23 23 38 16c12 -5 18 -14 18 -27c0 -4 -1 -7 -2 -11c-10 -25 -20 -48 -29 -70c-16 -39 -34 -83 -45 -110h58v31c0 16 13 29 29 29s29 -13 29 -29v-31h23zM438 637
c16 -8 22 -27 15 -43l-280 -580c-8 -16 -27 -23 -43 -15s-23 27 -15 43l280 580c8 16 27 22 43 15z" />
    <glyph glyph-name="onehalf" unicode="&#xbd;" horiz-adv-x="596"
d="M115 539c-11 -11 -20 -21 -27 -28c-4 -5 -8 -9 -12 -12c-6 -5 -13 -8 -21 -8s-15 3 -20 8s-8 12 -8 20s3 15 8 21l89 88c8 9 18 12 31 7c12 -5 18 -14 18 -27v-300c0 -16 -13 -29 -29 -29s-29 13 -29 29v231zM547 205c-11 -18 -22 -36 -33 -53c-19 -31 -42 -66 -58 -91
h78c16 0 29 -13 29 -29s-13 -29 -29 -29h-131c-11 0 -20 5 -25 15c-3 5 -4 10 -4 15s2 10 5 14l120 189c7 9 8 20 5 31c-2 11 -8 19 -19 26c-9 7 -20 8 -31 5s-19 -9 -26 -19c-8 -15 -24 -19 -39 -11s-19 26 -11 39c14 24 34 40 61 47c27 6 53 2 76 -12
c24 -13 39 -34 45 -62c6 -27 2 -52 -13 -75zM438 637c16 -8 22 -27 15 -43l-280 -580c-8 -16 -27 -23 -43 -15s-23 27 -15 43l280 580c8 16 27 22 43 15z" />
    <glyph glyph-name="onesuperior" unicode="&#xb9;" horiz-adv-x="234"
d="M155 635c12 -5 18 -14 18 -27v-300c0 -16 -13 -29 -29 -29s-29 13 -29 29v231c-11 -11 -20 -21 -27 -28c-4 -5 -8 -9 -12 -12c-6 -5 -13 -8 -21 -8s-15 3 -20 8s-8 12 -8 20s3 15 8 21l89 88c8 9 18 12 31 7z" />
    <glyph glyph-name="twosuperior" unicode="&#xb2;" horiz-adv-x="297"
d="M227 485c-11 -18 -22 -36 -33 -53c-19 -31 -42 -66 -58 -91h78c16 0 29 -13 29 -29s-13 -29 -29 -29h-131c-11 0 -20 5 -25 15c-3 5 -4 10 -4 15s2 10 5 14l120 189c7 9 8 20 5 31c-2 11 -8 19 -19 26c-9 7 -20 8 -31 5s-19 -9 -26 -19c-8 -15 -24 -19 -39 -11
s-19 26 -11 39c14 24 34 40 61 47c27 6 53 2 76 -12c24 -13 39 -34 45 -62c6 -27 2 -52 -13 -75z" />
    <glyph glyph-name="threesuperior" unicode="&#xb3;" horiz-adv-x="296"
d="M213 468c19 -19 29 -43 29 -70v-20c0 -45 -30 -84 -73 -95c-44 -12 -89 7 -112 46c-8 13 -4 31 11 39s31 4 39 -11c11 -16 28 -24 47 -19s30 21 30 40v20c0 23 -18 41 -41 41c-16 0 -29 13 -29 29s13 29 29 29c15 0 27 7 36 20c7 14 7 28 0 42c-9 13 -21 20 -36 20
s-27 -7 -36 -20c-8 -15 -24 -19 -39 -11s-19 26 -11 39c19 31 51 50 86 50s68 -19 85 -50c9 -15 14 -32 14 -49s-5 -34 -14 -49c-4 -8 -9 -15 -15 -21z" />
    <glyph glyph-name="ordfeminine" unicode="&#xaa;" horiz-adv-x="305"
d="M179 633c43 -11 73 -50 73 -95v-210c0 -16 -13 -29 -29 -29h-70c-56 0 -99 43 -99 99c0 53 43 99 99 99h41v41c0 19 -11 35 -30 40s-36 -3 -47 -19c-8 -15 -24 -19 -39 -11s-19 26 -11 39c23 39 68 58 112 46zM112 398c0 -23 18 -41 41 -41h41v82h-41
c-23 0 -41 -18 -41 -41z" />
    <glyph glyph-name="ordmasculine" unicode="&#xba;" horiz-adv-x="305"
d="M153 637c53 0 99 -46 99 -99v-140c0 -56 -46 -99 -99 -99c-56 0 -99 43 -99 99v140c0 53 43 99 99 99zM153 357c23 0 41 18 41 41v140c0 23 -18 41 -41 41s-41 -18 -41 -41v-140c0 -23 18 -41 41 -41z" />
    <glyph glyph-name="section" unicode="&#xa7;"
d="M290 383c36 -28 53 -73 44 -117c-5 -27 -19 -50 -38 -69c19 -22 28 -48 28 -77c1 -36 -14 -71 -42 -94c-29 -25 -63 -34 -100 -28c-36 7 -66 27 -85 59c-9 15 -4 35 12 44c15 8 34 3 43 -12s23 -25 41 -28c17 -3 33 1 47 13c13 11 21 28 20 45c0 19 -7 33 -21 44l-112 89
h-1c-35 29 -52 74 -43 118c5 28 18 51 38 69c-18 21 -28 47 -29 77c0 36 15 71 43 94c27 24 64 35 100 28s66 -27 85 -59c9 -15 4 -35 -12 -44c-15 -9 -34 -3 -43 12s-23 25 -41 28c-17 3 -33 -1 -47 -13c-14 -11 -21 -26 -21 -45c1 -19 9 -33 22 -44zM246 239
c13 9 22 23 25 38c4 21 -4 43 -20 56l-80 64c-14 -10 -23 -23 -26 -38c-4 -23 3 -42 21 -56z" />
    <glyph glyph-name="phi" unicode="&#x3c6;" horiz-adv-x="544"
d="M415 511c55 -43 89 -108 89 -183c0 -63 -24 -120 -68 -164s-101 -68 -164 -68c-30 0 -59 6 -87 17l-30 -52c-9 -16 -29 -21 -44 -12s-21 28 -12 44l30 52c-55 43 -89 108 -89 183c0 127 103 232 232 232c30 0 59 -6 87 -17l30 52c9 15 29 21 44 12s20 -29 12 -44z
M104 328c0 -51 22 -96 58 -127l165 286c-17 6 -36 9 -55 9c-93 0 -168 -75 -168 -168zM391 209c31 32 49 74 49 119c0 51 -22 96 -58 127l-165 -286c17 -6 35 -9 55 -9c47 0 86 16 119 49z" />
    <glyph glyph-name="P" unicode="P" horiz-adv-x="400"
d="M68 604c0 19 13 32 32 32h120c84 0 152 -68 152 -152v-56c0 -84 -68 -152 -152 -152h-88v-248c0 -19 -13 -32 -32 -32s-32 13 -32 32v576zM308 484c0 48 -40 88 -88 88h-88v-232h88c48 0 88 39 88 88v56z" />
    <glyph glyph-name="asciitilde" unicode="~"
d="M360 303c15 -9 18 -27 9 -42c-19 -28 -48 -47 -80 -52c-34 -6 -65 1 -93 22l-12 9c-13 11 -29 14 -46 11s-30 -12 -39 -26c-9 -15 -27 -19 -42 -8c-15 9 -18 27 -9 42c19 29 45 47 80 52c32 7 66 -2 93 -22l12 -9c13 -11 29 -14 46 -11s30 12 39 26c9 15 27 17 42 8z" />
    <glyph glyph-name="currency" unicode="&#xa4;"
d="M208 176c-31 0 -59 9 -82 24l-37 -36c-6 -7 -14 -10 -23 -10s-16 3 -22 10c-7 6 -10 13 -10 22s3 17 10 23l36 37c-15 23 -24 51 -24 82s9 59 24 82l-36 37c-7 6 -10 13 -10 22s3 17 10 23c6 6 13 9 22 9s17 -3 23 -9l37 -36c23 15 51 24 82 24s59 -9 82 -24l37 36
c6 6 13 9 22 9s17 -3 23 -9c7 -6 10 -14 10 -23s-3 -16 -10 -22l-36 -37c15 -23 24 -51 24 -82s-9 -59 -24 -82l36 -37c7 -6 10 -14 10 -23s-3 -16 -10 -22c-6 -7 -14 -10 -23 -10s-16 3 -22 10l-37 36c-23 -15 -51 -24 -82 -24zM296 328c0 48 -39 88 -88 88
s-88 -40 -88 -88c0 -49 39 -88 88 -88s88 39 88 88z" />
    </font>
</defs>
</svg>
