<?xml version="1.0" encoding="UTF-8"?>
<svg width="90.004" height="48.736" version="1.1" viewBox="0 0 90.004 48.736" xmlns="http://www.w3.org/2000/svg">
 <g fill="#40A687">
  <path d="m49.106 44.387v-22.334c0-1.0012 0.84718-1.8484 1.8482-1.8484 1.0397 0 1.8487 0.84718 1.8487 1.8484v22.334c0 1.0397-0.80893 1.8487-1.8487 1.8487-1.001 0-1.8482-0.80893-1.8482-1.8487"/>
  <path d="m62.936 26.677v13.092c0 1.5403 1.232 2.7726 2.7724 2.7726 1.5403 0 2.7726-1.2323 2.7726-2.7726v-13.092c0-1.5401-1.2323-2.7724-2.7726-2.7724s-2.7724 1.2323-2.7724 2.7724m-3.6968 13.092v-13.092c0-3.581 2.8884-6.4689 6.4692-6.4689 3.5813 0 6.4694 2.8879 6.4694 6.4689v13.092c0 3.581-2.8881 6.4692-6.4694 6.4692-3.5808 0-6.4692-2.8881-6.4692-6.4692"/>
  <path d="m88.156 20.357c1.0397 0 1.8484 0.84718 1.8484 1.8482 0 1.0397-0.80867 1.8484-1.8484 1.8484h-3.1574v20.331c0 1.0395-0.80867 1.8487-1.8486 1.8487-1.001 0-1.8482-0.80919-1.8482-1.8487v-20.331h-3.1574c-1.0012 0-1.8484-0.80867-1.8484-1.8484 0-1.001 0.84718-1.8482 1.8484-1.8482z"/>
 </g>
 <g fill="#BC202A">
  <path d="m36.426 45.037-5.721-10.846c-0.61183-1.1598-0.16746-2.596 0.99235-3.2078 1.1099-0.58523 2.477-0.19685 3.1283 0.85326l6.4398 10.435c0.80843 1.3106 0.40181 3.0285-0.90875 3.8369-1.3106 0.80893-3.0285 0.40206-3.8372-0.90824-0.0319-0.0519-0.0654-0.11071-0.0935-0.16366"/>
  <path d="m29.166 20.967s0.10362-0.0271 0.30401-0.0798c0.0373-0.0106 0.079-0.0223 0.12541-0.0352 0.0535-0.0162 0.11223-0.0337 0.17582-0.053 0.12769-0.0395 0.27615-0.0882 0.44462-0.14643 0.66984-0.23789 1.6792-0.65034 2.8484-1.3744 1.157-0.71924 2.4954-1.7623 3.5126-3.1785 1.0159-1.4187 1.6257-3.1438 1.2954-5.148-0.0768-0.50162-0.21787-1.021-0.40864-1.5517-0.0215-0.06638-0.0507-0.13275-0.0757-0.19938l-0.039-0.10007-0.0192-0.05042c0.0403 0.08639-0.10413-0.22877 0.0879 0.18748l-0.0157-0.03065-0.1254-0.24448-0.0631-0.12287-0.0312-0.06055-0.0233-0.03902c-0.0659-0.10691-0.10969-0.20116-0.1895-0.32327-0.0752-0.11755-0.14643-0.24068-0.22801-0.35164-0.62677-0.92142-1.419-1.6447-2.3629-2.0883-0.94143-0.44437-2.067-0.61132-3.2727-0.45019-1.2021 0.15581-2.4595 0.64932-3.575 1.4025-1.1178 0.75117-2.0921 1.7691-2.7508 2.932-0.33391 0.5794-0.58041 1.196-0.74635 1.8271-0.0801 0.31643-0.1363 0.63691-0.17253 0.96018-0.0192 0.16138-0.0281 0.32378-0.036 0.48668l-0.0139 0.65516c-0.0149 0.46514 1e-3 0.89051 1e-3 1.3374 4e-3 0.44234 7e-3 0.88544 0.0106 1.329-3e-3 0.87708 0.0334 1.8 0.0616 2.7159 0.0286 0.9166 0.057 1.835 0.0856 2.7541 0.0307 0.91939 0.0497 1.8378 0.10337 2.7627 0.0925 1.8469 0.18468 3.6938 0.2769 5.5336 0.0459 0.9199 0.0917 1.838 0.13757 2.7534l0.0342 0.68606 0.0243 0.76054-3e-3 0.83148c-0.0117 0.26424-0.0195 0.52696-0.0362 0.79119-0.13883 2.1083-0.6402 4.2866-1.7025 6.2665-0.53303 0.98424-1.194 1.9128-1.9791 2.7219-0.78055 0.81248-1.6771 1.5072-2.6363 2.0564-1.9226 1.1058-4.0702 1.6275-6.1454 1.6447-2.0792 0.0175-4.1123-0.45628-5.911-1.379-1.7972-0.91584-3.351-2.3209-4.3816-4.0051-0.2541-0.42156-0.48464-0.85326-0.67541-1.2964-0.0512-0.10945-0.0943-0.22142-0.13782-0.33315l-0.14036-0.36634c-0.0588-0.17328-0.11755-0.34556-0.17607-0.51707-0.0661-0.21357-0.1363-0.4659-0.19989-0.69619-0.0636-0.23435-0.10007-0.4355-0.14947-0.65363-0.0507-0.21307-0.077-0.4274-0.11325-0.63995-0.0378-0.21256-0.0608-0.42461-0.0818-0.63539-0.35012-3.3839 0.52975-6.4545 1.9122-8.7999 0.68454-1.1819 1.5112-2.1805 2.3657-3.0024 0.85631-0.82286 1.7466-1.4638 2.5897-1.9594 0.41979-0.25334 0.83452-0.45475 1.2244-0.64552 0.19659-0.0897 0.39066-0.16848 0.57661-0.24803 0.18545-0.0816 0.3671-0.15276 0.54419-0.21255 0.35265-0.12794 0.67997-0.24195 0.98424-0.32327 0.303-0.0902 0.57889-0.1667 0.82793-0.21813 0.24879-0.055 0.46818-0.10995 0.65819-0.14415 0.19026-0.0322 0.35038-0.059 0.47908-0.0808 0.2579-0.0428 0.39091-0.0646 0.39091-0.0646 1.2923-0.21357 2.5129 0.66097 2.7265 1.9533 0.21129 1.2796-0.64425 2.4891-1.9158 2.7197l-0.13833 0.0251s-0.0958 0.0172-0.28146 0.0509c-0.0927 0.0162-0.208 0.0365-0.34506 0.0606-0.1363 0.0253-0.28957 0.0682-0.46565 0.10793-0.17784 0.0365-0.36912 0.0935-0.57864 0.15859-0.21331 0.0567-0.436 0.1396-0.67617 0.22903-0.12237 0.0408-0.24499 0.0907-0.36887 0.14795-0.12516 0.055-0.25436 0.11172-0.38787 0.17025-0.25791 0.1325-0.53557 0.26677-0.80969 0.43828-1.1018 0.66301-2.313 1.706-3.2068 3.2752-0.23156 0.38508-0.42055 0.81273-0.60423 1.2553-0.1743 0.44766-0.31719 0.92217-0.43474 1.4162-0.2156 0.99083-0.30401 2.0706-0.17253 3.1539 0.0144 0.13554 0.0291 0.27159 0.056 0.40561 0.0258 0.13351 0.0398 0.27184 0.0755 0.40332 0.0319 0.1282 0.0593 0.27944 0.0925 0.39041 0.0324 0.11426 0.0651 0.22902 0.0978 0.34404 0.06 0.17101 0.12034 0.34252 0.18114 0.51505 7e-3 0.02-0.0172-0.0489-3e-3 -0.01l9e-3 0.0221 0.0182 0.0443 0.0357 0.0887c0.0233 0.0595 0.0459 0.11958 0.075 0.17658 0.10235 0.23435 0.22826 0.4583 0.36228 0.67947 0.55027 0.87328 1.3812 1.6305 2.4331 2.1557 1.0471 0.5262 2.3016 0.81349 3.5747 0.78765 1.2726-0.0225 2.5562-0.35975 3.6502-1.0055 1.0975-0.64375 1.9992-1.593 2.6246-2.785 0.62526-1.1928 0.96955-2.6269 1.0554-4.162l0.021-0.58041-1e-3 -0.54419-0.0238-0.61613-0.0408-0.69189c-0.0542-0.92318-0.10869-1.8492-0.16316-2.7769-0.10894-1.8558-0.21838-3.7186-0.32783-5.5814-0.0623-0.92952-0.0902-1.8684-0.12946-2.8035-0.0372-0.93535-0.0745-1.8699-0.11172-2.8028-0.0365-0.93333-0.0811-1.8558-0.0877-2.8202-8e-3 -0.47679-0.0152-0.95308-0.0228-1.4284-4e-3 -0.47071-0.023-0.96169-0.0122-1.4106l0.01-0.71469c0.0114-0.29312 0.0284-0.58548 0.0606-0.87657 0.0621-0.58168 0.16265-1.1578 0.30351-1.7207 0.28704-1.1233 0.71975-2.194 1.2756-3.1706 1.1079-1.9611 2.652-3.5635 4.4158-4.7636 1.7661-1.1973 3.7703-2.0171 5.8941-2.309 1.0598-0.14365 2.1471-0.16011 3.2205-0.0091 1.0729 0.14365 2.1284 0.45323 3.1027 0.9052 1.9614 0.90495 3.5152 2.3845 4.5749 3.939 0.13883 0.1933 0.25968 0.39142 0.38407 0.58801 0.12312 0.19026 0.25005 0.42613 0.37089 0.63716l0.0454 0.08132 0.0322 0.06207 0.0636 0.12236 0.12642 0.24422 0.0157 0.0304c0.20268 0.43626 0.0651 0.14314 0.11401 0.25056l0.0309 0.07702 0.0608 0.15429c0.0398 0.10362 0.0823 0.20445 0.11856 0.30959 0.30351 0.83122 0.54115 1.6896 0.681 2.5649 0.2921 1.7463 0.18823 3.5438-0.25386 5.1315-0.436 1.5938-1.1623 2.9705-1.9695 4.105-0.81045 1.1388-1.6974 2.0579-2.5654 2.8185-0.86973 0.76079-1.723 1.3678-2.5195 1.8664-1.5946 0.99438-2.9634 1.5621-3.9301 1.9092-0.24245 0.0854-0.45957 0.15732-0.64881 0.21635-0.095 0.0291-0.18292 0.0557-0.26272 0.0801-0.0882 0.0248-0.16746 0.0474-0.2384 0.0674-0.23434 0.0628-0.35544 0.095-0.35544 0.095-1.4871 0.39674-3.0143-0.48718-3.411-1.9743-0.39674-1.4871 0.48718-3.014 1.9743-3.411l9e-3 -3e-3z"/>
 </g>
</svg>
