<?xml version="1.0" encoding="UTF-8" standalone="no"?>
<svg
   xmlns:dc="http://purl.org/dc/elements/1.1/"
   xmlns:cc="http://creativecommons.org/ns#"
   xmlns:rdf="http://www.w3.org/1999/02/22-rdf-syntax-ns#"
   xmlns:svg="http://www.w3.org/2000/svg"
   xmlns="http://www.w3.org/2000/svg"
   xmlns:xlink="http://www.w3.org/1999/xlink"
   xmlns:sodipodi="http://sodipodi.sourceforge.net/DTD/sodipodi-0.dtd"
   xmlns:inkscape="http://www.inkscape.org/namespaces/inkscape"
   width="1420"
   height="800"
   version="1.1"
   id="svg862"
   sodipodi:docname="riot-registry-architecture.svg"
   inkscape:version="0.92.3 (2405546, 2018-03-11)">
  <metadata
     id="metadata868">
    <rdf:RDF>
      <cc:Work
         rdf:about="">
        <dc:format>image/svg+xml</dc:format>
        <dc:type
           rdf:resource="http://purl.org/dc/dcmitype/StillImage" />
      </cc:Work>
    </rdf:RDF>
  </metadata>
  <defs
     id="defs866" />
  <sodipodi:namedview
     pagecolor="#ffffff"
     bordercolor="#666666"
     borderopacity="1"
     objecttolerance="10"
     gridtolerance="10"
     guidetolerance="10"
     inkscape:pageopacity="0"
     inkscape:pageshadow="2"
     inkscape:window-width="2560"
     inkscape:window-height="1385"
     id="namedview864"
     showgrid="false"
     inkscape:zoom="0.74625"
     inkscape:cx="839.90462"
     inkscape:cy="388.05828"
     inkscape:window-x="0"
     inkscape:window-y="214"
     inkscape:window-maximized="1"
     inkscape:current-layer="svg862" />
  <g
     transform="matrix(0.67517278,0,0,0.67517278,97.602822,-60.933611)"
     id="g860">
    <path
       d="M 220,520 H 1600 V 900 H 220 Z"
       id="path459"
       inkscape:connector-curvature="0"
       style="fill-opacity:0" />
    <path
       d="m 232.03,520 h 8.03 m 8.02,0 h 8.02 m 8.03,0 h 8.02 m 8.02,0 h 8.03 m 8.02,0 h 8.02 m 8.03,0 h 8.02 m 8,0 h 8.04 m 8.02,0 h 8.02 m 8.03,0 h 8.03 m 8.02,0 h 8.03 m 8.02,0 h 8.02 m 8.03,0 h 8.02 m 8.02,0 h 8.02 m 8.02,0 h 8.02 m 8.03,0 h 8 m 8.03,0 h 8.03 m 8.02,0 h 8.02 m 8.03,0 h 8.02 m 8.02,0 h 8.03 m 8.02,0 h 8.02 m 8.03,0 H 561 m 8,0 h 8.03 m 8.03,0 h 8.02 m 8.02,0 h 8.03 m 8.02,0 h 8.02 m 8.03,0 h 8.02 m 8.02,0 h 8.03 m 8.02,0 h 8 m 8.04,0 h 8.02 m 8.02,0 h 8.03 m 8.03,0 h 8.02 m 8.03,0 h 8.02 m 8.02,0 h 8.03 m 8.02,0 h 8.02 m 8.02,0 h 8.02 m 8.02,0 h 8.03 m 8,0 h 8.03 m 8.03,0 h 8.02 m 8.02,0 h 8.03 m 8.02,0 h 8.02 m 8.03,0 h 8.02 m 8.02,0 h 8.03 m 8.02,0 h 8 m 8.03,0 h 8.03 m 8.02,0 h 8.02 m 8.03,0 h 8.02 m 8.02,0 h 8.03 m 8.02,0 h 8.02 m 8.03,0 h 8.02 m 8,0 h 8.04 m 8.02,0 h 8.02 m 8.03,0 h 8.03 m 8.02,0 h 8.03 m 8.02,0 h 8.02 m 8.03,0 h 8.02 m 8.02,0 h 8.02 m 8.02,0 h 8.02 m 8.03,0 h 8 m 8.03,0 h 8.03 m 8.02,0 h 8.02 m 8.03,0 h 8.02 m 8.02,0 h 8.03 m 8.02,0 h 8.02 m 8.03,0 h 8.02 m 8,0 h 8.03 m 8.03,0 h 8.02 m 8.02,0 h 8.03 m 8.02,0 h 8.02 m 8.03,0 h 8.02 m 8.02,0 h 8.03 m 8.02,0 h 8 m 8.04,0 h 8.02 m 8.02,0 h 8.03 m 8.03,0 h 8.02 m 8.03,0 h 8.02 m 8.02,0 h 8.03 m 8.02,0 h 8.02 m 8.02,0 h 8.02 m 8.02,0 h 8.03 m 8,0 h 8.03 m 8.03,0 h 8.02 m 8.02,0 h 8.03 m 8.02,0 h 8.02 m 8.03,0 h 8.02 m 8.02,0 h 8.03 m 8.02,0 h 4 v 3.96 m 0,7.9 v 7.93 m 0,7.9 v 7.92 m 0,7.92 v 7.92 m 0,7.9 v 7.93 m 0,7.9 v 7.92 m 0,7.92 v 7.92 m 0,7.9 v 7.93 m 0,7.9 v 7.92 m 0,7.92 v 7.92 m 0,7.9 v 7.93 m 0,7.9 v 7.92 m 0,7.92 v 7.92 m 0,7.9 v 7.93 m 0,7.9 v 7.92 m 0,7.92 v 7.92 m 0,7.9 v 7.93 m 0,7.9 v 7.92 m 0,7.92 v 7.92 m 0,7.9 v 7.93 m 0,7.9 v 7.92 m 0,7.92 v 7.92 m 0,7.9 v 7.93 m 0,7.9 v 7.92 m 0,7.92 V 900 h -4 m -8.03,0 h -8.03 m -8.02,0 h -8.02 m -8.03,0 h -8.02 m -8.02,0 h -8.03 m -8.02,0 h -8.02 m -8.03,0 h -8.02 m -8,0 h -8.04 m -8.02,0 h -8.02 m -8.03,0 h -8.03 m -8.02,0 h -8.03 m -8.02,0 h -8.02 m -8.03,0 h -8.02 m -8.02,0 h -8.02 m -8.02,0 h -8.02 m -8.03,0 h -8 m -8.03,0 h -8.03 m -8.02,0 h -8.02 m -8.03,0 h -8.02 m -8.02,0 h -8.03 m -8.02,0 h -8.02 m -8.03,0 H 1259 m -8,0 h -8.03 m -8.03,0 h -8.02 m -8.02,0 h -8.03 m -8.02,0 h -8.02 m -8.03,0 h -8.02 m -8.02,0 h -8.03 m -8.02,0 h -8 m -8.04,0 h -8.02 m -8.02,0 h -8.03 m -8.03,0 h -8.02 m -8.03,0 h -8.02 m -8.02,0 h -8.03 m -8.02,0 h -8.02 m -8.02,0 h -8.02 m -8.02,0 h -8.03 m -8,0 h -8.03 m -8.03,0 h -8.02 m -8.02,0 h -8.03 m -8.02,0 h -8.02 m -8.03,0 h -8.02 m -8.02,0 h -8.03 m -8.02,0 h -8 m -8.03,0 h -8.03 m -8.02,0 h -8.02 m -8.03,0 h -8.02 m -8.02,0 h -8.03 m -8.02,0 h -8.02 m -8.03,0 h -8.02 m -8,0 h -8.04 m -8.02,0 h -8.02 m -8.03,0 h -8.03 m -8.02,0 h -8.03 m -8.02,0 h -8.02 m -8.03,0 h -8.02 m -8.02,0 h -8.02 m -8.02,0 h -8.02 m -8.03,0 h -8 m -8.03,0 h -8.03 m -8.02,0 h -8.02 m -8.03,0 h -8.02 m -8.02,0 h -8.03 m -8.02,0 h -8.02 m -8.03,0 H 569 m -8,0 h -8.03 m -8.03,0 h -8.02 m -8.02,0 h -8.03 m -8.02,0 h -8.02 m -8.03,0 h -8.02 m -8.02,0 h -8.03 m -8.02,0 h -8 m -8.04,0 h -8.02 m -8.02,0 h -8.03 m -8.03,0 h -8.02 m -8.03,0 h -8.02 m -8.02,0 h -8.03 m -8.02,0 h -8.02 m -8.02,0 h -8.02 m -8.02,0 h -8.03 m -8,0 h -8.03 m -8.03,0 h -8.02 m -8.02,0 h -8.03 m -8.02,0 h -8.02 m -8.03,0 h -8.02 m -8.02,0 h -8.03 m -8.02,0 h -4 v -3.96 m 0,-7.9 v -7.93 m 0,-7.9 v -7.92 m 0,-7.92 v -7.92 m 0,-7.9 v -7.93 m 0,-7.9 v -7.92 m 0,-7.92 v -7.92 m 0,-7.9 v -7.93 m 0,-7.9 v -7.92 m 0,-7.92 v -7.92 m 0,-7.9 v -7.93 m 0,-7.9 v -7.92 m 0,-7.92 v -7.92 m 0,-7.9 v -7.93 m 0,-7.9 v -7.92 m 0,-7.92 v -7.92 m 0,-7.9 v -7.93 m 0,-7.9 v -7.92 m 0,-7.92 v -7.92 m 0,-7.9 v -7.93 m 0,-7.9 v -7.92 m 0,-7.92 v -7.92 m 0,-7.9 v -7.93 m 0,-7.9 v -7.92 m 0,-7.92 V 520 h 4"
       id="path461"
       inkscape:connector-curvature="0"
       style="fill:none;stroke:#000000;stroke-width:2" />
    <path
       d="m 740,560 h 340 V 780 H 740 Z"
       id="path463"
       inkscape:connector-curvature="0"
       style="fill:#fcc438;stroke:#000000;stroke-width:2" />
    <use
       xlink:href="#a"
       transform="translate(784,678)"
       id="use465"
       x="0"
       y="0"
       width="100%"
       height="100%" />
    <use
       xlink:href="#b"
       transform="translate(889.66667,678)"
       id="use467"
       x="0"
       y="0"
       width="100%"
       height="100%" />
    <path
       d="M 260,740 H 420 V 860 H 260 Z"
       id="path469"
       inkscape:connector-curvature="0"
       style="fill:#99d2f2;stroke:#000000;stroke-width:2" />
    <use
       xlink:href="#c"
       transform="translate(296.075,792.8)"
       id="use471"
       x="0"
       y="0"
       width="100%"
       height="100%" />
    <use
       xlink:href="#d"
       transform="translate(273.15,814.4)"
       id="use473"
       x="0"
       y="0"
       width="100%"
       height="100%" />
    <use
       xlink:href="#e"
       transform="translate(344,814.4)"
       id="use475"
       x="0"
       y="0"
       width="100%"
       height="100%" />
    <path
       d="M 480,740 H 640 V 860 H 480 Z"
       id="path477"
       inkscape:connector-curvature="0"
       style="fill:#99d2f2;stroke:#000000;stroke-width:2" />
    <use
       xlink:href="#f"
       transform="translate(504.5,792.8)"
       id="use479"
       x="0"
       y="0"
       width="100%"
       height="100%" />
    <use
       xlink:href="#d"
       transform="translate(493.15,814.4)"
       id="use481"
       x="0"
       y="0"
       width="100%"
       height="100%" />
    <use
       xlink:href="#e"
       transform="translate(564,814.4)"
       id="use483"
       x="0"
       y="0"
       width="100%"
       height="100%" />
    <path
       d="m 260,940 h 160 v 120 H 260 Z"
       id="path485"
       inkscape:connector-curvature="0"
       style="fill:#fcc438;stroke:#000000;stroke-width:2" />
    <use
       xlink:href="#g"
       transform="translate(296.075,1003.6)"
       id="use487"
       x="0"
       y="0"
       width="100%"
       height="100%" />
    <path
       d="m 480,940 h 160 v 120 H 480 Z"
       id="path489"
       inkscape:connector-curvature="0"
       style="fill:#fcc438;stroke:#000000;stroke-width:2" />
    <use
       xlink:href="#h"
       transform="translate(504.5,1003.6)"
       id="use491"
       x="0"
       y="0"
       width="100%"
       height="100%" />
    <path
       d="M 739,670 H 560 v 50.76 M 739,670 h 3"
       id="path493"
       inkscape:connector-curvature="0"
       style="fill:none;stroke:#000000;stroke-width:2" />
    <path
       d="m 560,735.76 -4.64,-14.26 h 9.28 z"
       id="path495"
       inkscape:connector-curvature="0"
       style="stroke:#000000;stroke-width:2" />
    <path
       d="M 340,720.76 V 670 h 380.76"
       id="path497"
       inkscape:connector-curvature="0"
       style="fill:none;stroke:#000000;stroke-width:2" />
    <path
       d="m 340,735.76 -4.64,-14.26 h 9.28 z M 735.76,670 721.5,674.64 v -9.28 z"
       id="path499"
       inkscape:connector-curvature="0"
       style="stroke:#000000;stroke-width:2" />
    <path
       d="m 340,879.24 v 41.52"
       id="path501"
       inkscape:connector-curvature="0"
       style="fill:none;stroke:#000000;stroke-width:2" />
    <path
       d="m 340,864.24 4.64,14.26 h -9.28 z m 0,71.52 -4.64,-14.26 h 9.28 z"
       id="path503"
       inkscape:connector-curvature="0"
       style="stroke:#000000;stroke-width:2" />
    <path
       d="m 560,879.24 v 41.52"
       id="path505"
       inkscape:connector-curvature="0"
       style="fill:none;stroke:#000000;stroke-width:2" />
    <path
       d="m 560,864.24 4.64,14.26 h -9.28 z m 0,71.52 -4.64,-14.26 h 9.28 z"
       id="path507"
       inkscape:connector-curvature="0"
       style="stroke:#000000;stroke-width:2" />
    <path
       d="m 1180,740 h 160 v 120 h -160 z"
       id="path509"
       inkscape:connector-curvature="0"
       style="fill:#99d2f2;stroke:#000000;stroke-width:2" />
    <use
       xlink:href="#i"
       transform="translate(1187.075,792.8)"
       id="use511"
       x="0"
       y="0"
       width="100%"
       height="100%" />
    <use
       xlink:href="#j"
       transform="translate(1269.975,792.8)"
       id="use513"
       x="0"
       y="0"
       width="100%"
       height="100%" />
    <use
       xlink:href="#k"
       transform="translate(1232.1,814.4)"
       id="use515"
       x="0"
       y="0"
       width="100%"
       height="100%" />
    <path
       d="m 1400,740 h 160 v 120 h -160 z"
       id="path517"
       inkscape:connector-curvature="0"
       style="fill:#99d2f2;stroke:#000000;stroke-width:2" />
    <use
       xlink:href="#l"
       transform="translate(1430.425,792.8)"
       id="use519"
       x="0"
       y="0"
       width="100%"
       height="100%" />
    <use
       xlink:href="#j"
       transform="translate(1466.625,792.8)"
       id="use521"
       x="0"
       y="0"
       width="100%"
       height="100%" />
    <use
       xlink:href="#k"
       transform="translate(1452.1,814.4)"
       id="use523"
       x="0"
       y="0"
       width="100%"
       height="100%" />
    <path
       d="m 1180,940 h 160 v 120 h -160 z"
       id="path525"
       inkscape:connector-curvature="0"
       style="fill:#fcc438;stroke:#000000;stroke-width:2" />
    <use
       xlink:href="#m"
       transform="translate(1221.05,1003.6)"
       id="use527"
       x="0"
       y="0"
       width="100%"
       height="100%" />
    <path
       d="m 1400,940 h 160 v 120 h -160 z"
       id="path529"
       inkscape:connector-curvature="0"
       style="fill:#fcc438;stroke:#000000;stroke-width:2" />
    <use
       xlink:href="#n"
       transform="translate(1464.225,1003.6)"
       id="use531"
       x="0"
       y="0"
       width="100%"
       height="100%" />
    <path
       d="m 1260,879.24 v 41.52"
       id="path533"
       inkscape:connector-curvature="0"
       style="fill:none;stroke:#000000;stroke-width:2" />
    <path
       d="m 1260,864.24 4.64,14.26 h -9.28 z m 0,71.52 -4.64,-14.26 h 9.28 z"
       id="path535"
       inkscape:connector-curvature="0"
       style="stroke:#000000;stroke-width:2" />
    <path
       d="m 1480,879.24 v 41.52"
       id="path537"
       inkscape:connector-curvature="0"
       style="fill:none;stroke:#000000;stroke-width:2" />
    <path
       d="m 1480,864.24 4.64,14.26 h -9.28 z m 0,71.52 -4.64,-14.26 h 9.28 z"
       id="path539"
       inkscape:connector-curvature="0"
       style="stroke:#000000;stroke-width:2" />
    <path
       d="M 1099.24,670 H 1480 v 50.76"
       id="path541"
       inkscape:connector-curvature="0"
       style="fill:none;stroke:#000000;stroke-width:2" />
    <path
       d="m 1084.24,670 14.26,-4.64 v 9.28 z m 395.76,65.76 -4.64,-14.26 h 9.28 z"
       id="path543"
       inkscape:connector-curvature="0"
       style="stroke:#000000;stroke-width:2" />
    <path
       d="M 1260,720.76 V 670 h -160.76"
       id="path545"
       inkscape:connector-curvature="0"
       style="fill:none;stroke:#000000;stroke-width:2" />
    <path
       d="m 1260,735.76 -4.64,-14.26 h 9.28 z M 1084.24,670 l 14.26,-4.64 v 9.28 z"
       id="path547"
       inkscape:connector-curvature="0"
       style="stroke:#000000;stroke-width:2" />
    <path
       d="M 220,300 H 1600 V 420 H 220 Z"
       id="path549"
       inkscape:connector-curvature="0"
       style="fill:#e5e5e5;stroke:#000000;stroke-width:2" />
    <g
       id="g557">
      <use
         xlink:href="#o"
         transform="translate(691.62963,370.66667)"
         id="use551"
         x="0"
         y="0"
         width="100%"
         height="100%" />
      <use
         xlink:href="#p"
         transform="translate(832.51852,370.66667)"
         id="use553"
         x="0"
         y="0"
         width="100%"
         height="100%" />
      <use
         xlink:href="#q"
         transform="translate(1042.4444,370.66667)"
         id="use555"
         x="0"
         y="0"
         width="100%"
         height="100%" />
    </g>
    <g
       id="g561">
      <path
         d="m 580,420 v 64 h 20 l -40,36 -40,-36 h 20 v -64 z"
         id="path559"
         inkscape:connector-curvature="0"
         style="fill:#ffffff;stroke:#000000;stroke-width:2" />
    </g>
    <g
       id="g565">
      <path
         d="m 1280,420 v 64 h 20 l -40,36 -40,-36 h 20 v -64 z"
         id="path563"
         inkscape:connector-curvature="0"
         style="fill:#ffffff;stroke:#000000;stroke-width:2" />
    </g>
    <defs
       id="defs858">
      <path
         d="m 233,-177 c -1,41 -23,64 -60,70 L 243,0 H 205 L 140,-103 H 63 V 0 H 30 v -248 c 88,3 205,-21 203,71 z m -170,48 c 60,-2 137,13 137,-47 0,-61 -80,-42 -137,-45 v 92"
         id="r"
         inkscape:connector-curvature="0" />
      <path
         d="M 33,0 V -248 H 67 V 0 H 33"
         id="s"
         inkscape:connector-curvature="0" />
      <path
         d="m 140,-251 c 81,0 123,46 123,126 C 263,-46 219,4 140,4 59,4 17,-45 17,-125 c 0,-80 42,-126 123,-126 z m 0,227 c 63,0 89,-41 89,-101 0,-60 -29,-99 -89,-99 -61,0 -89,39 -89,99 0,60 28,100 89,101"
         id="t"
         inkscape:connector-curvature="0" />
      <path
         d="M 127,-220 V 0 H 93 V -220 H 8 v -28 h 204 v 28 h -85"
         id="u"
         inkscape:connector-curvature="0" />
      <g
         id="a">
        <use
           transform="scale(0.11111111)"
           xlink:href="#r"
           id="use571"
           x="0"
           y="0"
           width="100%"
           height="100%" />
        <use
           transform="matrix(0.11111111,0,0,0.11111111,28.777778,0)"
           xlink:href="#s"
           id="use573"
           x="0"
           y="0"
           width="100%"
           height="100%" />
        <use
           transform="matrix(0.11111111,0,0,0.11111111,39.888889,0)"
           xlink:href="#t"
           id="use575"
           x="0"
           y="0"
           width="100%"
           height="100%" />
        <use
           transform="matrix(0.11111111,0,0,0.11111111,71,0)"
           xlink:href="#u"
           id="use577"
           x="0"
           y="0"
           width="100%"
           height="100%" />
      </g>
      <path
         d="m 100,-194 c 63,0 86,42 84,106 H 49 c 0,40 14,67 53,68 26,1 43,-12 49,-29 l 28,8 C 168,-13 142,4 102,4 44,4 14,-33 15,-96 c 1,-61 26,-98 85,-98 z m 52,81 c 6,-60 -76,-77 -97,-28 -3,7 -6,17 -6,28 h 103"
         id="v"
         inkscape:connector-curvature="0" />
      <path
         d="M 177,-190 C 167,-65 218,103 67,71 44,65 29,51 23,28 L 55,23 C 70,70 155,55 144,-5 V -35 C 133,-14 115,1 83,1 29,1 15,-40 15,-95 c 0,-56 16,-97 71,-98 29,-1 48,16 59,35 1,-10 0,-23 2,-32 z M 94,-22 c 36,0 50,-32 50,-73 0,-42 -14,-75 -50,-75 -39,0 -46,34 -46,75 0,41 6,73 46,73"
         id="w"
         inkscape:connector-curvature="0" />
      <path
         d="m 24,-231 v -30 h 32 v 30 z M 24,0 V -190 H 56 V 0 H 24"
         id="x"
         inkscape:connector-curvature="0" />
      <path
         d="m 135,-143 c -3,-34 -86,-38 -87,0 15,53 115,12 119,90 4,78 -150,74 -157,8 l 28,-5 c 4,36 97,45 98,0 -10,-56 -113,-15 -118,-90 -4,-57 82,-63 122,-42 12,7 21,19 24,35"
         id="y"
         inkscape:connector-curvature="0" />
      <path
         d="m 59,-47 c -2,24 18,29 38,22 V -1 C 64,9 27,4 27,-40 V -167 H 5 v -23 h 24 l 9,-43 h 21 v 43 h 35 v 23 H 59 v 120"
         id="z"
         inkscape:connector-curvature="0" />
      <path
         d="M 114,-163 C 36,-179 61,-72 57,0 H 25 l -1,-190 h 30 c 1,12 -1,29 2,39 6,-27 23,-49 58,-41 v 29"
         id="A"
         inkscape:connector-curvature="0" />
      <path
         d="M 179,-190 93,31 C 79,59 56,82 12,73 V 49 C 51,55 65,29 76,-1 L 1,-190 h 34 l 57,156 54,-156 h 33"
         id="B"
         inkscape:connector-curvature="0" />
      <g
         id="b">
        <use
           transform="scale(0.11111111)"
           xlink:href="#r"
           id="use587"
           x="0"
           y="0"
           width="100%"
           height="100%" />
        <use
           transform="matrix(0.11111111,0,0,0.11111111,28.777778,0)"
           xlink:href="#v"
           id="use589"
           x="0"
           y="0"
           width="100%"
           height="100%" />
        <use
           transform="matrix(0.11111111,0,0,0.11111111,51,0)"
           xlink:href="#w"
           id="use591"
           x="0"
           y="0"
           width="100%"
           height="100%" />
        <use
           transform="matrix(0.11111111,0,0,0.11111111,73.222222,0)"
           xlink:href="#x"
           id="use593"
           x="0"
           y="0"
           width="100%"
           height="100%" />
        <use
           transform="matrix(0.11111111,0,0,0.11111111,82,0)"
           xlink:href="#y"
           id="use595"
           x="0"
           y="0"
           width="100%"
           height="100%" />
        <use
           transform="matrix(0.11111111,0,0,0.11111111,102,0)"
           xlink:href="#z"
           id="use597"
           x="0"
           y="0"
           width="100%"
           height="100%" />
        <use
           transform="matrix(0.11111111,0,0,0.11111111,113.11111,0)"
           xlink:href="#A"
           id="use599"
           x="0"
           y="0"
           width="100%"
           height="100%" />
        <use
           transform="matrix(0.11111111,0,0,0.11111111,126.33333,0)"
           xlink:href="#B"
           id="use601"
           x="0"
           y="0"
           width="100%"
           height="100%" />
      </g>
      <path
         d="M 205,0 177,-72 H 64 L 36,0 H 1 l 101,-248 h 38 L 239,0 Z m -38,-99 -47,-123 c -12,45 -31,82 -46,123 h 93"
         id="C"
         inkscape:connector-curvature="0" />
      <path
         d="m 115,-194 c 55,1 70,41 70,98 C 185,-39 169,2 115,4 84,4 66,-9 55,-30 L 56,75 H 24 l -1,-265 h 31 l 2,30 c 10,-21 28,-34 59,-34 z m -8,174 c 40,0 45,-34 45,-75 0,-41 -6,-73 -45,-74 -42,0 -51,32 -51,76 0,43 10,73 51,73"
         id="D"
         inkscape:connector-curvature="0" />
      <path
         d="M 24,0 V -261 H 56 V 0 H 24"
         id="E"
         inkscape:connector-curvature="0" />
      <path
         d="m 96,-169 c -40,0 -48,33 -48,73 0,40 9,75 48,75 24,0 41,-14 43,-38 l 32,2 C 165,-20 140,4 97,4 38,4 21,-37 15,-95 c -10,-93 101,-131 147,-64 4,7 5,14 7,22 l -32,3 c -4,-21 -16,-35 -41,-35"
         id="F"
         inkscape:connector-curvature="0" />
      <path
         d="M 141,-36 C 126,-15 110,5 73,4 37,3 15,-17 15,-53 c -1,-64 63,-63 125,-63 3,-35 -9,-54 -41,-54 -24,1 -41,7 -42,31 l -33,-3 c 5,-37 33,-52 76,-52 45,0 72,20 72,64 v 82 c -1,20 7,32 28,27 V -1 C 169,8 139,-3 141,-36 Z M 48,-53 c 0,20 12,33 32,33 41,-3 63,-29 60,-74 -43,2 -92,-5 -92,41"
         id="G"
         inkscape:connector-curvature="0" />
      <path
         d="m 100,-194 c 62,-1 85,37 85,99 1,63 -27,99 -86,99 -59,0 -83,-39 -84,-99 0,-66 28,-99 85,-99 z m -1,174 c 44,1 53,-31 53,-75 0,-43 -8,-75 -51,-75 -43,0 -53,32 -53,75 0,43 10,74 51,75"
         id="H"
         inkscape:connector-curvature="0" />
      <path
         d="m 117,-194 c 89,-4 53,116 60,194 h -32 v -121 c 0,-31 -8,-49 -39,-48 C 34,-167 62,-67 57,0 H 25 l -1,-190 h 30 c 1,10 -1,24 2,32 11,-22 29,-35 61,-36"
         id="I"
         inkscape:connector-curvature="0" />
      <g
         id="c">
        <use
           transform="scale(0.05)"
           xlink:href="#C"
           id="use611"
           x="0"
           y="0"
           width="100%"
           height="100%" />
        <use
           transform="matrix(0.05,0,0,0.05,12,0)"
           xlink:href="#D"
           id="use613"
           x="0"
           y="0"
           width="100%"
           height="100%" />
        <use
           transform="matrix(0.05,0,0,0.05,22,0)"
           xlink:href="#D"
           id="use615"
           x="0"
           y="0"
           width="100%"
           height="100%" />
        <use
           transform="matrix(0.05,0,0,0.05,32,0)"
           xlink:href="#E"
           id="use617"
           x="0"
           y="0"
           width="100%"
           height="100%" />
        <use
           transform="matrix(0.05,0,0,0.05,35.95,0)"
           xlink:href="#x"
           id="use619"
           x="0"
           y="0"
           width="100%"
           height="100%" />
        <use
           transform="matrix(0.05,0,0,0.05,39.9,0)"
           xlink:href="#F"
           id="use621"
           x="0"
           y="0"
           width="100%"
           height="100%" />
        <use
           transform="matrix(0.05,0,0,0.05,48.9,0)"
           xlink:href="#G"
           id="use623"
           x="0"
           y="0"
           width="100%"
           height="100%" />
        <use
           transform="matrix(0.05,0,0,0.05,58.9,0)"
           xlink:href="#z"
           id="use625"
           x="0"
           y="0"
           width="100%"
           height="100%" />
        <use
           transform="matrix(0.05,0,0,0.05,63.9,0)"
           xlink:href="#x"
           id="use627"
           x="0"
           y="0"
           width="100%"
           height="100%" />
        <use
           transform="matrix(0.05,0,0,0.05,67.85,0)"
           xlink:href="#H"
           id="use629"
           x="0"
           y="0"
           width="100%"
           height="100%" />
        <use
           transform="matrix(0.05,0,0,0.05,77.85,0)"
           xlink:href="#I"
           id="use631"
           x="0"
           y="0"
           width="100%"
           height="100%" />
      </g>
      <g
         id="d">
        <use
           transform="scale(0.05)"
           xlink:href="#r"
           id="use634"
           x="0"
           y="0"
           width="100%"
           height="100%" />
        <use
           transform="matrix(0.05,0,0,0.05,12.95,0)"
           xlink:href="#v"
           id="use636"
           x="0"
           y="0"
           width="100%"
           height="100%" />
        <use
           transform="matrix(0.05,0,0,0.05,22.95,0)"
           xlink:href="#w"
           id="use638"
           x="0"
           y="0"
           width="100%"
           height="100%" />
        <use
           transform="matrix(0.05,0,0,0.05,32.95,0)"
           xlink:href="#x"
           id="use640"
           x="0"
           y="0"
           width="100%"
           height="100%" />
        <use
           transform="matrix(0.05,0,0,0.05,36.9,0)"
           xlink:href="#y"
           id="use642"
           x="0"
           y="0"
           width="100%"
           height="100%" />
        <use
           transform="matrix(0.05,0,0,0.05,45.9,0)"
           xlink:href="#z"
           id="use644"
           x="0"
           y="0"
           width="100%"
           height="100%" />
        <use
           transform="matrix(0.05,0,0,0.05,50.9,0)"
           xlink:href="#A"
           id="use646"
           x="0"
           y="0"
           width="100%"
           height="100%" />
        <use
           transform="matrix(0.05,0,0,0.05,56.85,0)"
           xlink:href="#B"
           id="use648"
           x="0"
           y="0"
           width="100%"
           height="100%" />
      </g>
      <path
         d="M 197,0 V -115 H 63 V 0 H 30 v -248 h 33 v 105 h 134 v -105 h 34 V 0 h -34"
         id="J"
         inkscape:connector-curvature="0" />
      <path
         d="m 85,-194 c 31,0 48,13 60,33 l -1,-100 h 32 l 1,261 h -30 c -2,-10 0,-23 -3,-31 C 134,-8 116,4 85,4 32,4 16,-35 15,-94 c 0,-66 23,-100 70,-100 z m 9,24 c -40,0 -46,34 -46,75 0,40 6,74 45,74 42,0 51,-32 51,-76 0,-42 -9,-74 -50,-73"
         id="K"
         inkscape:connector-curvature="0" />
      <g
         id="e">
        <use
           transform="scale(0.05)"
           xlink:href="#J"
           id="use653"
           x="0"
           y="0"
           width="100%"
           height="100%" />
        <use
           transform="matrix(0.05,0,0,0.05,12.95,0)"
           xlink:href="#G"
           id="use655"
           x="0"
           y="0"
           width="100%"
           height="100%" />
        <use
           transform="matrix(0.05,0,0,0.05,22.95,0)"
           xlink:href="#I"
           id="use657"
           x="0"
           y="0"
           width="100%"
           height="100%" />
        <use
           transform="matrix(0.05,0,0,0.05,32.95,0)"
           xlink:href="#K"
           id="use659"
           x="0"
           y="0"
           width="100%"
           height="100%" />
        <use
           transform="matrix(0.05,0,0,0.05,42.95,0)"
           xlink:href="#E"
           id="use661"
           x="0"
           y="0"
           width="100%"
           height="100%" />
        <use
           transform="matrix(0.05,0,0,0.05,46.9,0)"
           xlink:href="#v"
           id="use663"
           x="0"
           y="0"
           width="100%"
           height="100%" />
        <use
           transform="matrix(0.05,0,0,0.05,56.9,0)"
           xlink:href="#A"
           id="use665"
           x="0"
           y="0"
           width="100%"
           height="100%" />
      </g>
      <path
         d="m 30,0 v -248 h 187 v 28 H 63 v 79 h 144 v 27 H 63 v 87 H 225 V 0 H 30"
         id="L"
         inkscape:connector-curvature="0" />
      <path
         d="m 134,-131 c 28,9 52,24 51,62 -1,50 -34,73 -85,73 -51,0 -83,-23 -84,-73 0,-36 21,-54 49,-61 -75,-25 -45,-126 34,-121 46,3 78,18 79,63 0,33 -17,51 -44,57 z m -34,-11 c 31,1 46,-15 46,-44 0,-28 -17,-43 -47,-42 -29,0 -46,13 -45,42 1,28 16,44 46,44 z m 1,122 c 35,0 51,-18 51,-52 0,-30 -18,-46 -53,-46 -33,0 -51,17 -51,47 0,34 19,51 53,51"
         id="M"
         inkscape:connector-curvature="0" />
      <path
         d="m 101,-251 c 68,0 85,55 85,127 0,72 -20,128 -86,128 -67,0 -86,-56 -86,-128 0,-73 17,-127 87,-127 z m -1,229 c 47,0 54,-49 54,-102 0,-53 -4,-102 -53,-102 -51,0 -55,48 -55,102 0,53 5,102 54,102"
         id="N"
         inkscape:connector-curvature="0" />
      <path
         d="m 101,-251 c 82,-7 93,87 43,132 L 82,-64 C 71,-53 59,-42 53,-27 H 182 V 0 H 18 c 2,-99 128,-94 128,-182 0,-28 -16,-43 -45,-43 -29,0 -46,15 -49,41 l -32,-3 c 6,-41 34,-60 81,-64"
         id="O"
         inkscape:connector-curvature="0" />
      <path
         d="M 33,0 V -38 H 67 V 0 H 33"
         id="P"
         inkscape:connector-curvature="0" />
      <path
         d="m 27,0 v -27 h 64 v -190 l -56,39 v -29 l 58,-41 h 29 v 221 h 61 V 0 H 27"
         id="Q"
         inkscape:connector-curvature="0" />
      <path
         d="m 54,-142 c 48,-35 137,-8 131,61 C 196,18 31,33 14,-55 l 32,-4 c 7,23 22,37 52,37 35,-1 51,-22 54,-58 4,-55 -73,-65 -99,-34 H 22 l 8,-134 h 141 v 27 H 59"
         id="R"
         inkscape:connector-curvature="0" />
      <path
         d="M 155,-56 V 0 H 125 V -56 H 8 v -25 l 114,-167 h 33 v 167 h 35 v 25 z m -30,-156 c -27,46 -58,90 -88,131 h 88 v -131"
         id="S"
         inkscape:connector-curvature="0" />
      <g
         id="f">
        <use
           transform="scale(0.05)"
           xlink:href="#s"
           id="use676"
           x="0"
           y="0"
           width="100%"
           height="100%" />
        <use
           transform="matrix(0.05,0,0,0.05,5,0)"
           xlink:href="#L"
           id="use678"
           x="0"
           y="0"
           width="100%"
           height="100%" />
        <use
           transform="matrix(0.05,0,0,0.05,17,0)"
           xlink:href="#L"
           id="use680"
           x="0"
           y="0"
           width="100%"
           height="100%" />
        <use
           transform="matrix(0.05,0,0,0.05,29,0)"
           xlink:href="#L"
           id="use682"
           x="0"
           y="0"
           width="100%"
           height="100%" />
        <use
           transform="matrix(0.05,0,0,0.05,41,0)"
           xlink:href="#M"
           id="use684"
           x="0"
           y="0"
           width="100%"
           height="100%" />
        <use
           transform="matrix(0.05,0,0,0.05,51,0)"
           xlink:href="#N"
           id="use686"
           x="0"
           y="0"
           width="100%"
           height="100%" />
        <use
           transform="matrix(0.05,0,0,0.05,61,0)"
           xlink:href="#O"
           id="use688"
           x="0"
           y="0"
           width="100%"
           height="100%" />
        <use
           transform="matrix(0.05,0,0,0.05,71,0)"
           xlink:href="#P"
           id="use690"
           x="0"
           y="0"
           width="100%"
           height="100%" />
        <use
           transform="matrix(0.05,0,0,0.05,76,0)"
           xlink:href="#Q"
           id="use692"
           x="0"
           y="0"
           width="100%"
           height="100%" />
        <use
           transform="matrix(0.05,0,0,0.05,86,0)"
           xlink:href="#R"
           id="use694"
           x="0"
           y="0"
           width="100%"
           height="100%" />
        <use
           transform="matrix(0.05,0,0,0.05,96,0)"
           xlink:href="#P"
           id="use696"
           x="0"
           y="0"
           width="100%"
           height="100%" />
        <use
           transform="matrix(0.05,0,0,0.05,101,0)"
           xlink:href="#S"
           id="use698"
           x="0"
           y="0"
           width="100%"
           height="100%" />
      </g>
      <g
         id="g">
        <use
           transform="scale(0.05)"
           xlink:href="#C"
           id="use701"
           x="0"
           y="0"
           width="100%"
           height="100%" />
        <use
           transform="matrix(0.05,0,0,0.05,12,0)"
           xlink:href="#D"
           id="use703"
           x="0"
           y="0"
           width="100%"
           height="100%" />
        <use
           transform="matrix(0.05,0,0,0.05,22,0)"
           xlink:href="#D"
           id="use705"
           x="0"
           y="0"
           width="100%"
           height="100%" />
        <use
           transform="matrix(0.05,0,0,0.05,32,0)"
           xlink:href="#E"
           id="use707"
           x="0"
           y="0"
           width="100%"
           height="100%" />
        <use
           transform="matrix(0.05,0,0,0.05,35.95,0)"
           xlink:href="#x"
           id="use709"
           x="0"
           y="0"
           width="100%"
           height="100%" />
        <use
           transform="matrix(0.05,0,0,0.05,39.9,0)"
           xlink:href="#F"
           id="use711"
           x="0"
           y="0"
           width="100%"
           height="100%" />
        <use
           transform="matrix(0.05,0,0,0.05,48.9,0)"
           xlink:href="#G"
           id="use713"
           x="0"
           y="0"
           width="100%"
           height="100%" />
        <use
           transform="matrix(0.05,0,0,0.05,58.9,0)"
           xlink:href="#z"
           id="use715"
           x="0"
           y="0"
           width="100%"
           height="100%" />
        <use
           transform="matrix(0.05,0,0,0.05,63.9,0)"
           xlink:href="#x"
           id="use717"
           x="0"
           y="0"
           width="100%"
           height="100%" />
        <use
           transform="matrix(0.05,0,0,0.05,67.85,0)"
           xlink:href="#H"
           id="use719"
           x="0"
           y="0"
           width="100%"
           height="100%" />
        <use
           transform="matrix(0.05,0,0,0.05,77.85,0)"
           xlink:href="#I"
           id="use721"
           x="0"
           y="0"
           width="100%"
           height="100%" />
      </g>
      <g
         id="h">
        <use
           transform="scale(0.05)"
           xlink:href="#s"
           id="use724"
           x="0"
           y="0"
           width="100%"
           height="100%" />
        <use
           transform="matrix(0.05,0,0,0.05,5,0)"
           xlink:href="#L"
           id="use726"
           x="0"
           y="0"
           width="100%"
           height="100%" />
        <use
           transform="matrix(0.05,0,0,0.05,17,0)"
           xlink:href="#L"
           id="use728"
           x="0"
           y="0"
           width="100%"
           height="100%" />
        <use
           transform="matrix(0.05,0,0,0.05,29,0)"
           xlink:href="#L"
           id="use730"
           x="0"
           y="0"
           width="100%"
           height="100%" />
        <use
           transform="matrix(0.05,0,0,0.05,41,0)"
           xlink:href="#M"
           id="use732"
           x="0"
           y="0"
           width="100%"
           height="100%" />
        <use
           transform="matrix(0.05,0,0,0.05,51,0)"
           xlink:href="#N"
           id="use734"
           x="0"
           y="0"
           width="100%"
           height="100%" />
        <use
           transform="matrix(0.05,0,0,0.05,61,0)"
           xlink:href="#O"
           id="use736"
           x="0"
           y="0"
           width="100%"
           height="100%" />
        <use
           transform="matrix(0.05,0,0,0.05,71,0)"
           xlink:href="#P"
           id="use738"
           x="0"
           y="0"
           width="100%"
           height="100%" />
        <use
           transform="matrix(0.05,0,0,0.05,76,0)"
           xlink:href="#Q"
           id="use740"
           x="0"
           y="0"
           width="100%"
           height="100%" />
        <use
           transform="matrix(0.05,0,0,0.05,86,0)"
           xlink:href="#R"
           id="use742"
           x="0"
           y="0"
           width="100%"
           height="100%" />
        <use
           transform="matrix(0.05,0,0,0.05,96,0)"
           xlink:href="#P"
           id="use744"
           x="0"
           y="0"
           width="100%"
           height="100%" />
        <use
           transform="matrix(0.05,0,0,0.05,101,0)"
           xlink:href="#S"
           id="use746"
           x="0"
           y="0"
           width="100%"
           height="100%" />
      </g>
      <path
         d="m 30,-248 c 87,1 191,-15 191,75 0,78 -77,80 -158,76 V 0 H 30 Z m 33,125 c 57,0 124,11 124,-50 0,-59 -68,-47 -124,-48 v 98"
         id="T"
         inkscape:connector-curvature="0" />
      <path
         d="m 240,0 2,-218 C 219,-142 188,-73 162,0 H 139 L 58,-218 59,0 H 30 v -248 h 44 l 77,211 c 21,-75 51,-140 76,-211 h 43 V 0 h -30"
         id="U"
         inkscape:connector-curvature="0" />
      <g
         id="i">
        <use
           transform="scale(0.05)"
           xlink:href="#L"
           id="use751"
           x="0"
           y="0"
           width="100%"
           height="100%" />
        <use
           transform="matrix(0.05,0,0,0.05,12,0)"
           xlink:href="#L"
           id="use753"
           x="0"
           y="0"
           width="100%"
           height="100%" />
        <use
           transform="matrix(0.05,0,0,0.05,24,0)"
           xlink:href="#T"
           id="use755"
           x="0"
           y="0"
           width="100%"
           height="100%" />
        <use
           transform="matrix(0.05,0,0,0.05,36,0)"
           xlink:href="#r"
           id="use757"
           x="0"
           y="0"
           width="100%"
           height="100%" />
        <use
           transform="matrix(0.05,0,0,0.05,48.95,0)"
           xlink:href="#t"
           id="use759"
           x="0"
           y="0"
           width="100%"
           height="100%" />
        <use
           transform="matrix(0.05,0,0,0.05,62.95,0)"
           xlink:href="#U"
           id="use761"
           x="0"
           y="0"
           width="100%"
           height="100%" />
      </g>
      <path
         d="m 185,-189 c -5,-48 -123,-54 -124,2 14,75 158,14 163,119 C 227,10 103,19 49,-13 32,-23 21,-39 16,-59 l 33,-7 c 5,56 141,63 141,-1 0,-78 -155,-14 -162,-118 -5,-82 145,-84 179,-34 5,7 8,16 11,25"
         id="V"
         inkscape:connector-curvature="0" />
      <g
         id="j">
        <use
           transform="scale(0.05)"
           xlink:href="#V"
           id="use765"
           x="0"
           y="0"
           width="100%"
           height="100%" />
        <use
           transform="matrix(0.05,0,0,0.05,12,0)"
           xlink:href="#z"
           id="use767"
           x="0"
           y="0"
           width="100%"
           height="100%" />
        <use
           transform="matrix(0.05,0,0,0.05,17,0)"
           xlink:href="#H"
           id="use769"
           x="0"
           y="0"
           width="100%"
           height="100%" />
        <use
           transform="matrix(0.05,0,0,0.05,27,0)"
           xlink:href="#A"
           id="use771"
           x="0"
           y="0"
           width="100%"
           height="100%" />
        <use
           transform="matrix(0.05,0,0,0.05,32.95,0)"
           xlink:href="#G"
           id="use773"
           x="0"
           y="0"
           width="100%"
           height="100%" />
        <use
           transform="matrix(0.05,0,0,0.05,42.95,0)"
           xlink:href="#w"
           id="use775"
           x="0"
           y="0"
           width="100%"
           height="100%" />
        <use
           transform="matrix(0.05,0,0,0.05,52.95,0)"
           xlink:href="#v"
           id="use777"
           x="0"
           y="0"
           width="100%"
           height="100%" />
      </g>
      <path
         d="m 63,-220 v 92 h 138 v 28 H 63 V 0 H 30 v -248 h 175 v 28 H 63"
         id="W"
         inkscape:connector-curvature="0" />
      <g
         id="k">
        <use
           transform="scale(0.05)"
           xlink:href="#W"
           id="use781"
           x="0"
           y="0"
           width="100%"
           height="100%" />
        <use
           transform="matrix(0.05,0,0,0.05,10.95,0)"
           xlink:href="#G"
           id="use783"
           x="0"
           y="0"
           width="100%"
           height="100%" />
        <use
           transform="matrix(0.05,0,0,0.05,20.95,0)"
           xlink:href="#F"
           id="use785"
           x="0"
           y="0"
           width="100%"
           height="100%" />
        <use
           transform="matrix(0.05,0,0,0.05,29.95,0)"
           xlink:href="#x"
           id="use787"
           x="0"
           y="0"
           width="100%"
           height="100%" />
        <use
           transform="matrix(0.05,0,0,0.05,33.9,0)"
           xlink:href="#E"
           id="use789"
           x="0"
           y="0"
           width="100%"
           height="100%" />
        <use
           transform="matrix(0.05,0,0,0.05,37.85,0)"
           xlink:href="#x"
           id="use791"
           x="0"
           y="0"
           width="100%"
           height="100%" />
        <use
           transform="matrix(0.05,0,0,0.05,41.8,0)"
           xlink:href="#z"
           id="use793"
           x="0"
           y="0"
           width="100%"
           height="100%" />
        <use
           transform="matrix(0.05,0,0,0.05,46.8,0)"
           xlink:href="#B"
           id="use795"
           x="0"
           y="0"
           width="100%"
           height="100%" />
      </g>
      <g
         id="l">
        <use
           transform="scale(0.05)"
           xlink:href="#W"
           id="use798"
           x="0"
           y="0"
           width="100%"
           height="100%" />
        <use
           transform="matrix(0.05,0,0,0.05,9.95,0)"
           xlink:href="#C"
           id="use800"
           x="0"
           y="0"
           width="100%"
           height="100%" />
        <use
           transform="matrix(0.05,0,0,0.05,20.6,0)"
           xlink:href="#u"
           id="use802"
           x="0"
           y="0"
           width="100%"
           height="100%" />
      </g>
      <g
         id="m">
        <use
           transform="scale(0.05)"
           xlink:href="#L"
           id="use805"
           x="0"
           y="0"
           width="100%"
           height="100%" />
        <use
           transform="matrix(0.05,0,0,0.05,12,0)"
           xlink:href="#L"
           id="use807"
           x="0"
           y="0"
           width="100%"
           height="100%" />
        <use
           transform="matrix(0.05,0,0,0.05,24,0)"
           xlink:href="#T"
           id="use809"
           x="0"
           y="0"
           width="100%"
           height="100%" />
        <use
           transform="matrix(0.05,0,0,0.05,36,0)"
           xlink:href="#r"
           id="use811"
           x="0"
           y="0"
           width="100%"
           height="100%" />
        <use
           transform="matrix(0.05,0,0,0.05,48.95,0)"
           xlink:href="#t"
           id="use813"
           x="0"
           y="0"
           width="100%"
           height="100%" />
        <use
           transform="matrix(0.05,0,0,0.05,62.95,0)"
           xlink:href="#U"
           id="use815"
           x="0"
           y="0"
           width="100%"
           height="100%" />
      </g>
      <g
         id="n">
        <use
           transform="scale(0.05)"
           xlink:href="#W"
           id="use818"
           x="0"
           y="0"
           width="100%"
           height="100%" />
        <use
           transform="matrix(0.05,0,0,0.05,9.95,0)"
           xlink:href="#C"
           id="use820"
           x="0"
           y="0"
           width="100%"
           height="100%" />
        <use
           transform="matrix(0.05,0,0,0.05,20.6,0)"
           xlink:href="#u"
           id="use822"
           x="0"
           y="0"
           width="100%"
           height="100%" />
      </g>
      <g
         id="o">
        <use
           transform="scale(0.14814815)"
           xlink:href="#r"
           id="use825"
           x="0"
           y="0"
           width="100%"
           height="100%" />
        <use
           transform="matrix(0.14814815,0,0,0.14814815,38.37037,0)"
           xlink:href="#s"
           id="use827"
           x="0"
           y="0"
           width="100%"
           height="100%" />
        <use
           transform="matrix(0.14814815,0,0,0.14814815,53.185185,0)"
           xlink:href="#t"
           id="use829"
           x="0"
           y="0"
           width="100%"
           height="100%" />
        <use
           transform="matrix(0.14814815,0,0,0.14814815,94.666667,0)"
           xlink:href="#u"
           id="use831"
           x="0"
           y="0"
           width="100%"
           height="100%" />
      </g>
      <g
         id="p">
        <use
           transform="scale(0.14814815)"
           xlink:href="#r"
           id="use834"
           x="0"
           y="0"
           width="100%"
           height="100%" />
        <use
           transform="matrix(0.14814815,0,0,0.14814815,38.37037,0)"
           xlink:href="#v"
           id="use836"
           x="0"
           y="0"
           width="100%"
           height="100%" />
        <use
           transform="matrix(0.14814815,0,0,0.14814815,68,0)"
           xlink:href="#w"
           id="use838"
           x="0"
           y="0"
           width="100%"
           height="100%" />
        <use
           transform="matrix(0.14814815,0,0,0.14814815,97.62963,0)"
           xlink:href="#x"
           id="use840"
           x="0"
           y="0"
           width="100%"
           height="100%" />
        <use
           transform="matrix(0.14814815,0,0,0.14814815,109.33333,0)"
           xlink:href="#y"
           id="use842"
           x="0"
           y="0"
           width="100%"
           height="100%" />
        <use
           transform="matrix(0.14814815,0,0,0.14814815,136,0)"
           xlink:href="#z"
           id="use844"
           x="0"
           y="0"
           width="100%"
           height="100%" />
        <use
           transform="matrix(0.14814815,0,0,0.14814815,150.81481,0)"
           xlink:href="#A"
           id="use846"
           x="0"
           y="0"
           width="100%"
           height="100%" />
        <use
           transform="matrix(0.14814815,0,0,0.14814815,168.44444,0)"
           xlink:href="#B"
           id="use848"
           x="0"
           y="0"
           width="100%"
           height="100%" />
      </g>
      <g
         id="q">
        <use
           transform="scale(0.14814815)"
           xlink:href="#C"
           id="use851"
           x="0"
           y="0"
           width="100%"
           height="100%" />
        <use
           transform="matrix(0.14814815,0,0,0.14814815,35.555556,0)"
           xlink:href="#T"
           id="use853"
           x="0"
           y="0"
           width="100%"
           height="100%" />
        <use
           transform="matrix(0.14814815,0,0,0.14814815,71.111111,0)"
           xlink:href="#s"
           id="use855"
           x="0"
           y="0"
           width="100%"
           height="100%" />
      </g>
    </defs>
  </g>
</svg>
