<?xml version="1.0" encoding="UTF-8" standalone="no"?>
<!-- Created with Inkscape (http://www.inkscape.org/) -->

<svg
   width="669.29572"
   height="322.92645"
   viewBox="0 0 820.98018 396.11224"
   version="1.1"
   inkscape:version="1.3.2 (091e20ef0f, 2023-11-25, custom)"
   sodipodi:docname="vision.svg"
   xml:space="preserve"
   id="svg1"
   xmlns:inkscape="http://www.inkscape.org/namespaces/inkscape"
   xmlns:sodipodi="http://sodipodi.sourceforge.net/DTD/sodipodi-0.dtd"
   xmlns="http://www.w3.org/2000/svg"
   xmlns:svg="http://www.w3.org/2000/svg"
   xmlns:rdf="http://www.w3.org/1999/02/22-rdf-syntax-ns#"
   xmlns:cc="http://creativecommons.org/ns#"
   xmlns:dc="http://purl.org/dc/elements/1.1/"><title
     id="title1">RIOT Vision: From manufacturer silos to a truly open cyber-physical system</title><sodipodi:namedview
     id="base"
     pagecolor="#000000"
     bordercolor="#666666"
     borderopacity="1.0"
     inkscape:pageopacity="0"
     inkscape:pageshadow="2"
     inkscape:zoom="2"
     inkscape:cx="335.75"
     inkscape:cy="190"
     inkscape:document-units="px"
     showgrid="true"
     units="px"
     fit-margin-top="5"
     fit-margin-right="5"
     fit-margin-left="5"
     fit-margin-bottom="5"
     inkscape:window-width="2512"
     inkscape:window-height="1380"
     inkscape:window-x="1968"
     inkscape:window-y="32"
     inkscape:window-maximized="1"
     inkscape:showpageshadow="0"
     inkscape:pagecheckerboard="1"
     inkscape:deskcolor="#d1d1d1"
     inkscape:current-layer="layer1" /><metadata
     id="metadata1"><rdf:RDF><cc:Work
         rdf:about=""><dc:format>image/svg+xml</dc:format><dc:type
           rdf:resource="http://purl.org/dc/dcmitype/StillImage" /><dc:title>RIOT Vision: From manufacturer silos to a truly open cyber-physical system</dc:title><dc:date>2024-03-21</dc:date><dc:creator><cc:Agent><dc:title>Martine S. Lenders</dc:title></cc:Agent></dc:creator><cc:license
           rdf:resource="http://creativecommons.org/licenses/by/4.0/" /></cc:Work><cc:License
         rdf:about="http://creativecommons.org/licenses/by/4.0/"><cc:permits
           rdf:resource="http://creativecommons.org/ns#Reproduction" /><cc:permits
           rdf:resource="http://creativecommons.org/ns#Distribution" /><cc:requires
           rdf:resource="http://creativecommons.org/ns#Notice" /><cc:requires
           rdf:resource="http://creativecommons.org/ns#Attribution" /><cc:permits
           rdf:resource="http://creativecommons.org/ns#DerivativeWorks" /></cc:License></rdf:RDF></metadata><defs
     id="defs1"><style
       type="text/css"
       id="style1"><![CDATA[.vision-component-fill {
  fill: #40a687;
  fill-opacity: 1;
  stroke: none;
}
.vision-component-line {
  fill: none;
  stroke: #40a687;
  stroke-width: 2;
  stroke-linecap: round;
  stroke-miterlimit: 4;
  stroke-opacity: 1;
}
#vision-division-line {
  fill: none;
  stroke: black;
  stroke-width: 3;
  stroke-linecap: round;
  stroke-miterlimit: 4;
  stroke-opacity: 1;
}
.vision-house-line {
  fill: none;
  stroke: black;
  stroke-width: 3;
  stroke-linecap: butt;
  stroke-miterlimit: 4;
  stroke-opacity: 1;
}
.vision-network-line {
  fill: none;
  stroke: #bc202a;
  stroke-width: 3;
  stroke-linecap: round;
  stroke-linejoin: miter;
  stroke-miterlimit: 4;
  stroke-opacity: 1;
}
.vision-text {
  fill: black;
  stroke: none;
}
#vision-silo-division {
  fill: none;
  stroke: #bc202a;
  stroke-width: 5;
  stroke-linecap: butt;
  stroke-linejoin: miter;
  stroke-miterlimit: 4;
  stroke-dasharray: 5, 8;
  stroke-opacity: 1;
}]]></style><path
       d="m 0,0 c 0.6,0.45 0.96,1.17 1.02,1.92 0.06,0.75 -0.21,1.5 -0.75,2.04 l -1.53,1.53 c -0.84,0.87 -1.32,2.01 -1.32,3.21 v 2.4 c 0,0.54 0.45,0.96 0.96,0.96 0.54,0 0.96,-0.42 0.96,-0.96 v -2.4 c 0,-0.69 0.27,-1.35 0.78,-1.86 l 1.5,-1.53 c 0.93,-0.93 1.41,-2.22 1.32,-3.54 -0.09,-1.29 -0.75,-2.49 -1.8,-3.3 -1.02,-0.78 -2.37,-1.11 -3.66,-0.84 -1.26,0.27 -2.37,1.05 -3.03,2.19 -0.27,0.45 -0.12,1.05 0.33,1.32 0.48,0.27 1.05,0.09 1.32,-0.36 0.39,-0.66 1.02,-1.11 1.77,-1.26 0.75,-0.15 1.53,0.03 2.13,0.48 z m -0.36,15.6 c 0,-0.69 -0.57,-1.26 -1.26,-1.26 -0.69,0 -1.26,0.57 -1.26,1.26 0,0.69 0.57,1.26 1.26,1.26 0.69,0 1.26,-0.57 1.26,-1.26 z"
       id="proprietary-os-path"
       aria-label="?"
       class="vision-text" /><path
       d="m 0,0 v -115 l 180,-80 180,80 v 115 H 65 v 0 z"
       id="house-path"
       class="vision-house-line" /><path
       d="m 0,0 c -6.68,0.01 -12.85,3.54 -16.24,9.3 -2.28,-1.14 -4.8,-1.74 -7.35,-1.75 -7.54,0.01 -14.11,5.12 -15.98,12.42 -7.62,1.75 -13.03,8.54 -13.04,16.36 0.01,8.75 5.57,12.86 15.44,16.74 9.87,3.88 24.96,5.31 41,5.32 C 28.64,58.38 50.18,51.37 54.74,47.31 c 4.56,-4.06 5.4,-7.88 5.41,-12.66 0,-9.69 -7.86,-17.55 -17.55,-17.55 -1.42,0.01 -2.83,0.18 -4.2,0.53 -2.59,-5.87 -8.4,-9.66 -14.82,-9.67 -2.48,0 -4.93,0.58 -7.16,1.68 -3.34,-5.94 -9.62,-9.63 -16.43,-9.64 z"
       id="cloud-path"
       class="vision-component-line" /><path
       id="phone-path"
       d="M 37 -0 A 11 11 0 0 0 26 11 L 26 117 A 11 11 0 0 0 37 128 L 91 128 A 11 11 0 0 0 102 117 L 102 11 A 11 11 0 0 0 91 -0 L 37 -0 z M 37 6 L 91 6 A 5 5 0 0 1 96 11 L 96 16.69 L 32 16.69 L 32 11 A 5 5 0 0 1 37 6 z M 56.13 8.22 A 3 3 0 1 0 56.13 14.22 L 71.88 14.22 A 3 3 0 1 0 71.88 8.22 L 56.13 8.22 z M 32 22.69 L 96 22.69 L 96 99.58 L 32 99.58 L 32 22.69 z M 64 107.55 A 6 6 0 0 1 70 113.55 A 6 6 0 0 1 64 119.55 A 6 6 0 0 1 58 113.55 A 6 6 0 0 1 64 107.55 z"
       class="vision-component-fill" /><g
       id="gw-path"><circle
         cx="0"
         cy="0"
         r="3"
         class="vision-component-line"
         id="circle1" /><path
         sodipodi:type="arc"
         sodipodi:cx="0"
         sodipodi:cy="0"
         sodipodi:rx="10"
         sodipodi:ry="10"
         sodipodi:start="5.846853"
         sodipodi:end="0.43633231"
         sodipodi:open="true"
         sodipodi:arc-type="arc"
         d="m 10.898681,-4.6488008 a 11,11 0 0 1 0,9.2976016"
         class="vision-component-line"
         id="path1" /><path
         d="m 18.126156,-8.4523651 a 20,20 0 0 1 0,16.9047303"
         sodipodi:arc-type="arc"
         sodipodi:type="arc"
         sodipodi:cx="0"
         sodipodi:cy="0"
         sodipodi:rx="17"
         sodipodi:ry="17"
         sodipodi:start="5.846853"
         sodipodi:end="0.43633231"
         class="vision-component-line"
         id="path2" /><path
         d="M 0,4 V 18"
         class="vision-component-line"
         id="path3" /><rect
         width="40"
         height="14"
         x="-7.0774431"
         y="18.000002"
         rx="5"
         class="vision-component-line"
         id="rect3" /><path
         d="M -0.1,25 H 0"
         class="vision-component-line"
         id="path4" /><path
         d="M 26,25 H 7"
         class="vision-component-line"
         id="path5" /></g><g
       id="heater-path"
       transform="matrix(0.85062632,0,0,0.85062632,0,0.59749471)"><path
         d="m 57.5,17 c 1.38,0 2.5,-1.12 2.5,-2.5 v -3 C 60,10.12 58.88,9 57.5,9 56.12,9 55,10.12 55,11.5 V 12 H 54 V 9 H 51 V 8 C 51,5.79 49.21,4 47,4 44.79,4 43,5.79 43,8 v 1 c 0,0.55 -0.45,1 -1,1 -0.55,0 -1,-0.45 -1,-1 V 8 C 41,5.79 39.21,4 37,4 34.79,4 33,5.79 33,8 v 1 c 0,0.55 -0.45,1 -1,1 -0.55,0 -1,-0.45 -1,-1 V 8 C 31,5.79 29.21,4 27,4 24.79,4 23,5.79 23,8 v 1 c 0,0.55 -0.45,1 -1,1 -0.55,0 -1,-0.45 -1,-1 V 8 C 21,5.79 19.21,4 17,4 14.79,4 13,5.79 13,8 v 1 c 0,0.55 -0.45,1 -1,1 -0.55,0 -1,-0.45 -1,-1 V 8 C 11,5.79 9.21,4 7,4 4.79,4 3,5.79 3,8 v 2 H 0 v 7 H 3 V 43 H 0 v 7 h 3 v 2 c 0,2.21 1.79,4 4,4 2.21,0 4,-1.79 4,-4 v -1 c 0,-0.55 0.45,-1 1,-1 0.55,0 1,0.45 1,1 v 1 c 0,2.21 1.79,4 4,4 2.21,0 4,-1.79 4,-4 v -1 c 0,-0.55 0.45,-1 1,-1 0.55,0 1,0.45 1,1 v 1 c 0,2.21 1.79,4 4,4 2.21,0 4,-1.79 4,-4 v -1 c 0,-0.55 0.45,-1 1,-1 0.55,0 1,0.45 1,1 v 1 c 0,2.21 1.79,4 4,4 2.21,0 4,-1.79 4,-4 v -1 c 0,-0.55 0.45,-1 1,-1 0.55,0 1,0.45 1,1 v 1 c 0,2.21 1.79,4 4,4 2.21,0 4,-1.79 4,-4 v -2 h 3 v -1 h 6 V 44 H 54 V 43 H 51 V 17 h 3 v -3 h 1 v 0.5 c 0,1.38 1.12,2.5 2.5,2.5 z M 2,15 v -3 h 1 v 3 z m 0,33 v -3 h 1 v 3 z m 56,-2 v 1 h -4 v -1 z m -6,-1 v 3 h -1 v -3 z m -3,-2 v 7 2 c 0,1.1 -0.9,2 -2,2 -1.1,0 -2,-0.9 -2,-2 v -1 c 0,-1.65 -1.35,-3 -3,-3 -1.65,0 -3,1.35 -3,3 v 1 c 0,1.1 -0.9,2 -2,2 -1.1,0 -2,-0.9 -2,-2 v -1 c 0,-1.65 -1.35,-3 -3,-3 -1.65,0 -3,1.35 -3,3 v 1 c 0,1.1 -0.9,2 -2,2 -1.1,0 -2,-0.9 -2,-2 v -1 c 0,-1.65 -1.35,-3 -3,-3 -1.65,0 -3,1.35 -3,3 v 1 c 0,1.1 -0.9,2 -2,2 -1.1,0 -2,-0.9 -2,-2 v -1 c 0,-1.65 -1.35,-3 -3,-3 -1.65,0 -3,1.35 -3,3 v 1 C 9,53.1 8.1,54 7,54 5.9,54 5,53.1 5,52 V 50 43 17 10 8 C 5,6.9 5.9,6 7,6 8.1,6 9,6.9 9,8 v 1 c 0,1.65 1.35,3 3,3 1.65,0 3,-1.35 3,-3 V 8 c 0,-1.1 0.9,-2 2,-2 1.1,0 2,0.9 2,2 v 1 c 0,1.65 1.35,3 3,3 1.65,0 3,-1.35 3,-3 V 8 c 0,-1.1 0.9,-2 2,-2 1.1,0 2,0.9 2,2 v 1 c 0,1.65 1.35,3 3,3 1.65,0 3,-1.35 3,-3 V 8 c 0,-1.1 0.9,-2 2,-2 1.1,0 2,0.9 2,2 v 1 c 0,1.65 1.35,3 3,3 1.65,0 3,-1.35 3,-3 V 8 c 0,-1.1 0.9,-2 2,-2 1.1,0 2,0.9 2,2 v 1 8 z m 3,-28 h -1 v -4 h 1 z m 5,-3.5 c 0,-0.28 0.23,-0.5 0.5,-0.5 0.28,0 0.5,0.23 0.5,0.5 v 3 C 58,14.78 57.77,15 57.5,15 57.23,15 57,14.78 57,14.5 Z"
         class="vision-component-fill"
         id="path6" /><path
         d="m 12,14 c -1.65,0 -3,1.35 -3,3 v 26 c 0,1.65 1.35,3 3,3 1.65,0 3,-1.35 3,-3 V 17 c 0,-1.65 -1.35,-3 -3,-3 z m 1,29 c 0,0.55 -0.45,1 -1,1 -0.55,0 -1,-0.45 -1,-1 V 17 c 0,-0.55 0.45,-1 1,-1 0.55,0 1,0.45 1,1 z"
         class="vision-component-fill"
         id="path7" /><path
         d="m 22,14 c -1.65,0 -3,1.35 -3,3 v 26 c 0,1.65 1.35,3 3,3 1.65,0 3,-1.35 3,-3 V 17 c 0,-1.65 -1.35,-3 -3,-3 z m 1,29 c 0,0.55 -0.45,1 -1,1 -0.55,0 -1,-0.45 -1,-1 V 17 c 0,-0.55 0.45,-1 1,-1 0.55,0 1,0.45 1,1 z"
         class="vision-component-fill"
         id="path8" /><path
         d="m 32,14 c -1.65,0 -3,1.35 -3,3 v 26 c 0,1.65 1.35,3 3,3 1.65,0 3,-1.35 3,-3 V 17 c 0,-1.65 -1.35,-3 -3,-3 z m 1,29 c 0,0.55 -0.45,1 -1,1 -0.55,0 -1,-0.45 -1,-1 V 17 c 0,-0.55 0.45,-1 1,-1 0.55,0 1,0.45 1,1 z"
         class="vision-component-fill"
         id="path9" /><path
         d="m 42,14 c -1.65,0 -3,1.35 -3,3 v 26 c 0,1.65 1.35,3 3,3 1.65,0 3,-1.35 3,-3 V 17 c 0,-1.65 -1.35,-3 -3,-3 z m 1,29 c 0,0.55 -0.45,1 -1,1 -0.55,0 -1,-0.45 -1,-1 V 17 c 0,-0.55 0.45,-1 1,-1 0.55,0 1,0.45 1,1 z"
         class="vision-component-fill"
         id="path10" /></g><g
       id="light-path"><path
         d="m 386.43,475.12 c -6.82,-7.54 -14.89,-2.08 -16.69,-0.15 -1.81,1.93 -2.39,3.5 -3.14,7.66 -0.58,3.2 0.56,3.33 -3.73,7.31 -0.62,0.58 -0.92,1.5 -0.92,1.5 0,0 -0.03,2.73 1.7,4.45 1.73,1.73 4.37,2.36 5.19,1.86 0.82,-0.5 2.34,-1.93 4.64,-3.15 1.31,-0.7 7.41,-0.15 10.52,-2.07 3.29,-2.04 9.33,-9.8 2.44,-17.4 z"
         class="vision-component-line"
         id="path11" /><path
         d="m 361,492.37 c 0,0 -0.48,2.87 1.23,4.64 1.28,1.33 3.16,2.35 4.85,2.01"
         class="vision-component-line"
         id="path12" /><path
         d="m 368.03,498.01 c 0,0 -2.5,0.64 -4.64,-1.87 -2.14,-2.51 -1.51,-4.65 -1.51,-4.65 0,0 -0.4,0.22 -0.64,0.69 -0.29,0.09 -0.59,0.4 -0.74,0.78 -0.39,0.18 -0.68,0.47 -0.75,0.83 -0.42,0.31 -0.65,0.45 -0.69,1.49 -0.04,1.03 0.52,2.73 1.46,3.61 0.94,0.88 3.11,2.53 4.96,1.51 0.38,-0.21 0.5,-0.47 0.5,-0.47 0,0 0.42,-0.05 0.52,-0.48 0.46,-0.14 0.63,-0.46 0.7,-0.69 0.36,-0.05 0.7,-0.49 0.84,-0.75 z"
         class="vision-component-line"
         id="path13" /><path
         d="m 360.28,493.28 c 0,0 -1.01,2.46 1.14,4.77 2.19,2.34 4.76,1.68 4.76,1.68"
         class="vision-component-line"
         id="path14" /></g><g
       id="switches-path"
       transform="translate(192.69427,303.59546)"><rect
         width="35"
         height="14"
         x="0"
         y="0"
         rx="7"
         class="vision-component-line"
         id="rect14" /><circle
         cx="7"
         cy="7"
         r="7"
         class="vision-component-line"
         id="circle14" /><circle
         cx="7"
         cy="7"
         r="3"
         class="vision-component-line"
         id="circle15" /><rect
         width="35"
         height="14"
         x="0"
         y="18"
         rx="7"
         class="vision-component-line"
         id="rect15" /><circle
         cx="28"
         cy="25"
         r="7"
         class="vision-component-line"
         id="circle16" /><circle
         cx="28"
         cy="25"
         r="3.5"
         class="vision-component-line"
         id="circle17" /></g><g
       id="thermos-path"><path
         class="vision-component-line"
         d="M 0.00055847895 -28.500746 C -1.9384396 -28.500746 -3.4996579 -26.939527 -3.4996579 -25.000529 L -3.4996579 -6.0452168 A 7 7 0 0 0 -6.9998742 -0.00069533311 A 7 7 0 0 0 0.00055847895 6.9997374 A 7 7 0 0 0 7.0009912 -0.00069533311 A 7 7 0 0 0 3.5007748 -6.0595914 L 3.5007748 -25.000529 C 3.5007748 -26.939527 1.9395565 -28.500746 0.00055847895 -28.500746 z "
         id="path196" /><path
         class="vision-component-line"
         d="m 0,0 v -21"
         id="path197" /><ellipse
         cx="0"
         cy="0"
         rx="4"
         ry="4"
         class="vision-component-fill"
         id="ellipse196" /></g><g
       id="android-logo"
       inkscape:label="Android_robot.svg"><metadata
         id="cc-by-license"><rdf:RDF><cc:License
             rdf:about="http://creativecommons.org/licenses/by/4.0/"><cc:permits
               rdf:resource="http://creativecommons.org/ns#Reproduction" /><cc:permits
               rdf:resource="http://creativecommons.org/ns#Distribution" /><cc:requires
               rdf:resource="http://creativecommons.org/ns#Notice" /><cc:requires
               rdf:resource="http://creativecommons.org/ns#Attribution" /><cc:permits
               rdf:resource="http://creativecommons.org/ns#DerivativeWorks" /></cc:License><cc:Work
             rdf:about=""><cc:license
               rdf:resource="https://creativecommons.org/licenses/by/3.0/" /><dc:creator><cc:Agent><dc:title>Google Inc.</dc:title></cc:Agent></dc:creator></cc:Work></rdf:RDF></metadata><g
         fill="#a4c639"
         id="g25"><g
           style="stroke:#ffffff;stroke-width:14.4"
           id="g17"><ellipse
             cy="41"
             rx="91"
             ry="84"
             cx="0"
             id="ellipse17" /><rect
             rx="22"
             height="182"
             width="182"
             y="20"
             x="-91"
             id="rect17" /></g><g
           stroke="#ffffff"
           stroke-width="7.2"
           transform="scale(-1,1)"
           id="g20"><rect
             rx="6.5"
             transform="rotate(29)"
             height="86"
             width="13"
             y="-86"
             x="14"
             id="rect18" /><rect
             rx="24"
             height="133"
             width="48"
             y="41"
             x="-143"
             id="rect19" /><rect
             rx="24"
             height="133"
             width="48"
             y="138"
             x="-58"
             id="rect20" /></g><g
           stroke="#ffffff"
           stroke-width="7.2"
           id="g23"><rect
             rx="6.5"
             transform="rotate(29)"
             height="86"
             width="13"
             y="-86"
             x="14"
             id="rect21" /><rect
             rx="24"
             height="133"
             width="48"
             y="41"
             x="-143"
             id="rect22" /><rect
             rx="24"
             height="133"
             width="48"
             y="138"
             x="-58"
             id="rect23" /></g><g
           id="g24"><ellipse
             cy="41"
             rx="91"
             ry="84"
             cx="0"
             id="ellipse23" /><rect
             rx="22"
             height="182"
             width="182"
             y="20"
             x="-91"
             id="rect24" /></g></g><g
         stroke="#ffffff"
         stroke-width="7.2"
         fill="#ffffff"
         id="g26"><path
           d="M -95,44.5 H 95"
           id="path25" /><circle
           cx="-42"
           r="4"
           cy="0"
           id="circle25" /><circle
           cx="42"
           r="4"
           cy="0"
           id="circle26" /></g></g><g
       id="linux-logo"
       inkscape:label="penguin-flat.svg"><metadata
         id="readme">
This is the Linux-penguin again...

Originally drewn by Larry Ewing (http://www.isc.tamu.edu/~lewing/)
(with the GIMP) the Linux Logo has been vectorized by me (Simon Budig,
http://www.home.unix-ag.org/simon/).

This happened quite some time ago with Corel Draw 4. But luckily
meanwhile there are tools available to handle vector graphics with
Linux. Bernhard Herzog (bernhard@users.sourceforge.net) deserves kudos
for creating Sketch (http://sketch.sourceforge.net), a powerful free
tool for creating vector graphics. He converted the Corel Draw file to
the Sketch native format. Since I am unable to maintain the Corel Draw
file any longer, the Sketch version now is the &quot;official&quot; one.

Anja Gerwinski (anja@gerwinski.de) has created an alternate version of
the penguin (penguin-variant.sk) with a thinner mouth line and slightly
altered gradients. It also features a nifty drop shadow.

The third bird (penguin-flat.sk) is a version reduced to three colors
(black/white/yellow) for e.g. silk screen printing. I made this version
for a mug, available at the friendly folks at
http://www.kernelconcepts.de/ - they do good stuff, mail Petra
(pinguin@kernelconcepts.de) if you need something special or don't
understand the german  :-)

These drawings are copyrighted by Larry Ewing and Simon Budig
(penguin-variant.sk also by Anja Gerwinski), redistribution is free but
has to include this README/Copyright notice.

The use of these drawings is free. However I am happy about a sample of
your mug/t-shirt/whatever with this penguin on it...

Have fun
    Simon Budig


Simon.Budig@unix-ag.org
http://www.home.unix-ag.org/simon/

Simon Budig
Am Hardtkoeppel 2
D-61279 Graevenwiesbach
             </metadata><path
         id="path16"
         style="fill:none;stroke:#ffffff;stroke-opacity:1;stroke-width:15;stroke-dasharray:none"
         d="M 155.34212 0.023262342 C 146.2249 -0.22551491 135.52902 1.5816775 124.00309 7.5627427 C 96.378817 21.955728 99.976642 53.039696 104.50394 115.28603 C 105.65394 132.05702 90.090877 143.51935 75.718791 165.15633 C 63.879803 182.97831 56.25025 201.48585 49.813357 217.51583 C 42.022365 236.91081 41.24726 238.98703 45.285356 255.67801 C 45.286431 255.68239 45.289067 255.69039 45.290148 255.69478 C 44.999492 255.98581 44.709343 256.2453 44.415693 256.54528 C 40.748696 260.28327 36.210423 269.78862 29.734429 274.46562 C 23.258436 279.14361 6.8570124 278.70446 2.6790266 284.18046 C -1.4189793 289.64845 2.8285037 297.56249 2.7485038 312.24448 C 2.7485038 318.50147 1.6716825 323.25009 0.95167819 327.06709 C -0.047329316 331.88509 -0.69934745 335.27211 1.3086475 338.7201 C 4.9876439 344.8361 10.885237 346.34677 44.636103 353.40376 C 62.696085 357.14076 79.746569 366.85514 91.190658 367.79514 C 102.63385 368.65514 105.0842 364.84707 112.06019 358.66008 C 114.36915 356.58816 116.11456 355.43137 117.46264 354.29499 C 129.28045 348.98891 126.78548 350.4962 149.40781 349.15367 C 173.41527 347.73753 180.28693 346.6412 202.99634 352.64431 C 204.28897 357.46831 206.41182 360.87334 208.41556 362.61549 C 211.72356 365.56549 216.55047 367.79514 227.26546 367.79514 C 237.98845 367.79514 244.68505 365.41618 251.73104 358.37019 C 256.26803 353.83119 261.08706 349.585 275.04904 340.02101 C 286.13203 332.46501 302.82332 324.18682 306.14132 320.87882 C 307.78931 319.21983 310.73781 317.6417 310.95681 311.6647 C 311.09781 306.40871 306.93073 304.6894 303.98273 302.8914 C 299.87473 300.5114 289.14992 291.94672 283.83193 283.46173 C 280.59393 278.27473 285.1912 269.85879 280.7342 263.3828 C 279.24922 261.21146 277.12629 260.78837 275.40122 260.82172 C 277.71105 255.45178 279.62551 250.45026 280.59285 246.47108 C 286.06085 224.3031 268.92981 185.95583 252.52883 162.70786 C 236.11785 139.46088 222.66728 125.06938 216.04129 95.715009 C 209.3553 66.282038 217.69959 74.777368 211.79359 49.081394 C 208.9156 36.278407 203.80694 26.125556 198.12095 19.438562 C 192.44396 12.602569 184.80827 8.7145129 181.07027 6.6954749 C 176.17371 4.064665 167.06427 0.34311881 155.34212 0.023262342 z " /><g
         id="g41"><path
           style="fill:#000000;stroke:none"
           d="m 280.594,246.472 c -4.757,19.568 -28.863,60.446 -41.666,78.436 -12.812,18.06 -11.224,34.32 -34.9,27.994 -23.607,-6.336 -30.224,-5.187 -54.619,-3.748 -24.248,1.439 -19,-0.72 -34.182,6.117 -15.111,6.835 -65.8433,-82.893 -69.9412,-99.594 -4.0381,-16.691 -3.263,-18.766 4.528,-38.161 6.4369,-16.03 14.0669,-34.537 25.9059,-52.359 C 90.0918,143.52 105.653,132.056 104.503,115.285 99.9757,53.0386 96.3777,21.9566 124.002,7.5636 c 26.345,-13.67102 48.364,-5.54602 57.069,-0.86902 3.738,2.01904 11.373,5.90702 17.05,12.74302 5.686,6.687 10.794,16.841 13.672,29.644 5.906,25.696 -2.438,17.2 4.248,46.633 6.626,29.3544 20.078,43.7464 36.489,66.9934 16.401,23.248 33.532,61.596 28.064,83.764 z"
           id="path26" /><g
           id="g40"><path
             style="fill:#000000;stroke:none"
             d="m 231.514,150.021 c 0.67,-0.467 0.745,-1.172 0.204,-1.963 -0.546,-0.799 -1.311,-1.034 -1.947,-0.6 -0.536,0.366 -0.603,0.816 -0.245,1.762 l 0.225,0.595 c 0.168,0.442 0.133,0.687 -0.116,0.856 -0.32,0.221 -0.755,0.047 -1.083,-0.431 -0.2,-0.294 -0.285,-0.601 -0.236,-0.837 0.04,-0.152 0.112,-0.258 0.332,-0.457 l -0.394,-0.575 c -0.774,0.567 -0.85,1.272 -0.236,2.168 0.59,0.864 1.392,1.123 2.052,0.671 0.511,-0.349 0.595,-0.829 0.294,-1.622 l -0.234,-0.608 c -0.199,-0.517 -0.185,-0.805 0.057,-0.971 0.314,-0.214 0.709,-0.072 1.014,0.373 0.299,0.439 0.27,0.804 -0.081,1.064 z"
             id="path27" /><path
             style="fill:#000000;stroke:none"
             d="m 233.418,150.755 -0.371,-0.543 -3.429,2.345 0.371,0.543 z m 1.342,-0.917 -0.376,-0.549 -0.687,0.469 0.375,0.55 z"
             id="path28" /><path
             style="fill:#000000;stroke:none"
             d="m 234.054,151.684 -3.429,2.345 0.375,0.55 2.154,-1.473 c 0.497,-0.339 1.142,-0.252 1.446,0.193 0.278,0.406 0.185,0.804 -0.253,1.105 l -2.363,1.615 0.377,0.549 2.153,-1.472 c 0.497,-0.339 1.142,-0.253 1.447,0.193 0.273,0.398 0.178,0.809 -0.253,1.104 l -2.364,1.615 0.377,0.55 2.572,-1.759 c 0.615,-0.42 0.714,-1.006 0.275,-1.647 -0.314,-0.459 -0.639,-0.64 -1.244,-0.696 0.228,-0.453 0.197,-0.836 -0.107,-1.281 -0.314,-0.458 -0.69,-0.643 -1.303,-0.655 l 0.484,-0.332 z"
             id="path29" /><path
             style="fill:#000000;stroke:none"
             d="m 238.783,158.391 c -0.657,-0.962 -1.744,-1.075 -2.895,-0.287 -1.152,0.787 -1.446,1.833 -0.779,2.808 0.658,0.962 1.748,1.081 2.873,0.312 1.185,-0.81 1.477,-1.845 0.801,-2.833 z m -0.499,0.351 c 0.42,0.616 0.167,1.326 -0.685,1.908 -0.804,0.55 -1.574,0.52 -1.986,-0.083 -0.416,-0.608 -0.167,-1.326 0.664,-1.894 0.825,-0.564 1.59,-0.539 2.007,0.069 z"
             id="path30" /><path
             style="fill:#000000;stroke:none"
             d="m 240.269,160.774 -3.429,2.345 0.375,0.55 1.891,-1.293 c 0.701,-0.478 1.409,-0.426 1.794,0.137 0.295,0.433 0.221,0.886 -0.191,1.168 l -2.376,1.625 0.372,0.543 2.592,-1.772 c 0.569,-0.389 0.644,-1.066 0.193,-1.727 -0.35,-0.51 -0.77,-0.703 -1.453,-0.677 l 0.576,-0.394 z"
             id="path31" /><path
             style="fill:#000000;stroke:none"
             d="m 245.267,168.411 -0.529,0.151 c 0.26,-0.419 0.269,-0.828 0.023,-1.188 -0.6,-0.877 -2.014,-1.091 -2.963,-0.443 -0.68,0.466 -0.884,1.277 -0.468,1.886 0.237,0.346 0.574,0.53 1.106,0.607 -0.293,0.288 -0.293,0.652 -0.012,1.065 0.332,0.484 0.794,0.754 1.415,0.819 0.665,0.073 1.334,-0.087 1.844,-0.435 1.329,-0.908 1.571,-2.928 0.529,-4.452 -0.532,-0.779 -1.417,-1.385 -2.335,-1.603 -1.02,-0.243 -2.165,-0.036 -3.023,0.55 -1.453,0.994 -1.714,3.112 -0.582,4.768 0.332,0.484 0.787,0.94 1.286,1.291 l 0.313,-0.483 c -0.517,-0.434 -0.831,-0.767 -1.072,-1.121 -0.949,-1.386 -0.717,-3.111 0.533,-3.966 1.375,-0.939 3.374,-0.558 4.318,0.822 0.855,1.251 0.659,2.931 -0.434,3.677 -0.767,0.525 -1.877,0.487 -2.257,-0.069 -0.121,-0.177 -0.093,-0.417 0.065,-0.525 0.058,-0.039 0.193,-0.094 0.38,-0.144 l 2.235,-0.664 z m -0.952,-0.79 c 0.251,0.366 0.16,0.823 -0.207,1.045 -0.337,0.211 -1.008,0.41 -1.361,0.411 -0.394,0.001 -0.716,-0.134 -0.882,-0.376 -0.246,-0.361 -0.103,-0.88 0.329,-1.176 0.734,-0.502 1.745,-0.453 2.121,0.096 z"
             id="path32" /><path
             style="fill:#000000;stroke:none"
             d="m 248.567,170.034 -4.771,3.262 0.337,0.491 0.437,-0.301 c -0.219,0.536 -0.173,1.012 0.154,1.49 0.617,0.903 1.76,0.987 2.898,0.208 1.113,-0.761 1.416,-1.793 0.798,-2.697 -0.322,-0.47 -0.727,-0.684 -1.287,-0.675 l 1.805,-1.235 z m -0.729,2.698 c 0.416,0.609 0.155,1.364 -0.664,1.923 -0.779,0.532 -1.586,0.489 -1.994,-0.106 -0.393,-0.577 -0.129,-1.314 0.676,-1.864 0.805,-0.551 1.589,-0.529 1.982,0.047 z"
             id="path33" /><path
             style="fill:#000000;stroke:none"
             d="m 248.199,179.736 3.429,-2.345 -0.371,-0.543 -1.944,1.329 c -0.7,0.479 -1.409,0.425 -1.798,-0.144 -0.295,-0.432 -0.221,-0.886 0.191,-1.167 l 2.428,-1.66 -0.372,-0.544 -2.643,1.808 c -0.57,0.388 -0.645,1.065 -0.189,1.732 0.344,0.504 0.74,0.704 1.411,0.716 l -0.477,0.326 z"
             id="path34" /><path
             style="fill:#000000;stroke:none"
             d="m 255.516,180.198 -0.372,-0.543 -1.773,1.212 c 0.19,-0.466 0.123,-0.958 -0.19,-1.416 -0.609,-0.89 -1.72,-0.985 -2.813,-0.238 -1.159,0.793 -1.483,1.849 -0.852,2.772 0.322,0.471 0.722,0.678 1.349,0.682 l -0.451,0.308 0.331,0.485 z m -2.783,-0.307 c 0.402,0.589 0.134,1.32 -0.685,1.88 -0.791,0.541 -1.574,0.52 -1.968,-0.057 -0.412,-0.602 -0.154,-1.363 0.644,-1.909 0.799,-0.546 1.601,-0.51 2.009,0.086 z"
             id="path35" /><path
             style="fill:#000000;stroke:none"
             d="m 255.118,182.496 -0.371,-0.544 -3.43,2.345 0.371,0.543 z m 1.342,-0.918 -0.376,-0.549 -0.687,0.469 0.376,0.551 z"
             id="path36" /><path
             style="fill:#000000;stroke:none"
             d="m 257.284,185.664 -0.498,0.339 c 0.218,-0.552 0.18,-1.015 -0.12,-1.454 -0.595,-0.87 -1.757,-0.941 -2.869,-0.179 -0.563,0.384 -0.918,0.847 -1.054,1.352 -0.113,0.452 -0.032,0.936 0.214,1.296 0.295,0.431 0.684,0.607 1.326,0.62 l -0.177,0.12 c -0.464,0.319 -0.785,0.451 -1.07,0.444 -0.301,-0.005 -0.611,-0.206 -0.839,-0.54 -0.17,-0.249 -0.256,-0.516 -0.242,-0.747 0.013,-0.191 0.069,-0.306 0.25,-0.477 l -0.381,-0.557 c -0.608,0.502 -0.649,1.27 -0.099,2.075 0.349,0.51 0.813,0.837 1.24,0.871 0.493,0.047 0.992,-0.15 1.797,-0.7 l 2.866,-1.959 z m -1.082,-0.712 c 0.403,0.589 0.143,1.276 -0.714,1.862 -0.819,0.56 -1.558,0.547 -1.952,-0.03 -0.407,-0.595 -0.149,-1.299 0.683,-1.868 0.825,-0.563 1.585,-0.546 1.983,0.036 z"
             id="path37" /><path
             style="fill:#000000;stroke:none"
             d="m 256.034,189.734 -0.465,-0.679 -0.681,0.464 0.465,0.681 z"
             id="path38" /><path
             style="fill:#000000;stroke:none"
             d="m 262.728,190.747 -0.371,-0.543 -1.774,1.213 c 0.19,-0.466 0.123,-0.959 -0.19,-1.416 -0.609,-0.891 -1.72,-0.985 -2.813,-0.239 -1.158,0.793 -1.482,1.85 -0.852,2.773 0.323,0.471 0.723,0.678 1.35,0.681 l -0.451,0.308 0.33,0.485 z m -2.783,-0.306 c 0.403,0.589 0.135,1.32 -0.684,1.879 -0.791,0.542 -1.575,0.521 -1.968,-0.056 -0.412,-0.602 -0.154,-1.364 0.643,-1.91 0.799,-0.546 1.602,-0.509 2.009,0.087 z"
             id="path39" /><path
             style="fill:#000000;stroke:none"
             d="m 262.056,196.719 c 0.524,-0.359 0.812,-0.613 1,-0.885 0.411,-0.607 0.393,-1.364 -0.046,-2.005 -0.653,-0.956 -1.806,-1.07 -2.932,-0.3 -1.126,0.77 -1.412,1.839 -0.754,2.801 0.537,0.786 1.353,1.024 2.192,0.652 l -0.375,-0.55 c -0.554,0.159 -1.001,0.012 -1.3,-0.426 -0.238,-0.347 -0.282,-0.749 -0.119,-1.129 0.107,-0.265 0.272,-0.446 0.608,-0.685 z m -1.272,-2.818 c 0.666,-0.388 1.342,-0.284 1.718,0.266 0.367,0.537 0.204,1.253 -0.359,1.638 -0.013,0.008 -0.026,0.018 -0.044,0.02 z"
             id="path40" /></g></g><g
         id="g45"><path
           style="fill:#ffffff;stroke:none"
           d="m 137.175,129.177 c -9.354,0.36 -21.708,-24.6 -22.891,-14.971 -1.123,9.15 -1.436,9.064 -1.436,17.989 0,5.977 -2.728,6.407 -8.635,15.402 -3.018,4.747 -5.3972,9.855 -7.2653,15.042 -1.15,3.088 -2.23,6.326 -3.089,9.494 -0.36,1.589 -1.01,3.238 -1.369,4.827 -2.949,10.865 -13.463,24.247 -15.901,35.111 -2.449,10.794 -5.427,17.702 -4.967,32.171 0.3601,11.34 0.499,10.285 4.887,13.883 4.318,3.598 8.784,6.986 15.621,13.023 7.196,6.267 22.1573,17.2 24.1763,20.588 2.16,3.449 4.041,8.93 0.79,13.742 -3.251,4.815 -16.151,4.253 -16.081,4.253 -0.07,0 11.199,13.376 13.138,15.326 1.869,1.868 12.158,10.715 44.97,4.598 18.489,-3.458 32.812,-13.812 43.175,-23.816 13.383,-13.023 14.324,-17.068 16.794,-24.355 3.131,-9.239 4.64,-16.239 5.641,-20.639 0.916,-4.032 2.172,-16.243 2.172,-21.999 0,-14.972 -1.72,-30.223 -5.177,-41.457 -3.168,-10.504 -8.205,-17.84 -12.523,-27.344 -8.636,-18.92 -8.206,-27.416 -15.902,-39.499 -8.774,-13.962 -4.457,-23.246 -16.121,-22.668 -14.532,0.791 -26.265,20.719 -40.007,21.299 z"
           id="path41" /><path
           style="fill:#000000;stroke:none"
           d="m 173.015,170.125 c 0.429,-1.949 20.789,-5.258 24.466,-4.179 3.598,1.08 20.069,24.248 17.191,25.186 -2.799,0.94 -9.065,-8.635 -18.989,-13.242 -10.005,-4.607 -23.028,-5.827 -22.668,-7.765 z"
           id="path42" /><path
           style="fill:#000000;stroke:none"
           d="m 127.664,215.105 c 1.869,0.359 -1.114,13.881 -1.253,27.774 -0.151,13.892 2.472,19.859 1.253,21.228 -1.23,1.369 -4.398,-5.177 -4.248,-19.069 0.14,-13.893 2.369,-30.363 4.248,-29.933 z"
           id="path43" /><path
           style="fill:#000000;stroke:none"
           d="m 135.235,168.606 c 1.08,0.079 8.915,-1.58 9.206,-0.86 0.289,0.5 -4.888,2.158 -6.476,3.738 -0.361,0.44 -2.01,1.879 -2.879,1.799 -0.72,-0.07 -1.149,-1.51 -2.158,-2.66 -2.519,-2.517 -4.099,-2.297 -3.599,-3.238 0.361,-0.789 3.818,1.15 5.906,1.221 z"
           id="path44" /><path
           style="fill:#000000;stroke:none"
           d="m 109.559,170.693 c -0.461,1.984 -7.301,2.917 -12.1633,5.683 -2.966,1.688 -4.528,4.232 -8.585,7.588 -4.057,3.355 13.5793,-40.086 12.5813,-34.47 -0.998,5.618 -2.9133,8.715 -1.9063,12.091 1.7883,5.994 10.5343,7.123 10.0733,9.108 z"
           id="path45" /></g><g
         id="g47"><path
           style="fill:#ffb80f;stroke:none"
           d="m 280.735,263.383 c 4.457,6.476 -0.141,14.891 3.097,20.078 5.318,8.485 16.042,17.05 20.15,19.43 2.948,1.798 7.116,3.518 6.975,8.774 -0.219,5.977 -3.168,7.556 -4.816,9.215 -3.318,3.308 -20.01,11.584 -31.093,19.14 -13.962,9.564 -18.78,13.811 -23.317,18.35 -7.046,7.046 -13.743,9.424 -24.466,9.424 -10.715,0 -15.542,-2.228 -18.85,-5.178 -3.309,-2.877 -6.976,-10.224 -6.616,-21.157 0.28,-10.864 3.737,-20.799 5.397,-37.71 0.72,-7.265 0.639,-16.26 0.639,-24.246 0,-10.074 0.15,-18.639 2.309,-19.939 3.888,-2.448 4.748,-2.588 9.354,-2.588 4.608,0 6.687,0.29 8.206,1.798 1.439,1.44 0.859,4.748 0.361,9.425 -0.441,4.678 1.798,6.187 4.027,8.136 2.229,1.868 4.248,4.248 11.294,4.817 7.056,0.511 9.644,-0.649 12.952,-2.729 3.309,-2.088 7.986,-5.836 9.715,-7.995 1.659,-2.078 5.757,-9.275 6.546,-9.275 0.72,0 5.477,-1.658 8.136,2.23 z"
           id="path46" /><path
           style="fill:#ffb80f;stroke:none"
           d="m 29.7347,274.466 c -6.476,4.678 -22.87696,4.238 -27.05495,9.714 -4.09801,5.468 0.149,13.383 0.069,28.065 0,6.257 -1.078,11.004 -1.798005,14.821 -0.9990085,4.818 -1.649002,8.206 0.358995,11.654 3.679,6.116 9.57506,7.626 43.32596,14.683 18.06,3.737 35.111,13.451 46.5551,14.391 11.4432,0.86 13.8922,-2.948 20.8682,-9.135 6.906,-6.197 9.145,-4.248 8.925,-17.85 -0.22,-13.532 -8.925,-17.56 -18.78,-33.172 -9.8643,-15.621 -11.4442,-18.498 -17.9893,-28.853 -6.547,-10.225 -19.5,-28.784 -26.916,-29.005 -5.896,-0.139 -9.214,3.019 -12.883,6.767 -3.667,3.738 -8.205,13.243 -14.681,17.92 z"
           id="path47" /></g><g
         id="g55"><path
           style="fill:#ffffff;stroke:none"
           d="m 125.661,94.9956 c 4.318,-1.728 4.457,-1.589 7.336,-7.845 2.308,-4.818 3.458,-7.267 3.388,-14.612 0,-7.196 -2.229,-9.634 -5.617,-14.313 -3.238,-4.467 -8.415,-4.676 -11.653,-4.107 -1.869,0.289 -4.318,2.669 -5.976,6.187 -1.08,2.378 -1.94,5.397 -2.01,8.565 -0.219,8.494 0.5,11.734 2.438,17.49 2.31,6.766 7.917,10.284 12.094,8.635 z"
           id="path48" /><path
           style="fill:#000000;stroke:none"
           d="m 121.633,65.7026 c 2.159,0 4.888,1.438 6.188,3.387 1.368,1.939 2.378,4.678 2.378,7.766 0,4.608 -0.509,9.715 -3.239,11.303 -0.869,0.501 -2.738,0.93 -3.817,0.93 -2.449,0 -2.659,-1.579 -4.968,-3.957 -0.789,-0.86 -3.169,-5.038 -3.169,-8.486 0,-2.158 -0.498,-5.257 1.371,-7.985 1.299,-2.019 2.947,-2.958 5.256,-2.958 z"
           id="path49" /><path
           style="fill:#ffffff;stroke:none"
           d="m 170.277,95.9256 c 10.794,-1.149 14.611,-5.318 16.55,-12.593 1.729,-6.477 1.798,-13.673 -3.018,-22.088 -4.538,-8.056 -7.125,-9.355 -13.673,-9.855 -10.074,-0.869 -14.831,6.187 -17.061,11.224 -2.367,5.467 -1.867,4.678 -1.728,11.584 0.15,7.266 2.378,10.295 4.897,14.822 2.518,4.468 12.812,6.986 14.033,6.906 z"
           id="path50" /><path
           style="fill:#000000;stroke:none"
           d="m 169.417,65.4226 c 5.397,0 8.555,4.817 9.634,11.004 0.44,2.807 -0.209,6.045 -1.939,8.275 -1.939,2.588 -5.397,4.178 -8.205,4.178 -2.658,0 -5.686,0.429 -7.266,-1.729 -1.58,-2.23 -1.939,-7.196 -1.939,-10.724 0,-3.958 1.15,-6.767 3.159,-8.995 1.518,-1.649 4.247,-2.009 6.556,-2.009 z"
           id="path51" /><path
           style="fill:#ffffff;stroke:none"
           d="m 170.566,68.8006 c 0.57,-0.58 1.8,0 3.169,1.509 1.438,1.59 1.438,2.879 0.28,3.748 -1.08,0.93 -1.51,-1.369 -2.23,-2.239 -1.289,-1.289 -2.368,-1.939 -1.219,-3.018 z"
           id="path52" /><path
           style="fill:#ffffff;stroke:none"
           d="m 122.124,69.4806 c 0.409,-0.788 2.416,-0.589 3.299,0.892 0.877,1.534 1.027,5.063 0.556,5.215 -1.249,0.482 -1.162,-1.622 -2.306,-3.021 -1.083,-1.411 -1.96,-2.245 -1.549,-3.086 z"
           id="path53" /><path
           style="fill:#ffffff;stroke:none"
           d="m 174.327,47.0146 c 0.035,0.58 3.175,1.153 4.475,1.624 1.3,0.47 4.342,3.11 5.532,4.481 1.19,1.37 3.388,5.823 4.112,5.628 0.727,-0.197 -0.867,-3.195 -2.018,-4.855 -1.151,-1.658 -4.713,-5.443 -6.981,-6.378 -2.27,-0.934 -5.156,-1.077 -5.12,-0.5 z"
           id="path54" /><path
           style="fill:#ffffff;stroke:none"
           d="m 125.069,49.2716 c 0.044,1.036 3.395,0.714 6.871,3.713 3.551,3.064 3.946,5.792 5.032,5.689 1.088,-0.103 -0.565,-3.473 -4.194,-6.693 -2.842,-2.523 -7.751,-3.743 -7.709,-2.709 z"
           id="path55" /></g><g
         id="g59"><path
           style="fill:#ffb80f;stroke:none"
           d="m 142.142,79.8146 c 5.247,-0.65 12.443,0.639 15.761,3.088 3.088,2.309 5.247,3.528 8.056,4.467 9.425,3.089 21.808,4.528 21.228,13.0234 -0.65,10.145 -3.599,14.682 -12.014,17.341 -6.765,2.088 -18.859,13.812 -28.214,13.812 -4.168,0 -10.004,0.22 -13.382,-1 -3.238,-1.159 -7.777,-6.626 -13.093,-11.013 -5.327,-4.318 -10.294,-8.926 -10.435,-14.973 -0.219,-6.3964 3.959,-8.4854 9.856,-13.5914 3.098,-2.739 8.705,-7.276 12.593,-9.286 3.598,-1.799 5.896,-1.438 9.644,-1.868 z"
           id="path56" /><path
           style="fill:#000000;stroke:none"
           d="m 125.081,114.613 c -1.666,-0.602 -3.308,-1.557 -3.958,-2.137 -2.298,-1.446 -6.374,-5.357 -7.765,-6.256 -0.43,-0.14 -1.627,-0.052 -1.369,0.789 0.724,2.359 2.264,3.767 4.311,5.41 2.5,2.006 5.58,3.996 8.274,5.346 1.585,0.796 5.544,1.698 5.544,1.698 3.808,0.5 7.347,0.359 9.645,0.359 5.397,0 12.093,-2.228 19.14,-5.616 6.915,-3.448 8.565,-4.818 13.463,-7.626 4.746,-2.659 10.724,-6.117 8.634,-7.1264 -2.089,-1.079 -4.177,0.429 -11.014,4.5374 -6.615,4.028 -11.153,6.547 -17.769,9.425 -3.029,1.299 -7.057,2.879 -10.075,3.098 -2.878,0.211 -6.626,0.14 -8.855,0.14 -2.588,0 -5.482,-1.059 -8.206,-2.041 z"
           id="path57" /><path
           style="fill:#000000;stroke:none"
           d="m 146.39,84.7716 c 0.789,1.589 2.798,1.799 4.168,2.598 1.298,0.72 2.019,0.86 2.517,0.57 1.15,-0.57 0.291,-2.658 -0.858,-3.378 -1.08,-0.719 -6.267,-0.869 -5.827,0.21 z"
           id="path58" /><path
           style="fill:#000000;stroke:none"
           d="m 130.559,87.1506 c -0.22,0.649 1.578,1.869 2.438,1.008 1.009,-0.789 2.159,-1.588 2.599,-1.868 1.799,-1.159 1.079,-1.948 -1.799,-1.519 -2.959,0.579 -2.959,1.729 -3.238,2.379 z"
           id="path59" /></g><g
         id="g64"><path
           style="fill:#ffffff;stroke:none"
           d="m 247.929,223.027 c -1.06,7.594 -1.636,10.48 -3.17,15.553 -1.3,4.306 -3.149,8.618 -3.659,9.919 -0.205,0.522 0.863,0.448 1.323,-0.206 0.46,-0.654 0.8,-1.296 1.328,-2.48 2.172,-4.868 7.352,-20.622 5.421,-33.854 -1.699,-11.643 -6.01,-21.326 -15.295,-31.126 -2.761,-2.913 -11.994,-8.621 -12.642,-7.498 -0.49,0.849 7.82,2.715 16.508,14.29 7.819,10.412 11.742,24.266 10.186,35.402 z"
           id="path60" /><path
           style="fill:#ffffff;stroke:none"
           d="m 234.832,249.74 c 2.518,-1.624 8.316,-2.204 11.977,-2.017 3.66,0.189 7.808,0.816 7.808,0.816 0,0 3.684,0.544 7.044,1.903 3.362,1.359 7.657,3.92 7.855,6.471 0.199,2.551 -1.296,1.586 -2.782,-0.682 -1.486,-2.27 -4.348,-3.986 -7.875,-5.169 -3.528,-1.183 -8.66,-1.696 -10.718,-1.821 -2.058,-0.126 -7.302,-0.145 -10.339,0.836 -3.037,0.981 -4.61,3.306 -6.045,3.611 -1.436,0.303 0.555,-2.323 3.075,-3.948 z"
           id="path61" /><path
           style="fill:#ffffff;stroke:none"
           d="m 63.6677,225.428 c -0.715,8.079 0.435,14.769 2.726,19.421 2.499,5.079 10.265,11.725 9.753,12.243 -1.097,1.109 -9.841,-8.981 -11.5679,-12.772 -2.3291,-5.112 -3.3821,-11.151 -2.4261,-19.703 1.307,-11.692 5.2301,-20.934 9.835,-30.734 1.706,-3.632 6.72,-12.964 7.57,-11.985 1.0751,1.24 -2.916,4.133 -8.29,17.073 -4.994,12.023 -6.78,17.192 -7.6,26.457 z"
           id="path62" /><path
           style="fill:#ffffff;stroke:none"
           d="m 173.735,19.2876 c -0.87,1.01 -1.879,9.645 0.359,10.514 2.159,0.93 9.854,-2.808 9.565,-4.827 -0.43,-2.948 -3.598,-6.615 -4.887,-6.766 -1.3,-0.07 -4.248,-0.07 -5.037,1.079 z"
           id="path63" /><path
           style="fill:#ffffff;stroke:none"
           d="m 198.7,109.818 c -0.649,0.72 0.5,7.056 4.608,11.223 4.028,4.028 6.546,4.028 8.205,2.229 3.159,-3.378 0.64,-6.545 -1.3,-8.775 -1.938,-2.229 -4.457,-1.439 -6.765,-3.668 -2.229,-2.228 -3.807,-2.088 -4.748,-1.009 z"
           id="path64" /></g></g><g
       id="riot-logo"
       inkscape:label="RIOT logo"
       transform="matrix(0.10545741,0,0,0.10545741,115.05749,215.45835)"><path
         class="cls-1"
         d="M 635.31058,659.22346 607.6132,606.7113 a 11.493551,11.493551 0 0 1 19.94506,-11.39542 l 31.18101,50.50049 a 13.499186,13.499186 0 0 1 -22.97484,14.17987 c -0.11039,-0.22079 -0.31892,-0.51518 -0.45385,-0.77278 z"
         style="fill:#bc202b;stroke-width:1.22663"
         id="path198" /><path
         class="cls-1"
         d="m 600.08168,542.6688 1.47196,-0.39253 0.61331,-0.17173 0.84638,-0.25759 q 0.93224,-0.28212 2.14661,-0.71145 a 71.475905,71.475905 0 0 0 13.78735,-6.64835 59.687962,59.687962 0 0 0 17.07473,-15.38197 c 4.90654,-6.86915 7.87499,-15.22252 6.2681,-24.92519 a 40.540221,40.540221 0 0 0 -1.97488,-7.50699 c -0.0981,-0.31892 -0.24533,-0.63785 -0.36799,-0.96904 l -0.18399,-0.47839 -0.0981,-0.24532 c 0.19627,0.41705 -0.50291,-1.10397 0.42933,0.9077 l -0.0736,-0.14719 -0.61332,-1.22663 -0.30666,-0.58879 -0.14719,-0.29439 -0.1104,-0.184 c -0.31892,-0.51518 -0.52745,-0.96904 -0.91997,-1.57009 -0.39253,-0.60105 -0.71145,-1.22663 -1.10397,-1.70502 a 28.752278,28.752278 0 0 0 -11.44449,-10.10745 28.212559,28.212559 0 0 0 -15.83583,-2.10981 41.006341,41.006341 0 0 0 -17.30779,6.79555 42.932155,42.932155 0 0 0 -13.32124,14.19214 36.050744,36.050744 0 0 0 -3.61856,8.84402 34.689181,34.689181 0 0 0 -0.83412,4.64894 c -0.0981,0.78505 -0.13493,1.57009 -0.17172,2.35514 l -0.0736,3.17698 c -0.0736,2.257 0,4.30548 0,6.47662 0,2.17114 0,4.28095 0,6.43982 0,4.24415 0.15946,8.72136 0.29439,13.14951 l 0.41706,13.3335 c 0.14719,4.45268 0.24532,8.89309 0.50291,13.3703 l 1.3493,26.75287 0.66238,13.3335 0.17173,3.32417 0.12266,3.6799 v 4.02336 c 0,1.22663 -0.0981,2.55139 -0.17172,3.82709 a 74.419824,74.419824 0 0 1 -8.24298,30.3469 59.847424,59.847424 0 0 1 -9.58,13.17404 57.099766,57.099766 0 0 1 -12.74472,9.92346 60.853263,60.853263 0 0 1 -29.75811,7.96085 61.613776,61.613776 0 0 1 -28.61735,-6.67288 53.432133,53.432133 0 0 1 -21.20849,-19.39307 52.046038,52.046038 0 0 1 -3.27511,-6.28036 c -0.24532,-0.52745 -0.45385,-1.06717 -0.66238,-1.61916 l -0.67465,-1.77862 -0.85864,-2.45326 c -0.31893,-1.03037 -0.66238,-2.25701 -0.96904,-3.37324 -0.30666,-1.11624 -0.47839,-2.10981 -0.72371,-3.16472 -0.24533,-1.0549 -0.36799,-2.07301 -0.55199,-3.10338 -0.18399,-1.03037 -0.29439,-2.06074 -0.39252,-3.07885 a 69.918081,69.918081 0 0 1 9.26108,-42.61323 66.409911,66.409911 0 0 1 11.45675,-14.5356 67.354418,67.354418 0 0 1 12.53619,-9.48187 c 2.03621,-1.22663 4.03562,-2.20794 5.92464,-3.12791 0.95677,-0.42933 1.88901,-0.82185 2.79672,-1.22664 0.90771,-0.40479 1.77862,-0.73598 2.63726,-1.03037 1.70502,-0.62558 3.28738,-1.22663 4.75934,-1.57009 1.47196,-0.34346 2.79672,-0.80958 4.01109,-1.0549 1.21436,-0.24533 2.26927,-0.52746 3.18924,-0.69918 l 2.31834,-0.39253 1.88901,-0.30666 a 11.484629,11.484629 0 0 1 3.92523,22.63138 l -0.67465,0.12267 -1.36156,0.24532 -1.61916,0.31893 c -0.66238,0.12266 -1.39836,0.33119 -2.257,0.52745 -0.85864,0.19626 -1.79089,0.45385 -2.79672,0.77278 -1.00584,0.31892 -2.10981,0.67465 -3.27512,1.10397 a 17.172862,17.172862 0 0 0 -1.79088,0.71145 l -1.87675,0.82184 c -1.22663,0.63785 -2.58819,1.28796 -3.92522,2.12208 a 43.741733,43.741733 0 0 0 -15.52918,15.86036 46.084602,46.084602 0 0 0 -2.93165,6.13316 52.2055,52.2055 0 0 0 -2.10981,6.85688 46.109134,46.109134 0 0 0 -0.83411,15.27158 c 0.0736,0.66239 0.1472,1.3125 0.26986,1.96262 0.12266,0.65011 0.19626,1.31249 0.36799,1.95034 0.17173,0.63785 0.28213,1.3493 0.44159,1.88902 l 0.47838,1.66822 0.88318,2.45326 c 0,0.0981 -0.0859,-0.23306 0,0 v 0.1104 l 0.0859,0.20853 0.17173,0.42932 c 0.1104,0.28213 0.2208,0.57652 0.36799,0.85864 a 28.004031,28.004031 0 0 0 1.75409,3.28738 29.255197,29.255197 0 0 0 11.77568,10.43865 37.314176,37.314176 0 0 0 17.30779,3.81483 36.271538,36.271538 0 0 0 17.67578,-4.90654 33.499347,33.499347 0 0 0 12.70792,-13.49296 49.494642,49.494642 0 0 0 5.11506,-20.15358 l 0.0981,-2.80899 v -2.63726 l -0.1104,-2.98072 -0.19626,-3.34871 -0.78505,-13.49296 -1.58235,-26.98592 c -0.30666,-4.50175 -0.44159,-9.04029 -0.62559,-13.57883 l -0.53971,-13.56656 c -0.17173,-4.51401 -0.39253,-8.97896 -0.42933,-13.65243 q 0,-3.4591 -0.11039,-6.91821 c 0,-2.28154 -0.1104,-4.6612 0,-6.83234 v -3.45911 c 0,-1.42289 0.13493,-2.83352 0.29439,-4.24415 a 60.96366,60.96366 0 0 1 1.47196,-8.32884 62.288424,62.288424 0 0 1 6.13316,-15.35744 69.096237,69.096237 0 0 1 21.38022,-23.0607 67.317619,67.317619 0 0 1 28.53148,-11.17463 57.099766,57.099766 0 0 1 15.59051,0 52.401762,52.401762 0 0 1 15.02625,4.37908 55.345681,55.345681 0 0 1 22.15299,19.07414 c 0.67465,0.93224 1.22663,1.90128 1.86448,2.84579 0.63785,0.94451 1.22664,2.06075 1.79089,3.09112 l 0.22079,0.39252 0.15946,0.29439 0.30666,0.58879 0.61332,1.22663 0.0736,0.14719 c 0.9813,2.10981 0.31892,0.68692 0.55198,1.22664 l 0.1472,0.36799 0.29439,0.74824 c 0.19626,0.50292 0.40479,0.99358 0.57652,1.4965 a 67.219488,67.219488 0 0 1 3.29964,12.41352 58.154671,58.154671 0 0 1 -1.22663,24.85159 63.098002,63.098002 0 0 1 -9.53094,19.87145 78.970633,78.970633 0 0 1 -12.40126,13.5543 94.757399,94.757399 0 0 1 -12.19273,9.04028 98.26557,98.26557 0 0 1 -19.02508,9.24881 c -1.22663,0.41706 -2.22021,0.76052 -3.14018,1.04264 l -1.22663,0.39252 -1.15304,0.33119 -1.71729,0.45386 a 13.492963,13.492963 0 0 1 -7.04087,-26.01689 v 0 z"
         style="fill:#bc202b;stroke-width:1.22663"
         id="path199" /></g></defs><g
     inkscape:label="Layer 1"
     inkscape:groupmode="layer"
     transform="translate(-187.72811,-23.048984)"
     id="layer1"><path
       d="M 598.21836,416.66895 V 25.544073"
       id="vision-division-line" /><g
       id="current-iot"
       transform="translate(124.22828)"><path
         d="m 181.19541,50.015314 c 2.90467,0.785046 5.9271,-0.471027 7.41869,-3.061679 0.54953,-0.902803 0.23551,-2.04112 -0.66729,-2.590652 -0.9028,-0.51028 -2.04112,-0.196261 -2.59065,0.706542 -0.62804,1.099064 -1.92336,1.648596 -3.17944,1.334578 -1.21682,-0.353271 -2.08037,-1.452335 -2.08037,-2.747661 V 30.31066 c 0,-1.256074 0.86355,-2.394391 2.08037,-2.708409 1.25608,-0.353271 2.5514,0.196261 3.17944,1.295326 0.54953,0.902803 1.68785,1.216821 2.59065,0.706541 0.9028,-0.549532 1.21682,-1.687849 0.66729,-2.590652 -1.49159,-2.590651 -4.51402,-3.846725 -7.41869,-3.061679 -2.86541,0.745794 -4.86728,3.375698 -4.86728,6.358873 v 13.345782 c 0,2.983175 2.00187,5.613079 4.86728,6.358872 z m 16.21121,-0.03925 h 3.92523 c 0.98131,0 1.76636,-0.785046 1.76636,-1.766353 V 32.665798 c 0,-0.981308 -0.78505,-1.766354 -1.76636,-1.766354 -0.9813,0 -1.76635,0.785046 -1.76635,1.766354 v 13.777557 h -2.15888 c -1.17757,0 -2.15887,-0.981307 -2.15887,-2.158876 V 32.665798 c 0,-0.981308 -0.78505,-1.766354 -1.76636,-1.766354 -0.9813,0 -1.76635,0.785046 -1.76635,1.766354 v 11.618681 c 0,3.140184 2.5514,5.691583 5.69158,5.691583 z m 11.7757,0.157009 c 0.98131,0 1.76635,-0.785046 1.76635,-1.766353 V 34.58916 h 2.15888 c 0.39252,0 0.74579,0.117757 1.05981,0.274766 0.86355,0.51028 1.92337,0.196262 2.43365,-0.628036 0.47102,-0.863551 0.19626,-1.923363 -0.66729,-2.433643 -0.86355,-0.471028 -1.84486,-0.745794 -2.82617,-0.745794 h -3.92523 c -0.98131,0 -1.76635,0.785046 -1.76635,1.766354 v 15.543911 c 0,0.981307 0.78504,1.766353 1.76635,1.766353 z m 11.73643,0 c 0.98131,0 1.76635,-0.785046 1.76635,-1.766353 V 34.58916 h 2.15888 c 0.39252,0 0.74579,0.117757 1.05981,0.274766 0.86355,0.51028 1.92336,0.196262 2.43364,-0.628036 0.47103,-0.863551 0.19626,-1.923363 -0.66729,-2.433643 -0.86355,-0.471028 -1.84485,-0.745794 -2.82616,-0.745794 h -3.92523 c -0.98131,0 -1.76636,0.785046 -1.76636,1.766354 v 15.543911 c 0,0.981307 0.78505,1.766353 1.76636,1.766353 z m 13.03176,-0.431775 c 2.11962,0.902803 4.55326,0.392523 6.20186,-1.216821 0.66729,-0.706542 0.66729,-1.805606 0,-2.512148 -0.70654,-0.706541 -1.84486,-0.706541 -2.51215,0 -0.62804,0.628037 -1.53084,0.785046 -2.35514,0.471028 -0.82429,-0.353271 -1.33457,-1.138317 -1.33457,-2.001867 v -2.158877 h 6.0841 c 0.98131,0 1.76636,-0.785046 1.76636,-1.766353 v -3.92523 c 0,-3.140184 -2.5514,-5.691584 -5.69159,-5.691584 -3.14018,0 -5.69158,2.5514 -5.69158,5.691584 v 7.85046 c 0,2.315885 1.37383,4.357005 3.53271,5.259808 z m 2.15887,-15.269145 c 1.17757,0 2.15888,0.981308 2.15888,2.158877 0,0 0,1.099064 0,2.158876 -1.21682,0 -2.98318,0 -4.31775,0 V 36.59103 c 0,-1.177569 0.9813,-2.158877 2.15887,-2.158877 z m 10.99065,15.70092 c 0.94206,0 1.76635,-0.785046 1.76635,-1.766353 V 34.58916 h 2.15888 c 1.17757,0 2.15888,0.981308 2.15888,2.158877 v 11.618681 c 0,0.981307 0.78504,1.766353 1.76635,1.766353 0.94206,0 1.76635,-0.785046 1.76635,-1.766353 V 36.748037 c 0,-3.140184 -2.5514,-5.691584 -5.69158,-5.691584 h -3.92523 c -0.98131,0 -1.76635,0.785046 -1.76635,1.766354 v 15.543911 c 0,0.981307 0.78504,1.766353 1.76635,1.766353 z M 260.75984,34.58916 h 1.37383 v 9.852328 c 0,3.140184 2.5514,5.691583 5.69158,5.691583 0.98131,0 1.76636,-0.785046 1.76636,-1.766353 0,-0.981308 -0.78505,-1.766354 -1.76636,-1.766354 -1.17757,0 -2.15887,-0.981307 -2.15887,-2.158876 V 34.58916 h 2.15887 c 0.98131,0 1.76636,-0.785046 1.76636,-1.766353 0,-0.981308 -0.78505,-1.766354 -1.76636,-1.766354 h -2.15887 v -6.241115 c 0,-0.981308 -0.78505,-1.766354 -1.76636,-1.766354 -0.98131,0 -1.76635,0.785046 -1.76635,1.766354 v 6.241115 h -1.37383 c -0.98131,0 -1.76636,0.785046 -1.76636,1.766354 0,0.981307 0.78505,1.766353 1.76636,1.766353 z m 20.88217,15.661668 c 1.05982,0 1.88412,-0.824298 1.88412,-1.88411 V 25.600384 c 0,-1.02056 -0.8243,-1.884111 -1.88412,-1.884111 -1.02056,0 -1.88411,0.863551 -1.88411,1.884111 v 22.766334 c 0,1.059812 0.86355,1.88411 1.88411,1.88411 z m 11.3047,-0.117757 c 3.14019,0 5.69159,-2.551399 5.69159,-5.691583 v -7.85046 c 0,-3.140184 -2.5514,-5.691584 -5.69159,-5.691584 -3.14018,0 -5.69158,2.5514 -5.69158,5.691584 v 7.85046 c 0,3.140184 2.5514,5.691583 5.69158,5.691583 z m 0,-15.70092 c 1.17757,0 2.15888,0.981308 2.15888,2.158877 v 7.85046 c 0,1.177569 -0.98131,2.158876 -2.15888,2.158876 -1.21682,0 -2.15887,-0.981307 -2.15887,-2.158876 v -7.85046 c 0,-1.177569 0.94205,-2.158877 2.15887,-2.158877 z m 9.73455,-10.558869 c -1.02056,0 -1.88411,0.863551 -1.88411,1.884111 0,1.059812 0.86355,1.88411 1.88411,1.88411 h 3.21869 v 20.725215 c 0,1.059812 0.86355,1.88411 1.88411,1.88411 1.05981,0 1.88411,-0.824298 1.88411,-1.88411 V 27.641503 h 3.21869 c 1.05981,0 1.88411,-0.824298 1.88411,-1.88411 0,-1.02056 -0.8243,-1.884111 -1.88411,-1.884111 z"
         id="title-cur"
         aria-label="Current IoT"
         class="vision-text" /><g
         id="phone-cur"
         transform="matrix(0.38263086,0,0,0.38263086,220.51162,61.171306)"><use
           id="phone-path-cur"
           href="#phone-path" /><use
           href="#android-logo"
           id="android-cur"
           transform="matrix(0.24303514,0,0,0.24303514,145.70193,16.93187)" /></g><use
         id="house-cur"
         href="#house-path"
         transform="translate(65,379.16121)" /><g
         id="cloud1-cur"
         transform="translate(140.6812,131.44442)"><use
           id="cloud1-path-cur"
           href="#cloud-path" /></g><g
         transform="translate(340.6812,131.44442)"
         id="cloud2-cur"><use
           id="cloud2-path-cur"
           href="#cloud-path" /></g><g
         id="gw1-cur"
         transform="translate(149.19218,251.82546)"><use
           id="gw1-path-cur"
           href="#gw-path" /><use
           id="proprietary-os1"
           href="#proprietary-os-path"
           transform="translate(35.289594,-4.5350347)" /></g><g
         id="gw2-cur"
         transform="translate(308.48857,251.82546)"><use
           id="gw2-path-cur"
           class="vision-component-fill"
           href="#gw-path" /><use
           id="proprietary-os2"
           href="#proprietary-os-path"
           transform="translate(35.289594,-4.5350347)" /></g><g
         id="light1-cur"
         transform="translate(-276.64623,-169.95505)"><use
           id="light1-path-cur"
           href="#light-path" /><use
           id="proprietary-os3"
           href="#proprietary-os-path"
           transform="translate(357.47,474.34)" /></g><g
         id="light2-cur"><use
           id="light-path-cur"
           href="#light-path"
           transform="translate(-215.80935,-126.29789)" /><use
           id="proprietary-os4"
           href="#proprietary-os-path"
           transform="translate(143.61,344.82)" /></g><g
         id="switches-cur"><use
           id="switches-path-cur"
           href="#switches-path" /><use
           id="proprietary-os5"
           href="#proprietary-os-path"
           transform="translate(211.56114,341)" /></g><g
         id="heater-cur"
         transform="translate(268.90742,313.74801)"><use
           id="heater-path-cur"
           href="#heater-path" /><use
           id="proprietary-os6"
           href="#proprietary-os-path"
           transform="translate(11.99,-20.29)" /></g><g
         id="thermos-cur"
         transform="translate(396.32639,328.67963)"><use
           id="thermos-path-cur"
           href="#thermos-path" /><use
           id="proprietary-os7"
           href="#proprietary-os-path"
           transform="translate(-12.21,-22.36)" /></g><path
         d="M 226.36422,97.595203 C 210.90948,111.45054 195.45474,125.30587 180,139.16121"
         id="network-path-phone-silo1-cur"
         class="vision-network-line" /><path
         d="M 264.89847,101.38327 305,139.16121"
         id="network-path-phone-silo2-cur"
         class="vision-network-line" /><path
         d="m 150,239.16121 -5,-45"
         id="network-path-cloud1-gw1-cur"
         class="vision-network-line" /><path
         d="m 330,194.16121 -10,40"
         id="network-path-cloud2-gw2-cur"
         class="vision-network-line" /><path
         d="M 136.33823,284.82546 115,304.16121"
         id="network-path-gw1-light1-cur"
         class="vision-network-line"
         sodipodi:nodetypes="cc" /><path
         d="M 160.80076,290.99975 160,339.16121"
         id="network-path-gw1-light2-cur"
         class="vision-network-line"
         sodipodi:nodetypes="cc" /><path
         style="fill:none;fill-rule:evenodd;stroke:#bc202a;stroke-width:3;stroke-linecap:round;stroke-linejoin:miter;stroke-miterlimit:4;stroke-dasharray:none;stroke-opacity:1"
         d="m 190,284.16121 20,15"
         id="network-path-gw1-switch-cur"
         class="vision-network-line" /><path
         d="m 302.21229,289.49975 -7.123,22.5186"
         id="network-path-gw2-heater-cur"
         class="vision-network-line"
         sodipodi:nodetypes="cc" /><path
         id="network-path-gw2-thermos-cur"
         class="vision-network-line"
         d="m 350,284.16121 40,15" /><path
         d="m 245.14861,139.0463 v 280"
         id="vision-silo-division"
         inkscape:connector-curvature="0"
         sodipodi:nodetypes="cc" /><path
         d="m 83.590042,409.28122 c 0.51,0 0.96,-0.42 0.96,-0.96 0,0 0,-8.22 0,-13.11 1.38,2.97 2.97,6.33 2.97,6.33 0.15,0.33 0.48,0.54 0.87,0.54 0.36,0 0.69,-0.21 0.87,-0.54 0,0 1.56,-3.36 2.97,-6.33 0,4.89 0,13.11 0,13.11 0,0.54 0.42,0.96 0.96,0.96 0.51,0 0.96,-0.42 0.96,-0.96 v -17.4 c 0,-0.45 -0.33,-0.84 -0.75,-0.93 -0.45,-0.09 -0.9,0.12 -1.08,0.51 0,0 -2.76,5.88 -3.93,8.37 -1.17,-2.49 -3.93,-8.37 -3.93,-8.37 -0.21,-0.39 -0.66,-0.6 -1.08,-0.51 -0.45,0.09 -0.75,0.48 -0.75,0.93 v 17.4 c 0,0.54 0.42,0.96 0.96,0.96 z m 17.400018,-7.98 c -2.160004,0 -3.900004,1.74 -3.900004,3.9 0,2.16 1.74,3.9 3.900004,3.9 h 3 c 0.48,0 0.9,-0.39 0.9,-0.9 v -8.94 c 0,-1.56 -0.93,-2.94 -2.37,-3.54 -1.44,-0.6 -3.090004,-0.27 -4.200004,0.84 -0.36,0.33 -0.36,0.9 0,1.26 0.36,0.36 0.93,0.36 1.29,0 0.570004,-0.6 1.440004,-0.75 2.220004,-0.45 0.75,0.33 1.26,1.05 1.26,1.89 v 2.04 z m -2.100004,3.9 c 0,-1.17 0.93,-2.1 2.100004,-2.1 h 2.1 v 4.2 h -2.1 c -1.170004,0 -2.100004,-0.93 -2.100004,-2.1 z m 10.859974,4.02 c 0.48,0 0.9,-0.39 0.9,-0.9 v -10.98 h 2.1 c 1.14,0 2.1,0.93 2.1,2.1 v 8.88 c 0,0.51 0.39,0.9 0.9,0.9 0.48,0 0.9,-0.39 0.9,-0.9 v -8.88 c 0,-2.16 -1.77,-3.9 -3.9,-3.9 h -3 c -0.51,0 -0.9,0.39 -0.9,0.9 v 11.88 c 0,0.51 0.39,0.9 0.9,0.9 z m 14.52001,-0.12 h 3 c 0.51,0 0.9,-0.39 0.9,-0.9 v -11.88 c 0,-0.51 -0.39,-0.9 -0.9,-0.9 -0.51,0 -0.9,0.39 -0.9,0.9 v 10.98 h -2.1 c -1.17,0 -2.1,-0.93 -2.1,-2.1 v -8.88 c 0,-0.51 -0.39,-0.9 -0.9,-0.9 -0.51,0 -0.9,0.39 -0.9,0.9 v 8.88 c 0,2.16 1.74,3.9 3.9,3.9 z m 7.68001,-11.76 h 1.5 v 10.98 c 0,0.51 0.39,0.9 0.9,0.9 0.51,0 0.9,-0.39 0.9,-0.9 v -10.98 h 2.1 c 0.51,0 0.9,-0.39 0.9,-0.9 0,-0.51 -0.39,-0.9 -0.9,-0.9 h -2.1 v -2.22 c 0,-1.17 0.93,-2.1 2.1,-2.1 0.51,0 0.9,-0.39 0.9,-0.9 0,-0.51 -0.39,-0.9 -0.9,-0.9 -2.16,0 -3.9,1.74 -3.9,3.9 v 2.22 h -1.5 c -0.51,0 -0.9,0.39 -0.9,0.9 0,0.51 0.39,0.9 0.9,0.9 z m 11.99998,3.96 c -2.16,0 -3.9,1.74 -3.9,3.9 0,2.16 1.74,3.9 3.9,3.9 h 3 c 0.48,0 0.9,-0.39 0.9,-0.9 v -8.94 c 0,-1.56 -0.93,-2.94 -2.37,-3.54 -1.44,-0.6 -3.09,-0.27 -4.2,0.84 -0.36,0.33 -0.36,0.9 0,1.26 0.36,0.36 0.93,0.36 1.29,0 0.57,-0.6 1.44,-0.75 2.22,-0.45 0.75,0.33 1.26,1.05 1.26,1.89 v 2.04 z m -2.1,3.9 c 0,-1.17 0.93,-2.1 2.1,-2.1 h 2.1 v 4.2 h -2.1 c -1.17,0 -2.1,-0.93 -2.1,-2.1 z m 11.99998,3.72 c 1.47,0.6 3.12,0.27 4.26,-0.84 0.33,-0.36 0.33,-0.93 0,-1.26 -0.36,-0.36 -0.93,-0.36 -1.29,0 -0.6,0.6 -1.5,0.78 -2.28,0.45 -0.78,-0.33 -1.29,-1.11 -1.29,-1.95 v -6 c 0,-0.84 0.51,-1.62 1.29,-1.95 0.78,-0.3 1.68,-0.15 2.28,0.48 0.36,0.33 0.93,0.33 1.29,0 0.33,-0.36 0.33,-0.93 0,-1.29 -1.14,-1.11 -2.79,-1.44 -4.26,-0.84 -1.47,0.6 -2.4,2.01 -2.4,3.6 v 6 c 0,1.59 0.93,3 2.4,3.6 z m 7.37998,-11.58 h 1.5 v 7.98 c 0,2.16 1.74,3.9 3.9,3.9 0.51,0 0.9,-0.39 0.9,-0.9 0,-0.51 -0.39,-0.9 -0.9,-0.9 -1.17,0 -2.1,-0.93 -2.1,-2.1 v -7.98 h 2.1 c 0.51,0 0.9,-0.39 0.9,-0.9 0,-0.51 -0.39,-0.9 -0.9,-0.9 h -2.1 v -5.22 c 0,-0.51 -0.39,-0.9 -0.9,-0.9 -0.51,0 -0.9,0.39 -0.9,0.9 v 5.22 h -1.5 c -0.51,0 -0.9,0.39 -0.9,0.9 0,0.51 0.39,0.9 0.9,0.9 z m 12.95998,11.76 h 3 c 0.51,0 0.9,-0.39 0.9,-0.9 v -11.88 c 0,-0.51 -0.39,-0.9 -0.9,-0.9 -0.51,0 -0.9,0.39 -0.9,0.9 v 10.98 h -2.1 c -1.17,0 -2.1,-0.93 -2.1,-2.1 v -8.88 c 0,-0.51 -0.39,-0.9 -0.9,-0.9 -0.51,0 -0.9,0.39 -0.9,0.9 v 8.88 c 0,2.16 1.74,3.9 3.9,3.9 z m 9,0.12 c 0.51,0 0.9,-0.39 0.9,-0.9 v -10.98 h 2.1 c 0.36,0 0.72,0.09 1.05,0.27 0.42,0.27 0.99,0.12 1.23,-0.33 0.24,-0.42 0.09,-0.96 -0.33,-1.23 -0.6,-0.33 -1.26,-0.51 -1.95,-0.51 h -3 c -0.51,0 -0.9,0.39 -0.9,0.9 v 11.88 c 0,0.51 0.39,0.9 0.9,0.9 z m 10.11,-0.3 c 1.47,0.6 3.15,0.27 4.26,-0.84 0.36,-0.36 0.36,-0.93 0,-1.26 -0.36,-0.36 -0.93,-0.36 -1.29,0 -0.6,0.6 -1.5,0.78 -2.28,0.45 -0.78,-0.33 -1.29,-1.11 -1.29,-1.95 v -2.1 h 5.1 c 0.51,0 0.9,-0.39 0.9,-0.9 v -3 c 0,-2.16 -1.74,-3.9 -3.9,-3.9 -2.16,0 -3.9,1.74 -3.9,3.9 v 6 c 0,1.59 0.93,3 2.4,3.6 z m 1.5,-11.7 c 1.17,0 2.1,0.93 2.1,2.1 0,0 0,1.23 0,2.1 -0.9,0 -3,0 -4.2,0 v -2.1 c 0,-1.17 0.93,-2.1 2.1,-2.1 z m 8.4,12 c 0.51,0 0.9,-0.39 0.9,-0.9 v -10.98 h 2.1 c 0.36,0 0.72,0.09 1.05,0.27 0.42,0.27 0.99,0.12 1.23,-0.33 0.24,-0.42 0.09,-0.96 -0.33,-1.23 -0.6,-0.33 -1.26,-0.51 -1.95,-0.51 h -3 c -0.51,0 -0.9,0.39 -0.9,0.9 v 11.88 c 0,0.51 0.39,0.9 0.9,0.9 z m 15.74998,-14.01 c 0,0 0.99,-0.99 1.98,-1.98 0,3.48 0,15.09 0,15.09 0,0.54 0.42,0.96 0.96,0.96 0.51,0 0.96,-0.42 0.96,-0.96 v -17.4 c 0,-0.39 -0.24,-0.75 -0.6,-0.9 -0.36,-0.12 -0.78,-0.06 -1.05,0.21 l -3.6,3.6 c -0.36,0.39 -0.36,0.99 0,1.38 0.39,0.36 0.99,0.36 1.35,0 z"
         id="title-silo1"
         aria-label="Manufacturer 1"
         class="vision-text" /><path
         d="m 265.59004,409.28122 c 0.51,0 0.96,-0.42 0.96,-0.96 0,0 0,-8.22 0,-13.11 1.38,2.97 2.97,6.33 2.97,6.33 0.15,0.33 0.48,0.54 0.87,0.54 0.36,0 0.69,-0.21 0.87,-0.54 0,0 1.56,-3.36 2.97,-6.33 0,4.89 0,13.11 0,13.11 0,0.54 0.42,0.96 0.96,0.96 0.51,0 0.96,-0.42 0.96,-0.96 v -17.4 c 0,-0.45 -0.33,-0.84 -0.75,-0.93 -0.45,-0.09 -0.9,0.12 -1.08,0.51 0,0 -2.76,5.88 -3.93,8.37 -1.17,-2.49 -3.93,-8.37 -3.93,-8.37 -0.21,-0.39 -0.66,-0.6 -1.08,-0.51 -0.45,0.09 -0.75,0.48 -0.75,0.93 v 17.4 c 0,0.54 0.42,0.96 0.96,0.96 z m 17.40002,-7.98 c -2.16,0 -3.9,1.74 -3.9,3.9 0,2.16 1.74,3.9 3.9,3.9 h 3 c 0.48,0 0.9,-0.39 0.9,-0.9 v -8.94 c 0,-1.56 -0.93,-2.94 -2.37,-3.54 -1.44,-0.6 -3.09,-0.27 -4.2,0.84 -0.36,0.33 -0.36,0.9 0,1.26 0.36,0.36 0.93,0.36 1.29,0 0.57,-0.6 1.44,-0.75 2.22,-0.45 0.75,0.33 1.26,1.05 1.26,1.89 v 2.04 z m -2.1,3.9 c 0,-1.17 0.93,-2.1 2.1,-2.1 h 2.1 v 4.2 h -2.1 c -1.17,0 -2.1,-0.93 -2.1,-2.1 z m 10.85997,4.02 c 0.48,0 0.9,-0.39 0.9,-0.9 v -10.98 h 2.1 c 1.14,0 2.1,0.93 2.1,2.1 v 8.88 c 0,0.51 0.39,0.9 0.9,0.9 0.48,0 0.9,-0.39 0.9,-0.9 v -8.88 c 0,-2.16 -1.77,-3.9 -3.9,-3.9 h -3 c -0.51,0 -0.9,0.39 -0.9,0.9 v 11.88 c 0,0.51 0.39,0.9 0.9,0.9 z m 14.52001,-0.12 h 3 c 0.51,0 0.9,-0.39 0.9,-0.9 v -11.88 c 0,-0.51 -0.39,-0.9 -0.9,-0.9 -0.51,0 -0.9,0.39 -0.9,0.9 v 10.98 h -2.1 c -1.17,0 -2.1,-0.93 -2.1,-2.1 v -8.88 c 0,-0.51 -0.39,-0.9 -0.9,-0.9 -0.51,0 -0.9,0.39 -0.9,0.9 v 8.88 c 0,2.16 1.74,3.9 3.9,3.9 z m 7.68001,-11.76 h 1.5 v 10.98 c 0,0.51 0.39,0.9 0.9,0.9 0.51,0 0.9,-0.39 0.9,-0.9 v -10.98 h 2.1 c 0.51,0 0.9,-0.39 0.9,-0.9 0,-0.51 -0.39,-0.9 -0.9,-0.9 h -2.1 v -2.22 c 0,-1.17 0.93,-2.1 2.1,-2.1 0.51,0 0.9,-0.39 0.9,-0.9 0,-0.51 -0.39,-0.9 -0.9,-0.9 -2.16,0 -3.9,1.74 -3.9,3.9 v 2.22 h -1.5 c -0.51,0 -0.9,0.39 -0.9,0.9 0,0.51 0.39,0.9 0.9,0.9 z m 11.99998,3.96 c -2.16,0 -3.9,1.74 -3.9,3.9 0,2.16 1.74,3.9 3.9,3.9 h 3 c 0.48,0 0.9,-0.39 0.9,-0.9 v -8.94 c 0,-1.56 -0.93,-2.94 -2.37,-3.54 -1.44,-0.6 -3.09,-0.27 -4.2,0.84 -0.36,0.33 -0.36,0.9 0,1.26 0.36,0.36 0.93,0.36 1.29,0 0.57,-0.6 1.44,-0.75 2.22,-0.45 0.75,0.33 1.26,1.05 1.26,1.89 v 2.04 z m -2.1,3.9 c 0,-1.17 0.93,-2.1 2.1,-2.1 h 2.1 v 4.2 h -2.1 c -1.17,0 -2.1,-0.93 -2.1,-2.1 z m 11.99998,3.72 c 1.47,0.6 3.12,0.27 4.26,-0.84 0.33,-0.36 0.33,-0.93 0,-1.26 -0.36,-0.36 -0.93,-0.36 -1.29,0 -0.6,0.6 -1.5,0.78 -2.28,0.45 -0.78,-0.33 -1.29,-1.11 -1.29,-1.95 v -6 c 0,-0.84 0.51,-1.62 1.29,-1.95 0.78,-0.3 1.68,-0.15 2.28,0.48 0.36,0.33 0.93,0.33 1.29,0 0.33,-0.36 0.33,-0.93 0,-1.29 -1.14,-1.11 -2.79,-1.44 -4.26,-0.84 -1.47,0.6 -2.4,2.01 -2.4,3.6 v 6 c 0,1.59 0.93,3 2.4,3.6 z m 7.37998,-11.58 h 1.5 v 7.98 c 0,2.16 1.74,3.9 3.9,3.9 0.51,0 0.9,-0.39 0.9,-0.9 0,-0.51 -0.39,-0.9 -0.9,-0.9 -1.17,0 -2.1,-0.93 -2.1,-2.1 v -7.98 h 2.1 c 0.51,0 0.9,-0.39 0.9,-0.9 0,-0.51 -0.39,-0.9 -0.9,-0.9 h -2.1 v -5.22 c 0,-0.51 -0.39,-0.9 -0.9,-0.9 -0.51,0 -0.9,0.39 -0.9,0.9 v 5.22 h -1.5 c -0.51,0 -0.9,0.39 -0.9,0.9 0,0.51 0.39,0.9 0.9,0.9 z m 12.95998,11.76 h 3 c 0.51,0 0.9,-0.39 0.9,-0.9 v -11.88 c 0,-0.51 -0.39,-0.9 -0.9,-0.9 -0.51,0 -0.9,0.39 -0.9,0.9 v 10.98 h -2.1 c -1.17,0 -2.1,-0.93 -2.1,-2.1 v -8.88 c 0,-0.51 -0.39,-0.9 -0.9,-0.9 -0.51,0 -0.9,0.39 -0.9,0.9 v 8.88 c 0,2.16 1.74,3.9 3.9,3.9 z m 9,0.12 c 0.51,0 0.9,-0.39 0.9,-0.9 v -10.98 h 2.1 c 0.36,0 0.72,0.09 1.05,0.27 0.42,0.27 0.99,0.12 1.23,-0.33 0.24,-0.42 0.09,-0.96 -0.33,-1.23 -0.6,-0.33 -1.26,-0.51 -1.95,-0.51 h -3 c -0.51,0 -0.9,0.39 -0.9,0.9 v 11.88 c 0,0.51 0.39,0.9 0.9,0.9 z m 10.11,-0.3 c 1.47,0.6 3.15,0.27 4.26,-0.84 0.36,-0.36 0.36,-0.93 0,-1.26 -0.36,-0.36 -0.93,-0.36 -1.29,0 -0.6,0.6 -1.5,0.78 -2.28,0.45 -0.78,-0.33 -1.29,-1.11 -1.29,-1.95 v -2.1 h 5.1 c 0.51,0 0.9,-0.39 0.9,-0.9 v -3 c 0,-2.16 -1.74,-3.9 -3.9,-3.9 -2.16,0 -3.9,1.74 -3.9,3.9 v 6 c 0,1.59 0.93,3 2.4,3.6 z m 1.5,-11.7 c 1.17,0 2.1,0.93 2.1,2.1 0,0 0,1.23 0,2.1 -0.9,0 -3,0 -4.2,0 v -2.1 c 0,-1.17 0.93,-2.1 2.1,-2.1 z m 8.4,12 c 0.51,0 0.9,-0.39 0.9,-0.9 v -10.98 h 2.1 c 0.36,0 0.72,0.09 1.05,0.27 0.42,0.27 0.99,0.12 1.23,-0.33 0.24,-0.42 0.09,-0.96 -0.33,-1.23 -0.6,-0.33 -1.26,-0.51 -1.95,-0.51 h -3 c -0.51,0 -0.9,0.39 -0.9,0.9 v 11.88 c 0,0.51 0.39,0.9 0.9,0.9 z m 14.00998,-15.66 c 0.45,0.27 1.05,0.09 1.32,-0.36 0.33,-0.6 0.9,-1.02 1.56,-1.23 0.69,-0.18 1.38,-0.09 1.98,0.24 0.63,0.33 1.05,0.9 1.26,1.56 0.21,0.66 0.15,1.35 -0.18,1.98 0,0 0,0 0,0 l -6.3,12 c -0.18,0.3 -0.15,0.66 0.03,0.96 0.15,0.27 0.48,0.45 0.81,0.45 h 6.72 c 0.51,0 0.96,-0.42 0.96,-0.96 0,-0.54 -0.45,-0.96 -0.96,-0.96 0,0 -3.27,0 -5.13,0 1.14,-2.19 5.55,-10.59 5.55,-10.59 0,0 0,0 0,0 0.57,-1.08 0.69,-2.28 0.33,-3.45 -0.33,-1.14 -1.11,-2.1 -2.16,-2.67 -1.05,-0.57 -2.25,-0.72 -3.42,-0.39 -1.17,0.3 -2.13,1.05 -2.73,2.1 -0.27,0.45 -0.09,1.05 0.36,1.32 z"
         id="title-silo2"
         aria-label="Manufacturer 2"
         class="vision-text" /></g><g
       transform="translate(582.20827,36.79899)"
       id="our-vision"><path
         d="m 189.63462,13.45184 c 3.65046,0 6.59439,-2.943922 6.59439,-6.594386 V -6.488328 c 0,-3.650464 -2.94393,-6.594387 -6.59439,-6.594387 -3.65046,0 -6.59439,2.943923 -6.59439,6.594387 V 6.857454 c 0,3.650464 2.94393,6.594386 6.59439,6.594386 z m 0,-22.766334 c 1.57009,0 2.82617,1.256074 2.82617,2.826166 V 6.857454 c 0,1.570092 -1.25608,2.826165 -2.82617,2.826165 -1.57009,0 -2.82617,-1.256073 -2.82617,-2.826165 V -6.488328 c 0,-1.570092 1.25608,-2.826166 2.82617,-2.826166 z m 15.70094,22.491568 h 3.92523 c 0.9813,0 1.76635,-0.785046 1.76635,-1.766353 V -4.13319 c 0,-0.981308 -0.78505,-1.766354 -1.76635,-1.766354 -0.98131,0 -1.76636,0.785046 -1.76636,1.766354 V 9.644367 h -2.15887 c -1.17757,0 -2.15888,-0.981307 -2.15888,-2.158876 V -4.13319 c 0,-0.981308 -0.78505,-1.766354 -1.76635,-1.766354 -0.98131,0 -1.76636,0.785046 -1.76636,1.766354 V 7.485491 c 0,3.140184 2.5514,5.691583 5.69159,5.691583 z m 11.77569,0.157009 c 0.98131,0 1.76636,-0.785046 1.76636,-1.766353 V -2.209828 h 2.15887 c 0.39253,0 0.7458,0.117757 1.05982,0.274766 0.86355,0.51028 1.92336,0.196262 2.43364,-0.628036 0.47103,-0.863551 0.19626,-1.923363 -0.66729,-2.433643 -0.86355,-0.471028 -1.84486,-0.745794 -2.82617,-0.745794 h -3.92523 c -0.9813,0 -1.76635,0.785046 -1.76635,1.766354 V 11.56773 c 0,0.981307 0.78505,1.766353 1.76635,1.766353 z m 22.33453,-1.256073 c 0.23552,0.824298 0.98131,1.37383 1.84486,1.37383 0.8243,0 1.57009,-0.549532 1.80561,-1.37383 l 6.28036,-22.766334 c 0.27477,-1.02056 -0.31401,-2.04112 -1.33457,-2.315886 -0.98131,-0.274766 -2.04112,0.314018 -2.31589,1.295326 0,0 -2.6299,9.538309 -4.43551,16.2112 -1.84486,-6.672891 -4.47476,-16.2112 -4.47476,-16.2112 -0.27477,-0.981308 -1.33458,-1.570092 -2.31589,-1.295326 -1.02056,0.274766 -1.60934,1.295326 -1.33458,2.315886 z m 14.52335,-19.940169 c 1.21682,0 2.15888,-0.981307 2.15888,-2.158876 0,-1.177569 -0.94206,-2.158877 -2.15888,-2.158877 -1.17757,0 -2.15887,0.981308 -2.15887,2.158877 0,1.177569 0.9813,2.158876 2.15887,2.158876 z m 1.76636,19.429889 V -4.13319 c 0,-0.981308 -0.78505,-1.766354 -1.76636,-1.766354 -0.9813,0 -1.76635,0.785046 -1.76635,1.766354 v 15.70092 c 0,0.981307 0.78505,1.766353 1.76635,1.766353 0.98131,0 1.76636,-0.785046 1.76636,-1.766353 z m 9.65609,-2.276634 c -0.43178,0.392523 -0.98131,0.588785 -1.57009,0.471028 -0.58879,-0.0785 -1.09907,-0.431775 -1.37383,-0.942055 -0.47103,-0.824299 -1.5701,-1.099065 -2.43365,-0.628037 -0.82429,0.471028 -1.09906,1.570092 -0.62803,2.39439 0.8243,1.452335 2.23738,2.433643 3.88597,2.669157 1.6486,0.274766 3.2972,-0.235514 4.51402,-1.334579 1.25607,-1.138316 1.88411,-2.747661 1.76635,-4.396257 -0.11775,-1.648597 -0.94205,-3.140184 -2.31588,-4.121492 0,0 0,0 0,0 l -3.65047,-2.551399 c -0.43177,-0.314019 -0.70654,-0.785046 -0.74579,-1.334578 -0.0393,-0.549533 0.15701,-1.059813 0.58878,-1.413083 0.39253,-0.353271 0.90281,-0.549532 1.45234,-0.431776 0.51028,0.0785 0.98131,0.392523 1.25607,0.863551 0.47103,0.824298 1.57009,1.099064 2.39439,0.628037 0.86355,-0.471028 1.13832,-1.570092 0.66729,-2.39439 -0.8243,-1.413083 -2.19813,-2.355138 -3.76822,-2.590652 -1.60934,-0.274766 -3.21869,0.235514 -4.39626,1.295326 -1.21682,1.099064 -1.8056,2.669156 -1.7271,4.2785 0.11776,1.609345 0.94206,3.06168 2.23738,4.003735 l 3.68972,2.5514 c 0,0 0,0 0,0 0.47103,0.314018 0.74579,0.86355 0.78505,1.452335 0.0393,0.588784 -0.15701,1.138316 -0.62804,1.530839 z m 9.34206,-17.153255 c 1.21683,0 2.15888,-0.981307 2.15888,-2.158876 0,-1.177569 -0.94205,-2.158877 -2.15888,-2.158877 -1.17756,0 -2.15887,0.981308 -2.15887,2.158877 0,1.177569 0.98131,2.158876 2.15887,2.158876 z M 276.5,11.56773 V -4.13319 c 0,-0.981308 -0.78505,-1.766354 -1.76636,-1.766354 -0.9813,0 -1.76635,0.785046 -1.76635,1.766354 v 15.70092 c 0,0.981307 0.78505,1.766353 1.76635,1.766353 0.98131,0 1.76636,-0.785046 1.76636,-1.766353 z m 9.53834,1.766353 c 3.14018,0 5.69158,-2.551399 5.69158,-5.691583 v -7.85046 c 0,-3.140184 -2.5514,-5.691584 -5.69158,-5.691584 -3.14018,0 -5.69158,2.5514 -5.69158,5.691584 V 7.6425 c 0,3.140184 2.5514,5.691583 5.69158,5.691583 z m 0,-15.70092 c 1.17757,0 2.15888,0.981308 2.15888,2.158877 V 7.6425 c 0,1.177569 -0.98131,2.158876 -2.15888,2.158876 -1.21682,0 -2.15888,-0.981307 -2.15888,-2.158876 v -7.85046 c 0,-1.177569 0.94206,-2.158877 2.15888,-2.158877 z m 11.30464,15.70092 c 0.94206,0 1.76635,-0.785046 1.76635,-1.766353 V -2.209828 h 2.15888 c 1.17757,0 2.15888,0.981308 2.15888,2.158877 V 11.56773 c 0,0.981307 0.78504,1.766353 1.76635,1.766353 0.94206,0 1.76635,-0.785046 1.76635,-1.766353 V -0.050951 c 0,-3.140184 -2.5514,-5.691584 -5.69158,-5.691584 h -3.92523 c -0.98131,0 -1.76635,0.785046 -1.76635,1.766354 V 11.56773 c 0,0.981307 0.78504,1.766353 1.76635,1.766353 z"
         id="title-vision"
         aria-label="Our Vision"
         class="vision-text" /><use
         id="house-vision"
         href="#house-path"
         transform="translate(65.000013,342.36219)" /><g
         id="cloud-vision"
         transform="translate(242.68122,38.645408)"><use
           id="cloud-path-vision"
           href="#cloud-path" /></g><g
         id="gw-vision"
         transform="translate(230.25821,181.07318)"><use
           id="gw-path-vision"
           class="vision-component-fill"
           href="#gw-path" /><use
           id="use190"
           href="#linux-logo"
           transform="matrix(0.0863399,0,0,0.0863399,25.43879,-15.712852)" /></g><g
         id="light1-vision"
         transform="translate(-196.29351,-240.77346)"><use
           id="light1-path-vision"
           href="#light-path" /><use
           id="light1-riot-logo"
           href="#riot-logo"
           transform="translate(173.32262,204.24693)" /></g><g
         id="light2-vision"
         transform="translate(-261.29306,-189.80283)"><use
           id="light2-path-vision"
           href="#light-path" /><use
           id="light2-riot-logo"
           href="#riot-logo"
           transform="translate(173.32262,204.24693)" /></g><g
         id="switches-vision"
         transform="translate(24.530029,-13.429007)"><use
           id="switches-path-vision"
           href="#switches-path" /><use
           id="switches-riot-logo"
           href="#riot-logo"
           transform="translate(1.2530257,45.172194)" /></g><g
         id="heater-vision"
         transform="translate(-6.8932028,-82.154011)"><use
           id="heater-path-vision"
           href="#heater-path"
           transform="translate(261.60295,312.42451)" /><use
           id="heater-riot-logo"
           href="#riot-logo"
           transform="translate(74.463863,73.902921)" /></g><g
         id="thermos-vision"
         transform="translate(333.599,308.1866)"><use
           id="thermos-path-vision"
           href="#thermos-path" /><use
           id="thermos-riot-logo"
           href="#riot-logo"
           transform="translate(-161.79091,-262.62485)" /></g><g
         id="phone-vision"
         transform="matrix(0.38263086,0,0,0.38263086,340.51162,224.37232)"><use
           id="phone-path-vision"
           href="#phone-path" /><use
           href="#android-logo"
           id="android-vision"
           transform="matrix(0.24303514,0,0,0.24303514,145.70193,16.93187)" /></g><path
         d="m 237.74237,163.86033 8.61971,-58.3578"
         id="network-path-cloud-gw-vision"
         class="vision-network-line" /><path
         d="M 214.0952,217.00686 194.54951,232.2594"
         id="network-path-gw-light1-vision"
         class="vision-network-line" /><path
         d="m 159.24239,262.41296 -27.52666,21.26142"
         id="network-path-light1-light2-vision"
         class="vision-network-line" /><path
         id="network-path-light1-switches-vision"
         d="m 191.6586,253.67565 28.88832,32.1726"
         class="vision-network-line" /><path
         d="m 262.37182,220.74417 3.6179,8.99017"
         id="network-path-gw-heater-vision"
         class="vision-network-line" /><path
         d="m 304.74619,276.90916 16.76649,15.75762"
         id="network-path-heater-thermos-vision"
         class="vision-network-line" /><path
         id="network-path-gw-phone-vision"
         d="m 272.84852,213.6724 73.02604,15.80002"
         class="vision-network-line" /></g></g></svg>
