<?xml version="1.0" encoding="UTF-8"?>
<!DOCTYPE svg PUBLIC "-//W3C//DTD SVG 1.1//EN" "http://www.w3.org/Graphics/SVG/1.1/DTD/svg11.dtd">
<svg xmlns="http://www.w3.org/2000/svg" xmlns:xlink="http://www.w3.org/1999/xlink" version="1.1" width="2001px" height="1611px" viewBox="-0.5 -0.5 2001 1611"><defs/><g><rect x="0" y="0" width="2000" height="1609.76" fill="rgb(255, 255, 255)" stroke="none" pointer-events="all"/><rect x="24.39" y="24.39" width="926.83" height="170.73" fill="#d5e8d4" stroke="#82b366" stroke-width="2.44" pointer-events="all"/><g transform="translate(-0.5 -0.5)scale(2.4390243902439024)"><switch><foreignObject pointer-events="none" width="100%" height="100%" requiredFeatures="http://www.w3.org/TR/SVG11/feature#Extensibility" style="overflow: visible; text-align: left;"><div xmlns="http://www.w3.org/1999/xhtml" style="display: flex; align-items: unsafe center; justify-content: unsafe center; width: 1px; height: 1px; padding-top: 45px; margin-left: 200px;"><div data-drawio-colors="color: rgb(0, 0, 0); " style="box-sizing: border-box; font-size: 0px; text-align: center;"><div style="display: inline-block; font-size: 12px; font-family: Helvetica; color: rgb(0, 0, 0); line-height: 1.2; pointer-events: all; white-space: nowrap;">«component»<br /><b>Runtime Configurations</b></div></div></div></foreignObject><text x="200" y="49" fill="rgb(0, 0, 0)" font-family="Helvetica" font-size="12px" text-anchor="middle">«component»...</text></switch></g><path d="M 895.12 41.46 L 934.15 41.46 L 934.15 90.24 L 895.12 90.24 L 895.12 80.49 L 885.37 80.49 L 885.37 70.73 L 895.12 70.73 L 895.12 60.98 L 885.37 60.98 L 885.37 51.22 L 895.12 51.22 Z" fill="rgb(255, 255, 255)" stroke="rgb(0, 0, 0)" stroke-width="2.44" stroke-miterlimit="10" pointer-events="all"/><path d="M 895.12 51.22 L 904.88 51.22 L 904.88 60.98 L 895.12 60.98 M 895.12 70.73 L 904.88 70.73 L 904.88 80.49 L 895.12 80.49" fill="none" stroke="rgb(0, 0, 0)" stroke-width="2.44" stroke-miterlimit="10" pointer-events="all"/><path d="M 1000 321.66 L 1000 268.3 L 487.8 268.3 L 487.8 214.92" fill="none" stroke="rgb(0, 0, 0)" stroke-width="2.44" stroke-miterlimit="10" pointer-events="stroke"/><path d="M 1000 338.74 L 991.46 321.66 L 1008.54 321.66 Z" fill="rgb(0, 0, 0)" stroke="rgb(0, 0, 0)" stroke-width="2.44" stroke-miterlimit="10" pointer-events="all"/><path d="M 487.8 197.85 L 496.34 214.92 L 479.26 214.92 Z" fill="rgb(0, 0, 0)" stroke="rgb(0, 0, 0)" stroke-width="2.44" stroke-miterlimit="10" pointer-events="all"/><rect x="24.39" y="341.46" width="1951.22" height="170.73" fill="#dae8fc" stroke="#6c8ebf" stroke-width="2.44" pointer-events="all"/><g transform="translate(-0.5 -0.5)scale(2.4390243902439024)"><switch><foreignObject pointer-events="none" width="100%" height="100%" requiredFeatures="http://www.w3.org/TR/SVG11/feature#Extensibility" style="overflow: visible; text-align: left;"><div xmlns="http://www.w3.org/1999/xhtml" style="display: flex; align-items: unsafe center; justify-content: unsafe center; width: 1px; height: 1px; padding-top: 175px; margin-left: 410px;"><div data-drawio-colors="color: rgb(0, 0, 0); " style="box-sizing: border-box; font-size: 0px; text-align: center;"><div style="display: inline-block; font-size: 12px; font-family: Helvetica; color: rgb(0, 0, 0); line-height: 1.2; pointer-events: all; white-space: nowrap;">«component»<br /><b>Registry</b></div></div></div></foreignObject><text x="410" y="179" fill="rgb(0, 0, 0)" font-family="Helvetica" font-size="12px" text-anchor="middle">«component»...</text></switch></g><path d="M 1919.51 358.54 L 1958.54 358.54 L 1958.54 407.32 L 1919.51 407.32 L 1919.51 397.56 L 1909.76 397.56 L 1909.76 387.8 L 1919.51 387.8 L 1919.51 378.05 L 1909.76 378.05 L 1909.76 368.29 L 1919.51 368.29 Z" fill="rgb(255, 255, 255)" stroke="rgb(0, 0, 0)" stroke-width="2.44" stroke-miterlimit="10" pointer-events="all"/><path d="M 1919.51 368.29 L 1929.27 368.29 L 1929.27 378.05 L 1919.51 378.05 M 1919.51 387.8 L 1929.27 387.8 L 1929.27 397.56 L 1919.51 397.56" fill="none" stroke="rgb(0, 0, 0)" stroke-width="2.44" stroke-miterlimit="10" pointer-events="all"/><rect x="1439.02" y="804.88" width="487.8" height="268.29" fill="#fff2cc" stroke="#d6b656" stroke-width="2.44" pointer-events="none"/><g transform="translate(-0.5 -0.5)scale(2.4390243902439024)"><switch><foreignObject pointer-events="none" width="100%" height="100%" requiredFeatures="http://www.w3.org/TR/SVG11/feature#Extensibility" style="overflow: visible; text-align: left;"><div xmlns="http://www.w3.org/1999/xhtml" style="display: flex; align-items: unsafe flex-start; justify-content: unsafe center; width: 1px; height: 1px; padding-top: 337px; margin-left: 690px;"><div data-drawio-colors="color: rgb(0, 0, 0); " style="box-sizing: border-box; font-size: 0px; text-align: center;"><div style="display: inline-block; font-size: 12px; font-family: Helvetica; color: rgb(0, 0, 0); line-height: 1.2; pointer-events: none; white-space: nowrap;">«config manager»<br /><b>LWM2M<br /></b></div></div></div></foreignObject><text x="690" y="349" fill="rgb(0, 0, 0)" font-family="Helvetica" font-size="12px" text-anchor="middle">«config manager»...</text></switch></g><path d="M 1870.73 821.95 L 1909.76 821.95 L 1909.76 870.73 L 1870.73 870.73 L 1870.73 860.98 L 1860.98 860.98 L 1860.98 851.22 L 1870.73 851.22 L 1870.73 841.46 L 1860.98 841.46 L 1860.98 831.71 L 1870.73 831.71 Z" fill="rgb(255, 255, 255)" stroke="rgb(0, 0, 0)" stroke-width="2.44" stroke-miterlimit="10" pointer-events="none"/><path d="M 1870.73 831.71 L 1880.49 831.71 L 1880.49 841.46 L 1870.73 841.46 M 1870.73 851.22 L 1880.49 851.22 L 1880.49 860.98 L 1870.73 860.98" fill="none" stroke="rgb(0, 0, 0)" stroke-width="2.44" stroke-miterlimit="10" pointer-events="none"/><rect x="1464.7" y="926.83" width="436.46" height="97.56" fill="#f5f5f5" stroke="#666666" stroke-width="2.44" pointer-events="none"/><g transform="translate(-0.5 -0.5)scale(2.4390243902439024)"><switch><foreignObject pointer-events="none" width="100%" height="100%" requiredFeatures="http://www.w3.org/TR/SVG11/feature#Extensibility" style="overflow: visible; text-align: left;"><div xmlns="http://www.w3.org/1999/xhtml" style="display: flex; align-items: unsafe center; justify-content: unsafe center; width: 177px; height: 1px; padding-top: 400px; margin-left: 602px;"><div data-drawio-colors="color: #333333; " style="box-sizing: border-box; font-size: 0px; text-align: center;"><div style="display: inline-block; font-size: 12px; font-family: Helvetica; color: rgb(51, 51, 51); line-height: 1.2; pointer-events: none; white-space: normal; overflow-wrap: normal;">CoAP</div></div></div></foreignObject><text x="690" y="404" fill="#333333" font-family="Helvetica" font-size="12px" text-anchor="middle">CoAP</text></switch></g><path d="M 317.06 638.74 L 317.01 532" fill="none" stroke="rgb(0, 0, 0)" stroke-width="2.44" stroke-miterlimit="10" pointer-events="none"/><path d="M 317.07 655.81 L 308.53 638.74 L 325.6 638.73 Z" fill="rgb(0, 0, 0)" stroke="rgb(0, 0, 0)" stroke-width="2.44" stroke-miterlimit="10" pointer-events="none"/><path d="M 317 514.92 L 325.55 531.99 L 308.47 532 Z" fill="rgb(0, 0, 0)" stroke="rgb(0, 0, 0)" stroke-width="2.44" stroke-miterlimit="10" pointer-events="none"/><path d="M 1000 638.74 L 1000 609.76 Q 1000 585.37 1000 560.98 L 1000 532" fill="none" stroke="rgb(0, 0, 0)" stroke-width="2.44" stroke-miterlimit="10" pointer-events="none"/><path d="M 1000 655.81 L 991.46 638.74 L 1008.54 638.74 Z" fill="rgb(0, 0, 0)" stroke="rgb(0, 0, 0)" stroke-width="2.44" stroke-miterlimit="10" pointer-events="none"/><path d="M 1000 514.92 L 1008.54 532 L 991.46 532 Z" fill="rgb(0, 0, 0)" stroke="rgb(0, 0, 0)" stroke-width="2.44" stroke-miterlimit="10" pointer-events="none"/><path d="M 1695.12 638.74 L 1695.12 609.76 Q 1695.12 585.37 1695.12 560.98 L 1695.12 532" fill="none" stroke="rgb(0, 0, 0)" stroke-width="2.44" stroke-miterlimit="10" pointer-events="none"/><path d="M 1695.12 655.81 L 1686.59 638.74 L 1703.66 638.74 Z" fill="rgb(0, 0, 0)" stroke="rgb(0, 0, 0)" stroke-width="2.44" stroke-miterlimit="10" pointer-events="none"/><path d="M 1695.12 514.92 L 1703.66 532 L 1686.59 532 Z" fill="rgb(0, 0, 0)" stroke="rgb(0, 0, 0)" stroke-width="2.44" stroke-miterlimit="10" pointer-events="none"/><path d="M 670.73 731.71 L 670.73 658.54 L 1329.27 658.54 L 1329.27 731.71" fill="none" stroke="#000000" stroke-width="2.44" stroke-miterlimit="10" stroke-dasharray="7.317073170731707 7.317073170731707" pointer-events="none"/><path d="M 670.73 731.71 L 670.73 1585.37 L 1329.27 1585.37 L 1329.27 731.71" fill="none" stroke="#000000" stroke-width="2.44" stroke-miterlimit="10" stroke-dasharray="7.317073170731707 7.317073170731707" pointer-events="none"/><path d="M 670.73 731.71 L 1329.27 731.71" fill="none" stroke="#000000" stroke-width="2.44" stroke-miterlimit="10" stroke-dasharray="7.317073170731707 7.317073170731707" pointer-events="none"/><g fill="rgb(0, 0, 0)" font-family="Helvetica" pointer-events="none" text-anchor="middle" font-size="29.268292682926827px"><text x="999.5" y="706.82">Path Based Configuration Managers</text></g><rect x="719.51" y="780.49" width="463.41" height="268.29" fill="#fff2cc" stroke="#d6b656" stroke-width="2.44" pointer-events="none"/><g transform="translate(-0.5 -0.5)scale(2.4390243902439024)"><switch><foreignObject pointer-events="none" width="100%" height="100%" requiredFeatures="http://www.w3.org/TR/SVG11/feature#Extensibility" style="overflow: visible; text-align: left;"><div xmlns="http://www.w3.org/1999/xhtml" style="display: flex; align-items: unsafe flex-start; justify-content: unsafe center; width: 1px; height: 1px; padding-top: 327px; margin-left: 390px;"><div data-drawio-colors="color: rgb(0, 0, 0); " style="box-sizing: border-box; font-size: 0px; text-align: center;"><div style="display: inline-block; font-size: 12px; font-family: Helvetica; color: rgb(0, 0, 0); line-height: 1.2; pointer-events: none; white-space: nowrap;">«config manager»<br /><b>Config CLI (Riot Shell)</b></div></div></div></foreignObject><text x="390" y="339" fill="rgb(0, 0, 0)" font-family="Helvetica" font-size="12px" text-anchor="middle">«config manager»...</text></switch></g><path d="M 1126.83 797.56 L 1165.85 797.56 L 1165.85 846.34 L 1126.83 846.34 L 1126.83 836.59 L 1117.07 836.59 L 1117.07 826.83 L 1126.83 826.83 L 1126.83 817.07 L 1117.07 817.07 L 1117.07 807.32 L 1126.83 807.32 Z" fill="rgb(255, 255, 255)" stroke="rgb(0, 0, 0)" stroke-width="2.44" stroke-miterlimit="10" pointer-events="none"/><path d="M 1126.83 807.32 L 1136.59 807.32 L 1136.59 817.07 L 1126.83 817.07 M 1126.83 826.83 L 1136.59 826.83 L 1136.59 836.59 L 1126.83 836.59" fill="none" stroke="rgb(0, 0, 0)" stroke-width="2.44" stroke-miterlimit="10" pointer-events="none"/><rect x="743.9" y="902.44" width="414.63" height="97.56" fill="#f5f5f5" stroke="#666666" stroke-width="2.44" pointer-events="none"/><g transform="translate(-0.5 -0.5)scale(2.4390243902439024)"><switch><foreignObject pointer-events="none" width="100%" height="100%" requiredFeatures="http://www.w3.org/TR/SVG11/feature#Extensibility" style="overflow: visible; text-align: left;"><div xmlns="http://www.w3.org/1999/xhtml" style="display: flex; align-items: unsafe center; justify-content: unsafe center; width: 168px; height: 1px; padding-top: 390px; margin-left: 306px;"><div data-drawio-colors="color: #333333; " style="box-sizing: border-box; font-size: 0px; text-align: center;"><div style="display: inline-block; font-size: 12px; font-family: Helvetica; color: rgb(51, 51, 51); line-height: 1.2; pointer-events: none; white-space: normal; overflow-wrap: normal;">Serial</div></div></div></foreignObject><text x="390" y="394" fill="#333333" font-family="Helvetica" font-size="12px" text-anchor="middle">Serial</text></switch></g><rect x="768.29" y="1024.39" width="463.41" height="268.29" fill="#fff2cc" stroke="#d6b656" stroke-width="2.44" pointer-events="none"/><g transform="translate(-0.5 -0.5)scale(2.4390243902439024)"><switch><foreignObject pointer-events="none" width="100%" height="100%" requiredFeatures="http://www.w3.org/TR/SVG11/feature#Extensibility" style="overflow: visible; text-align: left;"><div xmlns="http://www.w3.org/1999/xhtml" style="display: flex; align-items: unsafe flex-start; justify-content: unsafe center; width: 1px; height: 1px; padding-top: 427px; margin-left: 410px;"><div data-drawio-colors="color: rgb(0, 0, 0); " style="box-sizing: border-box; font-size: 0px; text-align: center;"><div style="display: inline-block; font-size: 12px; font-family: Helvetica; color: rgb(0, 0, 0); line-height: 1.2; pointer-events: none; white-space: nowrap;">«config manager»<br /><b>CoAP API<br /></b></div></div></div></foreignObject><text x="410" y="439" fill="rgb(0, 0, 0)" font-family="Helvetica" font-size="12px" text-anchor="middle">«config manager»...</text></switch></g><path d="M 1175.61 1041.46 L 1214.63 1041.46 L 1214.63 1090.24 L 1175.61 1090.24 L 1175.61 1080.49 L 1165.85 1080.49 L 1165.85 1070.73 L 1175.61 1070.73 L 1175.61 1060.98 L 1165.85 1060.98 L 1165.85 1051.22 L 1175.61 1051.22 Z" fill="rgb(255, 255, 255)" stroke="rgb(0, 0, 0)" stroke-width="2.44" stroke-miterlimit="10" pointer-events="none"/><path d="M 1175.61 1051.22 L 1185.37 1051.22 L 1185.37 1060.98 L 1175.61 1060.98 M 1175.61 1070.73 L 1185.37 1070.73 L 1185.37 1080.49 L 1175.61 1080.49" fill="none" stroke="rgb(0, 0, 0)" stroke-width="2.44" stroke-miterlimit="10" pointer-events="none"/><rect x="792.68" y="1146.34" width="414.63" height="97.56" fill="#f5f5f5" stroke="#666666" stroke-width="2.44" pointer-events="none"/><g transform="translate(-0.5 -0.5)scale(2.4390243902439024)"><switch><foreignObject pointer-events="none" width="100%" height="100%" requiredFeatures="http://www.w3.org/TR/SVG11/feature#Extensibility" style="overflow: visible; text-align: left;"><div xmlns="http://www.w3.org/1999/xhtml" style="display: flex; align-items: unsafe center; justify-content: unsafe center; width: 168px; height: 1px; padding-top: 490px; margin-left: 326px;"><div data-drawio-colors="color: #333333; " style="box-sizing: border-box; font-size: 0px; text-align: center;"><div style="display: inline-block; font-size: 12px; font-family: Helvetica; color: rgb(51, 51, 51); line-height: 1.2; pointer-events: none; white-space: normal; overflow-wrap: normal;">UDP</div></div></div></foreignObject><text x="410" y="494" fill="#333333" font-family="Helvetica" font-size="12px" text-anchor="middle">UDP</text></switch></g><rect x="817.07" y="1268.29" width="463.41" height="268.29" fill="#fff2cc" stroke="#d6b656" stroke-width="2.44" pointer-events="none"/><g transform="translate(-0.5 -0.5)scale(2.4390243902439024)"><switch><foreignObject pointer-events="none" width="100%" height="100%" requiredFeatures="http://www.w3.org/TR/SVG11/feature#Extensibility" style="overflow: visible; text-align: left;"><div xmlns="http://www.w3.org/1999/xhtml" style="display: flex; align-items: unsafe flex-start; justify-content: unsafe center; width: 1px; height: 1px; padding-top: 527px; margin-left: 430px;"><div data-drawio-colors="color: rgb(0, 0, 0); " style="box-sizing: border-box; font-size: 0px; text-align: center;"><div style="display: inline-block; font-size: 12px; font-family: Helvetica; color: rgb(0, 0, 0); line-height: 1.2; pointer-events: none; white-space: nowrap;">«config manager»<br /><b>MQTT API<br /></b></div></div></div></foreignObject><text x="430" y="539" fill="rgb(0, 0, 0)" font-family="Helvetica" font-size="12px" text-anchor="middle">«config manager»...</text></switch></g><path d="M 1224.39 1285.37 L 1263.41 1285.37 L 1263.41 1334.15 L 1224.39 1334.15 L 1224.39 1324.39 L 1214.63 1324.39 L 1214.63 1314.63 L 1224.39 1314.63 L 1224.39 1304.88 L 1214.63 1304.88 L 1214.63 1295.12 L 1224.39 1295.12 Z" fill="rgb(255, 255, 255)" stroke="rgb(0, 0, 0)" stroke-width="2.44" stroke-miterlimit="10" pointer-events="none"/><path d="M 1224.39 1295.12 L 1234.15 1295.12 L 1234.15 1304.88 L 1224.39 1304.88 M 1224.39 1314.63 L 1234.15 1314.63 L 1234.15 1324.39 L 1224.39 1324.39" fill="none" stroke="rgb(0, 0, 0)" stroke-width="2.44" stroke-miterlimit="10" pointer-events="none"/><rect x="841.46" y="1390.24" width="414.63" height="97.56" fill="#f5f5f5" stroke="#666666" stroke-width="2.44" pointer-events="none"/><g transform="translate(-0.5 -0.5)scale(2.4390243902439024)"><switch><foreignObject pointer-events="none" width="100%" height="100%" requiredFeatures="http://www.w3.org/TR/SVG11/feature#Extensibility" style="overflow: visible; text-align: left;"><div xmlns="http://www.w3.org/1999/xhtml" style="display: flex; align-items: unsafe center; justify-content: unsafe center; width: 168px; height: 1px; padding-top: 590px; margin-left: 346px;"><div data-drawio-colors="color: #333333; " style="box-sizing: border-box; font-size: 0px; text-align: center;"><div style="display: inline-block; font-size: 12px; font-family: Helvetica; color: rgb(51, 51, 51); line-height: 1.2; pointer-events: none; white-space: normal; overflow-wrap: normal;">TCP</div></div></div></foreignObject><text x="430" y="594" fill="#333333" font-family="Helvetica" font-size="12px" text-anchor="middle">TCP</text></switch></g><path d="M 24.39 731.71 L 24.39 658.54 L 609.76 658.54 L 609.76 731.71" fill="none" stroke="#000000" stroke-width="2.44" stroke-miterlimit="10" stroke-dasharray="7.317073170731707 7.317073170731707" pointer-events="none"/><path d="M 24.39 731.71 L 24.39 1146.34 L 609.76 1146.34 L 609.76 731.71" fill="none" stroke="#000000" stroke-width="2.44" stroke-miterlimit="10" stroke-dasharray="7.317073170731707 7.317073170731707" pointer-events="none"/><path d="M 24.39 731.71 L 609.76 731.71" fill="none" stroke="#000000" stroke-width="2.44" stroke-miterlimit="10" stroke-dasharray="7.317073170731707 7.317073170731707" pointer-events="none"/><g fill="rgb(0, 0, 0)" font-family="Helvetica" pointer-events="none" text-anchor="middle" font-size="29.268292682926827px"><text x="316.57" y="706.82">Applications / Drivers</text></g><rect x="73.17" y="780.49" width="390.24" height="121.95" fill="#ffe6cc" stroke="#d79b00" stroke-width="2.44" pointer-events="none"/><g transform="translate(-0.5 -0.5)scale(2.4390243902439024)"><switch><foreignObject pointer-events="none" width="100%" height="100%" requiredFeatures="http://www.w3.org/TR/SVG11/feature#Extensibility" style="overflow: visible; text-align: left;"><div xmlns="http://www.w3.org/1999/xhtml" style="display: flex; align-items: unsafe flex-start; justify-content: unsafe center; width: 1px; height: 1px; padding-top: 327px; margin-left: 110px;"><div data-drawio-colors="color: rgb(0, 0, 0); " style="box-sizing: border-box; font-size: 0px; text-align: center;"><div style="display: inline-block; font-size: 12px; font-family: Helvetica; color: rgb(0, 0, 0); line-height: 1.2; pointer-events: none; white-space: nowrap;">«application»<br /><b>My app</b></div></div></div></foreignObject><text x="110" y="339" fill="rgb(0, 0, 0)" font-family="Helvetica" font-size="12px" text-anchor="middle">«application»...</text></switch></g><path d="M 407.32 797.56 L 446.34 797.56 L 446.34 846.34 L 407.32 846.34 L 407.32 836.59 L 397.56 836.59 L 397.56 826.83 L 407.32 826.83 L 407.32 817.07 L 397.56 817.07 L 397.56 807.32 L 407.32 807.32 Z" fill="rgb(255, 255, 255)" stroke="rgb(0, 0, 0)" stroke-width="2.44" stroke-miterlimit="10" pointer-events="none"/><path d="M 407.32 807.32 L 417.07 807.32 L 417.07 817.07 L 407.32 817.07 M 407.32 826.83 L 417.07 826.83 L 417.07 836.59 L 407.32 836.59" fill="none" stroke="rgb(0, 0, 0)" stroke-width="2.44" stroke-miterlimit="10" pointer-events="none"/><rect x="121.95" y="878.05" width="390.24" height="121.95" fill="#ffe6cc" stroke="#d79b00" stroke-width="2.44" pointer-events="none"/><g transform="translate(-0.5 -0.5)scale(2.4390243902439024)"><switch><foreignObject pointer-events="none" width="100%" height="100%" requiredFeatures="http://www.w3.org/TR/SVG11/feature#Extensibility" style="overflow: visible; text-align: left;"><div xmlns="http://www.w3.org/1999/xhtml" style="display: flex; align-items: unsafe flex-start; justify-content: unsafe center; width: 1px; height: 1px; padding-top: 367px; margin-left: 130px;"><div data-drawio-colors="color: rgb(0, 0, 0); " style="box-sizing: border-box; font-size: 0px; text-align: center;"><div style="display: inline-block; font-size: 12px; font-family: Helvetica; color: rgb(0, 0, 0); line-height: 1.2; pointer-events: none; white-space: nowrap;">«driver»<br /><b>BME280</b></div></div></div></foreignObject><text x="130" y="379" fill="rgb(0, 0, 0)" font-family="Helvetica" font-size="12px" text-anchor="middle">«driver»...</text></switch></g><path d="M 456.1 895.12 L 495.12 895.12 L 495.12 943.9 L 456.1 943.9 L 456.1 934.15 L 446.34 934.15 L 446.34 924.39 L 456.1 924.39 L 456.1 914.63 L 446.34 914.63 L 446.34 904.88 L 456.1 904.88 Z" fill="rgb(255, 255, 255)" stroke="rgb(0, 0, 0)" stroke-width="2.44" stroke-miterlimit="10" pointer-events="none"/><path d="M 456.1 904.88 L 465.85 904.88 L 465.85 914.63 L 456.1 914.63 M 456.1 924.39 L 465.85 924.39 L 465.85 934.15 L 456.1 934.15" fill="none" stroke="rgb(0, 0, 0)" stroke-width="2.44" stroke-miterlimit="10" pointer-events="none"/><rect x="170.73" y="975.61" width="390.24" height="121.95" fill="#ffe6cc" stroke="#d79b00" stroke-width="2.44" pointer-events="none"/><g transform="translate(-0.5 -0.5)scale(2.4390243902439024)"><switch><foreignObject pointer-events="none" width="100%" height="100%" requiredFeatures="http://www.w3.org/TR/SVG11/feature#Extensibility" style="overflow: visible; text-align: left;"><div xmlns="http://www.w3.org/1999/xhtml" style="display: flex; align-items: unsafe flex-start; justify-content: unsafe center; width: 1px; height: 1px; padding-top: 407px; margin-left: 150px;"><div data-drawio-colors="color: rgb(0, 0, 0); " style="box-sizing: border-box; font-size: 0px; text-align: center;"><div style="display: inline-block; font-size: 12px; font-family: Helvetica; color: rgb(0, 0, 0); line-height: 1.2; pointer-events: none; white-space: nowrap;">«driver»<br /><b>WS2812</b></div></div></div></foreignObject><text x="150" y="419" fill="rgb(0, 0, 0)" font-family="Helvetica" font-size="12px" text-anchor="middle">«driver»...</text></switch></g><path d="M 504.88 992.68 L 543.9 992.68 L 543.9 1041.46 L 504.88 1041.46 L 504.88 1031.71 L 495.12 1031.71 L 495.12 1021.95 L 504.88 1021.95 L 504.88 1012.2 L 495.12 1012.2 L 495.12 1002.44 L 504.88 1002.44 Z" fill="rgb(255, 255, 255)" stroke="rgb(0, 0, 0)" stroke-width="2.44" stroke-miterlimit="10" pointer-events="none"/><path d="M 504.88 1002.44 L 514.63 1002.44 L 514.63 1012.2 L 504.88 1012.2 M 504.88 1021.95 L 514.63 1021.95 L 514.63 1031.71 L 504.88 1031.71" fill="none" stroke="rgb(0, 0, 0)" stroke-width="2.44" stroke-miterlimit="10" pointer-events="none"/><path d="M 1390.24 756.1 L 1390.24 658.54 L 1975.61 658.54 L 1975.61 756.1" fill="none" stroke="#000000" stroke-width="2.44" stroke-miterlimit="10" stroke-dasharray="7.317073170731707 7.317073170731707" pointer-events="none"/><path d="M 1390.24 756.1 L 1390.24 1121.95 L 1975.61 1121.95 L 1975.61 756.1" fill="none" stroke="#000000" stroke-width="2.44" stroke-miterlimit="10" stroke-dasharray="7.317073170731707 7.317073170731707" pointer-events="none"/><path d="M 1390.24 756.1 L 1975.61 756.1" fill="none" stroke="#000000" stroke-width="2.44" stroke-miterlimit="10" stroke-dasharray="7.317073170731707 7.317073170731707" pointer-events="none"/><g transform="translate(-0.5 -0.5)scale(2.4390243902439024)"><switch><foreignObject pointer-events="none" width="100%" height="100%" requiredFeatures="http://www.w3.org/TR/SVG11/feature#Extensibility" style="overflow: visible; text-align: left;"><div xmlns="http://www.w3.org/1999/xhtml" style="display: flex; align-items: unsafe center; justify-content: unsafe center; width: 238px; height: 1px; padding-top: 290px; margin-left: 571px;"><div data-drawio-colors="color: rgb(0, 0, 0); " style="box-sizing: border-box; font-size: 0px; text-align: center;"><div style="display: inline-block; font-size: 12px; font-family: Helvetica; color: rgb(0, 0, 0); line-height: 1.2; pointer-events: none; white-space: normal; overflow-wrap: normal;">Custom Schema Based<br />Configuration Managers</div></div></div></foreignObject><text x="690" y="294" fill="rgb(0, 0, 0)" font-family="Helvetica" font-size="12px" text-anchor="middle">Custom Schema Based...</text></switch></g><rect x="1048.78" y="24.39" width="926.83" height="170.73" fill="#e1d5e7" stroke="#9673a6" stroke-width="2.44" pointer-events="none"/><g transform="translate(-0.5 -0.5)scale(2.4390243902439024)"><switch><foreignObject pointer-events="none" width="100%" height="100%" requiredFeatures="http://www.w3.org/TR/SVG11/feature#Extensibility" style="overflow: visible; text-align: left;"><div xmlns="http://www.w3.org/1999/xhtml" style="display: flex; align-items: unsafe center; justify-content: unsafe center; width: 1px; height: 1px; padding-top: 45px; margin-left: 620px;"><div data-drawio-colors="color: rgb(0, 0, 0); " style="box-sizing: border-box; font-size: 0px; text-align: center;"><div style="display: inline-block; font-size: 12px; font-family: Helvetica; color: rgb(0, 0, 0); line-height: 1.2; pointer-events: none; white-space: nowrap;">«component»<br /><b>Storage</b></div></div></div></foreignObject><text x="620" y="49" fill="rgb(0, 0, 0)" font-family="Helvetica" font-size="12px" text-anchor="middle">«component»...</text></switch></g><path d="M 1919.51 41.46 L 1958.54 41.46 L 1958.54 90.24 L 1919.51 90.24 L 1919.51 80.49 L 1909.76 80.49 L 1909.76 70.73 L 1919.51 70.73 L 1919.51 60.98 L 1909.76 60.98 L 1909.76 51.22 L 1919.51 51.22 Z" fill="rgb(255, 255, 255)" stroke="rgb(0, 0, 0)" stroke-width="2.44" stroke-miterlimit="10" pointer-events="none"/><path d="M 1919.51 51.22 L 1929.27 51.22 L 1929.27 60.98 L 1919.51 60.98 M 1919.51 70.73 L 1929.27 70.73 L 1929.27 80.49 L 1919.51 80.49" fill="none" stroke="rgb(0, 0, 0)" stroke-width="2.44" stroke-miterlimit="10" pointer-events="none"/><path d="M 1000 321.66 L 1000 268.3 L 1512.2 268.3 L 1512.2 214.92" fill="none" stroke="rgb(0, 0, 0)" stroke-width="2.44" stroke-miterlimit="10" pointer-events="none"/><path d="M 1000 338.74 L 991.46 321.66 L 1008.54 321.66 Z" fill="rgb(0, 0, 0)" stroke="rgb(0, 0, 0)" stroke-width="2.44" stroke-miterlimit="10" pointer-events="none"/><path d="M 1512.2 197.85 L 1520.74 214.92 L 1503.66 214.92 Z" fill="rgb(0, 0, 0)" stroke="rgb(0, 0, 0)" stroke-width="2.44" stroke-miterlimit="10" pointer-events="none"/></g><switch><g requiredFeatures="http://www.w3.org/TR/SVG11/feature#Extensibility"/><a transform="translate(0,-5)" xlink:href="https://www.drawio.com/doc/faq/svg-export-text-problems" target="_blank"><text text-anchor="middle" font-size="10px" x="50%" y="100%">Text is not SVG - cannot display</text></a></switch></svg>