<?xml version="1.0" standalone="no"?>
<!DOCTYPE svg PUBLIC "-//W3C//DTD SVG 1.1//EN" "http://www.w3.org/Graphics/SVG/1.1/DTD/svg11.dtd" >
<svg xmlns="http://www.w3.org/2000/svg" xmlns:xlink="http://www.w3.org/1999/xlink" version="1.1">
<metadata>
Created by FontForge 20161003 at Sun Apr  9 20:42:03 2017
 By www-data
Copyright (c) Marten Nettelbladt, 2006. All rights reserved.
</metadata>
<defs>
<font id="Miso" horiz-adv-x="416" >
  <font-face
    font-family="Miso"
    font-weight="400"
    font-style="italic"
    font-stretch="condensed"
    units-per-em="1000"
    panose-1="0 0 0 0 0 0 0 0 0 0"
    ascent="800"
    descent="-200"
    x-height="454"
    cap-height="640"
    bbox="-32 -204 1032 873"
    underline-thickness="96"
    underline-position="0"
    slope="10"
    unicode-range="U+0020-2122"
  />
<missing-glyph horiz-adv-x="192"
 />
    <glyph glyph-name=".notdef" horiz-adv-x="192"
 />
    <glyph glyph-name="O" unicode="O"
d="M208 -4q-32 0 -59.5 12t-48 32.5t-32.5 48t-12 59.5v340q0 31 12 59t32.5 48.5t48 32.5t59.5 12q31 0 59 -12t48.5 -32.5t32.5 -48.5t12 -59v-340q0 -32 -12 -59.5t-32.5 -48t-48.5 -32.5t-59 -12zM208 576q-37 0 -62.5 -26t-25.5 -62v-340q0 -37 25.5 -62.5t62.5 -25.5
q36 0 62 25.5t26 62.5v340q0 18 -7 34t-19 28t-28 19t-34 7z" />
    <glyph glyph-name="Q" unicode="Q"
d="M56 488q0 31 12 59t32.5 48.5t48 32.5t59.5 12q31 0 59 -12t48.5 -32.5t32.5 -48.5t12 -59v-340q0 -34 -13.5 -63t-36.5 -50l46 -79q7 -11 3 -24t-15 -20q-11 -6 -24 -2.5t-20 14.5l-45 79q-11 -3 -23 -5t-24 -2q-32 0 -59.5 12t-48 32.5t-32.5 48t-12 59.5v340zM208 576
q-18 0 -34 -7t-28 -19t-19 -28t-7 -34v-340q0 -37 26 -62.5t62 -25.5q37 0 62.5 25.5t25.5 62.5v340q0 36 -25.5 62t-62.5 26z" />
    <glyph glyph-name="R" unicode="R"
d="M372 428q0 -48 -26 -86t-68 -55l92 -248q5 -12 -0.5 -24t-18.5 -17q-12 -5 -24 0.5t-17 18.5l-96 259h-82v-248q0 -14 -9 -23t-23 -9q-13 0 -22.5 9t-9.5 23v576q0 14 9.5 23t22.5 9h120q31 0 59 -12t48.5 -32.5t32.5 -48.5t12 -59v-56zM220 340q37 0 62.5 25.5
t25.5 62.5v56q0 36 -25.5 62t-62.5 26h-88v-232h88z" />
    <glyph glyph-name="S" unicode="S" horiz-adv-x="382"
d="M240 79q34 25 37 67q2 20 -5 39t-21 33l-160 164q-23 23 -34 54t-8 63q2 33 18 61.5t42 48.5t58 27.5t64 0.5t58 -25.5t43 -47.5q7 -11 3.5 -24t-15.5 -20q-11 -7 -24 -3t-19 15q-20 34 -59 42t-71 -16q-31 -23 -34 -63q-3 -39 24 -68l160 -165q23 -24 34.5 -55.5
t9.5 -65.5q-3 -34 -19 -63.5t-43 -49.5t-60 -28t-66 -1t-60.5 26.5t-44.5 48.5q-6 12 -2.5 24.5t14.5 19.5t24 3.5t20 -15.5q10 -17 26 -28.5t36 -15.5q41 -8 74 17z" />
    <glyph glyph-name="T" unicode="T" horiz-adv-x="380"
d="M320 636q14 0 23 -9t9 -23t-9 -23t-23 -9h-98v-544q0 -14 -9 -23t-23 -9q-13 0 -22.5 9t-9.5 23v544h-98q-13 0 -22.5 9t-9.5 23t9.5 23t22.5 9h260z" />
    <glyph glyph-name="U" unicode="U" horiz-adv-x="424"
d="M124 148q0 -37 25.5 -62.5t62.5 -25.5q36 0 62 25.5t26 62.5v460q0 14 9 23t23 9q13 0 22.5 -9t9.5 -23v-460q0 -32 -12 -59.5t-33 -48t-48.5 -32.5t-58.5 -12q-32 0 -59.5 12t-48 32.5t-32.5 48t-12 59.5v460q0 14 9 23t23 9q13 0 22.5 -9t9.5 -23v-460v0z" />
    <glyph glyph-name="V" unicode="V" horiz-adv-x="448"
d="M34 599q-4 13 2.5 24.5t19.5 15.5q13 3 24.5 -3.5t14.5 -19.5q26 -92 50 -179q10 -37 21 -76.5t21.5 -77.5t20 -73t17.5 -62q7 27 16.5 62t20 73t21.5 77.5t21 76.5q24 87 50 179q3 13 14.5 19.5t24.5 3.5q13 -4 19.5 -15.5t2.5 -24.5l-160 -580q-2 -10 -10.5 -16.5
t-19.5 -6.5t-19.5 6.5t-11.5 16.5z" />
    <glyph glyph-name="W" unicode="W" horiz-adv-x="698"
d="M38 600q-3 14 3.5 25t19.5 14t24.5 -3.5t14.5 -20.5q20 -85 40 -167q8 -35 17.5 -72.5t18.5 -75t17.5 -72.5t15.5 -64q7 29 15 64t17 72.5l18 75t18 72.5q20 82 41 167q2 11 11 18t20 7q24 0 31 -25q20 -85 40 -167q8 -35 17.5 -72.5t18.5 -75t17.5 -72.5t15.5 -64
q7 29 15 64t17 72.5l18 75t18 72.5q20 82 41 167q3 14 14 20.5t24 3.5t20 -14t4 -25l-140 -580q-3 -11 -11.5 -17.5t-19.5 -6.5t-20 6.5t-11 17.5q-21 84 -41 167q-9 35 -18 73t-18 75.5t-17 72.5t-15 64q-7 -29 -15.5 -64t-17.5 -72.5t-18.5 -75.5t-17.5 -73
q-20 -83 -40 -167q-3 -11 -11.5 -17.5t-19.5 -6.5t-20 6.5t-11 17.5l-140 580v0z" />
    <glyph glyph-name="X" unicode="X" horiz-adv-x="422"
d="M47 -1q-12 6 -16.5 18.5t1.5 24.5l143 286l-133 266q-6 11 -1.5 24t16.5 19q11 5 24 1t19 -16l111 -222l111 222q6 12 18.5 16t24.5 -1q12 -6 16 -19t-1 -24l-133 -266l143 -286q5 -12 1 -24.5t-16 -18.5t-24.5 -1.5t-18.5 16.5l-121 242l-121 -242q-6 -12 -19 -16.5
t-24 1.5z" />
    <glyph glyph-name="Y" unicode="Y" horiz-adv-x="402"
d="M169 320l-137 274q-6 11 -1.5 24t16.5 19q11 5 24 1t19 -16l111 -222l111 222q6 12 18.5 16t24.5 -1q12 -6 16.5 -19t-1.5 -24l-137 -274v-292q0 -14 -9 -23t-23 -9t-23 9t-9 23v292z" />
    <glyph glyph-name="Z" unicode="Z" horiz-adv-x="384"
d="M40 32q0 6 3 12q53 127 98 235q19 46 38.5 92t36 86t29.5 70.5t19 44.5h-192q-14 0 -23 9t-9 23t9 23t23 9h240q18 0 27 -14q5 -10 5 -18q0 -4 -2 -12q-54 -128 -99 -236q-20 -46 -39 -92.5t-36 -86t-29.5 -69.5t-18.5 -44h192q14 0 23 -9t9 -23t-9 -23t-23 -9h-240
q-18 0 -27 14q-5 10 -5 18z" />
    <glyph glyph-name="N" unicode="N" horiz-adv-x="480"
d="M387 -3q-11 -3 -21 2t-15 15q-42 86 -82 169q-17 35 -35.5 73t-36.5 75.5t-34.5 72.5t-30.5 64v-440q0 -14 -9 -23t-23 -9t-23 9t-9 23v580q0 11 7 20t18 11t21 -2.5t15 -14.5q41 -86 81 -169q17 -35 35.5 -73t36.5 -75.5t35 -72.5t31 -64v440q0 14 9 23t23 9t23 -9
t9 -23v-580q0 -11 -7 -20t-18 -11z" />
    <glyph glyph-name="M" unicode="M" horiz-adv-x="520"
d="M100 -4q-14 0 -23 9t-9 23v580q0 11 7 20t18 11t21 -2.5t15 -14.5q26 -56 51 -108q21 -45 43 -92.5t37 -78.5q7 15 16.5 35.5t20 43t21.5 46.5t22 46q25 52 51 108q5 10 15 14.5t21 2.5t18 -11t7 -20v-580q0 -14 -9.5 -23t-22.5 -9q-14 0 -23 9t-9 23v437
q-18 -38 -35.5 -75.5l-31.5 -67.5q-17 -35 -32 -68q-10 -18 -29 -18q-21 0 -29 18q-15 33 -32 68q-14 30 -32 67.5t-35 75.5v-437q0 -14 -9.5 -23t-22.5 -9z" />
    <glyph glyph-name="L" unicode="L" horiz-adv-x="348"
d="M100 0q-14 0 -23 9t-9 23v576q0 14 9 23t23 9q13 0 22.5 -9t9.5 -23v-544h168q13 0 22.5 -9t9.5 -23t-9.5 -23t-22.5 -9h-200v0z" />
    <glyph glyph-name="K" unicode="K" horiz-adv-x="421"
d="M389 42q6 -12 1.5 -24.5t-16.5 -18.5t-24.5 -1.5t-17.5 16.5l-144 297l-56 -78v-205q0 -14 -9 -23t-23 -9q-13 0 -22.5 9t-9.5 23v580q0 14 9.5 23t22.5 9q14 0 23 -9t9 -23v-265l202 284q8 11 21 13t24 -6t13 -21t-6 -24l-155 -218z" />
    <glyph glyph-name="J" unicode="J" horiz-adv-x="333"
d="M269 148q0 -41 -20.5 -76.5t-55.5 -55.5t-76 -20t-76 20q-12 7 -15.5 20t3.5 24t19.5 15t24.5 -3q20 -12 43.5 -12t44.5 12q20 11 32 32t12 44v460q0 14 9 23t23 9q13 0 22.5 -9t9.5 -23v-460v0z" />
    <glyph glyph-name="I" unicode="I" horiz-adv-x="200"
d="M100 -4q-13 0 -22.5 9t-9.5 23v580q0 14 9.5 23t22.5 9q14 0 23 -9t9 -23v-580q0 -14 -9 -23t-23 -9z" />
    <glyph glyph-name="H" unicode="H" horiz-adv-x="440"
d="M308 608q0 14 9.5 23t22.5 9q14 0 23 -9t9 -23v-580q0 -14 -9 -23t-23 -9q-13 0 -22.5 9t-9.5 23v268h-176v-268q0 -14 -9 -23t-23 -9q-13 0 -22.5 9t-9.5 23v580q0 14 9.5 23t22.5 9q14 0 23 -9t9 -23v-248h176v248v0z" />
    <glyph glyph-name="G" unicode="G" horiz-adv-x="412"
d="M56 488q0 52 31.5 92.5t81.5 54.5q25 7 50 5t47.5 -11.5t41.5 -26t32 -38.5q7 -11 3.5 -24t-15.5 -20q-11 -7 -24 -3t-20 15q-14 26 -41.5 37.5t-56.5 3.5t-47.5 -31.5t-18.5 -53.5v-340q0 -37 26 -62.5t62 -25.5q37 0 62.5 25.5t25.5 62.5v128h-68q-13 0 -22.5 9
t-9.5 23t9.5 23t22.5 9h100q14 0 23 -9t9 -23v-160q0 -32 -12 -59.5t-32.5 -48t-48.5 -32.5t-59 -12q-32 0 -59.5 12t-48 32.5t-32.5 48t-12 59.5v340v0z" />
    <glyph glyph-name="F" unicode="F" horiz-adv-x="360"
d="M100 0q-13 0 -22.5 9t-9.5 23v572q0 14 9.5 23t22.5 9h200q14 0 23 -9t9 -23t-9 -23t-23 -9h-168v-212h148q14 0 23 -9t9 -23t-9 -23t-23 -9h-148v-264q0 -14 -9 -23t-23 -9z" />
    <glyph glyph-name="E" unicode="E" horiz-adv-x="368"
d="M68 604q0 14 9 23t23 9h200q14 0 23 -9t9 -23t-9 -23t-23 -9h-168v-212h148q14 0 23 -9t9 -23t-9 -23t-23 -9h-148v-232h168q14 0 23 -9t9 -23t-9 -23t-23 -9h-200q-14 0 -23 9t-9 23v572z" />
    <glyph glyph-name="D" unicode="D" horiz-adv-x="428"
d="M220 636q31 0 59 -12t48.5 -32.5t32.5 -48.5t12 -59v-332q0 -32 -12 -59.5t-32.5 -48t-48.5 -32.5t-59 -12h-120q-14 0 -23 9t-9 23v572q0 14 9 23t23 9h120zM308 484q0 36 -25.5 62t-62.5 26h-88v-508h88q37 0 62.5 25.5t25.5 62.5v332z" />
    <glyph glyph-name="C" unicode="C" horiz-adv-x="385"
d="M169 1q-51 14 -82 54.5t-31 92.5v340q0 52 31 92.5t82 54.5q25 7 50 5t47.5 -11.5t41.5 -26t32 -38.5q6 -11 2.5 -24t-14.5 -20t-24 -3t-20 15q-15 26 -42.5 37.5t-56.5 3.5t-47 -31.5t-18 -53.5v-340q0 -30 18 -53.5t47 -31.5t56.5 3.5t42.5 37.5q7 11 20 14.5t24 -2.5
q11 -7 14.5 -20t-2.5 -24q-13 -23 -32 -39t-41.5 -25.5t-47.5 -11.5t-50 5z" />
    <glyph glyph-name="B" unicode="B" horiz-adv-x="428"
d="M68 604q0 14 9 23t23 9h120q31 0 59 -12t48.5 -32.5t32.5 -48.5t12 -59v-36q0 -37 -16 -68t-43 -52q27 -21 43 -52t16 -68v-56q0 -32 -12 -59.5t-32.5 -48t-48.5 -32.5t-59 -12h-120q-14 0 -23 9t-9 23v572zM308 208q0 18 -7 34t-19 28t-28 19t-34 7h-88v-232h88
q36 0 62 25.5t26 62.5v56zM308 484q0 18 -7 34t-19 28t-28 19t-34 7h-88v-212h88q36 0 62 25.5t26 62.5v36z" />
    <glyph glyph-name="A" unicode="A" horiz-adv-x="432"
d="M407 36q4 -13 -2.5 -24t-20.5 -15q-13 -4 -24 2.5t-15 19.5q-4 15 -9 33q-5 16 -10.5 37t-12.5 47h-194q-8 -26 -13 -47t-10 -37q-5 -18 -9 -33q-4 -13 -15 -19.5t-25 -2.5q-13 4 -19.5 15t-2.5 24l160 580q3 11 11.5 17.5t19.5 6.5t19.5 -6.5t11.5 -17.5zM295 200
q-10 37 -21 76.5t-21.5 77.5t-20 72.5t-16.5 61.5q-8 -27 -17 -61.5t-19.5 -72.5t-21.5 -77.5t-21 -76.5h158z" />
    <glyph glyph-name="u" unicode="u" horiz-adv-x="392"
d="M192 2q-27 0 -50.5 10t-41.5 28t-28 41.5t-10 50.5v296q0 13 8.5 21.5t21.5 8.5t21.5 -8.5t8.5 -21.5v-296q0 -29 20.5 -49.5t49.5 -20.5h70v366q0 13 8.5 21.5t21.5 8.5t21.5 -8.5t8.5 -21.5v-396q0 -13 -8.5 -21.5t-21.5 -8.5h-100v0z" />
    <glyph glyph-name="v" unicode="v" horiz-adv-x="370"
d="M36 419q-3 12 3 23t18 15q11 3 22 -3t15 -17q16 -56 33 -111q14 -47 29.5 -99.5t28.5 -94.5q12 42 28 94.5t30 99.5q17 55 33 111q4 11 15 17t23 3q12 -4 18 -15t2 -23l-120 -400q-3 -9 -11 -15t-18 -6t-18 6t-11 15z" />
    <glyph glyph-name="w" unicode="w" horiz-adv-x="538"
d="M39 421q-3 12 3.5 22.5t18.5 13.5t22.5 -3.5t13.5 -18.5q13 -49 25 -98q11 -42 23 -91.5t23 -93.5q11 44 23.5 93.5t23.5 91.5l24 98q7 23 29 23q11 0 19 -6t10 -17q13 -49 25 -98q11 -42 23 -91.5t23 -93.5q11 44 23.5 93.5t23.5 91.5l24 98q3 12 13.5 18.5t23.5 3.5
q12 -3 18 -13.5t3 -22.5l-100 -400q-2 -11 -10 -17t-19 -6q-22 0 -29 23l-24 98q-11 42 -23.5 91t-23.5 94q-11 -45 -23 -94t-23 -91q-12 -49 -25 -98q-2 -11 -10 -17t-19 -6q-22 0 -29 23z" />
    <glyph glyph-name="x" unicode="x" horiz-adv-x="360"
d="M54 2q-11 6 -14.5 17.5t2.5 22.5l104 190l-100 181q-6 11 -2.5 23t14.5 18t23 2.5t18 -14.5l81 -148l82 148q6 11 18 14.5t23 -2.5t14.5 -18t-2.5 -23l-100 -181l104 -190q6 -11 2.5 -22.5t-14.5 -17.5t-23 -3t-18 14l-86 156l-85 -156q-6 -11 -18 -14t-23 3z" />
    <glyph glyph-name="y" unicode="y" horiz-adv-x="369"
d="M50 -202q-13 0 -21.5 8.5t-8.5 21.5t8.5 21.5t21.5 8.5q23 0 41.5 13.5t25.5 36.5l36 120l-117 391q-4 12 2 23t18 15q12 3 22.5 -3t14.5 -17l91 -305l92 305q3 11 14 17t23 3q12 -4 18 -15t2 -23l-120 -400l-38 -128q-14 -43 -47 -67q-35 -26 -78 -26z" />
    <glyph glyph-name="z" unicode="z" horiz-adv-x="344"
d="M42 32q0 6 3 14q40 79 75 148q15 29 30.5 59t29.5 57t25 49t18 35h-151q-13 0 -21.5 8.5t-8.5 21.5t8.5 21.5t21.5 8.5h200q17 0 25 -14q5 -8 5 -16q0 -4 -1 -7t-3 -7q-40 -79 -75 -148q-15 -29 -30.5 -59.5t-29 -57.5t-25 -48.5t-17.5 -34.5h151q12 0 21 -8.5t9 -21.5
t-9 -21.5t-21 -8.5h-200q-18 0 -26 14q-4 7 -4 16z" />
    <glyph glyph-name="t" unicode="t" horiz-adv-x="296"
d="M56 394q-13 0 -21.5 8.5t-8.5 21.5t8.5 21.5t21.5 8.5h50v174q0 13 8.5 21.5t21.5 8.5t21.5 -8.5t8.5 -21.5v-174h70q13 0 21.5 -8.5t8.5 -21.5t-8.5 -21.5t-21.5 -8.5h-70v-266q0 -29 20.5 -49.5t49.5 -20.5q13 0 21.5 -8.5t8.5 -21.5t-8.5 -21.5t-21.5 -8.5
q-27 0 -50.5 10t-41.5 28t-28 41.5t-10 50.5v266h-50v0z" />
    <glyph glyph-name="s" unicode="s" horiz-adv-x="329"
d="M202 75q23 21 20 51q-2 30 -27 48l-93 66q-23 16 -36 39.5t-15 50.5q-2 28 8.5 53t30.5 43q20 19 46 27t53 4q27 -5 49.5 -20t36.5 -39q6 -11 3 -23t-14 -18t-23 -3t-18 14q-14 24 -43 29t-50 -15q-21 -19 -19 -48t26 -45l93 -65q23 -17 36.5 -41t15.5 -53t-8.5 -54.5
t-31.5 -44.5q-21 -20 -47.5 -28t-54.5 -4q-29 5 -52 20.5t-37 40.5q-6 11 -3 23t14 18t23 3t18 -14q16 -26 46 -31q29 -5 53 16z" />
    <glyph glyph-name="r" unicode="r" horiz-adv-x="299"
d="M100 -2q-13 0 -21.5 8.5t-8.5 21.5v396q0 13 8.5 21.5t21.5 8.5h100q34 0 65 -17q11 -7 14 -18.5t-3 -22.5t-18 -14.5t-23 3.5q-17 9 -35 9h-70v-366q0 -13 -8.5 -21.5t-21.5 -8.5z" />
    <glyph glyph-name="q" unicode="q" horiz-adv-x="388"
d="M188 2q-27 0 -50.5 10t-41.5 28t-28 41.5t-10 50.5v192q0 27 10 50.5t28 41.5t41.5 28t50.5 10h100q12 0 21 -8.5t9 -21.5v-596q0 -13 -9 -21.5t-21 -8.5q-13 0 -21.5 8.5t-8.5 21.5v174h-70zM188 394q-29 0 -49.5 -20.5t-20.5 -49.5v-192q0 -29 20.5 -49.5t49.5 -20.5
h70v332h-70z" />
    <glyph glyph-name="p" unicode="p" horiz-adv-x="388"
d="M100 -202q-13 0 -21.5 8.5t-8.5 21.5v596q0 13 8.5 21.5t21.5 8.5h100q27 0 50.5 -10t41 -28t28 -41.5t10.5 -50.5v-192q0 -27 -10.5 -50.5t-28 -41.5t-41 -28t-50.5 -10h-70v-174q0 -13 -9 -21.5t-21 -8.5zM270 324q0 29 -20.5 49.5t-49.5 20.5h-70v-332h70
q29 0 49.5 20.5t20.5 49.5v192z" />
    <glyph glyph-name="o" unicode="o" horiz-adv-x="376"
d="M188 -2q-27 0 -50.5 10t-41.5 28t-28 41.5t-10 50.5v200q0 27 10 50.5t28 41.5t41.5 28t50.5 10t50.5 -10t41 -28t28 -41.5t10.5 -50.5v-200q0 -27 -10.5 -50.5t-28 -41.5t-41 -28t-50.5 -10zM188 398q-29 0 -49.5 -20.5t-20.5 -49.5v-200q0 -29 20.5 -49.5t49.5 -20.5
t49.5 20.5t20.5 49.5v200q0 29 -20.5 49.5t-49.5 20.5z" />
    <glyph glyph-name="n" unicode="n" horiz-adv-x="392"
d="M100 -2q-13 0 -21.5 8.5t-8.5 21.5v396q0 13 8.5 21.5t21.5 8.5h100q27 0 50.5 -10t41 -28t28 -41.5t10.5 -50.5v-296q0 -13 -9 -21.5t-21 -8.5q-13 0 -21.5 8.5t-8.5 21.5v296q0 29 -20.5 49.5t-49.5 20.5h-70v-366q0 -13 -9 -21.5t-21 -8.5z" />
    <glyph glyph-name="m" unicode="m" horiz-adv-x="592"
d="M130 394v-366q0 -13 -9 -21.5t-21 -8.5q-13 0 -21.5 8.5t-8.5 21.5v396q0 13 8.5 21.5t21.5 8.5h300q27 0 50.5 -10t41 -28t28 -41.5t10.5 -50.5v-296q0 -13 -9 -21.5t-21 -8.5q-13 0 -21.5 8.5t-8.5 21.5v296q0 29 -20.5 49.5t-49.5 20.5h-70v-366q0 -13 -9 -21.5
t-21 -8.5q-13 0 -21.5 8.5t-8.5 21.5v366h-140z" />
    <glyph glyph-name="l" unicode="l" horiz-adv-x="200"
d="M122 2q-25 15 -40 40.5t-15 54.5v531q0 13 9 21.5t21 8.5q13 0 21.5 -8.5t8.5 -21.5v-531q0 -14 7 -25t18 -18q11 -6 14.5 -18t-3.5 -23q-6 -11 -18 -14t-23 3z" />
    <glyph glyph-name="k" unicode="k" horiz-adv-x="380"
d="M346 42q6 -11 2.5 -22.5t-14.5 -17.5t-23 -3t-18 14l-115 211l-48 -53v-143q0 -13 -9 -21.5t-21 -8.5q-13 0 -21.5 8.5t-8.5 21.5v600q0 13 8.5 21.5t21.5 8.5q12 0 21 -8.5t9 -21.5v-367l167 187q8 9 20.5 9.5t22.5 -7.5q9 -8 9.5 -20.5t-7.5 -21.5l-122 -136z" />
    <glyph glyph-name="j" unicode="j" horiz-adv-x="208"
d="M108 538q-17 0 -28.5 11.5t-11.5 28.5t11.5 28.5t28.5 11.5t28.5 -11.5t11.5 -28.5t-11.5 -28.5t-28.5 -11.5zM8 -202q-12 0 -21 8.5t-9 21.5t9 21.5t21 8.5q29 0 49.5 20.5t20.5 49.5v500q0 13 9 21.5t21 8.5q13 0 21.5 -8.5t8.5 -21.5v-500q0 -27 -10 -50.5t-28 -41.5
t-41.5 -28t-50.5 -10z" />
    <glyph glyph-name="i" unicode="i" horiz-adv-x="200"
d="M100 538q-17 0 -28.5 11.5t-11.5 28.5t11.5 28.5t28.5 11.5t28.5 -11.5t11.5 -28.5t-11.5 -28.5t-28.5 -11.5zM130 28q0 -13 -8.5 -21.5t-21.5 -8.5q-12 0 -21 8.5t-9 21.5v400q0 13 9 21.5t21 8.5q13 0 21.5 -8.5t8.5 -21.5v-400z" />
    <glyph glyph-name="h" unicode="h" horiz-adv-x="392"
d="M100 -2q-12 0 -21 8.5t-9 21.5v600q0 13 9 21.5t21 8.5q13 0 21.5 -8.5t8.5 -21.5v-174h70q27 0 50.5 -10t41.5 -28t28 -41.5t10 -50.5v-296q0 -13 -8.5 -21.5t-21.5 -8.5q-12 0 -21 8.5t-9 21.5v296q0 29 -20.5 49.5t-49.5 20.5h-70v-366q0 -13 -8.5 -21.5t-21.5 -8.5z
" />
    <glyph glyph-name="g" unicode="g" horiz-adv-x="384"
d="M188 2q-27 0 -50.5 10t-41.5 28t-28 41.5t-10 50.5v192q0 27 10 50.5t28 41.5t41.5 28t50.5 10h100q13 0 21.5 -8.5t8.5 -21.5v-496q0 -40 -21.5 -72.5t-58.5 -47.5t-75 -7.5t-67 35.5q-9 9 -9 21.5t9 20.5q9 9 21.5 9t21.5 -9q15 -15 35.5 -19t40.5 4t31.5 26t11.5 39
v74h-70zM188 394q-29 0 -49.5 -20.5t-20.5 -49.5v-192q0 -29 20.5 -49.5t49.5 -20.5h70v332h-70z" />
    <glyph glyph-name="f" unicode="f" horiz-adv-x="296"
d="M56 394q-13 0 -21.5 8.5t-8.5 21.5t8.5 21.5t21.5 8.5h50v74q0 27 10 50.5t28 41.5t41.5 28t50.5 10q13 0 21.5 -8.5t8.5 -21.5t-8.5 -21.5t-21.5 -8.5q-29 0 -49.5 -20.5t-20.5 -49.5v-74h70q13 0 21.5 -8.5t8.5 -21.5t-8.5 -21.5t-21.5 -8.5h-70v-366q0 -13 -8.5 -21.5
t-21.5 -8.5t-21.5 8.5t-8.5 21.5v366h-50v0z" />
    <glyph glyph-name="e" unicode="e" horiz-adv-x="368"
d="M138 8q-37 15 -58.5 47.5t-21.5 72.5v200q0 27 10 50.5t28 41.5t41.5 28t50.5 10t50.5 -10t41.5 -28t28 -41.5t10 -50.5v-100q0 -13 -8.5 -21.5t-21.5 -8.5h-170v-70q0 -21 11.5 -39t31.5 -26t40.5 -4t35.5 19q9 9 21.5 9t21.5 -9q9 -8 9 -20.5t-9 -21.5
q-28 -28 -66.5 -35.5t-75.5 7.5zM188 398q-29 0 -49.5 -20.5t-20.5 -49.5v-70h140v70q0 29 -20.5 49.5t-49.5 20.5z" />
    <glyph glyph-name="d" unicode="d" horiz-adv-x="388"
d="M188 2q-27 0 -50.5 10t-41.5 28t-28 41.5t-10 50.5v192q0 27 10 50.5t28 41.5t41.5 28t50.5 10h70v174q0 13 8.5 21.5t21.5 8.5q12 0 21 -8.5t9 -21.5v-596q0 -13 -9 -21.5t-21 -8.5h-100zM188 394q-29 0 -49.5 -20.5t-20.5 -49.5v-192q0 -29 20.5 -49.5t49.5 -20.5h70
v332h-70z" />
    <glyph glyph-name="c" unicode="c" horiz-adv-x="328"
d="M138 8q-37 15 -58.5 47.5t-21.5 72.5v200q0 40 21.5 72.5t58.5 47.5t75 7.5t67 -35.5q8 -9 8 -21.5t-8 -21.5q-9 -8 -21.5 -8t-21.5 8q-15 16 -35.5 20t-40.5 -4t-31.5 -26t-11.5 -39v-200q0 -21 11.5 -39t31.5 -26t40.5 -4t35.5 19q9 9 21.5 9t21.5 -9q8 -8 8 -20.5
t-8 -21.5q-29 -28 -67 -35.5t-75 7.5z" />
    <glyph glyph-name="b" unicode="b" horiz-adv-x="388"
d="M100 2q-13 0 -21.5 8.5t-8.5 21.5v596q0 13 8.5 21.5t21.5 8.5q12 0 21 -8.5t9 -21.5v-174h70q27 0 50.5 -10t41 -28t28 -41.5t10.5 -50.5v-192q0 -27 -10.5 -50.5t-28 -41.5t-41 -28t-50.5 -10h-100zM130 394v-332h70q29 0 49.5 20.5t20.5 49.5v192q0 29 -20.5 49.5
t-49.5 20.5h-70z" />
    <glyph glyph-name="a" unicode="a" horiz-adv-x="352"
d="M230 262v68q0 21 -11.5 38t-30.5 25q-20 8 -40 4t-34 -19q-9 -9 -21.5 -9t-21.5 9t-9 21.5t9 20.5q28 28 66 35.5t74 -7.5t57.5 -47t21.5 -71v-298q0 -13 -9 -21.5t-21 -8.5h-100q-27 0 -50.5 10t-41.5 28t-28 41.5t-10 50.5t10 50.5t28 41.5t41.5 28t50.5 10h70zM90 132
q0 -29 20.5 -49.5t49.5 -20.5h70v140h-70q-29 0 -49.5 -20.5t-20.5 -49.5z" />
    <glyph glyph-name="zero" unicode="0"
d="M208 -4q-32 0 -59.5 12t-48 32.5t-32.5 48t-12 59.5v340q0 31 12 59t32.5 48.5t48 32.5t59.5 12q31 0 58.5 -12t48.5 -32.5t33 -48.5t12 -59v-340q0 -32 -12 -59.5t-33 -48t-48.5 -32.5t-58.5 -12zM208 576q-37 0 -62.5 -26t-25.5 -62v-340q0 -37 25.5 -62.5t62.5 -25.5
q36 0 62 25.5t26 62.5v340q0 18 -7 34t-19 28t-28 19t-34 7z" />
    <glyph glyph-name="one" unicode="1"
d="M134 465q-9 -9 -22 -9t-23 9q-9 10 -9 23t9 23l120 120q7 7 16.5 8.5t18.5 -1.5q20 -8 20 -30v-580q0 -14 -9.5 -23t-22.5 -9q-14 0 -23 9t-9 23v503l-66 -66v0z" />
    <glyph glyph-name="two" unicode="2"
d="M76 520q-11 7 -15 20t3 24q31 55 91 70q29 8 58.5 4.5t55.5 -17.5t45 -37t27 -52q18 -59 -11 -115q-42 -79 -78 -149q-16 -30 -32 -60.5t-30 -58t-26 -50t-19 -35.5h171q13 0 22.5 -9t9.5 -23t-9.5 -23t-22.5 -9h-224q-19 0 -27 15q-10 17 -1 32l210 400q17 32 6 66
q-5 17 -15.5 30.5t-26.5 21.5q-31 17 -66 8q-17 -5 -30.5 -15.5t-21.5 -25.5q-7 -11 -20 -15t-24 3z" />
    <glyph glyph-name="three" unicode="3"
d="M205 63q29 8 47 31.5t18 53.5v60q0 36 -26 62t-62 26q-14 0 -23 9t-9 23t9 23t23 9q36 0 62 25.5t26 62.5v40q0 30 -18 53.5t-47 31.5t-56.5 -3.5t-42.5 -37.5q-7 -11 -20 -15t-24 3t-15 20t3 24q13 22 32 38.5t41.5 26t47.5 11.5t50 -5q51 -14 82 -54.5t31 -92.5v-40
q0 -37 -16 -68t-43 -52q27 -21 43 -52t16 -68v-60q0 -52 -31 -92.5t-82 -54.5q-25 -7 -50 -5t-47.5 11.5t-41.5 25.5t-32 39q-7 11 -3 24t15 20q11 6 24 2.5t20 -14.5q15 -26 42.5 -37.5t56.5 -3.5z" />
    <glyph glyph-name="four" unicode="4"
d="M74 136q-16 0 -26 13t-5 29l140 440q5 12 16.5 18.5t24.5 1.5q22 -7 22 -30q0 -7 -2 -10q-29 -94 -55 -174q-11 -34 -22 -68.5t-20.5 -65t-17 -54t-11.5 -36.5h124v108q0 14 9 23t23 9t23 -9t9 -23v-108h48q14 0 23 -9t9 -23t-9 -23t-23 -9h-48v-108q0 -14 -9 -23t-23 -9
t-23 9t-9 23v108h-168v0z" />
    <glyph glyph-name="five" unicode="5"
d="M95 287q-11 3 -17.5 11.5t-6.5 19.5v286q0 14 9 23t23 9h208q14 0 23 -9t9 -23t-9 -23t-23 -9h-176v-180q52 28 111 13q51 -14 82 -54.5t31 -92.5v-110q0 -52 -31 -92.5t-82 -54.5q-25 -7 -50 -5t-47.5 11.5t-41.5 25.5t-32 39q-6 11 -2.5 24t14.5 20q11 6 24 2.5
t20 -14.5q15 -26 42.5 -37.5t56.5 -3.5t47 31.5t18 53.5v110q0 30 -18 53.5t-47 31.5t-56.5 -3.5t-42.5 -37.5q-5 -10 -15 -14t-21 -1z" />
    <glyph glyph-name="six" unicode="6"
d="M217 -4q-32 0 -59.5 12t-48 32.5t-32.5 48t-12 59.5v340q0 52 31.5 92.5t81.5 54.5q25 7 50 5t47.5 -11.5t41.5 -26t32 -38.5q7 -11 3 -24t-15 -20t-24 -3t-20 15q-14 26 -42 37.5t-57 3.5t-47 -31.5t-18 -53.5v-116q39 28 88 28q31 0 59 -12t48.5 -32.5t32.5 -48.5
t12 -59v-100q0 -32 -12 -59.5t-32.5 -48t-48.5 -32.5t-59 -12zM217 336q-18 0 -34 -7t-28 -19t-19 -28t-7 -34v-100q0 -37 26 -62.5t62 -25.5q37 0 62.5 25.5t25.5 62.5v100q0 36 -25.5 62t-62.5 26z" />
    <glyph glyph-name="seven" unicode="7"
d="M85 492q-13 0 -22.5 9t-9.5 23v80q0 14 9.5 23t22.5 9h240q15 0 25 -12q10 -14 6 -28l-140 -576q-3 -13 -14 -19.5t-24 -3.5q-11 2 -18 11t-7 20q0 2 0.5 4t0.5 4q32 132 59 242q12 47 23 94t21 87l17.5 70t10.5 43h-168v-48q0 -14 -9 -23t-23 -9z" />
    <glyph glyph-name="eight" unicode="8"
d="M208 -4q-31 0 -58.5 12t-48.5 32.5t-33 48t-12 59.5v60q0 37 16 68t43 52q-27 21 -43 52t-16 68v40q0 31 12 59t33 48.5t48.5 32.5t58.5 12t59 -12t48.5 -32.5t32.5 -48.5t12 -59v-40q0 -37 -16 -68t-42 -52q26 -21 42 -52t16 -68v-60q0 -32 -12 -59.5t-32.5 -48
t-48.5 -32.5t-59 -12zM120 448q0 -37 26 -62.5t62 -25.5q37 0 62.5 25.5t25.5 62.5v40q0 36 -25.5 62t-62.5 26q-18 0 -34 -7t-28 -19t-19 -28t-7 -34v-40zM296 208q0 36 -25.5 62t-62.5 26q-18 0 -34 -7t-28 -19t-19 -28t-7 -34v-60q0 -37 26 -62.5t62 -25.5
q37 0 62.5 25.5t25.5 62.5v60z" />
    <glyph glyph-name="nine" unicode="9"
d="M199 236q-31 0 -58.5 12t-48.5 32.5t-33 48t-12 59.5v100q0 31 12 59t33 48.5t48.5 32.5t58.5 12t59 -12t48.5 -32.5t32.5 -48.5t12 -59v-340q0 -52 -31 -92.5t-81 -54.5q-51 -14 -98 6t-73 65q-7 11 -3.5 24t14.5 20q12 6 24.5 2.5t19.5 -14.5q15 -26 42.5 -37.5
t56.5 -3.5t47 31.5t18 53.5v116q-37 -28 -88 -28zM199 576q-18 0 -34 -7t-28 -19t-19 -28t-7 -34v-100q0 -37 26 -62.5t62 -25.5q37 0 62.5 25.5t25.5 62.5v100q0 36 -25.5 62t-62.5 26z" />
    <glyph glyph-name="period" unicode="." horiz-adv-x="192"
d="M54 38q0 17 12.5 29.5t29.5 12.5t29.5 -12.5t12.5 -29.5t-12.5 -29.5t-29.5 -12.5t-29.5 12.5t-12.5 29.5z" />
    <glyph glyph-name="at" unicode="@" horiz-adv-x="764"
d="M609 544q45 -46 69 -104t24 -122v-186q0 -27 -10 -50.5t-28 -41.5t-41.5 -28t-50.5 -10h-200q-27 0 -50.5 10t-41 28t-28 41.5t-10.5 50.5t10.5 50.5t28 41t41 28t50.5 10.5h70v68q0 20 -11.5 37t-31.5 25t-40.5 4t-35.5 -19q-9 -8 -21.5 -8t-21.5 9q-8 9 -8 21.5t9 20.5
q28 28 66 35t74 -7q37 -14 59 -46.5t22 -71.5v-268h70q29 0 49.5 20.5t20.5 49.5v186q0 52 -19.5 99t-56.5 84q-37 38 -84 57.5t-100 19.5q-52 0 -99 -19.5t-84 -57.5q-38 -37 -57.5 -84t-19.5 -99v-180q0 -53 19.5 -100t57.5 -84q37 -37 84 -56.5t99 -19.5h110
q13 0 21.5 -9t8.5 -21q0 -13 -8.5 -21.5t-21.5 -8.5h-110q-64 0 -122 24t-104 69q-45 46 -69.5 104t-24.5 123v180q0 64 24.5 122t69.5 104q46 45 104 69.5t122 24.5q65 0 123 -24.5t104 -69.5zM302 132q0 -29 20.5 -49.5t49.5 -20.5h70v140h-70q-29 0 -49.5 -20.5
t-20.5 -49.5z" />
    <glyph glyph-name="aring" unicode="&#xe5;" horiz-adv-x="352"
d="M264 588q0 -35 -24.5 -59.5t-59.5 -24.5t-59.5 24.5t-24.5 59.5t24.5 59.5t59.5 24.5t59.5 -24.5t24.5 -59.5zM144 588q0 -15 10.5 -25.5t25.5 -10.5t25.5 10.5t10.5 25.5t-10.5 25.5t-25.5 10.5t-25.5 -10.5t-10.5 -25.5zM230 262v68q0 21 -11 38t-31 25q-19 8 -39.5 4
t-34.5 -19q-9 -9 -21.5 -9t-20.5 9q-9 9 -9 21.5t9 20.5q27 28 65 35.5t74 -7.5t57.5 -47t21.5 -71v-298q0 -13 -8.5 -21.5t-21.5 -8.5h-100q-27 0 -50.5 10t-41.5 28t-28 41.5t-10 50.5t10 50.5t28 41.5t41.5 28t50.5 10h70zM90 132q0 -29 20.5 -49.5t49.5 -20.5h70v140
h-70q-29 0 -49.5 -20.5t-20.5 -49.5z" />
    <glyph glyph-name="odieresis" unicode="&#xf6;" horiz-adv-x="376"
d="M148 578q0 -17 -11.5 -28.5t-28.5 -11.5t-28.5 11.5t-11.5 28.5t11.5 28.5t28.5 11.5t28.5 -11.5t11.5 -28.5zM308 578q0 -17 -11.5 -28.5t-28.5 -11.5t-28.5 11.5t-11.5 28.5t11.5 28.5t28.5 11.5t28.5 -11.5t11.5 -28.5zM318 128q0 -27 -10 -50.5t-28 -41.5t-41.5 -28
t-50.5 -10t-50.5 10t-41.5 28t-28 41.5t-10 50.5v200q0 27 10 50.5t28 41.5t41.5 28t50.5 10t50.5 -10t41.5 -28t28 -41.5t10 -50.5v-200zM188 58q29 0 49.5 20.5t20.5 49.5v200q0 29 -20.5 49.5t-49.5 20.5t-49.5 -20.5t-20.5 -49.5v-200q0 -29 20.5 -49.5t49.5 -20.5z" />
    <glyph glyph-name="Aring" unicode="&#xc5;" horiz-adv-x="432"
d="M302 788q0 -18 -6.5 -33.5t-18.5 -27t-27.5 -18.5t-33.5 -7t-33.5 7t-27 18.5t-18 27t-6.5 33.5q0 35 25 60t60 25q36 0 61 -25t25 -60zM182 788q0 -14 10 -24.5t24 -10.5t24.5 10.5t10.5 24.5t-10.5 24t-24.5 10t-24 -10t-10 -24zM407 36q4 -13 -2.5 -24t-20.5 -15
q-13 -4 -24 2.5t-15 19.5q-4 15 -9 33q-5 16 -10.5 37t-12.5 47h-194q-8 -26 -13 -47t-10 -37q-5 -18 -9 -33q-4 -13 -15 -19.5t-25 -2.5q-13 4 -19.5 15t-2.5 24l160 580q3 11 11.5 17.5t19.5 6.5t19.5 -6.5t11.5 -17.5zM295 200q-10 37 -21 76.5t-21.5 77.5t-20 72.5
t-16.5 61.5q-8 -27 -17 -61.5t-19.5 -72.5t-21.5 -77.5t-21 -76.5h158z" />
    <glyph glyph-name="Adieresis" unicode="&#xc4;" horiz-adv-x="432"
d="M296 736q-17 0 -29.5 12.5t-12.5 29.5t12.5 29.5t29.5 12.5t29.5 -12.5t12.5 -29.5t-12.5 -29.5t-29.5 -12.5zM136 820q17 0 29.5 -12.5t12.5 -29.5t-12.5 -29.5t-29.5 -12.5t-29.5 12.5t-12.5 29.5t12.5 29.5t29.5 12.5zM407 36q4 -13 -2.5 -24t-20.5 -15
q-13 -4 -24 2.5t-15 19.5q-4 15 -9 33q-5 16 -10.5 37t-12.5 47h-194q-8 -26 -13 -47t-10 -37q-5 -18 -9 -33q-4 -13 -15 -19.5t-25 -2.5q-13 4 -19.5 15t-2.5 24l160 580q3 11 11.5 17.5t19.5 6.5t19.5 -6.5t11.5 -17.5zM295 200q-10 37 -21 76.5t-21.5 77.5t-20 72.5
t-16.5 61.5q-8 -27 -17 -61.5t-19.5 -72.5t-21.5 -77.5t-21 -76.5h158z" />
    <glyph glyph-name="Odieresis" unicode="&#xd6;"
d="M360 148q0 -32 -12 -59.5t-33 -48t-48.5 -32.5t-58.5 -12q-32 0 -59.5 12t-48 32.5t-32.5 48t-12 59.5v340q0 31 12 59t32.5 48.5t48 32.5t59.5 12q31 0 58.5 -12t48.5 -32.5t33 -48.5t12 -59v-340zM208 60q36 0 62 25.5t26 62.5v340q0 18 -7 34t-19 28t-28 19t-34 7
q-37 0 -62.5 -26t-25.5 -62v-340q0 -37 25.5 -62.5t62.5 -25.5zM330 778q0 -17 -12.5 -29.5t-29.5 -12.5q-18 0 -30 12.5t-12 29.5t12 29.5t30 12.5q17 0 29.5 -12.5t12.5 -29.5zM170 778q0 -17 -12.5 -29.5t-29.5 -12.5q-18 0 -30 12.5t-12 29.5t12 29.5t30 12.5
q17 0 29.5 -12.5t12.5 -29.5z" />
    <glyph glyph-name="adieresis" unicode="&#xe4;" horiz-adv-x="352"
d="M230 262v68q0 21 -11.5 38t-30.5 25q-20 8 -40 4t-34 -19q-9 -9 -21.5 -9t-21.5 9q-8 9 -8 21.5t8 20.5q28 28 66 35.5t74 -7.5t57.5 -47t21.5 -71v-298q0 -13 -9 -21.5t-21 -8.5h-100q-27 0 -50.5 10t-41.5 28t-28 41.5t-10 50.5t10 50.5t28 41.5t41.5 28t50.5 10h70z
M90 132q0 -29 20.5 -49.5t49.5 -20.5h70v140h-70q-29 0 -49.5 -20.5t-20.5 -49.5zM220 578q0 17 11.5 28.5t28.5 11.5t28.5 -11.5t11.5 -28.5t-11.5 -28.5t-28.5 -11.5t-28.5 11.5t-11.5 28.5zM100 538q-17 0 -28.5 11.5t-11.5 28.5t11.5 28.5t28.5 11.5t28.5 -11.5
t11.5 -28.5t-11.5 -28.5t-28.5 -11.5z" />
    <glyph glyph-name="hyphen" unicode="-"
d="M360 288q0 -14 -9.5 -23t-22.5 -9h-240q-14 0 -23 9t-9 23t9 23t23 9h240q13 0 22.5 -9t9.5 -23z" />
    <glyph glyph-name="ocircumflex" unicode="&#xf4;" horiz-adv-x="376"
d="M115 515q-9 -7 -20.5 -5.5t-19.5 10.5q-7 10 -5.5 21.5t10.5 18.5l90 70q18 13 35 0l90 -70q10 -7 11.5 -18.5t-6.5 -21.5q-7 -9 -18.5 -10.5t-21.5 5.5q-14 11 -27 22q-11 9 -24 18.5t-21 16.5q-9 -7 -21.5 -16.5t-23.5 -18.5q-13 -11 -28 -22zM58 328q0 27 10 50.5
t28 41.5t41.5 28t50.5 10t50.5 -10t41.5 -28t28 -41.5t10 -50.5v-200q0 -27 -10 -50.5t-28 -41.5t-41.5 -28t-50.5 -10t-50.5 10t-41.5 28t-28 41.5t-10 50.5v200zM188 398q-29 0 -49.5 -20.5t-20.5 -49.5v-200q0 -29 20.5 -49.5t49.5 -20.5t49.5 20.5t20.5 49.5v200
q0 29 -20.5 49.5t-49.5 20.5z" />
    <glyph glyph-name="oacute" unicode="&#xf3;" horiz-adv-x="376"
d="M116 518q-8 9 -7.5 21.5t9.5 20.5l100 90q9 8 21.5 7.5t20.5 -9.5t7.5 -21.5t-9.5 -20.5l-100 -90q-9 -8 -21.5 -7.5t-20.5 9.5zM188 -2q-27 0 -50.5 10t-41.5 28t-28 41.5t-10 50.5v200q0 27 10 50.5t28 41.5t41.5 28t50.5 10t50.5 -10t41.5 -28t28 -41.5t10 -50.5v-200
q0 -27 -10 -50.5t-28 -41.5t-41.5 -28t-50.5 -10zM188 398q-29 0 -49.5 -20.5t-20.5 -49.5v-200q0 -29 20.5 -49.5t49.5 -20.5t49.5 20.5t20.5 49.5v200q0 29 -20.5 49.5t-49.5 20.5z" />
    <glyph glyph-name="ograve" unicode="&#xf2;" horiz-adv-x="376"
d="M118 606q-10 8 -10.5 20.5t8.5 21.5q8 9 20.5 9.5t21.5 -7.5l100 -90q9 -8 9.5 -20.5t-7.5 -21.5t-20.5 -9.5t-21.5 7.5zM318 128q0 -27 -10 -50.5t-28 -41.5t-41.5 -28t-50.5 -10t-50.5 10t-41.5 28t-28 41.5t-10 50.5v200q0 27 10 50.5t28 41.5t41.5 28t50.5 10
t50.5 -10t41.5 -28t28 -41.5t10 -50.5v-200zM188 58q29 0 49.5 20.5t20.5 49.5v200q0 29 -20.5 49.5t-49.5 20.5t-49.5 -20.5t-20.5 -49.5v-200q0 -29 20.5 -49.5t49.5 -20.5z" />
    <glyph glyph-name="otilde" unicode="&#xf5;" horiz-adv-x="376"
d="M122 550q-7 -10 -18.5 -12t-21.5 4q-10 7 -12 18.5t4 21.5q22 32 59 38q38 6 68 -16l8 -6q11 -9 24 -6q15 2 21 14q7 10 18.5 12t21.5 -4q10 -7 12.5 -18.5t-4.5 -21.5q-22 -32 -59 -38q-38 -6 -68 16l-8 6q-11 8 -24 6q-13 -1 -21 -14zM318 128q0 -27 -10 -50.5
t-28 -41.5t-41.5 -28t-50.5 -10t-50.5 10t-41.5 28t-28 41.5t-10 50.5v200q0 27 10 50.5t28 41.5t41.5 28t50.5 10t50.5 -10t41.5 -28t28 -41.5t10 -50.5v-200zM188 58q29 0 49.5 20.5t20.5 49.5v200q0 29 -20.5 49.5t-49.5 20.5t-49.5 -20.5t-20.5 -49.5v-200
q0 -29 20.5 -49.5t49.5 -20.5z" />
    <glyph glyph-name="ntilde" unicode="&#xf1;" horiz-adv-x="392"
d="M266 606q7 10 18 12t22 -4q10 -7 12 -18.5t-4 -21.5q-22 -32 -59 -38q-38 -6 -68 16l-8 6q-11 8 -25 6t-20 -14q-7 -10 -18.5 -12t-21.5 4q-10 7 -12.5 18.5t4.5 21.5q21 32 59 38q36 6 68 -16l8 -6q10 -9 24 -6q13 1 21 14zM300 -2q-13 0 -21.5 8.5t-8.5 21.5v296
q0 29 -20.5 49.5t-49.5 20.5h-70v-366q0 -13 -9 -21.5t-21 -8.5q-13 0 -21.5 8.5t-8.5 21.5v396q0 13 8.5 21.5t21.5 8.5h100q27 0 50.5 -10t41 -28t28 -41.5t10.5 -50.5v-296q0 -13 -9 -21.5t-21 -8.5z" />
    <glyph glyph-name="eth" unicode="&#xf0;" horiz-adv-x="376"
d="M318 128q0 -27 -10 -50.5t-28 -41.5t-41.5 -28t-50.5 -10t-50.5 10t-41.5 28t-28 41.5t-10 50.5v200q0 27 10 50.5t28 41.5t41.5 28t50.5 10q26 0 47 -9q-18 45 -48 84l-43 -29q-10 -6 -21.5 -4t-18.5 12q-6 10 -4 21.5t12 18.5l35 23q-8 8 -17.5 14.5t-19.5 13.5
t-12.5 19t4.5 23q7 10 19 12.5t23 -4.5q27 -18 54 -44l34 23q10 6 21.5 4t18.5 -12t4.5 -21.5t-12.5 -18.5l-27 -18q10 -13 18.5 -26.5t16.5 -27.5q46 -86 46 -184v-200zM188 58q29 0 49.5 20.5t20.5 49.5v200q0 29 -20.5 49.5t-49.5 20.5t-49.5 -20.5t-20.5 -49.5v-200
q0 -29 20.5 -49.5t49.5 -20.5z" />
    <glyph glyph-name="idieresis" unicode="&#xef;" horiz-adv-x="200"
d="M20 538q-17 0 -28.5 11.5t-11.5 28.5t11.5 28.5t28.5 11.5t28.5 -11.5t11.5 -28.5t-11.5 -28.5t-28.5 -11.5zM180 538q-17 0 -28.5 11.5t-11.5 28.5t11.5 28.5t28.5 11.5t28.5 -11.5t11.5 -28.5t-11.5 -28.5t-28.5 -11.5zM70 428q0 13 8.5 21.5t21.5 8.5q12 0 21 -8.5
t9 -21.5v-400q0 -13 -9 -21.5t-21 -8.5q-13 0 -21.5 8.5t-8.5 21.5v400z" />
    <glyph glyph-name="icircumflex" unicode="&#xee;" horiz-adv-x="200"
d="M-12 520q-8 10 -6 21.5t11 18.5l90 70q8 6 17.5 6t17.5 -6l90 -70q10 -7 11.5 -18.5t-6.5 -21.5q-8 -9 -19 -10.5t-21 5.5q-15 11 -28 22q-11 9 -23.5 18.5t-20.5 16.5q-9 -7 -21.5 -16.5t-23.5 -18.5q-13 -11 -28 -22q-9 -7 -20.5 -5.5t-19.5 10.5zM131 28
q0 -13 -9 -21.5t-21 -8.5q-13 0 -21.5 8.5t-8.5 21.5v400q0 13 8.5 21.5t21.5 8.5q12 0 21 -8.5t9 -21.5v-400z" />
    <glyph glyph-name="iacute" unicode="&#xed;" horiz-adv-x="200"
d="M70 428q0 13 8.5 21.5t21.5 8.5q12 0 21 -8.5t9 -21.5v-400q0 -13 -9 -21.5t-21 -8.5q-13 0 -21.5 8.5t-8.5 21.5v400zM192 648q8 -9 7.5 -21.5t-9.5 -20.5l-100 -90q-10 -8 -22.5 -7.5t-20.5 9.5t-7.5 21.5t10.5 20.5l100 90q9 8 21.5 7.5t20.5 -9.5z" />
    <glyph glyph-name="igrave" unicode="&#xec;" horiz-adv-x="200"
d="M153 518q-8 -9 -20.5 -9.5t-22.5 7.5l-100 90q-9 8 -9.5 20.5t7.5 21.5t20.5 9.5t22.5 -7.5l100 -90q9 -8 9.5 -20.5t-7.5 -21.5zM70 428q0 13 9 21.5t21 8.5q13 0 21.5 -8.5t8.5 -21.5v-400q0 -13 -8.5 -21.5t-21.5 -8.5q-12 0 -21 8.5t-9 21.5v400z" />
    <glyph glyph-name="edieresis" unicode="&#xeb;" horiz-adv-x="368"
d="M58 328q0 27 10.5 50.5t28 41.5t41 28t50.5 10t50.5 -10t41.5 -28t28 -41.5t10 -50.5v-100q0 -13 -8.5 -21.5t-21.5 -8.5h-170v-70q0 -21 12 -39t32 -26t40.5 -4t35.5 19q9 9 21.5 9t20.5 -9q9 -8 9 -20.5t-9 -21.5q-28 -28 -66.5 -35.5t-74.5 7.5q-37 15 -59 47.5
t-22 72.5v200zM188 398q-29 0 -49.5 -20.5t-20.5 -49.5v-70h140v70q0 29 -20.5 49.5t-49.5 20.5zM148 578q0 -17 -11.5 -28.5t-28.5 -11.5t-28.5 11.5t-11.5 28.5t11.5 28.5t28.5 11.5t28.5 -11.5t11.5 -28.5zM268 538q-17 0 -28.5 11.5t-11.5 28.5t11.5 28.5t28.5 11.5
t28.5 -11.5t11.5 -28.5t-11.5 -28.5t-28.5 -11.5z" />
    <glyph glyph-name="dotlessi" unicode="&#x131;" horiz-adv-x="200"
d="M70 428q0 13 9 21.5t21 8.5q13 0 21.5 -8.5t8.5 -21.5v-400q0 -13 -8.5 -21.5t-21.5 -8.5q-12 0 -21 8.5t-9 21.5v400z" />
    <glyph glyph-name="space" unicode="&#xa0;" horiz-adv-x="192"
 />
    <glyph glyph-name="uni0020" unicode=" " horiz-adv-x="192"
 />
    <glyph glyph-name="oslash" unicode="&#xf8;" horiz-adv-x="386"
d="M63 328q0 27 10 50.5t28 41.5t41.5 28t50.5 10q48 0 83 -30l32 54q6 11 17.5 13.5t21.5 -2.5q11 -6 13.5 -17.5t-2.5 -21.5l-45 -77q10 -25 10 -49v-200q0 -27 -10 -50.5t-28 -41.5t-41.5 -28t-50.5 -10q-48 0 -83 30l-32 -54q-6 -11 -17.5 -14t-21.5 3q-11 6 -14 17.5
t3 21.5l45 76q-10 23 -10 50v200zM193 58q29 0 49.5 20.5t20.5 49.5v163l-122 -209q19 -24 52 -24zM193 398q-29 0 -49.5 -20.5t-20.5 -49.5v-163l122 209q-21 24 -52 24z" />
    <glyph glyph-name="uacute" unicode="&#xfa;" horiz-adv-x="392"
d="M162 516q-9 -8 -21.5 -7.5t-20.5 9.5t-7.5 21.5t9.5 20.5l100 90q10 8 22.5 7.5t20.5 -9.5t7.5 -21.5t-10.5 -20.5zM192 2q-27 0 -50.5 10t-41 28t-28 41.5t-10.5 50.5v296q0 13 9 21.5t21 8.5q13 0 21.5 -8.5t8.5 -21.5v-296q0 -29 20.5 -49.5t49.5 -20.5h70v366
q0 13 9 21.5t21 8.5q13 0 21.5 -8.5t8.5 -21.5v-396q0 -13 -8.5 -21.5t-21.5 -8.5h-100z" />
    <glyph glyph-name="ugrave" unicode="&#xf9;" horiz-adv-x="392"
d="M120 648q8 9 20.5 9.5t21.5 -7.5l100 -90q10 -8 10.5 -20.5t-7.5 -21.5q-9 -9 -21 -9.5t-22 7.5l-100 90q-9 8 -9.5 20.5t7.5 21.5zM192 2q-27 0 -50.5 10t-41 28t-28 41.5t-10.5 50.5v296q0 13 9 21.5t21 8.5q13 0 21.5 -8.5t8.5 -21.5v-296q0 -29 20.5 -49.5
t49.5 -20.5h70v366q0 13 9 21.5t21 8.5q13 0 21.5 -8.5t8.5 -21.5v-396q0 -13 -8.5 -21.5t-21.5 -8.5h-100z" />
    <glyph glyph-name="ucircumflex" unicode="&#xfb;" horiz-adv-x="392"
d="M120 515q-10 -7 -21 -5.5t-19 10.5q-8 10 -6 21.5t11 18.5l90 70q8 6 17.5 6t17.5 -6l90 -70q9 -7 11 -18.5t-6 -21.5q-8 -9 -19.5 -10.5t-20.5 5.5q-15 11 -28 22q-11 9 -24 18.5t-21 16.5q-8 -7 -20.5 -16.5t-23.5 -18.5q-13 -11 -28 -22zM62 428q0 13 9 21.5t21 8.5
q13 0 21.5 -8.5t8.5 -21.5v-296q0 -29 20.5 -49.5t49.5 -20.5h70v366q0 13 9 21.5t21 8.5q13 0 21.5 -8.5t8.5 -21.5v-396q0 -13 -8.5 -21.5t-21.5 -8.5h-100q-27 0 -50.5 10t-41 28t-28 41.5t-10.5 50.5v296z" />
    <glyph glyph-name="udieresis" unicode="&#xfc;" horiz-adv-x="392"
d="M72 578q0 17 11.5 28.5t28.5 11.5t28.5 -11.5t11.5 -28.5t-11.5 -28.5t-28.5 -11.5t-28.5 11.5t-11.5 28.5zM232 578q0 17 11.5 28.5t28.5 11.5t28.5 -11.5t11.5 -28.5t-11.5 -28.5t-28.5 -11.5t-28.5 11.5t-11.5 28.5zM192 2q-27 0 -50.5 10t-41 28t-28 41.5t-10.5 50.5
v296q0 13 9 21.5t21 8.5q13 0 21.5 -8.5t8.5 -21.5v-296q0 -29 20.5 -49.5t49.5 -20.5h70v366q0 13 9 21.5t21 8.5q13 0 21.5 -8.5t8.5 -21.5v-396q0 -13 -8.5 -21.5t-21.5 -8.5h-100z" />
    <glyph glyph-name="yacute" unicode="&#xfd;" horiz-adv-x="369"
d="M112 518q-8 9 -7.5 21.5t9.5 20.5l100 90q10 8 22.5 7.5t20.5 -9.5t7.5 -21.5t-9.5 -20.5l-100 -90q-10 -8 -22.5 -7.5t-20.5 9.5zM185 132l91 305q4 11 14.5 17t22.5 3q12 -4 18 -15t2 -23l-120 -400l-38 -128q-12 -42 -47 -67q-35 -26 -78 -26q-12 0 -21 8.5t-9 21.5
t9 21.5t21 8.5q23 0 41.5 13.5t25.5 36.5l36 120l-117 391q-4 12 2 23t18 15q12 3 23 -3t14 -17z" />
    <glyph glyph-name="thorn" unicode="&#xfe;" horiz-adv-x="388"
d="M130 -172q0 -13 -8.5 -21.5t-21.5 -8.5t-21.5 8.5t-8.5 21.5v800q0 13 8.5 21.5t21.5 8.5t21.5 -8.5t8.5 -21.5v-170h70q27 0 50.5 -10t41.5 -28t28 -41.5t10 -50.5v-200q0 -27 -10 -50.5t-28 -41.5t-41.5 -28t-50.5 -10h-70v-170zM130 398v-340h70q29 0 49.5 20.5
t20.5 49.5v200q0 29 -20.5 49.5t-49.5 20.5h-70z" />
    <glyph glyph-name="ecircumflex" unicode="&#xea;" horiz-adv-x="368"
d="M139 8q-37 15 -59 47.5t-22 72.5v200q0 27 10.5 50.5t28 41.5t41 28t50.5 10t50.5 -10t41.5 -28t28 -41.5t10 -50.5v-100q0 -13 -8.5 -21.5t-21.5 -8.5h-170v-70q0 -21 12 -39t32 -26t40.5 -4t35.5 19q9 9 21.5 9t20.5 -9q9 -8 9 -20.5t-9 -21.5q-28 -28 -66.5 -35.5
t-74.5 7.5zM188 398q-29 0 -49.5 -20.5t-20.5 -49.5v-70h140v70q0 29 -20.5 49.5t-49.5 20.5zM116 515q-10 -7 -21.5 -5.5t-18.5 10.5q-8 10 -6.5 21.5t11.5 18.5l90 70q8 6 17.5 6t17.5 -6l90 -70q9 -7 10.5 -18.5t-5.5 -21.5q-8 -9 -19.5 -10.5t-20.5 5.5q-15 11 -28 22
q-11 9 -24 18.5t-21 16.5q-8 -7 -20.5 -16.5t-23.5 -18.5q-13 -11 -28 -22z" />
    <glyph glyph-name="egrave" unicode="&#xe8;" horiz-adv-x="368"
d="M280 36q-28 -28 -66.5 -35.5t-75.5 7.5q-36 15 -58 47.5t-22 72.5v200q0 27 10.5 50.5t28 41.5t41 28t50.5 10t50.5 -10t41.5 -28t28 -41.5t10 -50.5v-100q0 -13 -8.5 -21.5t-21.5 -8.5h-170v-70q0 -21 11.5 -39t31.5 -26t41 -4t36 19q8 9 20.5 9t21.5 -9q9 -8 9 -20.5
t-9 -21.5zM188 398q-29 0 -49.5 -20.5t-20.5 -49.5v-70h140v70q0 29 -20.5 49.5t-49.5 20.5zM258 560q10 -8 10.5 -20.5t-8.5 -21.5q-8 -9 -20.5 -9.5t-21.5 7.5l-100 90q-9 8 -9.5 20.5t7.5 21.5t20.5 9.5t21.5 -7.5z" />
    <glyph glyph-name="ccedilla" unicode="&#xe7;" horiz-adv-x="331"
d="M138 448q37 15 75.5 7.5t66.5 -35.5q9 -9 9 -21.5t-9 -21.5q-9 -8 -21.5 -8t-20.5 8q-15 16 -36 20t-41 -4t-31.5 -26t-11.5 -39v-200q0 -21 11.5 -39t31.5 -26q15 -5 26 -5h1h1q27 0 49 20q8 9 20.5 9t21.5 -9q9 -8 9 -20.5t-9 -21.5q-25 -25 -62 -35v-34
q0 -29 -14.5 -55t-40.5 -41q-11 -6 -23 -3t-18 14t-3 23t14 18q12 7 18.5 18.5t6.5 25.5v34q-11 3 -20 7q-36 15 -58 47.5t-22 72.5v200q0 40 22 72.5t58 47.5z" />
    <glyph glyph-name="eacute" unicode="&#xe9;" horiz-adv-x="368"
d="M139 8q-37 15 -59 47.5t-22 72.5v200q0 27 10.5 50.5t28 41.5t41 28t50.5 10t50.5 -10t41.5 -28t28 -41.5t10 -50.5v-100q0 -13 -8.5 -21.5t-21.5 -8.5h-170v-70q0 -21 11.5 -39t31.5 -26t41 -4t36 19q8 9 20.5 9t21.5 -9q9 -8 9 -20.5t-9 -21.5q-28 -28 -66.5 -35.5
t-74.5 7.5zM188 398q-29 0 -49.5 -20.5t-20.5 -49.5v-70h140v70q0 29 -20.5 49.5t-49.5 20.5zM218 650q10 8 22 7.5t21 -9.5q8 -9 7.5 -21.5t-10.5 -20.5l-100 -90q-9 -8 -21.5 -7.5t-20.5 9.5t-7.5 21.5t9.5 20.5z" />
    <glyph glyph-name="ae" unicode="&#xe6;" horiz-adv-x="541"
d="M261 45q-20 -25 -51 -37q-36 -15 -74.5 -7.5t-66.5 35.5q-29 28 -36.5 66.5t8.5 75.5q15 36 47.5 58t72.5 22h70v70q0 21 -11.5 39t-31.5 26t-41 4t-36 -20q-8 -8 -20.5 -8t-21.5 8q-9 9 -9 21.5t9 21.5q28 28 66.5 35.5t74.5 -7.5q31 -12 51 -37q18 22 44 34.5t56 12.5
q27 0 50.5 -10t41 -28t28 -41.5t10.5 -50.5v-100q0 -13 -9 -21.5t-21 -8.5h-170v-70q0 -21 11.5 -39t31.5 -26t40.5 -4t35.5 19q9 9 21.5 9t21.5 -9q8 -8 8 -20.5t-8 -21.5q-29 -28 -67 -35.5t-75 7.5q-30 12 -50 37zM291 258h140v70q0 29 -20.5 49.5t-49.5 20.5
t-49.5 -20.5t-20.5 -49.5v-70zM111 78q15 -15 36 -19t41 4t31.5 26t11.5 39v70h-70q-22 0 -39.5 -11.5t-25.5 -31.5t-4 -40.5t19 -36.5z" />
    <glyph glyph-name="atilde" unicode="&#xe3;" horiz-adv-x="352"
d="M160 2q-27 0 -50.5 10t-41.5 28t-28 41.5t-10 50.5t10 50.5t28 41.5t41.5 28t50.5 10h70v68q0 21 -11.5 38t-30.5 25q-20 8 -40 4t-34 -19q-9 -9 -21.5 -9t-21.5 9q-8 9 -8 21.5t8 20.5q28 28 66 35.5t74 -7.5t57.5 -47t21.5 -71v-298q0 -13 -8.5 -21.5t-21.5 -8.5h-100z
M160 202q-29 0 -49.5 -20.5t-20.5 -49.5t20.5 -49.5t49.5 -20.5h70v140h-70zM286 614q10 -7 12 -18.5t-4 -21.5q-22 -32 -59 -38q-38 -6 -68 16l-8 6q-11 8 -24 6q-13 -1 -21 -14q-7 -10 -18.5 -12t-21.5 4q-10 7 -12 18.5t4 21.5q22 32 59 38q38 6 68 -16l8 -6q11 -9 24 -6
q13 1 21 14q7 10 18.5 12t21.5 -4z" />
    <glyph glyph-name="acircumflex" unicode="&#xe2;" horiz-adv-x="352"
d="M230 262v68q0 21 -11.5 38t-30.5 25q-20 8 -40 4t-34 -19q-9 -9 -21.5 -9t-21.5 9q-8 9 -8 21.5t8 20.5q28 28 66 35.5t74 -7.5t57.5 -47t21.5 -71v-298q0 -13 -9 -21.5t-21 -8.5h-100q-27 0 -50.5 10t-41.5 28t-28 41.5t-10 50.5t10 50.5t28 41.5t41.5 28t50.5 10h70z
M90 132q0 -29 20.5 -49.5t49.5 -20.5h70v140h-70q-29 0 -49.5 -20.5t-20.5 -49.5zM162 630q18 13 35 0l90 -70q10 -7 11.5 -18.5t-6.5 -21.5q-7 -9 -18.5 -10.5t-21.5 5.5q-14 11 -27 22q-11 9 -24 18.5t-21 16.5q-9 -7 -21.5 -16.5t-23.5 -18.5q-13 -11 -28 -22
q-9 -7 -20.5 -5.5t-19.5 10.5q-7 10 -5.5 21.5t10.5 18.5z" />
    <glyph glyph-name="aacute" unicode="&#xe1;" horiz-adv-x="352"
d="M290 32q0 -13 -9 -21.5t-21 -8.5h-100q-27 0 -50.5 10t-41.5 28t-28 41.5t-10 50.5t10 50.5t28 41.5t41.5 28t50.5 10h70v68q0 21 -11.5 38t-30.5 25q-20 8 -40 4t-34 -19q-9 -9 -21.5 -9t-21.5 9q-8 9 -8 21.5t8 20.5q28 28 66 35.5t74 -7.5t57.5 -47t21.5 -71v-298z
M90 132q0 -29 20.5 -49.5t49.5 -20.5h70v140h-70q-29 0 -49.5 -20.5t-20.5 -49.5zM150 516q-10 -8 -22 -7.5t-21 9.5q-8 9 -7.5 21.5t10.5 20.5l100 90q9 8 21.5 7.5t20.5 -9.5t7.5 -21.5t-9.5 -20.5z" />
    <glyph glyph-name="agrave" unicode="&#xe0;" horiz-adv-x="352"
d="M160 2q-27 0 -50.5 10t-41.5 28t-28 41.5t-10 50.5t10 50.5t28 41.5t41.5 28t50.5 10h70v68q0 21 -11.5 38t-30.5 25q-20 8 -40 4t-34 -19q-9 -9 -21.5 -9t-21.5 9t-9 21.5t9 20.5q28 28 66 35.5t74 -7.5t57.5 -47t21.5 -71v-298q0 -13 -9 -21.5t-21 -8.5h-100zM160 202
q-29 0 -49.5 -20.5t-20.5 -49.5t20.5 -49.5t49.5 -20.5h70v140h-70zM250 560q9 -8 9.5 -20.5t-7.5 -21.5t-20.5 -9.5t-21.5 7.5l-100 90q-10 8 -10.5 20.5t7.5 21.5t20.5 9.5t22.5 -7.5z" />
    <glyph glyph-name="uni00DF" unicode="&#xdf;" horiz-adv-x="428"
d="M370 148q0 -31 -12 -58.5t-32 -47.5t-47.5 -32t-58.5 -12q-13 0 -21.5 8.5t-8.5 21.5t8.5 21.5t21.5 8.5q38 0 64 26t26 64v160q0 38 -26 64t-64 26q-11 0 -19.5 6.5t-10.5 17.5t3 20t15 14l19 7q18 8 29.5 23t13.5 35t-6.5 37t-24.5 28q-17 11 -36 12t-36 -8
q-17 -10 -27 -26t-10 -36v-500q0 -13 -9 -21.5t-21 -8.5q-13 0 -21.5 8.5t-8.5 21.5v500q0 36 18.5 67t50.5 48t67.5 15t65.5 -22q27 -18 42.5 -47t15.5 -61q0 -8 -1 -13q-5 -45 -35 -77q34 -20 55 -54t21 -76v-160v0z" />
    <glyph glyph-name="ydieresis" unicode="&#xff;" horiz-adv-x="369"
d="M305 578q0 -17 -11.5 -28.5t-28.5 -11.5t-28.5 11.5t-11.5 28.5t11.5 28.5t28.5 11.5t28.5 -11.5t11.5 -28.5zM105 538q-17 0 -28.5 11.5t-11.5 28.5t11.5 28.5t28.5 11.5t28.5 -11.5t11.5 -28.5t-11.5 -28.5t-28.5 -11.5zM175 -109q-12 -42 -47 -67q-35 -26 -78 -26
q-12 0 -21 8.5t-9 21.5t9 21.5t21 8.5q23 0 41.5 13.5t25.5 36.5l36 120l-117 391q-4 12 2 23t18 15q12 3 23 -3t14 -17l92 -305l91 305q4 11 14.5 17t22.5 3q12 -4 18 -15t2 -23l-120 -400z" />
    <glyph glyph-name="oe" unicode="&#x153;" horiz-adv-x="568"
d="M288 45q-18 -22 -44 -34.5t-56 -12.5q-27 0 -50.5 10t-41.5 28t-28 41.5t-10 50.5v200q0 27 10 50.5t28 41.5t41.5 28t50.5 10q30 0 56 -12.5t44 -34.5q18 22 44 34.5t56 12.5q27 0 50.5 -10t41 -28t28 -41.5t10.5 -50.5v-100q0 -13 -9 -21.5t-21 -8.5h-170v-70
q0 -21 11.5 -39t31.5 -26t40.5 -4t35.5 19q9 9 21.5 9t21.5 -9q8 -8 8 -20.5t-8 -21.5q-29 -28 -67 -35.5t-75 7.5q-30 12 -50 37zM388 398q-29 0 -49.5 -20.5t-20.5 -49.5v-70h140v70q0 29 -20.5 49.5t-49.5 20.5zM188 58q29 0 49.5 20.5t20.5 49.5v200q0 29 -20.5 49.5
t-49.5 20.5t-49.5 -20.5t-20.5 -49.5v-200q0 -29 20.5 -49.5t49.5 -20.5z" />
    <glyph glyph-name="Idieresis" unicode="&#xcf;" horiz-adv-x="200"
d="M222 778q0 -17 -12.5 -29.5t-29.5 -12.5t-29.5 12.5t-12.5 29.5t12.5 29.5t29.5 12.5t29.5 -12.5t12.5 -29.5zM20 736q-17 0 -29.5 12.5t-12.5 29.5t12.5 29.5t29.5 12.5t29.5 -12.5t12.5 -29.5t-12.5 -29.5t-29.5 -12.5zM100 -4q-14 0 -23 9t-9 23v580q0 14 9 23t23 9
t23 -9t9 -23v-580q0 -14 -9 -23t-23 -9z" />
    <glyph glyph-name="Icircumflex" unicode="&#xce;" horiz-adv-x="200"
d="M214 719q-8 -10 -20 -11.5t-23 6.5q-14 10 -27 21q-11 8 -23.5 17.5t-20.5 16.5q-9 -7 -21.5 -16.5t-23.5 -17.5q-13 -11 -26 -21q-11 -8 -23 -6.5t-20 11.5q-8 11 -6.5 23t11.5 20l90 70q8 7 19 7t19 -7l90 -70q10 -8 11.5 -20t-6.5 -23zM68 608q0 14 9 23t23 9t23 -9
t9 -23v-580q0 -14 -9 -23t-23 -9t-23 9t-9 23v580z" />
    <glyph glyph-name="Igrave" unicode="&#xcc;" horiz-adv-x="200"
d="M171 762q10 -9 11 -22t-8 -23q-9 -11 -22 -11.5t-23 8.5l-100 90q-11 9 -11.5 22t8.5 23t22 11t23 -8zM132 28q0 -14 -9 -23t-23 -9t-23 9t-9 23v580q0 14 9 23t23 9t23 -9t9 -23v-580z" />
    <glyph glyph-name="Iacute" unicode="&#xcd;" horiz-adv-x="200"
d="M68 608q0 14 9 23t23 9t23 -9t9 -23v-580q0 -14 -9 -23t-23 -9t-23 9t-9 23v580zM26 717q-9 10 -8.5 23t11.5 22l100 90q10 9 23 8t22 -11t8 -23t-11 -22l-100 -90q-10 -9 -23 -8.5t-22 11.5z" />
    <glyph glyph-name="Ntilde" unicode="&#xd1;" horiz-adv-x="480"
d="M93 639q11 2 21 -2.5t15 -14.5q42 -86 82 -169q17 -35 35 -73t36 -75.5t35 -72.5t31 -64v440q0 14 9.5 23t22.5 9q14 0 23 -9t9 -23v-580q0 -11 -7 -20t-18 -11q-11 -3 -21 2t-15 15q-41 86 -81 169q-17 35 -35.5 73t-36.5 75.5t-35 72.5t-31 64v-440q0 -14 -9 -23
t-23 -9q-13 0 -22.5 9t-9.5 23v580q0 11 7 20t18 11zM133 741q-11 7 -13.5 19t5.5 23q20 33 60 39q18 3 36.5 -1.5t32.5 -15.5l8 -6q11 -8 23 -5q12 1 20 13q7 11 19 13.5t23 -5.5q11 -7 13.5 -19t-4.5 -23q-22 -33 -60 -39q-39 -6 -70 17l-8 6q-11 6 -23 5q-12 -2 -19 -13
q-8 -11 -20 -13.5t-23 5.5z" />
    <glyph glyph-name="Edieresis" unicode="&#xcb;" horiz-adv-x="368"
d="M132 572v-212h148q14 0 23 -9t9 -23t-9 -23t-23 -9h-148v-232h168q14 0 23 -9t9 -23t-9 -23t-23 -9h-200q-14 0 -23 9t-9 23v572q0 14 9 23t23 9h200q14 0 23 -9t9 -23t-9 -23t-23 -9h-168zM238 778q0 17 12.5 29.5t29.5 12.5t29.5 -12.5t12.5 -29.5t-12.5 -29.5
t-29.5 -12.5t-29.5 12.5t-12.5 29.5zM78 778q0 17 12.5 29.5t29.5 12.5t29.5 -12.5t12.5 -29.5t-12.5 -29.5t-29.5 -12.5t-29.5 12.5t-12.5 29.5z" />
    <glyph glyph-name="Ecircumflex" unicode="&#xca;" horiz-adv-x="368"
d="M332 32q0 -14 -9.5 -23t-22.5 -9h-200q-14 0 -23 9t-9 23v572q0 14 9 23t23 9h200q13 0 22.5 -9t9.5 -23t-9.5 -23t-22.5 -9h-168v-212h148q13 0 22.5 -9t9.5 -23t-9.5 -23t-22.5 -9h-148v-232h168q13 0 22.5 -9t9.5 -23zM86 719q-8 11 -6.5 23t11.5 20l90 70q8 7 18.5 7
t18.5 -7l90 -70q11 -8 12.5 -20t-6.5 -23q-8 -10 -20.5 -11.5t-22.5 6.5q-14 10 -27 21q-11 8 -23.5 17.5t-20.5 16.5q-9 -7 -21.5 -16.5t-23.5 -17.5q-13 -11 -27 -21q-10 -8 -22 -6.5t-20 11.5z" />
    <glyph glyph-name="Egrave" unicode="&#xc8;" horiz-adv-x="368"
d="M332 32q0 -14 -9.5 -23t-22.5 -9h-200q-14 0 -23 9t-9 23v572q0 14 9 23t23 9h200q13 0 22.5 -9t9.5 -23t-9.5 -23t-22.5 -9h-168v-212h148q13 0 22.5 -9t9.5 -23t-9.5 -23t-22.5 -9h-148v-232h168q13 0 22.5 -9t9.5 -23zM128 804q-10 9 -10.5 22t8.5 23t22 11t23 -8
l100 -90q10 -9 10.5 -22t-8.5 -23q-8 -11 -21.5 -11.5t-23.5 8.5z" />
    <glyph glyph-name="Eacute" unicode="&#xc9;" horiz-adv-x="368"
d="M132 572v-212h148q13 0 22.5 -9t9.5 -23t-9.5 -23t-22.5 -9h-148v-232h168q13 0 22.5 -9t9.5 -23t-9.5 -23t-22.5 -9h-200q-14 0 -23 9t-9 23v572q0 14 9 23t23 9h200q13 0 22.5 -9t9.5 -23t-9.5 -23t-22.5 -9h-168zM228 852q10 9 23.5 8t21.5 -11q9 -10 8.5 -23
t-10.5 -22l-100 -90q-10 -9 -23 -8.5t-22 11.5q-9 10 -8.5 23t10.5 22z" />
    <glyph glyph-name="Ccedilla" unicode="&#xc7;" horiz-adv-x="394"
d="M168 1q-50 14 -81 54.5t-31 92.5v340q0 52 31 92.5t81 54.5q25 7 50 5t47.5 -11.5t41.5 -26t32 -38.5l10 -17q7 -12 3.5 -24.5t-15.5 -19.5q-11 -7 -23.5 -3.5t-19.5 15.5l-10 17q-15 26 -42.5 37.5t-56.5 3.5t-47 -31.5t-18 -53.5v-340q0 -30 18 -53.5t47 -31.5
t56.5 3.5t42.5 37.5l10 17q7 12 19.5 15.5t23.5 -3.5q12 -7 15.5 -19.5t-3.5 -24.5l-10 -17q-17 -29 -43 -47.5t-56 -25.5v-34q0 -30 -15.5 -56t-41.5 -41q-11 -7 -23.5 -3.5t-19.5 14.5q-7 12 -3.5 24.5t15.5 19.5q11 7 17.5 18t6.5 24v34q-2 1 -4 1t-4 1z" />
    <glyph glyph-name="AE" unicode="&#xc6;" horiz-adv-x="617"
d="M380 572v-212h148q14 0 23 -9t9 -23t-9 -23t-23 -9h-148v-232h168q14 0 23 -9t9 -23t-9 -23t-23 -9h-200q-13 0 -22.5 9t-9.5 23v104h-184q-12 -27 -22 -49t-17 -38q-9 -18 -15 -34q-6 -12 -18.5 -16.5t-24.5 0.5t-16.5 17.5t0.5 24.5l258 576q8 19 30 19h241q14 0 23 -9
t9 -23t-9 -23t-23 -9h-168zM316 200v348q-10 -23 -27.5 -62t-38.5 -86.5t-44.5 -99.5t-44.5 -100h155z" />
    <glyph glyph-name="Atilde" unicode="&#xc3;" horiz-adv-x="432"
d="M152 749q-8 -11 -20 -13.5t-23 5.5q-11 7 -13 19t5 23q22 33 60 39q18 3 36.5 -1.5t33.5 -15.5l8 -6q10 -8 22 -5q12 1 20 13q7 11 19 13.5t23 -5.5q11 -7 13.5 -19t-4.5 -23q-22 -33 -60 -39q-39 -6 -70 17l-8 6q-11 6 -23 5q-12 -2 -19 -13zM407 36q4 -13 -2.5 -24
t-20.5 -15q-13 -4 -24 2.5t-15 19.5q-4 15 -9 33q-5 16 -10.5 37t-12.5 47h-194q-8 -26 -13 -47t-10 -37q-5 -18 -9 -33q-4 -13 -15 -19.5t-25 -2.5q-13 4 -19.5 15t-2.5 24l160 580q3 11 11.5 17.5t19.5 6.5t19.5 -6.5t11.5 -17.5zM295 200q-10 37 -21 76.5t-21.5 77.5
t-20 72.5t-16.5 61.5q-8 -27 -17 -61.5t-19.5 -72.5t-21.5 -77.5t-21 -76.5h158z" />
    <glyph glyph-name="Acircumflex" unicode="&#xc2;" horiz-adv-x="432"
d="M197 832q8 7 19 7t19 -7l90 -70q10 -8 11.5 -20t-6.5 -23q-8 -10 -20 -11.5t-23 6.5q-14 10 -27 21q-11 8 -23 17.5t-21 16.5q-9 -7 -21 -16.5t-23 -17.5q-13 -11 -27 -21q-10 -8 -22.5 -6.5t-20.5 11.5q-8 11 -6.5 23t11.5 20zM407 36q4 -13 -2.5 -24t-20.5 -15
q-13 -4 -24 2.5t-15 19.5q-4 15 -9 33q-5 16 -10.5 37t-12.5 47h-194q-8 -26 -13 -47t-10 -37q-5 -18 -9 -33q-4 -13 -15 -19.5t-25 -2.5q-13 4 -19.5 15t-2.5 24l160 580q3 11 11.5 17.5t19.5 6.5t19.5 -6.5t11.5 -17.5zM295 200q-10 37 -21 76.5t-21.5 77.5t-20 72.5
t-16.5 61.5q-8 -27 -17 -61.5t-19.5 -72.5t-21.5 -77.5t-21 -76.5h158z" />
    <glyph glyph-name="Agrave" unicode="&#xc0;" horiz-adv-x="432"
d="M142 849q9 10 22 11t23 -8l100 -90q10 -9 11 -22t-8 -23q-9 -11 -22 -11.5t-23 8.5l-100 90q-11 9 -11.5 22t8.5 23zM407 36q4 -13 -2.5 -24t-20.5 -15q-13 -4 -24 2.5t-15 19.5q-4 15 -9 33q-5 16 -10.5 37t-12.5 47h-194q-8 -26 -13 -47t-10 -37q-5 -18 -9 -33
q-4 -13 -15 -19.5t-25 -2.5q-13 4 -19.5 15t-2.5 24l160 580q3 11 11.5 17.5t19.5 6.5t19.5 -6.5t11.5 -17.5zM295 200q-10 37 -21 76.5t-21.5 77.5t-20 72.5t-16.5 61.5q-8 -27 -17 -61.5t-19.5 -72.5t-21.5 -77.5t-21 -76.5h158z" />
    <glyph glyph-name="Aacute" unicode="&#xc1;" horiz-adv-x="432"
d="M245 852q10 9 23 8t22 -11t8.5 -23t-11.5 -22l-100 -90q-10 -9 -23 -8.5t-22 11.5q-9 10 -8.5 23t11.5 22zM407 36q4 -13 -2.5 -24t-20.5 -15q-13 -4 -24 2.5t-15 19.5q-4 15 -9 33q-5 16 -10.5 37t-12.5 47h-194q-8 -26 -13 -47t-10 -37q-5 -18 -9 -33q-4 -13 -15 -19.5
t-25 -2.5q-13 4 -19.5 15t-2.5 24l160 580q3 11 11.5 17.5t19.5 6.5t19.5 -6.5t11.5 -17.5zM295 200q-10 37 -21 76.5t-21.5 77.5t-20 72.5t-16.5 61.5q-8 -27 -17 -61.5t-19.5 -72.5t-21.5 -77.5t-21 -76.5h158z" />
    <glyph glyph-name="OE" unicode="&#x152;" horiz-adv-x="596"
d="M208 -4q-32 0 -59.5 12t-48 32.5t-32.5 48t-12 59.5v340q0 31 12 59t32.5 48.5t48 32.5t59.5 12q25 0 47.5 -7.5t41.5 -21.5q2 11 11 18t20 7h200q13 0 22.5 -9t9.5 -23t-9.5 -23t-22.5 -9h-168v-104v-108h148q13 0 22.5 -9t9.5 -23t-9.5 -23t-22.5 -9h-148v-128v-104
h168q13 0 22.5 -9t9.5 -23t-9.5 -23t-22.5 -9h-200q-11 0 -20 7t-11 18q-19 -14 -41.5 -21.5t-47.5 -7.5zM208 576q-37 0 -62.5 -26t-25.5 -62v-340q0 -37 25.5 -62.5t62.5 -25.5q36 0 62 25.5t26 62.5v20v300v20q0 18 -7 34t-19 28t-28 19t-34 7z" />
    <glyph glyph-name="Oacute" unicode="&#xd3;"
d="M360 148q0 -32 -12 -59.5t-32.5 -48t-48.5 -32.5t-59 -12t-58.5 12t-48.5 32.5t-33 48t-12 59.5v340q0 31 12 59t33 48.5t48.5 32.5t58.5 12t59 -12t48.5 -32.5t32.5 -48.5t12 -59v-340zM120 148q0 -37 26 -62.5t62 -25.5q37 0 62.5 25.5t25.5 62.5v340q0 36 -25.5 62
t-62.5 26q-18 0 -34 -7t-28 -19t-19 -28t-7 -34v-340zM135 717q-9 10 -8.5 23t10.5 22l100 90q10 9 23 8t22 -11t8.5 -23t-10.5 -22l-100 -90q-10 -9 -23.5 -8.5t-21.5 11.5z" />
    <glyph glyph-name="Ograve" unicode="&#xd2;"
d="M360 148q0 -32 -12 -59.5t-32.5 -48t-48.5 -32.5t-59 -12q-32 0 -59.5 12t-48 32.5t-32.5 48t-12 59.5v340q0 31 12 59t32.5 48.5t48 32.5t59.5 12q31 0 59 -12t48.5 -32.5t32.5 -48.5t12 -59v-340zM208 60q37 0 62.5 25.5t25.5 62.5v340q0 36 -25.5 62t-62.5 26
q-18 0 -34 -7t-28 -19t-19 -28t-7 -34v-340q0 -37 26 -62.5t62 -25.5zM134 849q9 10 22.5 11t23.5 -8l100 -90q10 -9 10.5 -22t-8.5 -23q-9 -11 -22 -11.5t-23 8.5l-100 90q-10 9 -10.5 22t7.5 23z" />
    <glyph glyph-name="Ocircumflex" unicode="&#xd4;"
d="M360 148q0 -32 -12 -59.5t-32.5 -48t-48.5 -32.5t-59 -12t-58.5 12t-48.5 32.5t-33 48t-12 59.5v340q0 31 12 59t33 48.5t48.5 32.5t58.5 12t59 -12t48.5 -32.5t32.5 -48.5t12 -59v-340zM120 148q0 -37 26 -62.5t62 -25.5q37 0 62.5 25.5t25.5 62.5v340q0 36 -25.5 62
t-62.5 26q-18 0 -34 -7t-28 -19t-19 -28t-7 -34v-340zM137 714q-10 -8 -22.5 -6.5t-20.5 11.5q-8 11 -6.5 23t12.5 20l90 70q8 7 18.5 7t18.5 -7l90 -70q11 -8 12.5 -20t-6.5 -23q-8 -10 -20.5 -11.5t-22.5 6.5q-14 10 -27 21q-11 8 -23.5 17.5t-21.5 16.5q-9 -7 -21 -16.5
t-23 -17.5q-13 -11 -27 -21z" />
    <glyph glyph-name="Otilde" unicode="&#xd5;"
d="M360 148q0 -32 -12 -59.5t-33 -48t-48.5 -32.5t-58.5 -12q-32 0 -59.5 12t-48 32.5t-32.5 48t-12 59.5v340q0 31 12 59t32.5 48.5t48 32.5t59.5 12q31 0 58.5 -12t48.5 -32.5t33 -48.5t12 -59v-340zM208 60q36 0 62 25.5t26 62.5v340q0 18 -7 34t-19 28t-28 19t-34 7
q-37 0 -62.5 -26t-25.5 -62v-340q0 -37 25.5 -62.5t62.5 -25.5zM92 783q22 33 60 39q39 6 70 -17l8 -6q11 -8 23 -5q12 2 19 13q8 11 20 13.5t23 -5.5q11 -7 13 -19t-5 -23q-22 -33 -60 -39q-18 -3 -36.5 1.5t-33.5 15.5l-8 6q-10 7 -22 5q-12 -1 -20 -13q-7 -11 -19 -13.5
t-23 5.5q-11 7 -13.5 19t4.5 23z" />
    <glyph glyph-name="Oslash" unicode="&#xd8;" horiz-adv-x="426"
d="M407 675q11 -6 15 -18.5t-2 -23.5l-60 -108q5 -20 5 -37v-340q0 -32 -12 -59.5t-32.5 -48t-48.5 -32.5t-59 -12q-34 0 -63.5 14t-49.5 37l-40 -74q-7 -11 -19 -14.5t-23 2.5t-14.5 18.5t2.5 23.5l59 108q-4 16 -4 37v340q0 31 12 59t32.5 48.5t48 32.5t59.5 12
q34 0 63 -14t50 -37l40 74q6 11 18 14.5t23 -2.5zM213 576q-37 0 -62.5 -26t-25.5 -62v-268l167 307q-11 22 -32 35.5t-47 13.5zM213 60q36 0 62 25.5t26 62.5v268l-167 -307q11 -22 32 -35.5t47 -13.5z" />
    <glyph glyph-name="Uacute" unicode="&#xda;" horiz-adv-x="424"
d="M364 148q0 -32 -12 -59.5t-32.5 -48t-48.5 -32.5t-59 -12q-32 0 -59.5 12t-48 32.5t-32.5 48t-12 59.5v460q0 14 9 23t23 9t23 -9t9 -23v-460q0 -37 25.5 -62.5t62.5 -25.5q36 0 62 25.5t26 62.5v460q0 14 9 23t23 9t23 -9t9 -23v-460zM183 714q-10 -9 -23 -8.5t-22 11.5
q-9 10 -8.5 23t11.5 22l100 90q10 9 23 8t22 -11t8 -23t-11 -22z" />
    <glyph glyph-name="Ugrave" unicode="&#xd9;" horiz-adv-x="424"
d="M212 -4q-32 0 -59.5 12t-48 32.5t-32.5 48t-12 59.5v460q0 14 9 23t23 9t23 -9t9 -23v-460q0 -37 25.5 -62.5t62.5 -25.5q36 0 62 25.5t26 62.5v460q0 14 9 23t23 9t23 -9t9 -23v-460q0 -32 -12 -59.5t-32.5 -48t-48.5 -32.5t-59 -12zM283 762q10 -9 10.5 -22t-7.5 -23
q-9 -11 -22 -11.5t-24 8.5l-100 90q-10 9 -10.5 22t8.5 23t22 11t23 -8z" />
    <glyph glyph-name="Ucircumflex" unicode="&#xdb;" horiz-adv-x="424"
d="M60 608q0 14 9.5 23t22.5 9q14 0 23 -9t9 -23v-460q0 -37 26 -62.5t62 -25.5q37 0 62.5 25.5t25.5 62.5v460q0 14 9.5 23t22.5 9q14 0 23 -9t9 -23v-460q0 -32 -12 -59.5t-32.5 -48t-48.5 -32.5t-59 -12t-58.5 12t-48.5 32.5t-33 48t-12 59.5v460zM321 762
q10 -8 11.5 -20t-6.5 -23q-8 -10 -20 -11.5t-22 6.5q-14 10 -27 21q-11 8 -23.5 17.5t-21.5 16.5q-9 -7 -21 -16.5t-23 -17.5q-13 -11 -27 -21q-10 -8 -22.5 -6.5t-20.5 11.5q-8 11 -6.5 23t12.5 20l90 70q8 7 18.5 7t18.5 -7z" />
    <glyph glyph-name="Udieresis" unicode="&#xdc;" horiz-adv-x="424"
d="M212 -4q-31 0 -58.5 12t-48.5 32.5t-33 48t-12 59.5v460q0 14 9.5 23t22.5 9q14 0 23 -9t9 -23v-460q0 -37 26 -62.5t62 -25.5q37 0 62.5 25.5t25.5 62.5v460q0 14 9.5 23t22.5 9q14 0 23 -9t9 -23v-460q0 -32 -12 -59.5t-32.5 -48t-48.5 -32.5t-59 -12zM250 778
q0 17 12.5 29.5t29.5 12.5q18 0 30 -12.5t12 -29.5t-12 -29.5t-30 -12.5q-17 0 -29.5 12.5t-12.5 29.5zM132 736q-17 0 -29.5 12.5t-12.5 29.5t12.5 29.5t29.5 12.5q18 0 30 -12.5t12 -29.5t-12 -29.5t-30 -12.5z" />
    <glyph glyph-name="Yacute" unicode="&#xdd;" horiz-adv-x="402"
d="M201 400q14 27 32.5 65t36.5 73q20 40 43 84q6 12 18.5 16t24.5 -1q11 -6 15.5 -19t-1.5 -24l-137 -274v-292q0 -14 -9 -23t-23 -9q-13 0 -22.5 9t-9.5 23v292l-136 274q-6 11 -2 24t16 19q12 5 24.5 1t18.5 -16zM173 714q-11 -9 -24 -8.5t-22 11.5q-8 10 -7.5 23
t10.5 22l100 90q10 9 23 8t22 -11t8.5 -23t-10.5 -22z" />
    <glyph glyph-name="Ydieresis" unicode="&#x178;" horiz-adv-x="402"
d="M312 622q6 12 18.5 16t24.5 -1q11 -6 15.5 -19t-1.5 -24l-137 -274v-292q0 -14 -9 -23t-23 -9q-13 0 -22.5 9t-9.5 23v292l-136 274q-6 11 -2 24t16 19q12 5 24.5 1t18.5 -16l111 -222q14 27 33.5 65t36.5 73zM238 778q0 17 12.5 29.5t29.5 12.5q18 0 30 -12.5t12 -29.5
t-12 -29.5t-30 -12.5q-17 0 -29.5 12.5t-12.5 29.5zM120 736q-17 0 -29.5 12.5t-12.5 29.5t12.5 29.5t29.5 12.5q18 0 30 -12.5t12 -29.5t-12 -29.5t-30 -12.5z" />
    <glyph glyph-name="Eth" unicode="&#xd0;" horiz-adv-x="441"
d="M81 604q0 14 9.5 23t22.5 9h120q31 0 59 -12t48.5 -32.5t32.5 -48.5t12 -59v-332q0 -32 -12 -59.5t-32.5 -48t-48.5 -32.5t-59 -12h-120q-13 0 -22.5 9t-9.5 23v265h-48q-12 0 -21 9t-9 22t9 21.5t21 8.5h48v246zM321 484q0 36 -25.5 62t-62.5 26h-88v-214h68
q13 0 22 -8.5t9 -21.5t-9 -22t-22 -9h-68v-233h88q37 0 62.5 25.5t25.5 62.5v332z" />
    <glyph glyph-name="Thorn" unicode="&#xde;" horiz-adv-x="400"
d="M220 510q31 0 58.5 -12t48.5 -32.5t33 -48.5t12 -59v-60q0 -32 -12 -59.5t-33 -48t-48.5 -32.5t-58.5 -12h-88v-118q0 -14 -9.5 -23t-22.5 -9q-14 0 -23 9t-9 23v576q0 14 9 23t23 9q13 0 22.5 -9t9.5 -23v-94h88zM220 210q36 0 62 25.5t26 62.5v60q0 18 -7 34t-19 28
t-28 19t-34 7h-88v-236h88z" />
    <glyph glyph-name="trademark" unicode="&#x2122;" horiz-adv-x="670"
d="M402 626q14 -20 27 -38q11 -17 24 -35t24 -33q11 15 24 33t24 35q13 18 27 38q14 17 35 11q9 -3 15 -11t6 -18v-300q0 -13 -9 -22t-22 -9t-21.5 9t-8.5 22v205q-8 -12 -16.5 -23t-14.5 -20q-8 -11 -14 -20q-10 -13 -25 -13t-25 13q-7 9 -14 20q-6 9 -14 20t-16 23v-205
q0 -13 -9 -22t-22 -9t-21.5 9t-8.5 22v300q0 10 5.5 18t15.5 11q20 6 34 -11zM157 277q-13 0 -21.5 9t-8.5 22v265h-70q-13 0 -21.5 9t-8.5 22t8.5 21.5t21.5 8.5h200q13 0 22 -8.5t9 -21.5t-9 -22t-22 -9h-69v-265q0 -13 -9 -22t-22 -9z" />
    <glyph glyph-name="copyright" unicode="&#xa9;" horiz-adv-x="718"
d="M347 436q-17 -5 -27 -18t-10 -30v-140q0 -17 10 -30t27 -18q16 -5 31.5 2t23.5 21q7 11 19 14.5t23 -3.5q11 -6 14.5 -18t-3.5 -23q-19 -33 -53.5 -47.5t-70.5 -4.5t-59 39.5t-23 67.5v140q0 38 23 67.5t59 39.5t70.5 -5t53.5 -47q7 -11 3.5 -23t-14.5 -18
q-11 -7 -23 -3.5t-19 14.5q-8 14 -23.5 21t-31.5 2zM680 318q0 -65 -24 -123t-70 -104q-45 -45 -103.5 -69.5t-123.5 -24.5q-64 0 -122.5 24.5t-103.5 69.5q-46 46 -70 104t-24 123t24 123t70 104q45 45 103.5 69t122.5 24q65 0 123.5 -24t103.5 -69q46 -46 70 -104t24 -123
zM359 58q53 0 100 19.5t84 56.5t56.5 84.5t19.5 99.5t-19.5 99t-56.5 84t-84 56.5t-100 19.5q-52 0 -99 -19.5t-84 -56.5t-56.5 -84t-19.5 -99t19.5 -99.5t56.5 -84.5t84 -56.5t99 -19.5z" />
    <glyph glyph-name="registered" unicode="&#xae;" horiz-adv-x="718"
d="M289 137q-12 0 -21 9t-9 22v296q0 13 9 21.5t21 8.5h80q23 0 43 -8.5t35 -23.5t24 -35t9 -43q0 -33 -17 -59t-45 -40l58 -102q6 -11 3 -23t-14 -19q-11 -6 -23.5 -2.5t-18.5 14.5l-69 120h-34v-105q0 -13 -9 -22t-22 -9zM419 384q0 20 -14.5 34.5t-35.5 14.5h-49v-99h49
q21 0 35.5 15t14.5 35zM39 318q0 65 24 123t70 104q45 45 103.5 69t122.5 24q65 0 123.5 -24t103.5 -69q46 -46 70 -104t24 -123t-24 -123t-70 -104q-45 -45 -103.5 -69.5t-123.5 -24.5q-64 0 -122.5 24.5t-103.5 69.5q-46 46 -70 104t-24 123zM359 577q-52 0 -99 -19.5
t-84 -56.5t-56.5 -84t-19.5 -99t19.5 -99.5t56.5 -84.5t84 -56.5t99 -19.5q53 0 100 19.5t84 56.5t56.5 84.5t19.5 99.5t-19.5 99t-56.5 84t-84 56.5t-100 19.5z" />
    <glyph glyph-name="question" unicode="?" horiz-adv-x="357"
d="M218 558q-32 24 -71 16t-59 -42q-7 -11 -19.5 -15t-24.5 3q-11 7 -14.5 20t3.5 24q17 29 43 47.5t58 25.5t64 -0.5t58 -27.5t42 -49t18 -61q2 -33 -9.5 -64t-34.5 -54l-50 -51q-26 -26 -26 -62v-80q0 -14 -9 -23t-23 -9q-13 0 -22.5 9t-9.5 23v80q0 30 11.5 57.5
t32.5 49.5l51 51q28 28 25 68q-2 19 -10.5 36t-23.5 28zM206 38q0 -17 -12.5 -29.5t-29.5 -12.5t-29.5 12.5t-12.5 29.5t12.5 29.5t29.5 12.5t29.5 -12.5t12.5 -29.5z" />
    <glyph glyph-name="exclam" unicode="!" horiz-adv-x="200"
d="M100 -4q-17 0 -29.5 12.5t-12.5 29.5t12.5 29.5t29.5 12.5t29.5 -12.5t12.5 -29.5t-12.5 -29.5t-29.5 -12.5zM68 588q0 14 9.5 23t22.5 9q14 0 23 -9t9 -23v-400q0 -14 -9 -23t-23 -9q-13 0 -22.5 9t-9.5 23v400z" />
    <glyph glyph-name="questiondown" unicode="&#xbf;" horiz-adv-x="357"
d="M150 418q0 17 12.5 29.5t29.5 12.5t29.5 -12.5t12.5 -29.5t-12.5 -29.5t-29.5 -12.5t-29.5 12.5t-12.5 29.5zM100 -153q-26 20 -41.5 49t-17.5 61q-2 33 9 64t34 54l51 51q25 27 25 62v80q0 14 9.5 23t22.5 9q14 0 23 -9t9 -23v-80q0 -30 -11 -57.5t-33 -49.5l-50 -51
q-28 -28 -25 -68q2 -40 34 -64t71 -16q18 4 33.5 14.5t25.5 27.5q6 11 19 14.5t24 -2.5q12 -7 15.5 -20t-3.5 -24q-17 -29 -43.5 -48t-58.5 -25q-32 -7 -64 0.5t-58 27.5z" />
    <glyph glyph-name="exclamdown" unicode="&#xa1;" horiz-adv-x="200"
d="M100 460q17 0 29.5 -12.5t12.5 -29.5t-12.5 -29.5t-29.5 -12.5t-29.5 12.5t-12.5 29.5t12.5 29.5t29.5 12.5zM100 300q14 0 23 -9t9 -23v-400q0 -14 -9 -23t-23 -9q-13 0 -22.5 9t-9.5 23v400q0 14 9.5 23t22.5 9z" />
    <glyph glyph-name="bullet" unicode="&#x2022;" horiz-adv-x="256"
d="M128 381q21 0 39 -8t31.5 -21.5t21 -31.5t7.5 -38q0 -42 -28.5 -70.5t-70.5 -28.5q-41 0 -69.5 28.5t-28.5 70.5q0 20 7.5 38t21 31.5t31.5 21.5t38 8zM128 241q17 0 29.5 12t12.5 29t-12.5 29t-29.5 12t-29 -12t-12 -29t12 -29t29 -12z" />
    <glyph glyph-name="quotedblbase" unicode="&#x201e;" horiz-adv-x="372"
d="M92 -76q-12 -5 -23.5 0t-16.5 16q-5 12 0 23.5t16 16.5q13 5 13 20v17h-1q-13 0 -22 9t-9 22t9 21.5t22 8.5h32q13 0 21.5 -8.5t8.5 -21.5v-48q0 -25 -13.5 -45.5t-36.5 -30.5zM248 -20q13 5 13 20v17h-1q-13 0 -22 9t-9 22t9 21.5t22 8.5h32q13 0 21.5 -8.5t8.5 -21.5
v-48q0 -25 -13.5 -45.5t-36.5 -30.5q-12 -5 -23.5 0t-16.5 16q-5 12 0 23.5t16 16.5z" />
    <glyph glyph-name="quotedblleft" unicode="&#x201c;" horiz-adv-x="371"
d="M303 580q-13 -7 -13 -20v-18h1q13 0 22 -8.5t9 -21.5t-9 -22t-22 -9h-32q-13 0 -21.5 9t-8.5 22v48q0 25 13.5 45.5t36.5 30.5q12 5 23.5 0t16.5 -16q5 -12 0 -23.5t-16 -16.5zM123 580q-13 -7 -13 -20v-18h1q13 0 22 -8.5t9 -21.5t-9 -22t-22 -9h-32q-13 0 -21.5 9
t-8.5 22v48q0 25 13.5 45.5t36.5 30.5q12 5 23.5 0t16.5 -16q5 -12 0 -23.5t-16 -16.5z" />
    <glyph glyph-name="quotedblright" unicode="&#x201d;" horiz-adv-x="372"
d="M68 536q14 5 14 20v17h-2q-13 0 -21.5 9t-8.5 22t8.5 21.5t21.5 8.5h32q13 0 22 -8.5t9 -21.5v-48q0 -25 -14 -45.5t-37 -30.5q-12 -5 -23.5 0t-16.5 16q-5 12 0 23.5t16 16.5zM230 604q0 13 8.5 21.5t21.5 8.5h32q13 0 22 -8.5t9 -21.5v-48q0 -25 -14 -45.5t-37 -30.5
q-12 -5 -23.5 0t-16.5 16q-5 12 0 23.5t16 16.5q14 5 14 20v17h-2q-13 0 -21.5 9t-8.5 22z" />
    <glyph glyph-name="quotedbl" unicode="&#x22;" horiz-adv-x="352"
d="M256 640q14 0 23 -9t9 -23v-100q0 -14 -9 -23t-23 -9t-23 9t-9 23v100q0 14 9 23t23 9zM64 608q0 14 9 23t23 9t23 -9t9 -23v-100q0 -14 -9 -23t-23 -9t-23 9t-9 23v100z" />
    <glyph glyph-name="quotesinglbase" unicode="&#x201a;" horiz-adv-x="191"
d="M112 78q12 0 21 -8.5t9 -21.5v-48q0 -25 -14 -45.5t-37 -30.5q-11 -5 -23 0t-17 16q-5 12 0 23.5t17 16.5q13 5 13 20v17h-1q-13 0 -22 9t-9 22t9 21.5t22 8.5h32v0z" />
    <glyph glyph-name="quoteleft" unicode="&#x2018;" horiz-adv-x="192"
d="M123 580q-13 -7 -13 -20v-18h2q12 0 21 -8.5t9 -21.5t-9 -22t-21 -9h-32q-13 0 -22 9t-9 22v48q0 25 14 45.5t37 30.5q11 5 23 0t17 -16q5 -12 0 -23.5t-17 -16.5z" />
    <glyph glyph-name="quoteright" unicode="&#x2019;" horiz-adv-x="192"
d="M68 536q13 5 13 20v17h-1q-13 0 -22 9t-9 22t9 21.5t22 8.5h32q12 0 21 -8.5t9 -21.5v-48q0 -25 -14 -45.5t-37 -30.5q-11 -5 -23 0t-17 16q-5 12 0 23.5t17 16.5z" />
    <glyph glyph-name="quotesingle" unicode="'" horiz-adv-x="192"
d="M128 508q0 -14 -9.5 -23t-22.5 -9q-14 0 -23 9t-9 23v100q0 14 9 23t23 9q13 0 22.5 -9t9.5 -23v-100v0z" />
    <glyph glyph-name="periodcentered" unicode="&#xb7;" horiz-adv-x="192"
d="M54 388q0 17 12.5 29.5t29.5 12.5t29.5 -12.5t12.5 -29.5t-12.5 -29.5t-29.5 -12.5t-29.5 12.5t-12.5 29.5z" />
    <glyph glyph-name="semicolon" unicode=";" horiz-adv-x="192"
d="M112 78q13 0 22 -8.5t9 -21.5v-48q0 -25 -14 -45.5t-37 -30.5q-12 -5 -23.5 0t-16.5 16q-5 12 0 23.5t16 16.5q14 5 14 20v17h-2q-13 0 -21.5 9t-8.5 22t8.5 21.5t21.5 8.5h32zM96 376q-17 0 -29.5 12.5t-12.5 29.5t12.5 29.5t29.5 12.5t29.5 -12.5t12.5 -29.5
t-12.5 -29.5t-29.5 -12.5z" />
    <glyph glyph-name="colon" unicode=":" horiz-adv-x="192"
d="M138 38q0 -17 -12 -29.5t-30 -12.5q-17 0 -29.5 12.5t-12.5 29.5t12.5 29.5t29.5 12.5q18 0 30 -12.5t12 -29.5zM96 460q18 0 30 -12.5t12 -29.5t-12 -29.5t-30 -12.5q-17 0 -29.5 12.5t-12.5 29.5t12.5 29.5t29.5 12.5z" />
    <glyph glyph-name="comma" unicode="," horiz-adv-x="192"
d="M68 -20q14 5 14 20v17h-2q-13 0 -21.5 9t-8.5 22t8.5 21.5t21.5 8.5h32q13 0 22 -8.5t9 -21.5v-48q0 -25 -14 -45.5t-37 -30.5q-12 -5 -23.5 0t-16.5 16q-5 12 0 23.5t16 16.5z" />
    <glyph glyph-name="ellipsis" unicode="&#x2026;" horiz-adv-x="576"
d="M88 80q18 0 30 -12.5t12 -29.5t-12 -29.5t-30 -12.5q-17 0 -29.5 12.5t-12.5 29.5t12.5 29.5t29.5 12.5zM330 38q0 -17 -12 -29.5t-30 -12.5q-17 0 -29.5 12.5t-12.5 29.5t12.5 29.5t29.5 12.5q18 0 30 -12.5t12 -29.5zM446 38q0 17 12.5 29.5t29.5 12.5q18 0 30 -12.5
t12 -29.5t-12 -29.5t-30 -12.5q-17 0 -29.5 12.5t-12.5 29.5z" />
    <glyph glyph-name="guillemotright" unicode="&#xbb;" horiz-adv-x="419"
d="M239 168q0 5 4 15q14 24 25 45q10 18 20 36.5t15 27.5q-5 8 -14.5 25t-18.5 34q-11 19 -23 42q-4 8 -4 15q0 19 17 28q11 7 24 3t19 -16l64 -116q9 -16 0 -31l-68 -123q-6 -12 -19 -16t-24 3q-17 9 -17 28zM59 168q0 5 4 15q14 24 25 45q10 18 20 36.5t15 27.5
q-5 8 -14.5 25t-18.5 34q-11 19 -23 42q-4 8 -4 15q0 19 17 28q11 7 24 3t19 -16l64 -116q9 -16 0 -31l-68 -123q-6 -12 -19 -16t-24 3q-17 9 -17 28z" />
    <glyph glyph-name="guillemotleft" unicode="&#xab;" horiz-adv-x="419"
d="M356 408q0 -10 -4 -15q-12 -23 -23 -42l-18 -34t-14 -25q5 -9 14.5 -27.5t19.5 -36.5q11 -21 25 -45q4 -7 4 -15q0 -18 -16 -28q-12 -7 -24.5 -3t-19.5 16l-68 123q-8 15 0 31l64 116q7 12 19.5 16t24.5 -3q16 -10 16 -28zM164 140q-12 -7 -24.5 -3t-19.5 16l-68 123
q-8 15 0 31l64 116q7 12 19.5 16t24.5 -3q16 -10 16 -28q0 -10 -4 -15q-12 -23 -23 -42l-18 -34t-14 -25q5 -9 14.5 -27.5t19.5 -36.5q11 -21 25 -45q4 -7 4 -15q0 -18 -16 -28z" />
    <glyph glyph-name="guilsinglright" unicode="&#x203a;" horiz-adv-x="239"
d="M187 307q9 -16 0 -31l-68 -123q-6 -12 -19 -16t-24 3q-17 9 -17 28q0 5 4 15q14 24 25 45q10 18 20 36.5t15 27.5q-5 8 -14.5 25t-18.5 34q-11 19 -23 42q-4 8 -4 15q0 19 17 28q11 7 24 3t19 -16l64 -116v0z" />
    <glyph glyph-name="guilsinglleft" unicode="&#x2039;" horiz-adv-x="239"
d="M176 408q0 -10 -4 -15q-12 -23 -23 -42l-18 -34t-14 -25q5 -9 14.5 -27.5t19.5 -36.5q11 -21 25 -45q4 -7 4 -15q0 -18 -16 -28q-12 -7 -24.5 -3t-19.5 16l-68 123q-8 15 0 31l64 116q7 12 19.5 16t24.5 -3q16 -10 16 -28z" />
    <glyph glyph-name="braceright" unicode="}" horiz-adv-x="256"
d="M96 248q0 49 33 80q-33 31 -33 80v200q0 20 -14 34t-34 14q-14 0 -23 9t-9 23t9 23t23 9q23 0 43.5 -9t35.5 -24t24 -35.5t9 -43.5v-200q0 -20 14 -34t34 -14q13 0 22.5 -9t9.5 -23t-9.5 -23t-22.5 -9q-20 0 -34 -14t-14 -34v-220q0 -23 -9 -43.5t-24 -35.5t-35.5 -24
t-43.5 -9q-14 0 -23 9t-9 23t9 23t23 9q20 0 34 14t14 34v220v0z" />
    <glyph glyph-name="bracketright" unicode="]" horiz-adv-x="256"
d="M156 716q13 0 22.5 -9t9.5 -23v-732q0 -14 -9.5 -23t-22.5 -9h-100q-14 0 -23 9t-9 23t9 23t23 9h68v668h-68q-14 0 -23 9t-9 23t9 23t23 9h100v0z" />
    <glyph glyph-name="parenright" unicode=")" horiz-adv-x="269"
d="M212 328q0 -106 -34 -204q-35 -102 -101 -186q-8 -11 -21 -12t-24 7q-10 8 -11.5 21t6.5 24q30 38 52.5 80t38.5 87q30 88 30 183q0 94 -30 183q-16 45 -38.5 87t-52.5 80q-8 11 -6.5 24t11.5 21q11 8 24 7t21 -12q67 -87 101 -186q34 -98 34 -204z" />
    <glyph glyph-name="parenleft" unicode="(" horiz-adv-x="268"
d="M241 668q-30 -38 -52.5 -80t-38.5 -87q-30 -89 -30 -183q0 -95 30 -183q16 -45 38.5 -87t52.5 -80q8 -11 6.5 -24t-12.5 -21t-24 -7t-21 12q-67 85 -100 186q-34 98 -34 204t34 204q17 51 42 97t58 89q8 11 21 12t24 -7t12.5 -21t-6.5 -24z" />
    <glyph glyph-name="bracketleft" unicode="[" horiz-adv-x="256"
d="M100 -80q-14 0 -23 9t-9 23v732q0 14 9 23t23 9h100q14 0 23 -9t9 -23t-9 -23t-23 -9h-68v-668h68q14 0 23 -9t9 -23t-9 -23t-23 -9h-100v0z" />
    <glyph glyph-name="braceleft" unicode="{" horiz-adv-x="256"
d="M160 408q0 -23 -9 -44t-25 -36q16 -15 25 -36t9 -44v-220q0 -20 14 -34t34 -14q14 0 23 -9t9 -23t-9 -23t-23 -9q-23 0 -43.5 9t-35.5 24t-24 35.5t-9 43.5v220q0 20 -14 34t-34 14q-14 0 -23 9t-9 23t9 23t23 9q20 0 34 14t14 34v200q0 23 9 43.5t24 35.5t35.5 24
t43.5 9q14 0 23 -9t9 -23t-9 -23t-23 -9q-20 0 -34 -14t-14 -34v-200v0z" />
    <glyph glyph-name="cedilla" unicode="&#xb8;" horiz-adv-x="500"
d="M220 28q0 14 9 23t23 9t23 -9t9 -23v-61q0 -30 -15 -56t-41 -41q-11 -7 -24 -3.5t-20 14.5q-6 12 -2.5 24.5t14.5 19.5q24 14 24 42v61v0z" />
    <glyph glyph-name="uni02DC" unicode="&#x2dc;" horiz-adv-x="500"
d="M194 624q40 6 71 -17l8 -6q10 -7 22 -6q12 3 18 12q8 11 21 14t24 -5q11 -7 14 -20t-5 -24q-21 -32 -61 -40q-40 -6 -71 17l-8 6q-9 8 -22 6q-13 -4 -18 -13q-8 -11 -21 -13.5t-24 4.5q-11 8 -13.5 21t4.5 24q11 16 27 26t34 14z" />
    <glyph glyph-name="dieresis" unicode="&#xa8;" horiz-adv-x="500"
d="M288 578q0 17 12.5 29.5t29.5 12.5t29.5 -12.5t12.5 -29.5t-12.5 -29.5t-29.5 -12.5t-29.5 12.5t-12.5 29.5zM128 578q0 17 12.5 29.5t29.5 12.5t29.5 -12.5t12.5 -29.5t-12.5 -29.5t-29.5 -12.5t-29.5 12.5t-12.5 29.5z" />
    <glyph glyph-name="uni02C6" unicode="&#x2c6;" horiz-adv-x="500"
d="M180 513q-11 -8 -24 -7t-21 12t-6.5 24t12.5 21l90 70q8 7 19 7t20 -7l90 -70q11 -8 12.5 -21t-6.5 -24t-21 -12t-24 7q-14 10 -27 20q-11 8 -23 17.5t-21 16.5q-9 -7 -21 -16.5t-23 -17.5z" />
    <glyph glyph-name="grave" unicode="`" horiz-adv-x="500"
d="M322 562q10 -9 10.5 -22t-8.5 -23q-9 -11 -22 -11.5t-23 8.5l-100 90q-10 9 -10.5 22t7.5 23q9 10 22.5 11t23.5 -8l100 -90v0z" />
    <glyph glyph-name="acute" unicode="&#xb4;" horiz-adv-x="500"
d="M279 652q10 9 23 8t22 -11t8.5 -23t-10.5 -22l-100 -90q-10 -9 -23.5 -8.5t-21.5 11.5q-9 10 -8.5 23t10.5 22l100 90v0z" />
    <glyph glyph-name="less" unicode="&#x3c;"
d="M344 67q-8 -10 -21 -11t-24 7l-240 200q-11 9 -11 25q0 14 11 25l240 200q11 8 24 7t21 -12q8 -10 8 -20q0 -15 -12 -25q-47 -39 -88 -73l-36 -30t-34.5 -28.5t-30 -25t-21.5 -18.5q8 -7 21.5 -18.5t30 -25t34.5 -28.5l36 -30q41 -34 88 -73q12 -11 12 -25q0 -11 -8 -21z
" />
    <glyph glyph-name="greater" unicode="&#x3e;"
d="M64 88q0 14 11 25q48 39 89 73l36 30t34 28.5t29.5 25t22.5 18.5q-9 7 -22.5 18.5t-29.5 25t-34 28.5l-36 30q-41 34 -89 73q-11 11 -11 25q0 12 7 20q9 11 22 12t23 -7l240 -200q12 -11 12 -25q0 -16 -12 -25l-240 -200q-10 -8 -23 -7t-22 11q-7 8 -7 21z" />
    <glyph glyph-name="equal" unicode="="
d="M328 240q14 0 23 -9t9 -23t-9 -23t-23 -9h-240q-13 0 -22.5 9t-9.5 23t9.5 23t22.5 9h240zM328 400q14 0 23 -9t9 -23t-9 -23t-23 -9h-240q-13 0 -22.5 9t-9.5 23t9.5 23t22.5 9h240z" />
    <glyph glyph-name="multiply" unicode="&#xd7;"
d="M331 411q9 -10 9 -23t-9 -23l-78 -77l78 -77q9 -10 9 -23t-9 -23q-10 -9 -23 -9t-23 9l-77 78l-77 -78q-10 -9 -23 -9t-23 9q-9 10 -9 23t9 23l78 77l-78 77q-9 10 -9 23t9 23q10 9 23 9t23 -9l77 -78l77 78q10 9 23 9t23 -9z" />
    <glyph glyph-name="divide" unicode="&#xf7;"
d="M166 158q0 17 12 29.5t30 12.5q17 0 29.5 -12.5t12.5 -29.5t-12.5 -29.5t-29.5 -12.5q-18 0 -30 12.5t-12 29.5zM208 376q-18 0 -30 12.5t-12 29.5t12 29.5t30 12.5q17 0 29.5 -12.5t12.5 -29.5t-12.5 -29.5t-29.5 -12.5zM360 288q0 -14 -9.5 -23t-22.5 -9h-240
q-14 0 -23 9t-9 23t9 23t23 9h240q13 0 22.5 -9t9.5 -23z" />
    <glyph glyph-name="plusminus" unicode="&#xb1;"
d="M328 64q14 0 23 -9t9 -23t-9 -23t-23 -9h-240q-13 0 -22.5 9t-9.5 23t9.5 23t22.5 9h240zM328 320q14 0 23 -9t9 -23t-9 -23t-23 -9h-88v-88q0 -14 -9 -23t-23 -9q-13 0 -22.5 9t-9.5 23v88h-88q-13 0 -22.5 9t-9.5 23t9.5 23t22.5 9h88v88q0 14 9.5 23t22.5 9
q14 0 23 -9t9 -23v-88h88z" />
    <glyph glyph-name="logicalnot" unicode="&#xac;"
d="M328 320q14 0 23 -9t9 -23v-120q0 -14 -9 -23t-23 -9q-13 0 -22.5 9t-9.5 23v88h-208q-13 0 -22.5 9t-9.5 23t9.5 23t22.5 9h240v0z" />
    <glyph glyph-name="asciicircum" unicode="^" horiz-adv-x="500"
d="M71 404q-10 9 -10.5 22t7.5 23l158 180q9 11 24 11t24 -11l158 -180q8 -10 7.5 -23t-10.5 -22q-11 -9 -24 -8t-22 11q-27 32 -53 61q-22 25 -44.5 50.5t-35.5 40.5q-14 -15 -36 -40.5t-44 -50.5q-26 -29 -53 -61q-9 -10 -22 -11t-24 8z" />
    <glyph glyph-name="plus" unicode="+"
d="M328 320q13 0 22.5 -9t9.5 -23t-9.5 -23t-22.5 -9h-88v-88q0 -14 -9.5 -23t-22.5 -9q-14 0 -23 9t-9 23v88h-88q-14 0 -23 9t-9 23t9 23t23 9h88v88q0 14 9 23t23 9q13 0 22.5 -9t9.5 -23v-88h88v0z" />
    <glyph glyph-name="degree" unicode="&#xb0;" horiz-adv-x="313"
d="M276 518q0 -25 -9.5 -46.5t-25.5 -37.5t-38 -25.5t-46 -9.5q-25 0 -46.5 9.5t-37.5 25.5t-25.5 37.5t-9.5 46.5q0 24 9.5 46t25.5 38t37.5 25.5t46.5 9.5q24 0 46 -9.5t38 -25.5t25.5 -38t9.5 -46zM96 518q0 -26 17.5 -43.5t43.5 -17.5t43.5 17.5t17.5 43.5t-17.5 43.5
t-43.5 17.5t-43.5 -17.5t-17.5 -43.5z" />
    <glyph glyph-name="brokenbar" unicode="&#xa6;" horiz-adv-x="208"
d="M104 260q14 0 23 -9t9 -23v-400q0 -14 -9 -23t-23 -9t-23 9t-9 23v400q0 14 9 23t23 9zM104 860q14 0 23 -9t9 -23v-400q0 -14 -9 -23t-23 -9t-23 9t-9 23v400q0 14 9 23t23 9z" />
    <glyph glyph-name="bar" unicode="|" horiz-adv-x="208"
d="M109 860q14 0 23 -9t9 -23v-1000q0 -14 -9 -23t-23 -9t-23 9t-9 23v1000q0 14 9 23t23 9z" />
    <glyph glyph-name="backslash" unicode="\"
d="M358 -1q5 -13 -0.5 -24.5t-18.5 -16.5q-12 -5 -24 0.5t-17 18.5l-240 660q-5 13 1 24.5t18 16.5q13 5 24.5 -1t16.5 -18z" />
    <glyph glyph-name="slash" unicode="/"
d="M339 678q13 -5 18.5 -16.5t0.5 -24.5l-240 -660q-5 -13 -16.5 -18.5t-24.5 -0.5q-12 5 -18 16.5t-1 24.5l240 660q5 12 17 18t24 1z" />
    <glyph glyph-name="uni00AF" unicode="&#xaf;" horiz-adv-x="500"
d="M500 780q13 0 22.5 -9t9.5 -23t-9.5 -23t-22.5 -9h-500q-14 0 -23 9t-9 23t9 23t23 9h500v0z" />
    <glyph glyph-name="underscore" unicode="_" horiz-adv-x="500"
d="M500 -80q13 0 22.5 -9t9.5 -23t-9.5 -23t-22.5 -9h-500q-14 0 -23 9t-9 23t9 23t23 9h500v0z" />
    <glyph glyph-name="emdash" unicode="&#x2014;" horiz-adv-x="1000"
d="M0 256q-13 0 -22.5 9t-9.5 23t9.5 23t22.5 9h1000q14 0 23 -9t9 -23t-9 -23t-23 -9h-1000v0z" />
    <glyph glyph-name="endash" unicode="&#x2013;" horiz-adv-x="500"
d="M500 320q14 0 23 -9t9 -23t-9 -23t-23 -9h-500q-13 0 -22.5 9t-9.5 23t9.5 23t22.5 9h500v0z" />
    <glyph glyph-name="dollar" unicode="$"
d="M293 295q26 -20 39.5 -49.5t14.5 -62.5q0 -32 -13.5 -61.5t-38.5 -50.5q-14 -12 -29.5 -19.5t-32.5 -12.5v-51q0 -14 -9.5 -23t-22.5 -9q-14 0 -23 9t-9 23v52q-30 6 -54.5 24t-40.5 45q-7 11 -3 24t15 20q11 6 24 2.5t20 -14.5q19 -34 57 -40q3 -1 6.5 -1h6.5h1
q30 0 53 20q29 24 29 63q-1 18 -9 34.5t-22 27.5l-125 103q-25 20 -38.5 48t-13.5 60q-1 32 12 61t38 49q25 22 60 30v52q0 14 9 23t23 9q13 0 22.5 -9t9.5 -23v-52q29 -7 52.5 -24t38.5 -43q6 -11 2.5 -24t-14.5 -20t-24 -3t-20 15q-17 32 -54 38q-3 1 -6.5 1h-6.5h-1
q-28 0 -50 -19q-29 -24 -27 -60q0 -37 28 -59l126 -103v0z" />
    <glyph glyph-name="cent" unicode="&#xa2;"
d="M196 391q-20 -8 -31 -25t-11 -38v-200q0 -21 11 -38t31 -25q13 -5 25 -5h1h1q27 0 47 20q9 9 22 9t23 -9q9 -10 9 -23t-9 -22q-13 -14 -28.5 -22t-32.5 -13v-52q0 -14 -9.5 -23t-22.5 -9q-14 0 -23 9t-9 23v52q-10 1 -19 6q-37 16 -59 48.5t-22 73.5v200q0 41 22 73.5
t59 48.5q5 2 9.5 3t9.5 3v52q0 14 9 23t23 9q13 0 22.5 -9t9.5 -23v-52q17 -5 32.5 -13t28.5 -22q9 -9 9 -22t-9 -23q-10 -9 -23 -9t-22 9q-20 20 -47 20h-1h-1q-12 0 -25 -5z" />
    <glyph glyph-name="sterling" unicode="&#xa3;"
d="M348 64q14 0 23 -9t9 -23t-9 -23t-23 -9h-280q-11 0 -20 7.5t-11 19.5q-2 11 4 21t17 14q26 10 42 32.5t16 50.5v151h-48q-13 0 -22.5 9t-9.5 23t9.5 23t22.5 9h48v148q0 45 27.5 80.5t70.5 46.5q44 12 85 -5t64 -56q6 -11 2.5 -24t-14.5 -20t-24 -3t-20 15
q-11 20 -32.5 29t-43.5 3q-23 -6 -37 -24.5t-14 -41.5v-148h88q14 0 23 -9t9 -23t-9 -23t-23 -9h-88v-151q0 -44 -23 -81h191v0z" />
    <glyph glyph-name="glyph191"
d="M208 176q-23 0 -44 6.5t-38 17.5l-37 -36q-9 -10 -22.5 -10t-22.5 10q-10 9 -10 22.5t10 22.5l36 37q-11 17 -17.5 38t-6.5 44t6.5 44t17.5 38l-36 37q-10 9 -10 22.5t10 22.5q9 9 22.5 9t22.5 -9l37 -36q17 11 38 17.5t44 6.5t44 -6.5t38 -17.5l37 36q9 9 22.5 9
t22.5 -9q10 -9 10 -22.5t-10 -22.5l-36 -37q11 -17 17.5 -38t6.5 -44t-6.5 -44t-17.5 -38l36 -37q10 -9 10 -22.5t-10 -22.5q-9 -10 -22.5 -10t-22.5 10l-37 36q-17 -11 -38 -17.5t-44 -6.5zM296 328q0 18 -7 34t-19 28t-28 19t-34 7q-37 0 -62.5 -26t-25.5 -62
q0 -37 25.5 -62.5t62.5 -25.5q36 0 62 25.5t26 62.5z" />
    <glyph glyph-name="yen" unicode="&#xa5;"
d="M176 136h-84q-14 0 -23 9t-9 23t9 23t23 9h84v96h-84q-14 0 -23 9t-9 23t9 23t23 9h64l-117 234q-6 11 -1.5 24t16.5 19q11 5 24 1t19 -16l111 -222l111 222q6 12 18.5 16t24.5 -1q12 -6 16 -19t-1 -24l-117 -234h72q14 0 23 -9t9 -23t-9 -23t-23 -9h-92v-96h92
q14 0 23 -9t9 -23t-9 -23t-23 -9h-92v-108q0 -14 -9 -23t-23 -9t-23 9t-9 23v108z" />
    <glyph glyph-name="uni20AC" unicode="&#x20ac;"
d="M227 573q-29 -8 -47 -31.5t-18 -53.5v-58h128q13 0 22.5 -9t9.5 -23t-9.5 -23t-22.5 -9h-128v-96h88q13 0 22.5 -9t9.5 -23t-9.5 -23t-22.5 -9h-88v-58q0 -30 18 -53.5t47 -31.5t56.5 3.5t42.5 37.5l10 17q7 12 19.5 15.5t24.5 -3.5q11 -7 14.5 -19.5t-3.5 -24.5l-10 -17
q-26 -45 -73 -65t-98 -6q-50 14 -81 54.5t-31 92.5v58h-48q-14 0 -23 9t-9 23t9 23t23 9h48v96h-48q-14 0 -23 9t-9 23t9 23t23 9h48v58q0 52 31 92.5t81 54.5q51 14 98 -6t73 -65l10 -17q7 -12 3.5 -24.5t-14.5 -19.5q-12 -7 -24.5 -3.5t-19.5 15.5l-10 17
q-15 26 -42.5 37.5t-56.5 3.5z" />
    <glyph glyph-name="ampersand" unicode="&#x26;" horiz-adv-x="493"
d="M349 100l-18 -30q-17 -28 -42 -45.5t-56 -25.5q-31 -7 -61.5 -0.5t-56.5 23.5q-54 37 -65 102q-5 32 2.5 61.5t27.5 55.5l80 104l-68 88l-1 1v1h-1v1q-20 31 -21.5 67.5t16.5 68.5q18 33 50 51.5t70 16.5t68.5 -22t46.5 -54t12 -70.5t-27 -66.5l-64 -82l76 -99l25 -33
l31 51q7 12 20 15t24 -4t14.5 -19.5t-3.5 -24.5l-44 -72l79 -101q8 -11 6.5 -24t-12.5 -21t-24 -7t-21 12zM201 397l53 69q12 16 14 35t-6 36t-24 27.5t-35 11.5q-20 1 -36 -8.5t-26 -26.5q-9 -17 -8.5 -35.5t10.5 -34.5zM307 154l-41 53l-65 85l-70 -90q-23 -31 -17 -68
q2 -18 12 -33t25 -26q30 -21 68 -13q36 8 57 41z" />
    <glyph glyph-name="asterisk" unicode="*"
d="M239 405v-97q0 -13 -9 -22t-22 -9t-21.5 9t-8.5 22v97l-85 -48q-11 -7 -23 -3.5t-18 14.5q-7 11 -3.5 23t14.5 18l84 49l-84 49q-11 6 -14.5 18t3.5 23q6 11 18 14.5t23 -3.5l85 -48v97q0 13 8.5 21.5t21.5 8.5t22 -8.5t9 -21.5v-97l84 48q11 7 23 3.5t18 -14.5
q7 -11 3.5 -23t-14.5 -18l-84 -49l84 -49q11 -6 14.5 -18t-3.5 -23q-6 -11 -18 -14.5t-23 3.5z" />
    <glyph glyph-name="perthousand" unicode="&#x2030;" horiz-adv-x="893"
d="M737 237q24 0 45.5 -9.5t37.5 -25.5t25.5 -38t9.5 -46q0 -25 -9.5 -46.5t-25.5 -37.5t-37.5 -25.5t-45.5 -9.5q-25 0 -46.5 9.5t-37.5 25.5t-25.5 37.5t-9.5 46.5q0 24 9.5 46t25.5 38t37.5 25.5t46.5 9.5zM737 57q25 0 43 17.5t18 43.5t-18 43.5t-43 17.5
q-26 0 -44 -17.5t-18 -43.5t18 -43.5t44 -17.5zM437 237q24 0 45.5 -9.5t37.5 -25.5t25.5 -38t9.5 -46q0 -25 -9.5 -46.5t-25.5 -37.5t-37.5 -25.5t-45.5 -9.5q-25 0 -46.5 9.5t-37.5 25.5t-25.5 37.5t-9.5 46.5q0 24 9.5 46t25.5 38t37.5 25.5t46.5 9.5zM437 57
q25 0 43 17.5t18 43.5t-18 43.5t-43 17.5q-26 0 -44 -17.5t-18 -43.5t18 -43.5t44 -17.5zM275 518q0 -25 -9.5 -46.5t-25.5 -37.5t-37.5 -25.5t-45.5 -9.5q-25 0 -46.5 9.5t-37.5 25.5t-25.5 37.5t-9.5 46.5q0 24 9.5 46t25.5 38t37.5 25.5t46.5 9.5q24 0 45.5 -9.5
t37.5 -25.5t25.5 -38t9.5 -46zM95 518q0 -26 18 -43.5t44 -17.5q25 0 43 17.5t18 43.5t-18 43.5t-43 17.5q-26 0 -44 -17.5t-18 -43.5zM451 637q11 -6 15.5 -18.5t-1.5 -24.5l-280 -580q-5 -12 -17.5 -16.5t-24.5 1.5t-16.5 18.5t1.5 24.5l280 580q6 12 18.5 16t24.5 -1z
" />
    <glyph glyph-name="percent" unicode="%" horiz-adv-x="593"
d="M437 237q24 0 46 -9.5t38 -25.5t25.5 -38t9.5 -46q0 -25 -9.5 -46.5t-25.5 -37.5t-38 -25.5t-46 -9.5q-25 0 -46.5 9.5t-37.5 25.5t-25.5 37.5t-9.5 46.5q0 24 9.5 46t25.5 38t37.5 25.5t46.5 9.5zM437 57q26 0 43.5 17.5t17.5 43.5t-17.5 43.5t-43.5 17.5t-43.5 -17.5
t-17.5 -43.5t17.5 -43.5t43.5 -17.5zM276 518q0 -25 -9.5 -46.5t-25.5 -37.5t-38 -25.5t-46 -9.5q-25 0 -46.5 9.5t-37.5 25.5t-25.5 37.5t-9.5 46.5q0 24 9.5 46t25.5 38t37.5 25.5t46.5 9.5q24 0 46 -9.5t38 -25.5t25.5 -38t9.5 -46zM96 518q0 -26 17.5 -43.5t43.5 -17.5
t43.5 17.5t17.5 43.5t-17.5 43.5t-43.5 17.5t-43.5 -17.5t-17.5 -43.5zM451 637q12 -6 16 -18.5t-1 -24.5l-280 -580q-6 -12 -18.5 -16.5t-24.5 1.5t-16.5 18.5t1.5 24.5l280 580q6 12 18.5 16t24.5 -1z" />
    <glyph glyph-name="numbersign" unicode="#" horiz-adv-x="458"
d="M340 377v-99h69q13 0 22 -8.5t9 -21.5t-9 -22t-22 -9h-69v-189q0 -13 -9 -22t-22 -9t-21.5 9t-8.5 22v189h-99v-189q0 -13 -9 -22t-22 -9t-21.5 9t-8.5 22v189h-70q-13 0 -21.5 9t-8.5 22t8.5 21.5t21.5 8.5h70v99h-70q-13 0 -21.5 9t-8.5 22t8.5 21.5t21.5 8.5h70v170
q0 13 8.5 21.5t21.5 8.5t22 -8.5t9 -21.5v-170h99v170q0 13 8.5 21.5t21.5 8.5t22 -8.5t9 -21.5v-170h69q13 0 22 -8.5t9 -21.5t-9 -22t-22 -9h-69zM279 377h-99v-99h99v99z" />
    <glyph glyph-name="paragraph" unicode="&#xb6;" horiz-adv-x="480"
d="M434 634q13 0 22 -8.5t9 -21.5t-9 -22t-22 -9h-39v-625q0 -13 -9 -22t-22 -9t-21.5 9t-8.5 22v625h-79v-625q0 -13 -9 -22t-22 -9t-21.5 9t-8.5 22v385h-10q-31 0 -58.5 12t-47.5 32.5t-32 48t-12 58.5t12 58.5t32 47.5t47.5 32t58.5 12h250zM194 573h-10q-37 0 -63 -26
t-26 -63t26 -63.5t63 -26.5h10v179z" />
    <glyph glyph-name="uni0192" unicode="&#x192;" horiz-adv-x="500"
d="M349 653q35 12 71.5 3.5t62.5 -35.5q10 -9 10 -22t-10 -23q-9 -9 -22.5 -9t-22.5 9q-14 14 -32.5 18.5t-36.5 -1.5q-19 -6 -31.5 -20.5t-14.5 -34.5l-13 -82h62q14 0 23 -9t9 -23t-9 -23t-23 -9h-72l-60 -384q-6 -38 -30 -66t-59 -40q-36 -11 -72 -2.5t-63 35.5
q-9 9 -9 22t9 23q10 9 23 9t23 -9q14 -14 32 -18.5t37 1.5q18 6 30.5 20.5t15.5 34.5l58 374h-63q-13 0 -22.5 9t-9.5 23t9.5 23t22.5 9h73l14 92q6 38 30 66t60 39z" />
    <glyph glyph-name="dagger" unicode="&#x2020;" horiz-adv-x="420"
d="M330 456q14 0 23 -9t9 -23t-9 -23t-23 -9h-88v-444q0 -14 -9 -23t-23 -9q-13 0 -22.5 9t-9.5 23v444h-88q-13 0 -22.5 9t-9.5 23t9.5 23t22.5 9h88v152q0 14 9.5 23t22.5 9q14 0 23 -9t9 -23v-152h88v0z" />
    <glyph glyph-name="daggerdbl" unicode="&#x2021;" horiz-adv-x="420"
d="M242 392v-228h88q14 0 23 -9t9 -23t-9 -23t-23 -9h-88v-152q0 -14 -9 -23t-23 -9q-13 0 -22.5 9t-9.5 23v152h-88q-13 0 -22.5 9t-9.5 23t9.5 23t22.5 9h88v228h-88q-13 0 -22.5 9t-9.5 23t9.5 23t22.5 9h88v152q0 14 9.5 23t22.5 9q14 0 23 -9t9 -23v-152h88q14 0 23 -9
t9 -23t-9 -23t-23 -9h-88z" />
    <glyph glyph-name="Scaron" unicode="&#x160;" horiz-adv-x="387"
d="M298 262q23 -24 34.5 -55.5t8.5 -65.5q-2 -34 -18 -63.5t-43 -49.5t-60 -28t-66 -1t-60.5 26.5t-44.5 48.5q-7 12 -3.5 24.5t15.5 19.5q11 7 24 3.5t19 -15.5q22 -36 62 -44q42 -8 75 17q16 12 25.5 29.5t11.5 37.5t-5 39t-21 33l-160 164q-23 23 -34 54t-9 63
q3 33 18.5 61.5t41.5 48.5t58 27.5t64 0.5t58.5 -25.5t43.5 -47.5q6 -11 2.5 -24t-14.5 -20t-24 -3t-20 15q-9 17 -24.5 27.5t-34.5 14.5q-38 8 -70 -16t-35 -63q-3 -40 25 -68zM272 832q11 8 23 6.5t20 -11.5q8 -11 6.5 -23t-11.5 -20l-90 -70q-8 -7 -19 -7t-19 7l-90 70
q-10 8 -11.5 20t6.5 23q8 10 20 11.5t23 -6.5q13 -11 26 -21q11 -9 23.5 -18t21.5 -16q8 7 20.5 16t23.5 18q13 10 27 21z" />
    <glyph glyph-name="Zcaron" unicode="&#x17d;" horiz-adv-x="384"
d="M344 604q0 -6 -3 -12q-54 -128 -99 -236q-19 -46 -38.5 -92.5t-36 -86t-29 -69.5t-18.5 -44h192q14 0 23 -9t9 -23t-9 -23t-23 -9h-240q-18 0 -27 14q-5 10 -5 18q0 4 2 12q53 127 99 235q19 46 38.5 92t36 86t29.5 70.5t19 44.5h-192q-14 0 -23 9t-9 23t9 23t23 9h240
q18 0 27 -14q5 -10 5 -18zM263 832q11 8 23 6.5t20 -11.5q8 -11 6.5 -23t-11.5 -20l-90 -70q-8 -7 -19 -7t-19 7l-90 70q-10 8 -11.5 20t6.5 23q8 10 20 11.5t23 -6.5q13 -11 26 -21q11 -9 23.5 -18t21.5 -16q8 7 20.5 16t23.5 18q13 10 27 21z" />
    <glyph glyph-name="scaron" unicode="&#x161;" horiz-adv-x="329"
d="M227 224q23 -17 36.5 -41t15.5 -53t-8.5 -54.5t-31.5 -44.5q-21 -20 -47.5 -28t-54.5 -4q-29 5 -52 20.5t-37 40.5q-6 11 -3 23t14 18t23 3t18 -14q16 -26 46 -31q29 -5 53 16q23 21 20 51q-2 30 -27 48l-93 66q-23 16 -36 39.5t-15 50.5q-2 28 8.5 53t30.5 43
q20 19 46 27t53 4q27 -5 49.5 -20t36.5 -39q6 -11 3 -23t-14 -18t-23 -3t-18 14q-14 24 -43 29t-50 -15q-21 -19 -19 -48t26 -45zM240 630q10 8 21.5 6.5t18.5 -11.5q8 -9 6.5 -20.5t-11.5 -19.5l-90 -70q-17 -13 -35 0l-90 70q-9 8 -10.5 19.5t5.5 20.5q8 10 19.5 11.5
t20.5 -6.5q15 -10 28 -21q11 -9 23.5 -18.5t21.5 -16.5q8 7 21 16.5t24 18.5q13 11 27 21z" />
    <glyph glyph-name="zcaron" unicode="&#x17e;" horiz-adv-x="344"
d="M302 424q0 -7 -3 -14q-41 -79 -76 -148q-15 -29 -30.5 -59.5t-29 -57.5t-25 -48.5t-17.5 -34.5h151q13 0 21.5 -8.5t8.5 -21.5t-8.5 -21.5t-21.5 -8.5h-200q-17 0 -26 14q-4 7 -4 16q0 6 3 14q41 79 76 148q15 29 30.5 59t29 57l24.5 49t18 35h-151q-13 0 -21.5 8.5
t-8.5 21.5t8.5 21.5t21.5 8.5h200q17 0 26 -14q4 -10 4 -16zM59 625q8 10 19.5 11.5t20.5 -6.5q15 -10 28 -21q11 -9 23.5 -18.5t21.5 -16.5q8 7 21 16.5t24 18.5q13 11 27 21q10 8 21.5 6.5t18.5 -11.5q8 -9 6.5 -20.5t-11.5 -19.5l-90 -70q-17 -13 -35 0l-90 70
q-9 8 -10.5 19.5t5.5 20.5z" />
    <glyph glyph-name="Lslash" unicode="&#x141;" horiz-adv-x="375"
d="M315 64q14 0 23 -9t9 -23t-9 -23t-23 -9h-200q-14 0 -23 9t-9 23v241l-30 -18q-11 -7 -24 -3t-20 15t-3 24t15 20l62 35v262q0 14 9 23t23 9t23 -9t9 -23v-225l56 33q11 6 24 2.5t20 -14.5q6 -11 2.5 -24t-14.5 -20l-88 -51v-245h168v0z" />
    <glyph glyph-name="lslash" unicode="&#x142;" horiz-adv-x="238"
d="M182 399q11 6 23 3t18 -14t3 -23t-14 -18l-63 -36v-214q0 -14 7 -25t18 -18q11 -6 14 -18t-3 -23t-18 -14t-23 3q-26 15 -40.5 40.5t-14.5 54.5v179l-33 -19q-11 -6 -23 -3t-18 14t-3 23t14 18l63 36v283q0 13 8.5 21.5t21.5 8.5t21.5 -8.5t8.5 -21.5v-248l33 19v0z" />
    <glyph glyph-name="uni00B5" unicode="&#xb5;" horiz-adv-x="400"
d="M300 458q13 0 21.5 -8.5t8.5 -21.5v-400q0 -13 -8.5 -21.5t-21.5 -8.5q-11 0 -18.5 6t-10.5 15q-32 -21 -71 -21t-70 20v-190q0 -13 -8.5 -21.5t-21.5 -8.5t-21.5 8.5t-8.5 21.5v600q0 13 8.5 21.5t21.5 8.5t21.5 -8.5t8.5 -21.5v-300q0 -29 20.5 -49.5t49.5 -20.5
t49.5 20.5t20.5 49.5v300q0 13 8.5 21.5t21.5 8.5z" />
    <glyph glyph-name="threequarters" unicode="&#xbe;" horiz-adv-x="628"
d="M223 378q0 -34 -20.5 -60.5t-52.5 -34.5q-33 -9 -64 4t-48 42q-6 10 -3 21.5t14 17.5t22 3t17 -14q8 -12 20.5 -17.5t26.5 -1.5t22 15t8 25v20q0 17 -12 29t-29 12q-12 0 -20.5 8.5t-8.5 20.5t8.5 20.5t20.5 8.5q23 0 36 20q11 21 0 42q-13 20 -36 20t-36 -20
q-6 -11 -17 -14t-22 3t-14 17.5t3 21.5q14 23 37 36.5t49 13.5t49 -13.5t36 -36.5q14 -23 14 -49t-14 -49q-6 -12 -15 -21q14 -14 21.5 -32t7.5 -38v-20zM566 137q12 0 20.5 -8.5t8.5 -20.5t-8.5 -20.5t-20.5 -8.5h-23v-51q0 -12 -8.5 -20.5t-20.5 -8.5t-20.5 8.5t-8.5 20.5
v51h-100q-16 0 -24 13q-9 13 -3 27l89 220q5 11 16 16t22 0q18 -8 18 -27q0 -3 -0.5 -5.5t-1.5 -5.5q-15 -37 -29 -70q-12 -29 -24.5 -59.5t-20.5 -50.5h58v31q0 12 8.5 20.5t20.5 8.5t20.5 -8.5t8.5 -20.5v-31h23zM468 637q12 -6 16 -18.5t-1 -24.5l-280 -580
q-6 -12 -18.5 -16.5t-24.5 1.5t-16.5 18.5t1.5 24.5l280 580q6 12 18.5 16t24.5 -1z" />
    <glyph glyph-name="onequarter" unicode="&#xbc;" horiz-adv-x="598"
d="M115 539q-8 -8 -15 -15.5t-12 -12.5q-6 -7 -12 -12q-9 -8 -21 -8t-20 8t-8 20t8 21l89 88q12 14 31 7q18 -8 18 -27v-300q0 -12 -8.5 -20.5t-20.5 -8.5t-20.5 8.5t-8.5 20.5v231zM536 137q12 0 20.5 -8.5t8.5 -20.5t-8.5 -20.5t-20.5 -8.5h-23v-51q0 -12 -8.5 -20.5
t-20.5 -8.5t-20.5 8.5t-8.5 20.5v51h-100q-16 0 -24 13q-9 13 -3 27l89 220q5 11 16 16t22 0q18 -8 18 -27q0 -3 -0.5 -5.5t-1.5 -5.5q-15 -37 -29 -70q-12 -29 -24.5 -59.5t-20.5 -50.5h58v31q0 12 8.5 20.5t20.5 8.5t20.5 -8.5t8.5 -20.5v-31h23zM438 637q12 -6 16 -18.5
t-1 -24.5l-280 -580q-6 -12 -18.5 -16.5t-24.5 1.5t-16.5 18.5t1.5 24.5l280 580q6 12 18.5 16t24.5 -1z" />
    <glyph glyph-name="onehalf" unicode="&#xbd;" horiz-adv-x="596"
d="M115 539q-8 -8 -15 -15.5t-12 -12.5q-6 -7 -12 -12q-9 -8 -21 -8t-20 8t-8 20t8 21l89 88q12 14 31 7q18 -8 18 -27v-300q0 -12 -8.5 -20.5t-20.5 -8.5t-20.5 8.5t-8.5 20.5v231zM547 205q-16 -27 -33 -53q-14 -23 -30 -47.5t-28 -43.5h78q12 0 20.5 -8.5t8.5 -20.5
t-8.5 -20.5t-20.5 -8.5h-131q-17 0 -25 15q-4 7 -4 15t5 14l120 189q10 14 5 31q-3 16 -19 26q-14 10 -31 5q-16 -4 -26 -19q-6 -11 -17 -14t-22 3t-14 17.5t3 21.5q21 36 61 47q41 9 76 -12q36 -20 45 -62q9 -41 -13 -75zM438 637q12 -6 16 -18.5t-1 -24.5l-280 -580
q-6 -12 -18.5 -16.5t-24.5 1.5t-16.5 18.5t1.5 24.5l280 580q6 12 18.5 16t24.5 -1z" />
    <glyph glyph-name="onesuperior" unicode="&#xb9;" horiz-adv-x="234"
d="M155 635q18 -8 18 -27v-300q0 -12 -8.5 -20.5t-20.5 -8.5t-20.5 8.5t-8.5 20.5v231q-8 -8 -15 -15.5t-12 -12.5q-6 -7 -12 -12q-9 -8 -21 -8t-20 8t-8 20t8 21l89 88q12 14 31 7z" />
    <glyph glyph-name="twosuperior" unicode="&#xb2;" horiz-adv-x="297"
d="M227 485q-16 -27 -33 -53q-14 -23 -30 -47.5t-28 -43.5h78q12 0 20.5 -8.5t8.5 -20.5t-8.5 -20.5t-20.5 -8.5h-131q-17 0 -25 15q-4 7 -4 15t5 14l120 189q10 14 5 31q-3 16 -19 26q-14 10 -31 5q-16 -4 -26 -19q-6 -11 -17 -14t-22 3t-14 17.5t3 21.5q21 36 61 47
q41 9 76 -12q36 -20 45 -62q9 -41 -13 -75z" />
    <glyph glyph-name="threesuperior" unicode="&#xb3;" horiz-adv-x="296"
d="M213 468q14 -14 21.5 -32t7.5 -38v-20q0 -34 -20.5 -60.5t-52.5 -34.5q-33 -9 -64 4t-48 42q-6 10 -3 21.5t14 17.5t22 3t17 -14q8 -12 20.5 -17.5t26.5 -1.5t22 15t8 25v20q0 17 -12 29t-29 12q-12 0 -20.5 8.5t-8.5 20.5t8.5 20.5t20.5 8.5q23 0 36 20q11 21 0 42
q-13 20 -36 20t-36 -20q-6 -11 -17 -14t-22 3t-14 17.5t3 21.5q14 23 37 36.5t49 13.5t49 -13.5t36 -36.5q14 -23 14 -49t-14 -49q-6 -12 -15 -21z" />
    <glyph glyph-name="ordfeminine" unicode="&#xaa;" horiz-adv-x="305"
d="M179 633q32 -8 52.5 -34.5t20.5 -60.5v-210q0 -12 -8.5 -20.5t-20.5 -8.5h-70q-42 0 -70.5 28.5t-28.5 70.5q0 20 7.5 38t21 31.5t31.5 21.5t39 8h41v41q0 14 -8 25t-22 15t-26.5 -1.5t-20.5 -17.5q-6 -11 -17 -14t-22 3t-14 17.5t3 21.5q17 29 48 42t64 4zM112 398
q0 -17 12 -29t29 -12h41v82h-41q-17 0 -29 -12t-12 -29z" />
    <glyph glyph-name="ordmasculine" unicode="&#xba;" horiz-adv-x="305"
d="M153 637q20 0 38 -8t31.5 -21.5t21.5 -31.5t8 -38v-140q0 -21 -8 -39t-21.5 -31.5t-31.5 -21t-38 -7.5q-42 0 -70.5 28.5t-28.5 70.5v140q0 20 7.5 38t21 31.5t31.5 21.5t39 8zM153 357q17 0 29 12t12 29v140q0 17 -12 29t-29 12t-29 -12t-12 -29v-140q0 -17 12 -29
t29 -12z" />
    <glyph glyph-name="section" unicode="&#xa7;"
d="M290 383q27 -21 39 -52.5t5 -64.5q-4 -20 -14 -37.5t-24 -31.5q28 -33 28 -77q1 -27 -10 -52t-32 -42q-44 -37 -100 -28q-27 5 -49 20t-36 39q-7 11 -3.5 24t15.5 20q11 6 23.5 2.5t19.5 -14.5q14 -23 41 -28q26 -5 47 13q10 8 15.5 20t4.5 25q0 28 -21 44l-112 89h-1
q-26 22 -38 53.5t-5 64.5q8 42 38 69q-27 32 -29 77q0 27 11 52t32 42q20 18 46.5 25.5t53.5 2.5t49 -20t36 -39q7 -11 3.5 -24t-15.5 -20q-11 -7 -23.5 -3t-19.5 15q-14 23 -41 28q-26 5 -47 -13q-21 -17 -21 -45q2 -28 22 -44zM246 239q10 7 16.5 17t8.5 21q3 16 -2.5 31
t-17.5 25l-80 64q-21 -15 -26 -38q-6 -35 21 -56z" />
    <glyph glyph-name="phi" unicode="&#x3c6;" horiz-adv-x="544"
d="M415 511q41 -32 65 -79.5t24 -103.5q0 -47 -17.5 -89t-50.5 -75t-75 -50.5t-89 -17.5q-45 0 -87 17l-30 -52q-7 -12 -20 -15.5t-24 3.5t-15 19.5t3 24.5l30 52q-41 32 -65 79.5t-24 103.5q0 48 18 90t49.5 73.5t74 50t90.5 18.5q45 0 87 -17l30 52q7 11 20 15t24 -3
t14.5 -20t-2.5 -24zM104 328q0 -38 15.5 -71t42.5 -56l165 286q-26 9 -55 9q-35 0 -65.5 -13t-53.5 -36t-36 -53.5t-13 -65.5zM391 209q23 24 36 54.5t13 64.5q0 38 -15.5 71t-42.5 56l-165 -286q25 -9 55 -9q70 0 119 49z" />
    <glyph glyph-name="P" unicode="P" horiz-adv-x="400"
d="M68 604q0 14 9 23t23 9h120q31 0 59 -12t48.5 -32.5t32.5 -48.5t12 -59v-56q0 -32 -12 -59.5t-32.5 -48t-48.5 -32.5t-59 -12h-88v-248q0 -14 -9 -23t-23 -9t-23 9t-9 23v576zM308 484q0 18 -7 34t-19 28t-28 19t-34 7h-88v-232h88q36 0 62 25.5t26 62.5v56z" />
    <glyph glyph-name="asciitilde" unicode="~"
d="M360 303q11 -7 13.5 -19t-4.5 -23q-14 -21 -35 -34.5t-45 -17.5q-51 -9 -93 22l-12 9q-20 16 -46 11q-25 -5 -39 -26q-7 -11 -19 -13.5t-23 5.5q-11 7 -13.5 19t4.5 23q28 44 80 52q24 5 48.5 -1t44.5 -21l12 -9q20 -16 46 -11q25 5 39 26q7 11 19 13t23 -5z" />
    <glyph glyph-name="currency" unicode="&#xa4;" horiz-adv-x="700"
d="M664 403q5 -3 5 -10v-296q0 -8 -7 -11l-60 -30l-121 -61l-61 -30l-1 -1h-1q-1 -1 -3 -1q-3 0 -3 1h-1q-1 0 -2 1l-363 181q-7 3 -7 11v297q0 1 1 2v1q0 1 1 2v1l121 208q5 10 16 5l363 -181l1 -1h1zM68 459l342 -171l109 188l-342 170zM403 265l-339 169v-270l339 -169
v270zM585 74l-1 269l-97 -48v-270zM645 387l-106 76l-112 -194v-274l36 18v289q0 7 7 11l121 61q4 3 12 -1q5 -3 5 -10l1 -277l36 18v283zM151 210q-7 3 -7 11v123q0 6 6 11q5 3 12 0l146 -73q7 -4 7 -11v-123q0 -8 -6 -11q-4 -2 -6 -2t-6 2zM169 228l122 -61v97l-122 61
v-97z" />
    </font>
</defs>
</svg>
