<?xml version="1.0" encoding="UTF-8"?>
<svg width="21.41" height="24" version="1.1" viewBox="0 0 21.41 24" fill="#BC202A" xmlns="http://www.w3.org/2000/svg">
 <path d="m17.646 21.816-2.7711-5.2534c-0.29636-0.56179-0.08112-1.2575 0.48067-1.5538 0.53761-0.28347 1.1998-0.09534 1.5153 0.4133l3.1193 5.0546c0.39158 0.6348 0.19462 1.4669-0.44018 1.8585-0.6348 0.39183-1.4669 0.19475-1.8586-0.43993-0.01538-0.02515-0.03165-0.05362-0.04527-0.07927" stroke-width=".12271"/>
 <path d="m14.363 10.325s0.05104-0.0134 0.14972-0.03929c0.01843-0.0052 0.03892-0.01097 0.06176-0.01732 0.02632-8e-3 0.05526-0.01657 0.08658-0.02608 0.06287-0.01947 0.13598-0.04342 0.21896-0.0721 0.32987-0.11714 0.82692-0.32025 1.4027-0.67682 0.56978-0.3542 1.2289-0.86784 1.7298-1.5653 0.50029-0.69866 0.80059-1.5482 0.6379-2.5351-0.0378-0.24703-0.1073-0.50279-0.20124-0.76416-0.01062-0.032684-0.02495-0.065386-0.03729-0.098181l-0.0192-0.049285-0.0095-0.024828c0.01985 0.042548-0.05128-0.11266 0.0433 0.092319l-0.0079-0.015067-0.06177-0.1204-0.03107-0.060511-0.0152-0.029819-0.01159-0.019208c-0.03236-0.05266-0.05393-0.099061-0.09324-0.1592-0.03706-0.057885-0.0721-0.11852-0.1123-0.17317-0.30866-0.45376-0.69879-0.80995-1.1636-1.0284-0.46361-0.21883-1.0179-0.30105-1.6117-0.2217-0.59199 0.07672-1.2112 0.31976-1.7605 0.69068-0.55045 0.36992-1.0303 0.87121-1.3547 1.4439-0.16444 0.28533-0.28583 0.589-0.36754 0.89978-0.03942 0.15582-0.06712 0.31365-0.08496 0.47284-0.0095 0.079475-0.01377 0.15945-0.01769 0.23967l-0.0069 0.32263c-0.0075 0.22906 6.23e-4 0.43853 6.23e-4 0.65861 0.0017 0.21783 0.0036 0.43604 0.0052 0.6545-0.0012 0.43192 0.01638 0.88643 0.03032 1.3374 0.01415 0.45139 0.02807 0.90364 0.04218 1.3563 0.01507 0.45276 0.02446 0.90502 0.05091 1.3605 0.04554 0.90951 0.09096 1.819 0.13637 2.725 0.02258 0.45301 0.04515 0.90514 0.06775 1.3559l0.01675 0.33785 0.0119 0.37454-0.0016 0.40946c-0.0058 0.13011-0.0097 0.2595-0.01787 0.38963-0.06837 1.0383-0.31528 2.111-0.8384 3.086-0.26248 0.4847-0.58799 0.94195-0.97462 1.3404-0.38439 0.40011-0.82592 0.7422-1.2983 1.0127-0.94681 0.54458-2.0044 0.80146-3.0263 0.80995-1.0239 0.008562-2.0251-0.2247-2.9109-0.67908-0.88505-0.45101-1.6502-1.1429-2.1577-1.9723-0.12513-0.2076-0.23867-0.4202-0.33261-0.6384-0.025201-0.053896-0.046419-0.10906-0.067861-0.16407l-0.069126-0.18042c-0.028942-0.085327-0.057885-0.17017-0.086715-0.25463-0.032553-0.10517-0.067116-0.22944-0.098441-0.34284-0.031306-0.1154-0.049286-0.21446-0.073612-0.32188-0.024959-0.10492-0.037932-0.21047-0.055763-0.31515-0.018612-0.10467-0.029947-0.2091-0.040296-0.3129-0.17243-1.6664 0.26087-3.1785 0.9417-4.3336 0.3371-0.58201 0.7442-1.0738 1.165-1.4785 0.42169-0.40522 0.8601-0.72087 1.2753-0.9649 0.20673-0.12476 0.41096-0.22394 0.60297-0.31789 0.096823-0.04417 0.19238-0.08296 0.28395-0.12213 0.091332-0.04017 0.18078-0.07523 0.26799-0.10468 0.17367-0.063 0.33486-0.11914 0.4847-0.15919 0.14922-0.04441 0.28508-0.0821 0.40772-0.10741 0.12251-0.02708 0.23056-0.05414 0.32413-0.07099 0.093696-0.01582 0.17254-0.02907 0.23592-0.03979 0.12701-0.02109 0.19251-0.03181 0.19251-0.03181 0.63641-0.10518 1.2375 0.3255 1.3427 0.96191 0.10404 0.63017-0.31727 1.2258-0.94344 1.3393l-0.068121 0.01228s-0.047163 0.0085-0.13861 0.02507c-0.045656 8e-3 -0.10242 0.01805-0.16993 0.02982-0.067117 0.01248-0.14261 0.03356-0.22931 0.05316-0.08759 0.01805-0.18177 0.04603-0.28495 0.0781-0.10505 0.02794-0.21471 0.06874-0.33299 0.11279-0.060267 0.02008-0.12065 0.04467-0.18166 0.07287-0.061625 0.02706-0.12526 0.05501-0.19101 0.08383-0.12701 0.06525-0.26374 0.13137-0.39874 0.21584-0.54259 0.3265-1.1391 0.84014-1.5792 1.6129-0.11404 0.18964-0.2071 0.40023-0.29756 0.61819-0.085842 0.22045-0.1562 0.45413-0.21409 0.69741-0.10616 0.48794-0.14972 1.0197-0.084965 1.5531 0.00707 0.06675 0.014335 0.13375 0.027565 0.19974 0.01265 0.06576 0.01958 0.13384 0.037189 0.19862 0.015634 0.06314 0.029202 0.13761 0.045544 0.19225 0.016 0.05626 0.03207 0.11279 0.04815 0.16943 0.029575 0.08421 0.059262 0.16868 0.089209 0.25364 0.00335 0.0099-0.00855-0.02409-0.00137-0.0046l0.00447 0.0108 0.00893 0.02184 0.017685 0.04366c0.011552 0.02931 0.022576 0.05889 0.036927 0.08696 0.050401 0.11539 0.1124 0.22569 0.17842 0.33461 0.27098 0.43005 0.6802 0.80296 1.1982 1.0616 0.51564 0.25913 1.1335 0.40061 1.7604 0.38788 0.62667-0.01117 1.2588-0.17716 1.7976-0.49518 0.54046-0.31702 0.98449-0.7845 1.2925-1.3715 0.30791-0.58737 0.47746-1.2936 0.51975-2.0496l0.010417-0.28592-6.21e-4 -0.26799-0.011726-0.30342-0.020083-0.34072c-0.02669-0.45463-0.053529-0.91063-0.08035-1.3675-0.053642-0.91386-0.10754-1.8312-0.16145-2.7486-0.030692-0.45775-0.044409-0.92011-0.063748-1.3806-0.018426-0.46062-0.036685-0.92086-0.055018-1.3802-0.018054-0.45962-0.039924-0.91387-0.043162-1.3888-0.0037163-0.2348-0.007451-0.46935-0.011167-0.7034-0.0020504-0.23181-0.01135-0.47359-0.0059498-0.69467l0.00483-0.35195c0.0055867-0.14436 0.013971-0.28832 0.029822-0.43167 0.030566-0.28645 0.080094-0.57016 0.14946-0.84738 0.14136-0.55319 0.35444-1.0804 0.62816-1.5614 0.54558-0.96577 1.306-1.7549 2.1746-2.3459 0.86971-0.58962 1.8567-0.99335 2.9026-1.1371 0.52188-0.070746 1.0574-0.078842 1.586-0.0044669 0.52836 0.070746 1.0481 0.2232 1.5279 0.44577 0.9659 0.44565 1.7311 1.1743 2.2529 1.9398 0.06836 0.095202 0.12789 0.19276 0.18914 0.28957 0.06063 0.093696 0.12313 0.20985 0.18265 0.31377l0.02233 0.040054 0.01593 0.03056 0.03131 0.060267 0.06226 0.12027 0.0079 0.014902c0.09981 0.21484 0.03207 0.070484 0.05613 0.12338l0.01519 0.037932 0.02995 0.075974c0.01959 0.051036 0.04053 0.10067 0.05838 0.15245 0.14946 0.40934 0.26649 0.83203 0.33536 1.2631 0.14386 0.85998 0.09271 1.7452-0.12502 2.527-0.21472 0.78487-0.5724 1.4628-0.96989 2.0215-0.39923 0.56079-0.83602 1.0134-1.2634 1.388-0.4283 0.37466-0.8485 0.67358-1.2407 0.91911-0.78525 0.48969-1.4593 0.76928-1.9354 0.9402-0.1194 0.04205-0.22632 0.07748-0.31951 0.10654-0.04679 0.01434-0.09008 0.02745-0.12937 0.03942-0.04342 0.01228-0.08247 0.02332-0.11741 0.03318-0.1154 0.03093-0.17505 0.04679-0.17505 0.04679-0.73232 0.19538-1.4844-0.23992-1.6798-0.97226-0.19538-0.73235 0.23992-1.4843 0.97226-1.6798l0.0046-0.0012z" stroke-width=".12476"/>
</svg>
